<?xml version="1.0" encoding="UTF-8"?>
<svg width="18px" height="20px" viewBox="0 0 18 20" version="1.1" xmlns="http://www.w3.org/2000/svg" xmlns:xlink="http://www.w3.org/1999/xlink">
    <!-- Generator: Sketch 52.6 (67491) - http://www.bohemiancoding.com/sketch -->
    <title>clutch</title>
    <desc>Created with Sketch.</desc>
    <g id="Page-1" stroke="none" stroke-width="1" fill="none" fill-rule="evenodd">
        <g id="clutch" fill="#FFF">
            <path d="M13.5308642,14.1234568 C12.5030786,15.0316737 11.1739141,15.5246088 9.80246913,15.5061729 C6.64197531,15.5061729 4.32098766,13.1851852 4.32098766,10 C4.32098766,6.81481481 6.56790123,4.59259259 9.80246913,4.59259259 C11.176983,4.5740056 12.5111952,5.05677974 13.5555556,5.95061729 L14.2469136,6.54320988 L17.308642,3.48148148 L16.5432099,2.7654321 C14.6912903,1.11088234 12.2855973,0.212051953 9.80246913,0.24691358 C4.12345679,0.24691358 0,4.34567901 0,9.97530864 C0,15.6049382 4.22222222,19.8271604 9.80246913,19.8271604 C12.3091512,19.8607413 14.735433,18.9431657 16.5925926,17.2592592 L17.3333333,16.5679012 L14.2222222,13.5061729 L13.5308642,14.1234568 Z" id="Path"></path>
            <circle id="Oval" cx="9.65432099" cy="10.0246914" r="3.28395062"></circle>
        </g>
    </g>
</svg>
