<svg xmlns="http://www.w3.org/2000/svg" viewBox="0 0 1960 1200"><defs><style>.cls-1{font-size:24px;fill:#414042;font-family:Circe-Regular, Circe;}.cls-2{letter-spacing:-0.02em;}.cls-3{letter-spacing:0em;}.cls-4{letter-spacing:-0.01em;}.cls-5{letter-spacing:-0.04em;}.cls-6{letter-spacing:-0.04em;}.cls-7{letter-spacing:0em;}.cls-8{letter-spacing:0.02em;}.cls-9{letter-spacing:-0.01em;}.cls-10{letter-spacing:-0.13em;}.cls-11{letter-spacing:-0.05em;}.cls-12{letter-spacing:-0.01em;}.cls-13{letter-spacing:-0.05em;}.cls-14{letter-spacing:-0.1em;}.cls-15{letter-spacing:-0.01em;}.cls-16{letter-spacing:-0.05em;}.cls-17{letter-spacing:-0.12em;}.cls-18{letter-spacing:-0.02em;}.cls-19{letter-spacing:0.02em;}.cls-20{letter-spacing:-0.08em;}.cls-21{letter-spacing:-0.02em;}.cls-22{letter-spacing:-0.05em;}.cls-23{letter-spacing:0.02em;}.cls-24{letter-spacing:-0.04em;}.cls-25{letter-spacing:0.01em;}.cls-26{letter-spacing:-0.02em;}.cls-27{letter-spacing:-0.06em;}.cls-28{letter-spacing:-0.04em;}.cls-29{letter-spacing:0.02em;}.cls-30{letter-spacing:-0.13em;}.cls-31{letter-spacing:-0.1em;}.cls-32{letter-spacing:0.01em;}.cls-33{letter-spacing:-0.02em;}.cls-34{letter-spacing:-0.03em;}.cls-35{letter-spacing:-0.01em;}.cls-36{fill:none;stroke:#231f20;stroke-linecap:round;stroke-linejoin:round;stroke-width:3px;}.cls-37{fill:#ed1c24;}</style></defs><title>Artboard 4</title><g id="Isolation_Mode" data-name="Isolation Mode"><text class="cls-1" transform="translate(107.83 971.66)">Lu<tspan class="cls-2" x="26.16" y="0">x</tspan><tspan class="cls-3" x="37.75" y="0">embourg</tspan><tspan x="0" y="40">Sydn</tspan><tspan class="cls-4" x="51.43" y="40">e</tspan><tspan class="cls-5" x="63.55" y="40">y</tspan><tspan class="cls-6" x="74.4" y="40">,</tspan><tspan class="cls-7" x="78.67" y="40" xml:space="preserve"> Australia</tspan><tspan class="cls-8" x="0" y="80">V</tspan><tspan x="16.25" y="80">ienna</tspan><tspan class="cls-6" x="72.55" y="80">,</tspan><tspan class="cls-7" x="76.82" y="80" xml:space="preserve"> Austria</tspan><tspan x="0" y="120">Montreal</tspan><tspan class="cls-6" x="95.25" y="120">,</tspan><tspan class="cls-7" x="99.53" y="120" xml:space="preserve"> Canada</tspan><tspan x="0" y="160">Braunsch</tspan><tspan class="cls-9" x="95.35" y="160">w</tspan><tspan x="112.15" y="160">eig</tspan><tspan class="cls-6" x="142.92" y="160">,</tspan><tspan class="cls-7" x="147.19" y="160" xml:space="preserve"> Germany</tspan></text><text class="cls-1" transform="translate(420.95 971.66)">Mumbai<tspan class="cls-6" x="84.29" y="0">,</tspan><tspan class="cls-7" x="88.56" y="0" xml:space="preserve"> India</tspan><tspan class="cls-10" x="0" y="40">T</tspan><tspan class="cls-3" x="11.11" y="40">el </tspan><tspan class="cls-11" x="35.95" y="40">A</tspan><tspan x="51.67" y="40">vi</tspan><tspan class="cls-12" x="69.53" y="40">v</tspan><tspan class="cls-13" x="80.66" y="40">-</tspan><tspan class="cls-14" x="88.75" y="40">Y</tspan><tspan class="cls-3" x="100.85" y="40">a</tspan><tspan class="cls-15" x="111.89" y="40">f</tspan><tspan class="cls-3" x="119.59" y="40">o</tspan><tspan class="cls-16" x="133.15" y="40">,</tspan><tspan x="137.42" y="40" xml:space="preserve"> Israel</tspan><tspan class="cls-17" x="0" y="80">T</tspan><tspan class="cls-7" x="11.33" y="80">aran</tspan><tspan class="cls-18" x="54.74" y="80">t</tspan><tspan x="62.78" y="80">o</tspan><tspan class="cls-6" x="76.34" y="80">,</tspan><tspan x="80.62" y="80" xml:space="preserve"> Italy</tspan><tspan x="0" y="120">Nur-Sultan</tspan><tspan class="cls-16" x="115.32" y="120">,</tspan><tspan x="119.59" y="120" xml:space="preserve"> Kazakhstan</tspan><tspan x="0" y="160">Bish</tspan><tspan class="cls-2" x="44.74" y="160">k</tspan><tspan class="cls-3" x="55.94" y="160">e</tspan><tspan class="cls-19" x="68.42" y="160">k</tspan><tspan class="cls-6" x="80.78" y="160">,</tspan><tspan x="85.05" y="160"> </tspan><tspan class="cls-20" x="90.45" y="160">K</tspan><tspan class="cls-3" x="104.21" y="160">yrg</tspan><tspan class="cls-21" x="136.01" y="160">y</tspan><tspan x="147.36" y="160">zstan</tspan></text><text class="cls-1" transform="translate(727.95 971.66)">Ams<tspan class="cls-18" x="46.51" y="0">t</tspan><tspan class="cls-3" x="54.55" y="0">erdam</tspan><tspan class="cls-16" x="118.8" y="0">,</tspan><tspan x="123.07" y="0" xml:space="preserve"> Netherlands</tspan><tspan x="0" y="40">Barnaul</tspan><tspan class="cls-16" x="78.14" y="40">,</tspan><tspan x="82.41" y="40" xml:space="preserve"> Russia</tspan><tspan x="0" y="80">Kazan</tspan><tspan class="cls-6" x="62.57" y="80">,</tspan><tspan x="66.84" y="80" xml:space="preserve"> Russia</tspan><tspan class="cls-22" x="0" y="120">K</tspan><tspan x="14.54" y="120">emer</tspan><tspan class="cls-18" x="66.94" y="120">ov</tspan><tspan class="cls-3" x="91.06" y="120">o</tspan><tspan class="cls-6" x="104.62" y="120">,</tspan><tspan class="cls-7" x="108.89" y="120" xml:space="preserve"> Russia</tspan><tspan class="cls-22" x="0" y="160">K</tspan><tspan class="cls-3" x="14.54" y="160">olomna</tspan><tspan class="cls-6" x="92.11" y="160">,</tspan><tspan x="96.38" y="160" xml:space="preserve"> Russia</tspan></text><text class="cls-1" transform="translate(1038.95 971.66)">N<tspan class="cls-18" x="19.08" y="0">ov</tspan><tspan x="43.2" y="0">osibirs</tspan><tspan class="cls-23" x="111.6" y="0">k</tspan><tspan class="cls-16" x="123.96" y="0">,</tspan><tspan x="128.23" y="0" xml:space="preserve"> Russia</tspan><tspan x="0" y="40">N</tspan><tspan class="cls-18" x="19.08" y="40">o</tspan><tspan x="32.21" y="40">yabrs</tspan><tspan class="cls-23" x="86.69" y="40">k</tspan><tspan class="cls-6" x="99.05" y="40">,</tspan><tspan class="cls-7" x="103.32" y="40" xml:space="preserve"> Russia</tspan><tspan class="cls-24" x="0" y="80">R</tspan><tspan x="14.4" y="80">os</tspan><tspan class="cls-18" x="38.28" y="80">to</tspan><tspan class="cls-12" x="59.45" y="80">v</tspan><tspan class="cls-25" x="70.58" y="80">-</tspan><tspan class="cls-3" x="80.21" y="80">on-don</tspan><tspan class="cls-16" x="156.31" y="80">,</tspan><tspan x="160.58" y="80" xml:space="preserve"> Russia</tspan><tspan x="0" y="120">Sain</tspan><tspan class="cls-26" x="43.82" y="120">t</tspan><tspan class="cls-7" x="51.72" y="120">-</tspan><tspan class="cls-27" x="61.06" y="120">P</tspan><tspan x="74.04" y="120">e</tspan><tspan class="cls-18" x="86.52" y="120">t</tspan><tspan x="94.56" y="120">ersburg</tspan><tspan class="cls-6" x="171.67" y="120">,</tspan><tspan class="cls-7" x="175.94" y="120" xml:space="preserve"> Russia</tspan><tspan x="0" y="160">Sara</tspan><tspan class="cls-18" x="43.42" y="160">to</tspan><tspan class="cls-28" x="64.58" y="160">v</tspan><tspan class="cls-6" x="75.07" y="160">,</tspan><tspan x="79.34" y="160" xml:space="preserve"> Russia</tspan></text><text class="cls-1" transform="translate(1347.43 971.66)">Smolens<tspan class="cls-29" x="88.94" y="0">k</tspan><tspan class="cls-6" x="101.3" y="0">,</tspan><tspan x="105.57" y="0" xml:space="preserve"> Russia</tspan><tspan class="cls-30" x="0" y="40">T</tspan><tspan class="cls-7" x="11.28" y="40">yumen</tspan><tspan class="cls-6" x="80.95" y="40">,</tspan><tspan x="85.22" y="40" xml:space="preserve"> Russia</tspan><tspan class="cls-31" x="0" y="80">Y</tspan><tspan class="cls-7" x="12.1" y="80">uzhn</tspan><tspan class="cls-32" x="63.05" y="80">o</tspan><tspan class="cls-7" x="76.9" y="80">-Sakhalins</tspan><tspan class="cls-29" x="183.33" y="80">k</tspan><tspan class="cls-6" x="195.69" y="80">,</tspan><tspan x="199.96" y="80" xml:space="preserve"> Russia</tspan><tspan x="0" y="120">Bar</tspan><tspan class="cls-33" x="34.01" y="120">c</tspan><tspan class="cls-3" x="45.14" y="120">elona</tspan><tspan class="cls-6" x="102.36" y="120">,</tspan><tspan x="106.63" y="120" xml:space="preserve"> Spain</tspan><tspan x="0" y="160">Madrid</tspan><tspan class="cls-6" x="73.63" y="160">,</tspan><tspan class="cls-7" x="77.9" y="160" xml:space="preserve"> Spain</tspan></text><text class="cls-1" transform="translate(1655.92 971.66)"><tspan class="cls-27">P</tspan><tspan x="12.98" y="0">ort Glasg</tspan><tspan class="cls-9" x="106.2" y="0">o</tspan><tspan class="cls-34" x="119.61" y="0">w</tspan><tspan class="cls-16" x="135.77" y="0">,</tspan><tspan x="140.04" y="0" xml:space="preserve"> UK</tspan><tspan x="0" y="40">New Jers</tspan><tspan class="cls-35" x="93.84" y="40">e</tspan><tspan class="cls-5" x="105.96" y="40">y</tspan><tspan class="cls-6" x="116.81" y="40">,</tspan><tspan class="cls-7" x="121.08" y="40" xml:space="preserve"> USA</tspan><tspan x="0" y="80">Santa Barbara</tspan><tspan class="cls-16" x="139.73" y="80">,</tspan><tspan x="144" y="80" xml:space="preserve"> USA</tspan><tspan class="cls-16" x="0" y="120">W</tspan><tspan x="22.2" y="120">axha</tspan><tspan class="cls-34" x="69.62" y="120">w</tspan><tspan class="cls-16" x="85.77" y="120">,</tspan><tspan x="90.05" y="120" xml:space="preserve"> USA</tspan></text></g><g id="Objects"><polygon class="cls-36" points="535.48 610.48 491.43 566.42 462.82 566.42 448.43 552.04 448.43 516.26 467.6 497.1 508.15 497.1 526.39 515.34 543.29 515.34 543.29 487.23 607.04 423.48 607.04 379.08 644.82 379.08 644.82 344.45 584.38 284.01 549.07 284.01 549.07 348.52 523.94 348.52 484.3 308.88 484.3 281.47 523.98 241.78 523.98 223.4 498.98 223.4 481.33 205.75 481.33 179.09 475.3 179.09 461.29 179.09 461.29 222.39 355.36 222.39 341.61 208.63 293.73 208.63 212.75 208.63 202.56 198.45 143.72 198.45 107.83 234.34 107.83 290.63 145.27 328.07 169.97 328.07 195.31 302.73 254.51 302.73 325.63 373.84 325.63 455.14 396.77 526.28 396.77 546.82 438.71 588.75 482.18 588.75 532.51 639.09 532.51 692.65 573.55 733.69 573.55 819.85 555.54 837.87 555.54 887.56 585.58 917.6 606.79 917.6 606.79 880.97 689.63 798.12 689.63 772.88 736.83 725.69 736.83 685.35 661.96 610.48 535.48 610.48"/><polygon class="cls-36" points="1151.15 764.55 1151.15 805.55 1169.36 805.55 1169.36 781.23 1184.77 765.82 1184.77 747.67 1176.4 739.3 1151.15 764.55"/><polygon class="cls-36" points="569.27 179.09 496.34 179.09 496.34 201.22 541.61 201.22 565.32 224.93 565.32 247.98 599.44 282.1 624.78 256.76 606.96 238.94 618.03 227.86 569.27 179.09"/><polygon class="cls-36" points="1406.63 643.52 1406.63 652.47 1435.25 681.09 1435.25 689.71 1446.8 701.25 1456.8 701.25 1456.8 682.31 1418.01 643.52 1406.63 643.52"/><polygon class="cls-36" points="716.7 79 642.61 79 603 118.61 573.34 118.61 573.34 143.95 625.8 143.95 665.78 183.93 665.78 254.47 696.47 285.16 725.12 285.16 776.62 233.65 799.99 233.65 842.03 191.6 842.03 56.33 739.38 56.33 716.7 79"/><polygon class="cls-36" points="930.5 352.67 930.5 331.16 916.36 317.02 916.36 300.21 901.34 300.21 901.34 368.91 914.26 368.91 930.5 352.67"/><rect class="cls-36" x="1166.06" y="165.74" width="79.45" height="18.33" transform="translate(229.49 903.84) rotate(-45)"/><polygon class="cls-36" points="503.06 144.46 554.88 144.46 554.88 105.75 586.58 105.75 630.38 61.95 520.37 61.95 489.56 92.77 489.56 106.26 503.06 106.26 503.06 144.46"/><rect class="cls-36" x="869.42" y="340.33" width="20.12" height="20.12"/><polygon class="cls-36" points="1658.92 754.96 1650.57 746.6 1650.57 732.54 1637.46 732.54 1637.46 755.97 1629.74 763.7 1617.6 763.7 1606.78 752.88 1606.78 732.54 1573.46 732.54 1543.75 762.25 1543.75 773.63 1520.83 773.63 1498.42 796.04 1498.42 839.84 1519.26 860.68 1551.73 860.68 1568.94 843.47 1595.19 843.47 1634.97 883.25 1667.51 883.25 1697.19 853.57 1697.19 810.64 1658.92 772.37 1658.92 754.96"/><polygon class="cls-36" points="1698.07 186.9 1483.48 186.9 1469.39 172.81 1493.5 148.71 1493.5 135.29 1418.97 135.29 1381.7 172.56 1270.08 172.56 1270.08 195.9 1217.62 195.9 1137.91 275.61 1111.68 275.61 1111.68 253.45 1128.49 253.45 1143.26 238.68 1143.26 213.73 1024.59 213.73 956.6 281.72 956.6 314.57 992 314.57 992 329.85 1021.53 329.85 1021.53 284.01 1051.08 254.47 1061.52 264.91 1043.69 282.74 1043.69 331.38 1029.05 346.02 962.63 346.02 924.02 384.62 924.02 407.61 903.21 407.61 889.12 421.7 889.12 458.2 929.69 458.2 973.15 414.74 1013.73 455.31 1026.28 442.75 1011.76 428.23 1020.29 419.7 1048.3 447.71 1068.8 447.71 1086.05 464.97 1111.68 464.97 1111.68 483.32 1100.48 494.53 1063.81 494.53 1052.6 483.32 1022.72 483.32 1011.86 494.19 989.11 471.44 906.94 471.44 852.95 525.43 852.95 595.2 898.54 640.78 979.26 640.78 979.26 706.4 1003.54 730.68 1003.54 826.6 1035.71 858.77 1067.2 858.77 1099.59 826.39 1099.59 779.74 1132.97 746.36 1132.97 682.63 1180.22 635.38 1180.22 609.29 1152.09 609.29 1119.49 576.7 1119.49 527.46 1131.33 527.46 1131.33 551.18 1172.29 592.14 1186.04 592.14 1221.18 557 1221.18 542.74 1201.83 542.74 1171.27 512.18 1178.91 504.54 1198.27 523.9 1262.95 523.9 1285.36 546.31 1298.09 546.31 1298.09 602.33 1316.17 620.41 1327.63 620.41 1337.18 610.86 1337.18 586.54 1362.45 561.27 1362.45 548.34 1379.33 548.34 1407.21 576.23 1421.6 576.23 1421.6 622.51 1430.34 631.25 1430.34 637.3 1451.9 658.87 1456.4 654.37 1456.4 644.26 1431.32 619.18 1431.32 600.8 1442.06 600.8 1459.03 617.78 1467.69 617.78 1480.34 605.13 1480.34 584.85 1462.9 567.4 1462.9 555.48 1489.08 555.48 1536.45 508.11 1536.45 486.21 1521.68 471.44 1521.68 444.95 1536.32 430.31 1554.02 448.01 1554.02 472.97 1568.03 472.97 1577.7 463.29 1577.7 437.57 1632.84 382.44 1632.84 350.73 1614.88 350.73 1614.88 326.79 1642.89 298.78 1739.66 298.78 1707.07 331.38 1707.07 370.6 1723.88 370.6 1758.51 335.96 1758.51 298.78 1788.39 298.78 1845.01 242.16 1845.01 212.03 1723.2 212.03 1698.07 186.9"/><polygon class="cls-36" points="1733.98 882.82 1744.72 898.56 1772.6 870.67 1772.6 855.65 1769.38 847.42 1733.98 882.82"/><polygon class="cls-36" points="1508.68 706.23 1470.48 706.23 1465.89 710.81 1473.02 717.94 1520.39 717.94 1508.68 706.23"/><polygon class="cls-36" points="1645.44 456.92 1645.44 433.75 1638.82 433.75 1610.55 462.02 1610.55 474.24 1589.16 474.24 1589.16 487.1 1615.26 487.1 1645.44 456.92"/><polygon class="cls-36" points="1528.17 680.25 1528.17 638.07 1515.53 638.07 1494.01 659.59 1482.16 659.59 1482.16 673.12 1500.67 691.63 1516.8 691.63 1528.17 680.25"/><polygon class="cls-36" points="1583.8 686.2 1600.01 686.2 1633.37 719.56 1668.01 719.56 1682.14 733.69 1689.33 726.5 1670.09 707.25 1670.09 694.86 1651.09 675.86 1623.95 675.86 1615.6 684.21 1610.71 684.21 1597.07 670.58 1590.84 670.58 1583.8 677.62 1583.8 686.2"/><polygon class="cls-36" points="1649.48 398.44 1649.84 367.63 1646.18 363.89 1640.37 369.58 1639.92 407.77 1649.48 398.44"/><polygon class="cls-36" points="1094.95 450.19 1137.96 449.89 1137.88 439.62 1115.82 422.29 1083.2 427.94 1083.29 441.04 1094.95 450.19"/><polygon class="cls-36" points="1161.06 448.52 1170.82 471.41 1182.11 466.6 1176.32 453.02 1182.21 440.35 1177.9 430.22 1170.71 427.76 1161.06 448.52"/></g><g id="Capa_1" data-name="Capa 1"><path class="cls-37" d="M904.29,284.32a10.19,10.19,0,0,0-10.23,10.16c0,2.87,2.82,8,2.82,8l7,11.93,7.34-11.79s3.26-4.91,3.26-8.15A10.19,10.19,0,0,0,904.29,284.32Zm0,15.75a5.85,5.85,0,1,1,5.85-5.86A5.85,5.85,0,0,1,904.25,300.07Z"/><path class="cls-37" d="M585.69,341.86A10.19,10.19,0,0,0,575.46,352c0,2.87,2.82,8,2.82,8l7,11.93,7.34-11.79s3.26-4.91,3.26-8.15A10.19,10.19,0,0,0,585.69,341.86Zm0,15.75a5.85,5.85,0,1,1,5.85-5.86A5.85,5.85,0,0,1,585.64,357.62Z"/><path class="cls-37" d="M589.43,397.07a10.19,10.19,0,0,0-10.23,10.16c0,2.87,2.82,8,2.82,8l7,11.93,7.34-11.79s3.26-4.91,3.26-8.15A10.19,10.19,0,0,0,589.43,397.07Zm0,15.75a5.85,5.85,0,1,1,5.85-5.86A5.85,5.85,0,0,1,589.38,412.82Z"/><path class="cls-37" d="M542.65,431.38a10.19,10.19,0,0,0-10.23,10.16c0,2.87,2.82,8,2.82,8l7,11.93,7.34-11.79s3.26-4.91,3.26-8.15A10.19,10.19,0,0,0,542.65,431.38Zm0,15.75a5.85,5.85,0,1,1,5.85-5.86A5.85,5.85,0,0,1,542.6,447.13Z"/><path class="cls-37" d="M347.55,439.65a10.19,10.19,0,0,0-10.23,10.16c0,2.87,2.82,8,2.82,8l7,11.93L354.51,458s3.26-4.91,3.26-8.15A10.19,10.19,0,0,0,347.55,439.65Zm0,15.75a5.85,5.85,0,1,1,5.85-5.86A5.85,5.85,0,0,1,347.51,455.4Z"/><path class="cls-37" d="M906.63,403.62a10.19,10.19,0,0,0-10.23,10.16c0,2.87,2.82,8,2.82,8l7,11.93,7.34-11.79s3.26-4.91,3.26-8.15A10.19,10.19,0,0,0,906.63,403.62Zm0,15.75a5.85,5.85,0,1,1,5.85-5.86A5.85,5.85,0,0,1,906.58,419.37Z"/><path class="cls-37" d="M948.5,394a10.19,10.19,0,0,0-10.23,10.16c0,2.87,2.82,8,2.82,8l7,11.93,7.34-11.79s3.26-4.91,3.26-8.15A10.19,10.19,0,0,0,948.5,394Zm0,15.75a5.85,5.85,0,1,1,5.85-5.86A5.85,5.85,0,0,1,948.46,409.78Z"/><path class="cls-37" d="M955.52,328.77a10.19,10.19,0,0,0-10.23,10.16c0,2.87,2.82,8,2.82,8l7,11.93,7.34-11.79s3.26-4.91,3.26-8.15A10.19,10.19,0,0,0,955.52,328.77Zm0,15.75a5.85,5.85,0,1,1,5.85-5.86A5.85,5.85,0,0,1,955.47,344.52Z"/><path class="cls-37" d="M977.75,333.91a10.19,10.19,0,0,0-10.23,10.16c0,2.87,2.82,8,2.82,8l7,11.93,7.34-11.79s3.26-4.91,3.26-8.15A10.19,10.19,0,0,0,977.75,333.91Zm0,15.75a5.85,5.85,0,1,1,5.85-5.86A5.85,5.85,0,0,1,977.7,349.66Z"/><path class="cls-37" d="M956.22,355.2A10.19,10.19,0,0,0,946,365.36c0,2.87,2.82,8,2.82,8l7,11.93,7.34-11.79s3.26-4.91,3.26-8.15A10.19,10.19,0,0,0,956.22,355.2Zm0,15.75a5.85,5.85,0,1,1,5.85-5.86A5.85,5.85,0,0,1,956.18,371Z"/><path class="cls-37" d="M1008.86,374.85A10.19,10.19,0,0,0,998.63,385c0,2.87,2.82,8,2.82,8l7,11.93,7.34-11.79s3.26-4.91,3.26-8.15A10.19,10.19,0,0,0,1008.86,374.85Zm0,15.75a5.85,5.85,0,1,1,5.85-5.86A5.85,5.85,0,0,1,1008.81,390.6Z"/><path class="cls-37" d="M1015.52,418.51a10.19,10.19,0,0,0-10.23,10.16c0,2.87,2.82,8,2.82,8l7,11.93,7.34-11.79s3.26-4.91,3.26-8.15A10.19,10.19,0,0,0,1015.52,418.51Zm0,15.75a5.85,5.85,0,1,1,5.85-5.86A5.85,5.85,0,0,1,1015.48,434.27Z"/><path class="cls-37" d="M1051,281.75a10.19,10.19,0,0,0-10.23,10.16c0,2.87,2.82,8,2.82,8l7,11.93,7.34-11.79s3.26-4.91,3.26-8.15A10.19,10.19,0,0,0,1051,281.75Zm0,15.75a5.85,5.85,0,1,1,5.85-5.86A5.85,5.85,0,0,1,1050.92,297.5Z"/><path class="cls-37" d="M1074.12,354.26a10.19,10.19,0,0,0-10.23,10.16c0,2.87,2.82,8,2.82,8l7,11.93,7.34-11.79s3.26-4.91,3.26-8.15A10.19,10.19,0,0,0,1074.12,354.26Zm0,15.75a5.85,5.85,0,1,1,5.85-5.86A5.85,5.85,0,0,1,1074.07,370Z"/><path class="cls-37" d="M1100.47,351.91a10.19,10.19,0,0,0-10.23,10.16c0,2.87,2.82,8,2.82,8l7,11.93,7.34-11.79s3.26-4.91,3.26-8.15A10.19,10.19,0,0,0,1100.47,351.91Zm0,15.75a5.85,5.85,0,1,1,5.85-5.86A5.85,5.85,0,0,1,1100.43,367.67Z"/><path class="cls-37" d="M1117.55,388.87A10.19,10.19,0,0,0,1107.32,399c0,2.87,2.82,8,2.82,8l7,11.93,7.34-11.79s3.26-4.91,3.26-8.15A10.19,10.19,0,0,0,1117.55,388.87Zm0,15.75a5.85,5.85,0,1,1,5.85-5.86A5.85,5.85,0,0,1,1117.5,404.63Z"/><path class="cls-37" d="M1159.19,372A10.19,10.19,0,0,0,1149,382.19c0,2.87,2.82,8,2.82,8l7,11.93,7.34-11.79s3.26-4.91,3.26-8.15A10.19,10.19,0,0,0,1159.19,372Zm0,15.75a5.85,5.85,0,1,1,5.85-5.86A5.85,5.85,0,0,1,1159.14,387.78Z"/><path class="cls-37" d="M1111.92,462.49a10.19,10.19,0,0,0-10.23,10.16c0,2.87,2.82,8,2.82,8l7,11.93,7.34-11.79s3.26-4.91,3.26-8.15A10.19,10.19,0,0,0,1111.92,462.49Zm0,15.75a5.85,5.85,0,1,1,5.85-5.86A5.85,5.85,0,0,1,1111.88,478.25Z"/><path class="cls-37" d="M1173,343.49a10.19,10.19,0,0,0-10.23,10.16c0,2.87,2.82,8,2.82,8l7,11.93L1180,361.8s3.26-4.91,3.26-8.15A10.19,10.19,0,0,0,1173,343.49Zm0,15.75a5.85,5.85,0,1,1,5.85-5.86A5.85,5.85,0,0,1,1172.94,359.25Z"/><path class="cls-37" d="M1250.34,335.07a10.19,10.19,0,0,0-10.23,10.16c0,2.87,2.82,8,2.82,8l7,11.93,7.34-11.79s3.26-4.91,3.26-8.15A10.19,10.19,0,0,0,1250.34,335.07Zm0,15.75a5.85,5.85,0,1,1,5.85-5.86A5.85,5.85,0,0,1,1250.29,350.82Z"/><path class="cls-37" d="M1283.71,243.37a10.19,10.19,0,0,0-10.23,10.16c0,2.87,2.82,8,2.82,8l7,11.93,7.34-11.79s3.26-4.91,3.26-8.15A10.19,10.19,0,0,0,1283.71,243.37Zm0,15.75a5.85,5.85,0,1,1,5.85-5.86A5.85,5.85,0,0,1,1283.67,259.13Z"/><path class="cls-37" d="M1640.44,375.31a10.19,10.19,0,0,0-10.23,10.16c0,2.87,2.82,8,2.82,8l7,11.93,7.34-11.79s3.26-4.91,3.26-8.15A10.19,10.19,0,0,0,1640.44,375.31Zm0,15.75a5.85,5.85,0,1,1,5.85-5.86A5.85,5.85,0,0,1,1640.39,391.06Z"/><path class="cls-37" d="M1680.11,825.44a10.19,10.19,0,0,0-10.23,10.16c0,2.87,2.82,8,2.82,8l7,11.93,7.34-11.79s3.26-4.91,3.26-8.15A10.19,10.19,0,0,0,1680.11,825.44Zm0,15.75a5.85,5.85,0,1,1,5.85-5.86A5.85,5.85,0,0,1,1680.06,841.19Z"/><path class="cls-37" d="M1288.7,392.15a10.19,10.19,0,0,0-10.23,10.16c0,2.87,2.82,8,2.82,8l7,11.93,7.34-11.79s3.26-4.91,3.26-8.15A10.19,10.19,0,0,0,1288.7,392.15Zm0,15.75a5.85,5.85,0,1,1,5.85-5.86A5.85,5.85,0,0,1,1288.66,407.9Z"/><path class="cls-37" d="M1298.69,424.59a10.19,10.19,0,0,0-10.23,10.16c0,2.87,2.82,8,2.82,8l7,11.93,7.34-11.79s3.26-4.91,3.26-8.15A10.19,10.19,0,0,0,1298.69,424.59Zm0,15.75a5.85,5.85,0,1,1,5.85-5.86A5.85,5.85,0,0,1,1298.64,440.34Z"/><path class="cls-37" d="M1339.68,349.25a10.19,10.19,0,0,0-10.23,10.16c0,2.87,2.82,8,2.82,8l7,11.93,7.34-11.79s3.26-4.91,3.26-8.15A10.19,10.19,0,0,0,1339.68,349.25Zm0,15.75a5.85,5.85,0,1,1,5.85-5.86A5.85,5.85,0,0,1,1339.64,365Z"/><path class="cls-37" d="M1369,332.09a10.19,10.19,0,0,0-10.23,10.16c0,2.87,2.82,8,2.82,8l7,11.93L1376,350.4s3.26-4.91,3.26-8.15A10.19,10.19,0,0,0,1369,332.09Zm0,15.75a5.85,5.85,0,1,1,5.85-5.86A5.85,5.85,0,0,1,1369,347.85Z"/><path class="cls-37" d="M1355.9,364.84A10.19,10.19,0,0,0,1345.68,375c0,2.87,2.82,8,2.82,8l7,11.93,7.34-11.79s3.26-4.91,3.26-8.15A10.19,10.19,0,0,0,1355.9,364.84Zm0,15.75a5.85,5.85,0,1,1,5.85-5.86A5.85,5.85,0,0,1,1355.85,380.6Z"/><path class="cls-37" d="M1302.26,522.35A10.19,10.19,0,0,0,1292,532.51c0,2.87,2.82,8,2.82,8l7,11.93,7.34-11.79s3.26-4.91,3.26-8.15A10.19,10.19,0,0,0,1302.26,522.35Zm0,15.75a5.85,5.85,0,1,1,5.85-5.86A5.85,5.85,0,0,1,1302.21,538.11Z"/></g></svg>