<?xml version="1.0" encoding="UTF-8"?>
<svg width="49px" height="48px" viewBox="0 0 49 48" version="1.1" xmlns="http://www.w3.org/2000/svg" xmlns:xlink="http://www.w3.org/1999/xlink">
    <!-- Generator: Sketch 53.2 (72643) - https://sketchapp.com -->
    <title>AR</title>
    <desc>Created with Sketch.</desc>
    <g id="Part01" stroke="none" stroke-width="1" fill="none" fill-rule="evenodd">
        <g id="-g-Exyte_Services01" transform="translate(-735.000000, -1278.000000)" fill="#000000" fill-rule="nonzero">
            <g id="04" transform="translate(720.000000, 1254.000000)">
                <g id="AR" transform="translate(15.000000, 24.000000)">
                    <g id="Group">
                        <path d="M49,8 L49,5 C48.9966939,2.23994685 46.7600532,0.00330611633 44,0 L22,0 C19.2399468,0.00330611633 17.0033061,2.23994685 17,5 L17,43 C17.0033061,45.7600532 19.2399468,47.9966939 22,48 L44,48 C46.7600532,47.9966939 48.9966939,45.7600532 49,43 L49,13 C49,12.4477153 48.5522847,12 48,12 C47.4477153,12 47,12.4477153 47,13 L47,43 C47,44.6568542 45.6568542,46 44,46 L22,46 C20.3431458,46 19,44.6568542 19,43 L19,5 C19,3.34314575 20.3431458,2 22,2 L44,2 C45.6568542,2 47,3.34314575 47,5 L47,7 L23,7 C22.4477153,7 22,7.44771525 22,8 C22,8.55228475 22.4477153,9 23,9 L48,9 C48.5522847,9 49,8.55228475 49,8 Z" id="Path"></path>
                        <path d="M22,40 C22,40.5522847 22.4477153,41 23,41 L43,41 C43.5522847,41 44,40.5522847 44,40 C44,39.4477153 43.5522847,39 43,39 L23,39 C22.4477153,39 22,39.4477153 22,40 Z" id="Path"></path>
                        <path d="M43,35 L43,34 C43,33.4477153 42.5522847,33 42,33 L3.414,33 L18,18.414 L30.293,30.707 C30.6853789,31.0859722 31.3090848,31.0805524 31.6948186,30.6948186 C32.0805524,30.3090848 32.0859722,29.6853789 31.707,29.293 L26.414,24 L32,18.414 L37.293,23.707 C37.6853789,24.0859722 38.3090848,24.0805524 38.6948186,23.6948186 C39.0805524,23.3090848 39.0859722,22.6853789 38.707,22.293 L32.707,16.293 C32.3165001,15.9026181 31.6834999,15.9026181 31.293,16.293 L25,22.586 L18.707,16.293 C18.3165001,15.9026181 17.6834999,15.9026181 17.293,16.293 L0.293,33.293 C0.00709208442,33.5789943 -0.078421906,34.0090366 0.0763220219,34.3826546 C0.23106595,34.7562725 0.595604102,34.9999137 1,35 L41,35 L43,35 Z" id="Path"></path>
                        <path d="M0,16 C0,18.7614237 2.23857625,21 5,21 C7.76142375,21 10,18.7614237 10,16 C10,13.2385763 7.76142375,11 5,11 C2.23994685,11.0033061 0.00330611633,13.2399468 0,16 Z M8,16 C8,17.6568542 6.65685425,19 5,19 C3.34314575,19 2,17.6568542 2,16 C2,14.3431458 3.34314575,13 5,13 C6.65685425,13 8,14.3431458 8,16 Z" id="Shape"></path>
                    </g>
                </g>
            </g>
        </g>
    </g>
</svg>