<?xml version="1.0" encoding="UTF-8"?>
<svg width="44px" height="44px" viewBox="0 0 44 44" version="1.1" xmlns="http://www.w3.org/2000/svg" xmlns:xlink="http://www.w3.org/1999/xlink">
    <!-- Generator: Sketch 53.2 (72643) - https://sketchapp.com -->
    <title>Blockchain</title>
    <desc>Created with Sketch.</desc>
    <g id="Part01" stroke="none" stroke-width="1" fill="none" fill-rule="evenodd">
        <g id="-g-Exyte_Services01" transform="translate(-346.000000, -1280.000000)" fill="#000000" fill-rule="nonzero">
            <g id="03" transform="translate(320.000000, 1254.000000)">
                <g id="Blockchain" transform="translate(26.000000, 26.000000)">
                    <path d="M25.256,0.314540541 L14.6157297,10.9548108 L18.5103243,25.4890811 L23.738,26.8762703 L23.1868108,24.8338378 L20.0039459,23.9948649 L16.9298919,12.5215676 L28.4043784,15.5956216 L31.479027,27.0701081 L29.744,26.5908649 L30.2957838,28.6327027 L33.0457838,29.3848649 L43.6860541,18.744 L39.7902703,4.20854054 L25.256,0.314540541 Z M17.4031892,10.7544324 L25.8018378,2.35578378 L37.2769189,5.42864865 L28.8770811,13.8278919 L17.4031892,10.7544324 Z M41.6448108,18.1975676 L33.2443784,26.5962162 L30.1709189,15.1211351 L38.5707568,6.72189189 L41.6448108,18.1975676 Z" id="Shape"></path>
                    <path d="M25.4896757,18.5097297 L20.2322703,17.0821081 L20.7840541,19.1245405 L23.9954595,20.0039459 L27.0701081,31.4784324 L15.5962162,28.4043784 L12.5221622,16.9304865 L14.2429189,17.38 L13.6911351,15.3381622 L10.9548108,14.6169189 L0.314540541,25.2565946 L4.20913514,39.7914595 L18.744,43.6860541 L29.3842703,33.0457838 L25.4896757,18.5097297 Z M2.35518919,25.8024324 L10.755027,17.4025946 L13.8296757,28.8770811 L5.42983784,37.2763243 L2.35518919,25.8024324 Z M18.196973,41.646 L6.72248649,38.5713514 L15.1223243,30.1709189 L26.5968108,33.2455676 L18.196973,41.646 Z" id="Shape"></path>
                </g>
            </g>
        </g>
    </g>
</svg>