<?xml version="1.0" encoding="UTF-8"?>
<svg width="48px" height="48px" viewBox="0 0 48 48" version="1.1" xmlns="http://www.w3.org/2000/svg" xmlns:xlink="http://www.w3.org/1999/xlink">
    <!-- Generator: Sketch 53.2 (72643) - https://sketchapp.com -->
    <title>Dedicated Team</title>
    <desc>Created with Sketch.</desc>
    <g id="Part01" stroke="none" stroke-width="1" fill="none" fill-rule="evenodd">
        <g id="-g-Exyte_Services01" transform="translate(-344.000000, -866.000000)" fill="#000000" fill-rule="nonzero">
            <g id="01" transform="translate(320.000000, 842.000000)">
                <g id="Dedicated-Team" transform="translate(24.000000, 24.000000)">
                    <path d="M31.316,38.051 C29.8491824,37.564293 28.4085825,37.0018716 27,36.366 L27,36.319 C29.4392188,35.1590151 30.995179,32.7009869 31,30 L31,27 C31,23.1340068 27.8659932,20 24,20 C20.1340068,20 17,23.1340068 17,27 L17,30 C17.004821,32.7009869 18.5607812,35.1590151 21,36.319 L21,36.366 C19.5914175,37.0018716 18.1508176,37.564293 16.684,38.051 C13.042,39.265 13,41.889 13,42 L13,48 L15,48 L15,42.027 C15,41.973 15.1,40.687 17.316,39.949 C19.0687352,39.3773778 20.7826486,38.6929482 22.447,37.9 C22.7876694,37.7297741 23.0020788,37.3808256 23,37 L23,35.651 C23.0001809,35.2273199 22.7333495,34.8495091 22.334,34.708 C20.3392282,34.0011614 19.00445,32.1162975 19,30 L19,27 C19,24.2385763 21.2385763,22 24,22 C26.7614237,22 29,24.2385763 29,27 L29,30 C28.99555,32.1162975 27.6607718,34.0011614 25.666,34.708 C25.2666505,34.8495091 24.9998191,35.2273199 25,35.651 L25,37 C24.9979212,37.3808256 25.2123306,37.7297741 25.553,37.9 C27.2172275,38.6946498 28.9311433,39.3807506 30.684,39.954 C32.9,40.687 33,41.973 33,42 L33,48 L35,48 L35,42 C35,41.889 34.958,39.265 31.316,38.051 Z" id="Path"></path>
                    <path d="M13,35.651 C13.0001809,35.2273199 12.7333495,34.8495091 12.334,34.708 C10.3392282,34.0011614 9.00444996,32.1162975 9,30 L9,27 C8.99806507,25.236218 9.92555808,23.6018937 11.4407884,22.6991159 C12.9560188,21.7963382 14.8348058,21.7586744 16.385,22.6 L17.34,20.842 C15.1699698,19.6638193 12.539727,19.7160901 10.4182196,20.9795565 C8.29671225,22.2430229 6.99780546,24.5307621 7,27 L7,30 C7.00482096,32.7009869 8.5607812,35.1590151 11,36.319 L11,36.366 C9.59141745,37.0018716 8.15081756,37.564293 6.684,38.051 C3.042,39.265 3,41.889 3,42 L3,48 L5,48 L5,42.027 C5,41.973 5.1,40.687 7.316,39.949 C9.06873515,39.3773778 10.7826486,38.6929482 12.447,37.9 C12.7876694,37.7297741 13.0020788,37.3808256 13,37 L13,35.651 Z" id="Path"></path>
                    <path d="M41.316,38.051 C39.8491824,37.564293 38.4085825,37.0018716 37,36.366 L37,36.319 C39.4392188,35.1590151 40.995179,32.7009869 41,30 L41,27.164 C41.0593478,24.6664948 39.7831817,22.3266571 37.651331,21.0242489 C35.5194804,19.7218407 32.8551085,19.6542918 30.66,20.847 L31.615,22.604 C32.7007726,22.0167017 33.964354,21.8483903 35.166,22.131 C37.4559601,22.7174028 39.0428351,24.8005384 39,27.164 L39,30 C38.99555,32.1162975 37.6607718,34.0011614 35.666,34.708 C35.2666505,34.8495091 34.9998191,35.2273199 35,35.651 L35,37 C34.9979212,37.3808256 35.2123306,37.7297741 35.553,37.9 C37.2172275,38.6946498 38.9311433,39.3807506 40.684,39.954 C42.9,40.687 43,41.973 43,42 L43,48 L45,48 L45,42 C45,41.889 44.958,39.265 41.316,38.051 Z" id="Path"></path>
                    <path d="M43,0 L5,0 C2.23994685,0.00330611633 0.00330611633,2.23994685 0,5 L0,21 L2,21 L2,5 C2,3.34314575 3.34314575,2 5,2 L43,2 C44.6568542,2 46,3.34314575 46,5 L46,21 L48,21 L48,5 C47.9966939,2.23994685 45.7600532,0.00330611633 43,0 Z" id="Path"></path>
                    <path d="M22,5 L7,5 C6.44771525,5 6,5.44771525 6,6 L6,10 C6,10.5522847 6.44771525,11 7,11 L22,11 C22.5522847,11 23,10.5522847 23,10 L23,6 C23,5.44771525 22.5522847,5 22,5 Z M21,9 L8,9 L8,7 L21,7 L21,9 Z M41,5 L26,5 C25.4477153,5 25,5.44771525 25,6 L25,10 C25,10.5522847 25.4477153,11 26,11 L41,11 C41.5522847,11 42,10.5522847 42,10 L42,6 C42,5.44771525 41.5522847,5 41,5 Z M40,9 L27,9 L27,7 L40,7 L40,9 Z" id="Shape"></path>
                    <path d="M16.012,14 C15.7378502,14.0291128 15.4651126,13.9336106 15.2690103,13.7398336 C15.0729079,13.5460566 14.9741593,13.2744776 15,13 L13,13 C12.9765263,13.8026156 13.2850527,14.5793921 13.8528303,15.1471697 C14.4206079,15.7149473 15.1973844,16.0234737 16,16 L23,16 L23,18 L25,18 L25,16 L32,16 C32.8026156,16.0234737 33.5793921,15.7149473 34.1471697,15.1471697 C34.7149473,14.5793921 35.0234737,13.8026156 35,13 L33,13 C33.0267493,13.2725415 32.9300201,13.5427363 32.7363782,13.7363782 C32.5427363,13.9300201 32.2725415,14.0267493 32,14 L16.012,14 L16.012,14 Z" id="Path"></path>
                </g>
            </g>
        </g>
    </g>
</svg>