<?xml version="1.0" encoding="UTF-8"?>
<svg width="48px" height="48px" viewBox="0 0 48 48" version="1.1" xmlns="http://www.w3.org/2000/svg" xmlns:xlink="http://www.w3.org/1999/xlink">
    <!-- Generator: Sketch 53.2 (72643) - https://sketchapp.com -->
    <title>Deploy</title>
    <desc>Created with Sketch.</desc>
    <g id="Part01" stroke="none" stroke-width="1" fill="none" fill-rule="evenodd">
        <g id="-g-Exyte_Services01" transform="translate(-856.000000, -2234.000000)" fill="#000000" fill-rule="nonzero">
            <g id="07" transform="translate(320.000000, 2123.000000)">
                <g id="Deploy" transform="translate(536.000000, 111.000000)">
                    <path d="M40.0034583,8.8917762e-16 C35.9737331,0.00538680132 32.5748913,3.00260179 32.0654583,7 L5.00345834,7 C3.66245051,6.94921233 2.3609583,7.4596689 1.41204277,8.40858443 C0.463127233,9.35749997 -0.0473293324,10.6589922 0.00345833642,12 L0.00345833642,43 C-0.0473293324,44.3410078 0.463127233,45.6425 1.41204277,46.5914156 C2.3609583,47.5403311 3.66245051,48.0507877 5.00345834,48 L40.0034583,48 C43.8349981,47.9958232 47.1271627,45.2791063 47.8584583,41.518 C47.953481,41.3619415 48.0036516,41.1827116 48.0034583,41 L48.0034583,8 C47.9984985,3.58377808 44.4196803,0.00495988455 40.0034583,8.8917762e-16 Z M40.0034583,46 L5.00845834,46 C4.20043966,46.0428255 3.41224139,45.7405318 2.84008399,45.1683743 C2.26792658,44.5962169 1.96563288,43.8080187 2.00845834,43 L2.00845834,12.005 C1.96428492,11.1970524 2.26526454,10.4083495 2.83646864,9.83523822 C3.40767274,9.26212693 4.19536794,8.95851998 5.00345834,9 L32.0034583,9 L32.0034583,40 C32.0034583,40.5522847 32.4511736,41 33.0034583,41 C33.5557431,41 34.0034583,40.5522847 34.0034583,40 C34.0034583,36.6862915 36.6897498,34 40.0034583,34 C43.3171668,34 46.0034583,36.6862915 46.0034583,40 C46.0034583,43.3137085 43.3171668,46 40.0034583,46 Z M46.0034583,34.714 C44.4866961,32.9887262 42.3006605,31.9998574 40.0034583,31.9998574 C37.7062562,31.9998574 35.5202206,32.9887262 34.0034583,34.714 L34.0034583,8 C34.0034585,4.6862916 36.6897499,2.00000025 40.0034583,2.00000025 C43.3171667,2.00000025 46.0034582,4.6862916 46.0034583,8 L46.0034583,34.714 Z" id="Shape"></path>
                    <path d="M13.7067865,23.2927865 C13.3162866,22.9024045 12.6832863,22.9024045 12.2927865,23.2927865 L8.29278645,27.2927865 C7.90240452,27.6832863 7.90240452,28.3162866 8.29278645,28.7067865 L12.2927865,32.7067865 C12.6851653,33.0857587 13.3088712,33.0803388 13.694605,32.694605 C14.0803388,32.3088712 14.0857587,31.6851653 13.7067865,31.2927865 L10.4137865,27.9997865 L13.7067865,24.7067865 C14.0971684,24.3162866 14.0971684,23.6832863 13.7067865,23.2927865 Z" id="Path"></path>
                    <path d="M20.2927865,32.7067865 C20.6832863,33.0971684 21.3162866,33.0971684 21.7067865,32.7067865 L25.7067865,28.7067865 C26.0971684,28.3162866 26.0971684,27.6832863 25.7067865,27.2927865 L21.7067865,23.2927865 C21.3144076,22.9138142 20.6907017,22.9192341 20.3049679,23.3049679 C19.9192341,23.6907017 19.9138142,24.3144076 20.2927865,24.7067865 L23.5857865,27.9997865 L20.2927865,31.2927865 C19.9024045,31.6832863 19.9024045,32.3162866 20.2927865,32.7067865 Z" id="Path"></path>
                </g>
            </g>
        </g>
    </g>
</svg>