<?xml version="1.0" encoding="UTF-8"?>
<svg width="48px" height="48px" viewBox="0 0 48 48" version="1.1" xmlns="http://www.w3.org/2000/svg" xmlns:xlink="http://www.w3.org/1999/xlink">
    <!-- Generator: Sketch 53.2 (72643) - https://sketchapp.com -->
    <title>Design</title>
    <desc>Created with Sketch.</desc>
    <g id="Part01" stroke="none" stroke-width="1" fill="none" fill-rule="evenodd">
        <g id="-g-Exyte_Services01" transform="translate(-536.000000, -2235.000000)" fill="#000000" fill-rule="nonzero">
            <g id="07" transform="translate(320.000000, 2123.000000)">
                <g id="Design" transform="translate(216.000000, 112.000000)">
                    <path d="M41,24 L28,24 C27.4477153,24 27,24.4477153 27,25 C27,25.5522847 27.4477153,26 28,26 L41,26 C41.5522847,26 42,26.4477153 42,27 L42,45 C42,45.5522847 41.5522847,46 41,46 L7,46 C6.44771525,46 6,45.5522847 6,45 L6,27 C6,26.4477153 6.44771525,26 7,26 L22,26 C22.8026156,26.0234737 23.5793921,25.7149473 24.1471697,25.1471697 C24.7149473,24.5793921 25.0234737,23.8026156 25,23 L25,11 C25,10.4477153 24.5522847,10 24,10 C23.4477153,10 23,10.4477153 23,11 L23,23 C23.0267493,23.2725415 22.9300201,23.5427363 22.7363782,23.7363782 C22.5427363,23.9300201 22.2725415,24.0267493 22,24 L7,24 C5.34314575,24 4,25.3431458 4,27 L4,45 C4,46.6568542 5.34314575,48 7,48 L41,48 C42.6568542,48 44,46.6568542 44,45 L44,27 C44,25.3431458 42.6568542,24 41,24 Z" id="Path"></path>
                    <path d="M10,37 C8.8954305,37 8,37.8954305 8,39 L8,41 C8,42.1045695 8.8954305,43 10,43 L12,43 C13.1045695,43 14,42.1045695 14,41 L14,39 C14,37.8954305 13.1045695,37 12,37 L10,37 Z M12,41 L10,41 L10,39 L12,39 L12,41 Z" id="Shape"></path>
                    <path d="M15,33 L15,31 C15,29.8954305 14.1045695,29 13,29 L11,29 C9.8954305,29 9,29.8954305 9,31 L9,33 C9,34.1045695 9.8954305,35 11,35 L13,35 C14.1045695,35 15,34.1045695 15,33 Z M13,33 L11,33 L11,31 L13,31 L13,33 Z" id="Shape"></path>
                    <path d="M21,35 C22.1045695,35 23,34.1045695 23,33 L23,31 C23,29.8954305 22.1045695,29 21,29 L19,29 C17.8954305,29 17,29.8954305 17,31 L17,33 C17,34.1045695 17.8954305,35 19,35 L21,35 Z M19,31 L21,31 L21,33 L19,33 L19,31 Z" id="Shape"></path>
                    <path d="M29,29 L27,29 C25.8954305,29 25,29.8954305 25,31 L25,33 C25,34.1045695 25.8954305,35 27,35 L29,35 C30.1045695,35 31,34.1045695 31,33 L31,31 C31,29.8954305 30.1045695,29 29,29 Z M29,33 L27,33 L27,31 L29,31 L29,33 Z" id="Shape"></path>
                    <path d="M37,29 L35,29 C33.8954305,29 33,29.8954305 33,31 L33,33 C33,34.1045695 33.8954305,35 35,35 L37,35 C38.1045695,35 39,34.1045695 39,33 L39,31 C39,29.8954305 38.1045695,29 37,29 Z M37,33 L35,33 L35,31 L37,31 L37,33 Z" id="Shape"></path>
                    <path d="M16,39 L16,41 C16,42.1045695 16.8954305,43 18,43 L30,43 C31.1045695,43 32,42.1045695 32,41 L32,39 C32,37.8954305 31.1045695,37 30,37 L18,37 C16.8954305,37 16,37.8954305 16,39 Z M18,39 L30,39 L30,41 L18,41 L18,39 Z" id="Shape"></path>
                    <path d="M36,37 C34.8954305,37 34,37.8954305 34,39 L34,41 C34,42.1045695 34.8954305,43 36,43 L38,43 C39.1045695,43 40,42.1045695 40,41 L40,39 C40,37.8954305 39.1045695,37 38,37 L36,37 Z M38,41 L36,41 L36,39 L38,39 L38,41 Z" id="Shape"></path>
                    <path d="M46,0 L42,0 C40.8954305,-6.76353751e-17 40,0.8954305 40,2 L40,3 L28,3 L28,2 C28,0.8954305 27.1045695,6.76353751e-17 26,0 L22,0 C20.8954305,-6.76353751e-17 20,0.8954305 20,2 L20,3 L19.941,3 L8,3 L8,2 C8,0.8954305 7.1045695,6.76353751e-17 6,0 L2,0 C0.8954305,-6.76353751e-17 1.3527075e-16,0.8954305 0,2 L0,6 C1.3527075e-16,7.1045695 0.8954305,8 2,8 L6,8 C7.1045695,8 8,7.1045695 8,6 L8,5 L13.176,5 C10.4163688,6.79489755 8.60309969,9.72898997 8.232,13 L7,13 C5.8954305,13 5,13.8954305 5,15 L5,19 C5,20.1045695 5.8954305,21 7,21 L11,21 C12.1045695,21 13,20.1045695 13,19 L13,15 C13,13.8954305 12.1045695,13 11,13 L10.263,13 C11.528,6.25 17.12,5.146 19.663,5 L20,5 L20,6 C20,7.1045695 20.8954305,8 22,8 L26,8 C27.1045695,8 28,7.1045695 28,6 L28,5 L28.368,5 C30.926,5.153 36.477,6.277 37.736,13 L37,13 C35.8954305,13 35,13.8954305 35,15 L35,19 C35,20.1045695 35.8954305,21 37,21 L41,21 C42.1045695,21 43,20.1045695 43,19 L43,15 C43,13.8954305 42.1045695,13 41,13 L39.768,13 C39.3979919,9.72861222 37.5844573,6.79409023 34.824,5 L40,5 L40,6 C40,7.1045695 40.8954305,8 42,8 L46,8 C47.1045695,8 48,7.1045695 48,6 L48,2 C48,0.8954305 47.1045695,6.76353751e-17 46,0 Z M6,6 L2,6 L2,2 L6,2 L6,6 Z M11,19 L7,19 L7,15 L11,15 L11,19 Z M41,19 L37,19 L37,15 L41,15 L41,19 Z M26,6 L22,6 L22,2 L26,2 L26,6 Z M46,6 L42,6 L42,2 L46,2 L46,6 Z" id="Shape"></path>
                </g>
            </g>
        </g>
    </g>
</svg>