<?xml version="1.0" encoding="UTF-8"?>
<svg width="48px" height="42px" viewBox="0 0 48 42" version="1.1" xmlns="http://www.w3.org/2000/svg" xmlns:xlink="http://www.w3.org/1999/xlink">
    <!-- Generator: Sketch 53.2 (72643) - https://sketchapp.com -->
    <title>Feedback</title>
    <desc>Created with Sketch.</desc>
    <g id="Part01" stroke="none" stroke-width="1" fill="none" fill-rule="evenodd">
        <g id="-g-Exyte_HowWeWorks01" transform="translate(-344.000000, -1874.000000)" fill="#000000" fill-rule="nonzero">
            <g id="03" transform="translate(320.000000, 654.000000)">
                <g id="01" transform="translate(0.000000, 1190.000000)">
                    <g id="Feedback" transform="translate(24.000000, 30.000000)">
                        <path d="M47.476,2.121 C47.1534063,1.94653116 46.7611902,1.96264963 46.454,2.163 L23.993,16.811 L2.6,3.2 C3.16656315,2.44458247 4.05572809,2 5,2 L42,2 C42.5522847,2 43,1.55228475 43,1 C43,0.44771525 42.5522847,7.81597009e-13 42,7.81597009e-13 L5,7.81597009e-13 C2.23994685,0.00330611634 0.00330611633,2.23994685 3.55271368e-15,5 L3.55271368e-15,31 C0.00330611633,33.7600532 2.23994685,35.9966939 5,36 L22,36 L22,41 C22.0000863,41.4043959 22.2437275,41.7689341 22.6173454,41.923678 C22.9909634,42.0784219 23.4210057,41.9929079 23.707,41.707 L29.414,36 L43,36 C45.7600532,35.9966939 47.9966939,33.7600532 48,31 L48,3 C47.9998366,2.63305172 47.798711,2.29566736 47.476,2.121 Z M46,31 C46,32.6568542 44.6568542,34 43,34 L29,34 C28.7348052,34.0000566 28.4804927,34.1054506 28.293,34.293 L24,38.586 L24,35 C24,34.4477153 23.5522847,34 23,34 L5,34 C3.34314575,34 2,32.6568542 2,31 L2,5.186 L18.745,15.841 L8.293,26.293 C8.03304342,26.5440745 7.9287874,26.9158779 8.02030284,27.2655073 C8.11181828,27.6151368 8.38486324,27.8881817 8.73449268,27.9796972 C9.08412211,28.0712126 9.45592553,27.9669566 9.707,27.707 L20.473,16.941 L23.463,18.841 C23.7941294,19.0512729 24.2176164,19.0485357 24.546,18.834 L27.5,16.912 L38.295,27.712 C38.6873789,28.0909722 39.3110848,28.0855524 39.6968186,27.6998186 C40.0825524,27.3140848 40.0879722,26.6903789 39.709,26.298 L29.21,15.8 L46,4.846 L46,31 Z" id="Shape"></path>
                    </g>
                </g>
            </g>
        </g>
    </g>
</svg>