<?xml version="1.0" encoding="UTF-8"?>
<svg width="36px" height="48px" viewBox="0 0 36 48" version="1.1" xmlns="http://www.w3.org/2000/svg" xmlns:xlink="http://www.w3.org/1999/xlink">
    <!-- Generator: Sketch 53.2 (72643) - https://sketchapp.com -->
    <title>Idea</title>
    <desc>Created with Sketch.</desc>
    <g id="Part01" stroke="none" stroke-width="1" fill="none" fill-rule="evenodd">
        <g id="-g-Exyte_Services01" transform="translate(-382.000000, -2234.000000)" fill="#000000" fill-rule="nonzero">
            <g id="07" transform="translate(320.000000, 2123.000000)">
                <g id="Idea" transform="translate(61.000000, 111.000000)">
                    <path d="M19,9.80548976e-13 C10.2306606,-0.00336245533 2.73510115,6.31330295 1.25228878,14.9563691 C-0.230523592,23.5994353 4.73099885,32.0532491 13,34.973 L13,37 C13,37.5522847 13.4477153,38 14,38 L20,38 C20.5522847,38 21,37.5522847 21,37 C21,36.4477153 20.5522847,36 20,36 L15,36 L15,34.25 C15.0000854,33.8108901 14.7137037,33.4230983 14.294,33.294 C6.72658428,30.9652251 2.00044024,23.4518609 3.17792141,15.6222688 C4.35540257,7.79267677 11.0823631,2.00172862 19,2.00172862 C26.9176369,2.00172862 33.6445974,7.79267677 34.8220786,15.6222688 C35.9995598,23.4518609 31.2734157,30.9652251 23.706,33.294 C23.2862963,33.4230983 22.9999146,33.8108901 23,34.25 L23,41.988 C23.0291128,42.2621498 22.9336106,42.5348874 22.7398336,42.7309897 C22.5460566,42.9270921 22.2744776,43.0258407 22,43 L16.012,43 C15.7378502,43.0291128 15.4651126,42.9336106 15.2690103,42.7398336 C15.0729079,42.5460566 14.9741593,42.2744776 15,42 L15,41 C15,40.4477153 14.5522847,40 14,40 C13.4477153,40 13,40.4477153 13,41 L13,42 C12.9765263,42.8026156 13.2850527,43.5793921 13.8528303,44.1471697 C14.4206079,44.7149473 15.1973844,45.0234737 16,45 L16,47 C16,47.5522847 16.4477153,48 17,48 L21,48 C21.5522847,48 22,47.5522847 22,47 L22,45 C22.8026156,45.0234737 23.5793921,44.7149473 24.1471697,44.1471697 C24.7149473,43.5793921 25.0234737,42.8026156 25,42 L25,34.973 C33.2690011,32.0532491 38.2305236,23.5994353 36.7477112,14.9563691 C35.2648989,6.31330295 27.7693394,-0.00336245533 19,9.80548976e-13 L19,9.80548976e-13 Z M20,46 L18,46 L18,45 L20,45 L20,46 Z" id="Shape"></path>
                    <path d="M8,17 C8,17.5522847 8.44771525,18 9,18 C9.55228475,18 10,17.5522847 10,17 C10.006061,12.0319499 14.0319499,8.00606096 19,8 C19.5522847,8 20,7.55228475 20,7 C20,6.44771525 19.5522847,6 19,6 C12.9278374,6.0071635 8.0071635,10.9278374 8,17 Z" id="Path"></path>
                </g>
            </g>
        </g>
    </g>
</svg>