<?xml version="1.0" encoding="UTF-8"?>
<svg width="48px" height="48px" viewBox="0 0 48 48" version="1.1" xmlns="http://www.w3.org/2000/svg" xmlns:xlink="http://www.w3.org/1999/xlink">
    <!-- Generator: Sketch 53.2 (72643) - https://sketchapp.com -->
    <title>Maintence</title>
    <desc>Created with Sketch.</desc>
    <g id="Part01" stroke="none" stroke-width="1" fill="none" fill-rule="evenodd">
        <g id="-g-Exyte_Services01" transform="translate(-1016.000000, -2235.000000)" fill="#000000" fill-rule="nonzero">
            <g id="07" transform="translate(320.000000, 2123.000000)">
                <g id="Maintence" transform="translate(696.000000, 111.000000)">
                    <path d="M27,8 C27.5522847,8 28,7.55228475 28,7 C28,6.44771525 27.5522847,6 27,6 L21,6 C20.4477153,6 20,6.44771525 20,7 C20,7.55228475 20.4477153,8 21,8 L27,8 Z" id="Path"></path>
                    <path d="M29,16 L28,16 L28,13 L30,13 C31.2667854,12.9947486 32.3937454,12.1943509 32.816,11 L35,11 L35,12 C35,12.5522847 35.4477153,13 36,13 L42,13 C42.5522847,13 43,12.5522847 43,12 L43,2 C43,1.44771525 42.5522847,1 42,1 L36,1 C35.4477153,1 35,1.44771525 35,2 L35,3 L32.816,3 C32.3937454,1.80564913 31.2667854,1.00525139 30,1 L11,1 C9.9298459,0.96870175 8.89414387,1.3800703 8.13710709,2.13710709 C7.3800703,2.89414387 6.96870175,3.9298459 7,5 L7,17 C7.00008502,17.3077899 7.14190352,17.5983932 7.38447907,17.7878443 C7.62705462,17.9772954 7.94335877,18.0444852 8.242,17.97 C8.437,17.922 13,16.738 13,13 L13,10 L15,10 C15,11.6568542 16.3431458,13 18,13 L20,13 L20,16 L19,16 C18.4477153,16 18,16.4477153 18,17 C18,17.5522847 18.4477153,18 19,18 L20,18 L20,47 C20,48.1045695 20.8954305,49 22,49 L26,49 C27.1045695,49 28,48.1045695 28,47 L28,18 L29,18 C29.5522847,18 30,17.5522847 30,17 C30,16.4477153 29.5522847,16 29,16 Z M37,3 L41,3 L41,11 L37,11 L37,10 C37,9.44771525 36.5522847,9 36,9 L33,9 L33,5 L35,5 L35,6 C35,6.55228475 35.4477153,7 36,7 C36.5522847,7 37,6.55228475 37,6 L37,3 Z M17,10 L17,6 C17,5.44771525 16.5522847,5 16,5 C15.4477153,5 15,5.44771525 15,6 L15,8 L12,8 C11.4477153,8 11,8.44771525 11,9 L11,13 C10.8635974,14.1559115 10.0912021,15.1380122 9,15.543 L9,5 C8.96523961,4.45965842 9.1647647,3.93050266 9.54763368,3.54763368 C9.93050266,3.1647647 10.4596584,2.96523961 11,3 L30,3 C30.5522847,3 31,3.44771525 31,4 L31,10 C31,10.5522847 30.5522847,11 30,11 L18,11 C17.4477153,11 17,10.5522847 17,10 Z M22,13 L26,13 L26,16 L22,16 L22,13 Z M26,47 L22,47 L22,18 L26,18 L26,47 Z" id="Shape"></path>
                    <path d="M45,23 L31,23 C30.4477153,23 30,23.4477153 30,24 C30,24.5522847 30.4477153,25 31,25 L45,25 C45.5522847,25 46,25.4477153 46,26 L46,34 C46,34.5522847 45.5522847,35 45,35 L40,35 L40,30 C40,29.4477153 39.5522847,29 39,29 C38.4477153,29 38,29.4477153 38,30 L38,35 L32,35 L32,32 C32,31.4477153 31.5522847,31 31,31 C30.4477153,31 30,31.4477153 30,32 L30,36 C30,36.5522847 30.4477153,37 31,37 L45,37 C46.6568542,37 48,35.6568542 48,34 L48,26 C48,24.3431458 46.6568542,23 45,23 L45,23 Z" id="Path"></path>
                    <path d="M3,25 L17,25 C17.5522847,25 18,24.5522847 18,24 C18,23.4477153 17.5522847,23 17,23 L3,23 C1.34314575,23 2.02906125e-16,24.3431458 0,26 L0,34 C2.02906125e-16,35.6568542 1.34314575,37 3,37 L17,37 C17.5522847,37 18,36.5522847 18,36 L18,32 C18,31.4477153 17.5522847,31 17,31 C16.4477153,31 16,31.4477153 16,32 L16,35 L10,35 L10,30 C10,29.4477153 9.55228475,29 9,29 C8.44771525,29 8,29.4477153 8,30 L8,35 L3,35 C2.44771525,35 2,34.5522847 2,34 L2,26 C2,25.4477153 2.44771525,25 3,25 Z" id="Path"></path>
                </g>
            </g>
        </g>
    </g>
</svg>