<?xml version="1.0" encoding="UTF-8"?>
<svg width="32px" height="48px" viewBox="0 0 32 48" version="1.1" xmlns="http://www.w3.org/2000/svg" xmlns:xlink="http://www.w3.org/1999/xlink">
    <!-- Generator: Sketch 53.2 (72643) - https://sketchapp.com -->
    <title>Mobile</title>
    <desc>Created with Sketch.</desc>
    <g id="Part01" stroke="none" stroke-width="1" fill="none" fill-rule="evenodd">
        <g id="-g-Exyte_Services01" transform="translate(-752.000000, -866.000000)" fill="#000000" fill-rule="nonzero">
            <g id="02" transform="translate(720.000000, 842.000000)">
                <g id="Mobile" transform="translate(32.000000, 24.000000)">
                    <path d="M32,8 L32,5 C31.9966939,2.23994685 29.7600532,0.00330611633 27,0 L5,0 C2.23994685,0.00330611633 0.00330611633,2.23994685 1.77635684e-15,5 L1.77635684e-15,43 C0.00330611633,45.7600532 2.23994685,47.9966939 5,48 L27,48 C29.7600532,47.9966939 31.9966939,45.7600532 32,43 L32,13 C32,12.4477153 31.5522847,12 31,12 C30.4477153,12 30,12.4477153 30,13 L30,43 C30,44.6568542 28.6568542,46 27,46 L5,46 C3.34314575,46 2,44.6568542 2,43 L2,5 C2,3.34314575 3.34314575,2 5,2 L27,2 C28.6568542,2 30,3.34314575 30,5 L30,7 L6,7 C5.44771525,7 5,7.44771525 5,8 C5,8.55228475 5.44771525,9 6,9 L31,9 C31.5522847,9 32,8.55228475 32,8 Z" id="Path"></path>
                    <path d="M5,40 C5,40.5522847 5.44771525,41 6,41 L26,41 C26.5522847,41 27,40.5522847 27,40 C27,39.4477153 26.5522847,39 26,39 L6,39 C5.44771525,39 5,39.4477153 5,40 Z" id="Path"></path>
                    <path d="M27,14 C27,12.8954305 26.1045695,12 25,12 L7,12 C5.8954305,12 5,12.8954305 5,14 L5,16 C5,16.5522847 5.44771525,17 6,17 C6.55228475,17 7,16.5522847 7,16 L7,14 L25,14 L25,24 L7,24 L7,21 L22,21 C22.5522847,21 23,20.5522847 23,20 C23,19.4477153 22.5522847,19 22,19 L6,19 C5.44771525,19 5,19.4477153 5,20 L5,24 C5,25.1045695 5.8954305,26 7,26 L25,26 C26.1045695,26 27,25.1045695 27,24 L27,14 Z" id="Path"></path>
                    <path d="M13.707,28.293 C13.3165001,27.9026181 12.6834999,27.9026181 12.293,28.293 L9.293,31.293 C8.90261806,31.6834999 8.90261806,32.3165001 9.293,32.707 L12.293,35.707 C12.6853789,36.0859722 13.3090848,36.0805524 13.6948186,35.6948186 C14.0805524,35.3090848 14.0859722,34.6853789 13.707,34.293 L11.414,32 L13.707,29.707 C14.0973819,29.3165001 14.0973819,28.6834999 13.707,28.293 Z" id="Path"></path>
                    <path d="M18.293,35.707 C18.6834999,36.0973819 19.3165001,36.0973819 19.707,35.707 L22.707,32.707 C23.0973819,32.3165001 23.0973819,31.6834999 22.707,31.293 L19.707,28.293 C19.3146211,27.9140278 18.6909152,27.9194476 18.3051814,28.3051814 C17.9194476,28.6909152 17.9140278,29.3146211 18.293,29.707 L20.586,32 L18.293,34.293 C17.9026181,34.6834999 17.9026181,35.3165001 18.293,35.707 Z" id="Path"></path>
                </g>
            </g>
        </g>
    </g>
</svg>