<svg width="800" height="600" viewBox="0 0 800 600" fill="none" xmlns="http://www.w3.org/2000/svg">
<path fill-rule="evenodd" clip-rule="evenodd" d="M35.2319 263.16L81.2571 289.732L126.967 263.169L80.9436 236.597L35.2319 263.16ZM80.5459 292.614L31.6759 264.399L31.6731 261.932L80.2252 233.716L81.6533 233.715L130.523 261.929L130.528 264.396L81.9754 292.611L80.5459 292.614Z" fill="#1B1A19"/>
<mask id="mask0_104_1876" style="mask-type:alpha" maskUnits="userSpaceOnUse" x="31" y="233" width="100" height="60">
<path d="M35.2319 263.16L81.2571 289.732L126.967 263.169L80.9436 236.597L35.2319 263.16ZM80.5459 292.614L31.6759 264.399L31.6731 261.932L80.2252 233.716L81.6533 233.715L130.523 261.929L130.528 264.396L81.9754 292.611L80.5459 292.614Z" fill="white"/>
</mask>
<g mask="url(#mask0_104_1876)">
<path fill-rule="evenodd" clip-rule="evenodd" d="M35.2319 263.16L81.2571 289.732L126.967 263.169L80.9436 236.597L35.2319 263.16ZM80.5459 292.614L31.6759 264.399L31.6731 261.932L80.2252 233.716L81.6533 233.715L130.523 261.929L130.528 264.396L81.9754 292.611L80.5459 292.614Z" fill="#1B1A19"/>
</g>
<path fill-rule="evenodd" clip-rule="evenodd" d="M82.5269 292.209L82.6766 345.078L128.716 318.498L128.566 265.629L82.5269 292.209ZM81.9711 348.777L79.8333 347.547L79.675 291.391L80.3877 290.153L129.272 261.929L131.41 263.16L131.569 319.314L130.857 320.553L81.9711 348.777Z" fill="#1B1A19"/>
<mask id="mask1_104_1876" style="mask-type:alpha" maskUnits="userSpaceOnUse" x="79" y="261" width="53" height="88">
<path d="M82.5269 292.209L82.6766 345.078L128.716 318.498L128.566 265.629L82.5269 292.209ZM81.9711 348.777L79.8333 347.547L79.675 291.391L80.3877 290.153L129.272 261.929L131.41 263.16L131.569 319.314L130.857 320.553L81.9711 348.777Z" fill="white"/>
</mask>
<g mask="url(#mask1_104_1876)">
<path fill-rule="evenodd" clip-rule="evenodd" d="M82.5269 292.209L82.6766 345.078L128.716 318.498L128.566 265.629L82.5269 292.209ZM81.9711 348.777L79.8333 347.547L79.675 291.391L80.3877 290.153L129.272 261.929L131.41 263.16L131.569 319.314L130.857 320.553L81.9711 348.777Z" fill="#1B1A19"/>
</g>
<path fill-rule="evenodd" clip-rule="evenodd" d="M81.2726 347.543L81.4323 291.387L32.5481 263.165L32.3884 319.319L81.2726 347.543Z" fill="#1B1A19"/>
<mask id="mask2_104_1876" style="mask-type:alpha" maskUnits="userSpaceOnUse" x="32" y="263" width="50" height="85">
<path d="M81.2727 347.543L81.4323 291.387L32.5481 263.165L32.3884 319.319L81.2727 347.543Z" fill="white"/>
</mask>
<g mask="url(#mask2_104_1876)">
<path fill-rule="evenodd" clip-rule="evenodd" d="M32.5481 263.165L81.4323 291.387L81.2727 347.543L32.3884 319.319L32.5481 263.165Z" fill="#1B1A19"/>
</g>
<path fill-rule="evenodd" clip-rule="evenodd" d="M205.382 378.603L251.406 405.174L297.116 378.61L251.093 352.04L205.382 378.603ZM250.696 408.056L201.825 379.842L201.822 377.375L250.374 349.159L251.802 349.158L300.672 377.372L300.677 379.839L252.124 408.054L250.696 408.056Z" fill="#1B1A19"/>
<mask id="mask3_104_1876" style="mask-type:alpha" maskUnits="userSpaceOnUse" x="201" y="349" width="100" height="60">
<path d="M205.382 378.603L251.406 405.174L297.116 378.61L251.093 352.04L205.382 378.603ZM250.696 408.056L201.825 379.842L201.822 377.375L250.374 349.159L251.802 349.158L300.672 377.372L300.677 379.839L252.124 408.054L250.696 408.056Z" fill="white"/>
</mask>
<g mask="url(#mask3_104_1876)">
<path fill-rule="evenodd" clip-rule="evenodd" d="M205.382 378.603L251.406 405.174L297.116 378.61L251.093 352.04L205.382 378.603ZM250.696 408.056L201.825 379.842L201.822 377.375L250.374 349.159L251.802 349.158L300.672 377.372L300.677 379.839L252.124 408.054L250.696 408.056Z" fill="#1B1A19"/>
</g>
<path fill-rule="evenodd" clip-rule="evenodd" d="M252.678 407.651L252.827 460.521L298.865 433.941L298.716 381.071L252.678 407.651ZM252.122 464.22L249.984 462.99L249.824 406.834L250.537 405.596L299.421 377.372L301.559 378.603L301.719 434.757L301.006 435.996L252.122 464.22Z" fill="#1B1A19"/>
<mask id="mask4_104_1876" style="mask-type:alpha" maskUnits="userSpaceOnUse" x="249" y="377" width="53" height="88">
<path d="M252.678 407.651L252.827 460.521L298.865 433.941L298.716 381.071L252.678 407.651ZM252.122 464.22L249.984 462.99L249.824 406.834L250.537 405.596L299.421 377.372L301.559 378.603L301.719 434.757L301.006 435.996L252.122 464.22Z" fill="white"/>
</mask>
<g mask="url(#mask4_104_1876)">
<path fill-rule="evenodd" clip-rule="evenodd" d="M252.678 407.651L252.827 460.521L298.865 433.941L298.716 381.071L252.678 407.651ZM252.122 464.22L249.984 462.99L249.824 406.834L250.537 405.596L299.421 377.372L301.559 378.603L301.719 434.757L301.006 435.996L252.122 464.22Z" fill="#1B1A19"/>
</g>
<path fill-rule="evenodd" clip-rule="evenodd" d="M203.966 433.941L250.005 460.521L250.155 407.651L204.115 381.071L203.966 433.941ZM250.711 464.22L201.825 435.996L201.112 434.757L201.272 378.603L203.41 377.372L252.296 405.596L253.008 406.834L252.849 462.99L250.711 464.22Z" fill="#1B1A19"/>
<mask id="mask5_104_1876" style="mask-type:alpha" maskUnits="userSpaceOnUse" x="201" y="377" width="53" height="88">
<path d="M203.966 433.941L250.005 460.521L250.155 407.651L204.115 381.071L203.966 433.941ZM250.711 464.22L201.825 435.996L201.112 434.757L201.272 378.603L203.41 377.372L252.296 405.596L253.008 406.834L252.849 462.99L250.711 464.22Z" fill="white"/>
</mask>
<g mask="url(#mask5_104_1876)">
<path fill-rule="evenodd" clip-rule="evenodd" d="M203.966 433.941L250.005 460.521L250.155 407.651L204.115 381.071L203.966 433.941ZM250.711 464.22L201.825 435.996L201.112 434.757L201.272 378.603L203.41 377.372L252.296 405.596L253.008 406.834L252.849 462.99L250.711 464.22Z" fill="#1B1A19"/>
</g>
<path fill-rule="evenodd" clip-rule="evenodd" d="M495.311 42.6207L522.583 58.3653L549.666 42.6279L522.394 26.8818L495.311 42.6207ZM521.873 61.2472L491.755 43.8593L491.751 41.3922L521.674 24.0029L523.103 24L553.222 41.3893L553.226 43.8564L523.302 61.2457L521.873 61.2472Z" fill="#1B1A19"/>
<mask id="mask6_104_1876" style="mask-type:alpha" maskUnits="userSpaceOnUse" x="491" y="24" width="63" height="38">
<path d="M495.311 42.6207L522.583 58.3653L549.666 42.6279L522.394 26.8818L495.311 42.6207ZM521.873 61.2472L491.755 43.8593L491.751 41.3922L521.674 24.0029L523.103 24L553.222 41.3893L553.226 43.8564L523.302 61.2457L521.873 61.2472Z" fill="white"/>
</mask>
<g mask="url(#mask6_104_1876)">
<path fill-rule="evenodd" clip-rule="evenodd" d="M495.311 42.6207L522.583 58.3653L549.666 42.6279L522.394 26.8818L495.311 42.6207ZM521.873 61.2472L491.755 43.8593L491.751 41.3922L521.674 24.0029L523.103 24L553.222 41.3893L553.226 43.8564L523.302 61.2457L521.873 61.2472Z" fill="#1B1A19"/>
</g>
<path fill-rule="evenodd" clip-rule="evenodd" d="M522.588 94.6259L522.489 60.0183L552.616 42.6233L552.714 77.2323L522.588 94.6259Z" fill="#1B1A19"/>
<mask id="mask7_104_1876" style="mask-type:alpha" maskUnits="userSpaceOnUse" x="522" y="42" width="31" height="53">
<path d="M522.588 94.6259L522.489 60.0183L552.616 42.6233L552.714 77.2323L522.588 94.6259Z" fill="white"/>
</mask>
<g mask="url(#mask7_104_1876)">
<path fill-rule="evenodd" clip-rule="evenodd" d="M552.616 42.6233L522.489 60.0183L522.588 94.6259L552.714 77.2323L552.616 42.6233Z" fill="#1B1A19"/>
</g>
<path fill-rule="evenodd" clip-rule="evenodd" d="M493.896 76.4115L521.178 92.1618L521.265 60.8394L493.986 45.0891L493.896 76.4115ZM521.883 95.8603L491.755 78.4667L491.043 77.2282L491.143 42.6191L493.28 41.3892L523.406 58.7842L524.118 60.0227L524.021 94.6303L521.883 95.8603Z" fill="#1B1A19"/>
<mask id="mask8_104_1876" style="mask-type:alpha" maskUnits="userSpaceOnUse" x="491" y="41" width="34" height="55">
<path d="M493.896 76.4115L521.178 92.1618L521.265 60.8394L493.986 45.0891L493.896 76.4115ZM521.883 95.8603L491.755 78.4667L491.043 77.2282L491.142 42.6191L493.28 41.3892L523.406 58.7842L524.118 60.0227L524.021 94.6303L521.883 95.8603Z" fill="white"/>
</mask>
<g mask="url(#mask8_104_1876)">
<path fill-rule="evenodd" clip-rule="evenodd" d="M493.896 76.4115L521.178 92.1618L521.265 60.8394L493.986 45.0891L493.896 76.4115ZM521.883 95.8603L491.755 78.4667L491.043 77.2282L491.142 42.6191L493.28 41.3892L523.406 58.7842L524.118 60.0227L524.021 94.6303L521.883 95.8603Z" fill="#1B1A19"/>
</g>
<path fill-rule="evenodd" clip-rule="evenodd" d="M120.096 482.292C116.224 482.294 112.349 481.419 109.321 479.673C106.172 477.853 104.427 475.35 104.41 472.624V417.387H107.261V472.615C107.27 474.28 108.509 475.912 110.747 477.203C115.91 480.186 124.286 480.186 129.416 477.206C131.632 475.917 132.848 474.29 132.838 472.625V417.387H135.688L135.688 472.617C135.704 475.339 133.985 477.847 130.848 479.67C127.84 481.419 123.97 482.292 120.096 482.292Z" fill="#1B1A19"/>
<path fill-rule="evenodd" clip-rule="evenodd" d="M91.1168 257.346C85.5455 254.129 76.5508 254.126 71.0138 257.343C65.4839 260.557 65.5124 265.77 71.0851 268.987C76.652 272.201 85.6524 272.201 91.1823 268.987C96.718 265.77 96.6837 260.56 91.1168 257.346Z" fill="#1B1A19"/>
<path fill-rule="evenodd" clip-rule="evenodd" d="M402.417 284.833H201.279V109.052H476.266V209.579H473.415V111.903H204.13V281.982H402.417V284.833Z" fill="#1B1A19"/>
<path fill-rule="evenodd" clip-rule="evenodd" d="M291.461 250.152C268.657 248.251 270.557 227.349 262.956 211.195C257.042 198.627 235.014 195.834 202.704 184.921V283.407H366.999C355.121 283.407 342.252 269.392 330.655 257.041C319.056 244.688 314.265 252.052 291.461 250.152Z" fill="#1B1A19"/>
<path fill-rule="evenodd" clip-rule="evenodd" d="M275.771 421.789H387.545V418.939H275.771V421.789Z" fill="#1B1A19"/>
<path fill-rule="evenodd" clip-rule="evenodd" d="M611.426 421.789H562.137V418.939H608.575V177.94H611.426V421.789Z" fill="#1B1A19"/>
<path fill-rule="evenodd" clip-rule="evenodd" d="M474.841 157.987H588.622V155.136H474.841V157.987Z" fill="#1B1A19"/>
<path fill-rule="evenodd" clip-rule="evenodd" d="M82.5255 263.165H79.675V155.136H247.635V157.987H82.5255V263.165Z" fill="#1B1A19"/>
<path fill-rule="evenodd" clip-rule="evenodd" d="M105.835 421.79H79.675V373.198H82.5255V418.939H105.835V421.79Z" fill="#1B1A19"/>
<path fill-rule="evenodd" clip-rule="evenodd" d="M134.263 421.789H182.43V418.939H134.263V421.789Z" fill="#1B1A19"/>
<path fill-rule="evenodd" clip-rule="evenodd" d="M203.3 572.731H299.532L251.416 489.393L203.3 572.731ZM304.469 575.581H198.363L251.416 483.692L304.469 575.581Z" fill="#1B1A19"/>
<path fill-rule="evenodd" clip-rule="evenodd" d="M200.832 574.156L275.937 529.014L302.001 574.156H200.832Z" fill="#1B1A19"/>
<path fill-rule="evenodd" clip-rule="evenodd" d="M388.97 518.713H560.711V393.715H388.97V518.713ZM386.12 521.563H563.562V390.865H386.12V521.563Z" fill="#1B1A19"/>
<path fill-rule="evenodd" clip-rule="evenodd" d="M388.97 430.348H560.711V393.715H388.97V430.348ZM386.12 433.198H563.562V390.865H386.12V433.198Z" fill="#1B1A19"/>
<path fill-rule="evenodd" clip-rule="evenodd" d="M408.713 499.687H501.208V453.367H408.713V499.687ZM405.862 502.538H504.058V450.517H405.862V502.538Z" fill="#1B1A19"/>
<path fill-rule="evenodd" clip-rule="evenodd" d="M544.321 491.492C544.321 496.805 540.014 501.112 534.701 501.112C529.389 501.112 525.08 496.805 525.08 491.492C525.08 486.179 529.389 481.872 534.701 481.872C540.014 481.872 544.321 486.179 544.321 491.492Z" fill="#1B1A19"/>
<path fill-rule="evenodd" clip-rule="evenodd" d="M407.287 417.806C403.942 417.806 401.23 415.094 401.23 411.749C401.23 408.402 403.942 405.692 407.287 405.692C410.632 405.692 413.345 408.402 413.345 411.749C413.345 415.094 410.632 417.806 407.287 417.806ZM387.545 431.49H427.028V392.006H387.545V431.49Z" fill="#1B1A19"/>
<path fill-rule="evenodd" clip-rule="evenodd" d="M476.245 211.004C436.322 211.004 403.843 243.484 403.843 283.407C403.843 323.331 436.322 355.811 476.245 355.811C516.168 355.811 548.648 323.331 548.648 283.407C548.648 243.484 516.168 211.004 476.245 211.004ZM476.245 358.661C434.75 358.661 400.992 324.902 400.992 283.407C400.992 241.913 434.75 208.153 476.245 208.153C517.74 208.153 551.499 241.913 551.499 283.407C551.499 324.902 517.74 358.661 476.245 358.661Z" fill="#1B1A19"/>
<path fill-rule="evenodd" clip-rule="evenodd" d="M485.45 284.745H454.209V281.895H485.45C491.741 281.895 496.858 276.778 496.858 270.489C496.858 264.199 491.741 259.081 485.45 259.081H454.209V256.231H485.45C493.313 256.231 499.708 262.627 499.708 270.489C499.708 278.35 493.313 284.745 485.45 284.745Z" fill="#1B1A19"/>
<path fill-rule="evenodd" clip-rule="evenodd" d="M485.45 310.41H454.209V307.56H485.45C491.741 307.56 496.858 302.443 496.858 296.153C496.858 289.864 491.741 284.746 485.45 284.746H454.209V281.895H485.45C493.313 281.895 499.708 288.292 499.708 296.153C499.708 304.015 493.313 310.41 485.45 310.41Z" fill="#1B1A19"/>
<path fill-rule="evenodd" clip-rule="evenodd" d="M459.11 312.581H461.961V254.234H459.11V312.581Z" fill="#1B1A19"/>
<path fill-rule="evenodd" clip-rule="evenodd" d="M275.739 409.026C270.292 412.172 265.887 419.8 265.905 426.061C265.922 432.325 270.355 434.846 275.803 431.701C281.255 428.554 285.655 420.931 285.638 414.667C285.619 408.406 281.191 405.878 275.739 409.026Z" fill="#1B1A19"/>
<path fill-rule="evenodd" clip-rule="evenodd" d="M651.606 555.13L639.201 547.631L639.231 546.796C639.318 544.269 641.42 484.8 643.655 476.61C645.881 468.45 681.795 394.797 683.323 391.666L685.884 392.915C685.512 393.679 648.562 469.456 646.405 477.361C644.394 484.729 642.378 538.659 642.108 546.059L650.108 550.894C652.943 542.946 665.054 508.316 664.714 497.77C664.657 496.001 664.433 491.945 664.171 488.478C663.83 483.948 665.374 479.419 668.407 476.048C692.861 448.86 708.524 430.62 710.306 427.255C713.525 421.174 718.564 404.085 718.615 403.914L721.349 404.716C721.14 405.43 716.178 422.255 712.826 428.589C710.206 433.535 685.199 461.64 670.525 477.955C668.01 480.75 666.731 484.507 667.013 488.264C667.278 491.768 667.504 495.88 667.561 497.679C667.965 510.106 652.844 551.737 652.199 553.503L651.606 555.13Z" fill="#1B1A19"/>
<path fill-rule="evenodd" clip-rule="evenodd" d="M0 374.623H56.9112V371.772H0V374.623Z" fill="#1B1A19"/>
<path fill-rule="evenodd" clip-rule="evenodd" d="M610 136.608C598.998 136.608 590.047 145.559 590.047 156.561C590.047 167.564 598.998 176.515 610 176.515C621.003 176.515 629.954 167.564 629.954 156.561C629.954 145.559 621.003 136.608 610 136.608ZM610 179.365C597.427 179.365 587.197 169.135 587.197 156.561C587.197 143.988 597.427 133.758 610 133.758C622.574 133.758 632.804 143.988 632.804 156.561C632.804 169.135 622.574 179.365 610 179.365Z" fill="#1B1A19"/>
<path fill-rule="evenodd" clip-rule="evenodd" d="M654.411 353.446C652.662 353.446 651.101 352.892 649.552 352.246C646.643 351.033 616.294 335.866 615.004 335.22L614.236 334.837L613.985 323.391L615.954 324.122C629.297 329.085 650.303 336.466 653.482 336.466C656.207 336.466 673.18 327.215 687.767 318.509L689.228 320.958C684.09 324.024 658.223 339.316 653.482 339.316C649.277 339.316 624.612 330.353 616.927 327.521L617.047 333.055C621.9 335.478 648.078 348.545 650.65 349.615C653.417 350.77 655.085 351.05 657.635 349.676C659.639 348.597 670.403 343.977 679.082 340.291L680.195 342.915C668.008 348.091 660.475 351.384 658.986 352.186C657.285 353.103 655.789 353.446 654.411 353.446Z" fill="#1B1A19"/>
<path fill-rule="evenodd" clip-rule="evenodd" d="M688.93 368.35L686.132 367.804C686.142 367.753 687.1 362.595 685.244 356.509C684.278 353.345 682.593 350.428 681.107 347.854C679.576 345.206 678.255 342.919 678.063 340.926C677.634 336.494 680.426 331.576 683.382 326.368C685.844 322.034 688.388 317.552 689.122 313.26L689.365 311.838L690.784 312.099C692.188 312.357 699.299 313.785 701.382 316.496L699.122 318.233C698.223 317.06 694.571 315.856 691.631 315.184C690.576 319.471 688.185 323.686 685.862 327.776C683.135 332.579 680.558 337.117 680.899 340.652C681.033 342.029 682.267 344.165 683.574 346.428C685.139 349.134 686.91 352.202 687.969 355.678C690.043 362.477 688.976 368.113 688.93 368.35Z" fill="#1B1A19"/>
<path fill-rule="evenodd" clip-rule="evenodd" d="M690.508 389.69L696.468 394.978C710.682 382.151 725.403 367.735 726.012 365.238C727.649 357.554 710.229 326.138 707.841 324.406C705.619 323.398 701.224 322.245 699.266 323.649C698.295 324.345 697.912 325.757 698.125 327.845C698.271 329.259 701.255 335.973 703.889 341.898C708.319 351.862 711.233 358.575 711.367 361.005C711.61 365.332 696.531 382.869 690.508 389.69ZM696.481 398.801L686.483 389.93L687.432 388.862C697.582 377.453 708.533 363.616 708.521 361.157C708.406 359.074 704.458 350.191 701.285 343.055C697.686 334.963 695.472 329.912 695.289 328.136C694.963 324.956 695.742 322.667 697.605 321.332C701.525 318.521 708.35 321.514 709.117 321.865C712.609 323.46 730.733 356.758 728.798 365.833C727.816 370.446 702.494 393.396 697.429 397.948L696.481 398.801Z" fill="#1B1A19"/>
<path fill-rule="evenodd" clip-rule="evenodd" d="M686.977 282.38C685.696 284.575 684.523 286.524 683.477 288.266C678.436 296.646 676.937 299.394 678.945 301.402C680.565 303.017 689.144 299.612 696.381 295.334L698.569 284.543L686.977 282.38ZM680.406 304.581C678.963 304.581 677.752 304.24 676.929 303.418C673.249 299.738 675.688 295.683 681.034 286.796C682.211 284.84 683.547 282.619 685.018 280.079L685.521 279.208L701.937 282.271L698.925 297.131L698.389 297.454C695.194 299.381 686.041 304.581 680.406 304.581Z" fill="#1B1A19"/>
<path fill-rule="evenodd" clip-rule="evenodd" d="M378.401 196.942H375.55V67.2002H507.581V70.0507H378.401V196.942Z" fill="#1B1A19"/>
<path fill-rule="evenodd" clip-rule="evenodd" d="M256.543 156.561C256.543 161.48 252.554 165.469 247.635 165.469C242.715 165.469 238.727 161.48 238.727 156.561C238.727 151.641 242.715 147.653 247.635 147.653C252.554 147.653 256.543 151.641 256.543 156.561Z" fill="#1B1A19"/>
<path fill-rule="evenodd" clip-rule="evenodd" d="M385.883 196.942C385.883 201.862 381.894 205.85 376.975 205.85C372.055 205.85 368.068 201.862 368.068 196.942C368.068 192.024 372.055 188.035 376.975 188.035C381.894 188.035 385.883 192.024 385.883 196.942Z" fill="#1B1A19"/>
<path fill-rule="evenodd" clip-rule="evenodd" d="M331.659 575.581H677.983V572.73H331.659V575.581Z" fill="#1B1A19"/>
<path fill-rule="evenodd" clip-rule="evenodd" d="M700.252 575.581H719.982V572.73H700.252V575.581Z" fill="#1B1A19"/>
<path fill-rule="evenodd" clip-rule="evenodd" d="M407.287 477.953H502.633V475.102H407.287V477.953Z" fill="#1B1A19"/>
<path fill-rule="evenodd" clip-rule="evenodd" d="M429.698 501.113H432.548V451.942H429.698V501.113Z" fill="#1B1A19"/>
<path fill-rule="evenodd" clip-rule="evenodd" d="M453.535 501.113H456.385V451.942H453.535V501.113Z" fill="#1B1A19"/>
<path fill-rule="evenodd" clip-rule="evenodd" d="M477.37 501.113H480.221V451.942H477.37V501.113Z" fill="#1B1A19"/>
<path fill-rule="evenodd" clip-rule="evenodd" d="M691.796 312.421L696.227 313.895V298.568L690.07 301.725L691.796 312.421ZM699.078 317.846L689.256 314.58L686.925 300.134L699.078 293.902V317.846Z" fill="#1B1A19"/>
<path fill-rule="evenodd" clip-rule="evenodd" d="M682.905 264.121C676.686 264.121 676.998 275.093 680.319 277.468C683.638 279.844 682.449 280.085 686.25 280.794C690.052 281.503 696.227 283.407 695.278 286.258C694.327 289.108 691.421 289.18 693.469 291.994C695.514 294.809 695.949 300.985 695.375 306.211C694.802 311.436 691.986 317.87 697.433 323.561C702.879 329.252 709.16 330.762 713.502 329.77C717.844 328.777 737.322 318.326 736.846 306.211C736.372 294.097 722.357 297.018 717.606 291.994C712.855 286.97 710.955 275.093 703.591 273.193C696.227 271.293 689.553 269.155 688.497 267.73C687.439 266.305 687.706 264.121 682.905 264.121Z" fill="#1B1A19"/>
<path fill-rule="evenodd" clip-rule="evenodd" d="M611.425 315.386V327.285C611.425 328.551 612.048 329.734 613.087 330.452L614.17 331.12C614.341 326.892 614.287 320.11 612.859 317.606L612.759 317.428C612.469 316.915 612.013 316.108 611.425 315.386ZM616.695 336.027L611.529 332.838C609.657 331.548 608.575 329.487 608.575 327.285V310.588L610.452 311.214C613.002 312.063 614.514 314.74 615.241 316.027L615.336 316.195C617.825 320.561 616.982 332.367 616.877 333.699L616.695 336.027Z" fill="#1B1A19"/>
<path fill-rule="evenodd" clip-rule="evenodd" d="M618.426 565.415L642.574 572.035L649.143 553.588L642.744 549.363L639.366 563.329L638.144 563.223C638.076 563.217 631.243 562.63 626.426 562.752C622.843 562.845 620.105 564.244 618.426 565.415ZM644.371 575.482L612.889 566.854L614.382 565.142C614.561 564.937 618.867 560.096 626.355 559.903C630.14 559.81 634.945 560.118 637.17 560.285L640.925 544.75L652.578 552.439L644.371 575.482Z" fill="#1B1A19"/>
<path fill-rule="evenodd" clip-rule="evenodd" d="M782.299 543.57L788.3 549.817L787.554 550.789C787.512 550.843 783.342 556.285 780.853 560.412C778.986 563.509 778.694 566.562 778.784 568.597L796.286 552.771L787.961 539.944L782.299 543.57ZM777.027 574.03L776.385 571.853C776.31 571.589 774.545 565.356 778.412 558.941C780.365 555.703 783.215 551.817 784.553 550.031L777.836 543.041L788.811 536.018L800 553.258L777.027 574.03Z" fill="#1B1A19"/>
<path fill-rule="evenodd" clip-rule="evenodd" d="M119.996 410.564C116.617 410.564 113.244 411.308 110.68 412.798C108.473 414.08 107.259 415.702 107.261 417.363C107.263 419.04 108.5 420.679 110.747 421.975C115.91 424.958 124.286 424.958 129.416 421.977C131.625 420.693 132.841 419.071 132.838 417.411C132.835 415.735 131.598 414.099 129.353 412.803C126.768 411.31 123.38 410.564 119.996 410.564ZM120.096 427.064C116.224 427.066 112.349 426.191 109.321 424.445C106.159 422.617 104.414 420.103 104.41 417.367C104.407 414.646 106.125 412.148 109.247 410.333C115.263 406.837 124.721 406.836 130.778 410.333C133.941 412.159 135.684 414.67 135.688 417.407C135.693 420.128 133.974 422.626 130.848 424.442C127.84 426.19 123.97 427.064 120.096 427.064Z" fill="#1B1A19"/>
<path fill-rule="evenodd" clip-rule="evenodd" d="M130.133 423.211C127.566 424.701 124.254 425.491 120.883 425.598V480.826C124.254 480.719 127.566 479.929 130.133 478.438C132.901 476.829 134.275 474.723 134.263 472.616L134.263 417.388C134.275 419.495 132.901 421.601 130.133 423.211Z" fill="#1B1A19"/>
<path fill-rule="evenodd" clip-rule="evenodd" d="M756.563 505.27C746.587 498.144 737.085 478.665 734.709 470.86C732.334 463.056 727.582 457.761 718.682 451.942C712.69 448.024 709.244 441.557 708.169 432.6C705.771 435.617 702.363 439.669 698.482 444.179C710.232 464.586 724.887 482.562 730.032 487.383C735.94 492.923 779.153 543.891 779.153 543.891L784.491 540.473C784.491 540.473 766.54 512.395 756.563 505.27Z" fill="#1B1A19"/>
<path fill-rule="evenodd" clip-rule="evenodd" d="M700.222 444.34C711.956 464.511 726.23 481.866 731.006 486.344C736.53 491.522 773.307 534.801 779.434 542.018L786.513 537.489C782.317 529.55 758.023 483.606 756.372 480.964V480.965C755.108 478.941 748.311 474.52 745.409 472.632C744.355 471.945 743.555 471.423 743.212 471.165C741.364 469.78 742.58 467.703 743.233 466.588C743.649 465.876 744.119 465.071 744.119 464.485C744.119 463.767 743.133 463.211 741.743 462.503C741.198 462.226 740.632 461.938 740.137 461.609C739.048 460.882 736.302 454.965 722.102 420.173C720.869 417.152 719.773 414.465 718.947 412.456C717.17 417.941 714.724 425.002 712.825 428.589C711.825 430.473 707.702 435.628 700.222 444.34ZM778.871 545.762L778.066 544.812C777.634 544.303 734.84 493.845 729.057 488.424C724.108 483.783 709.221 465.688 697.248 444.89L696.743 444.015L697.402 443.249C706.929 432.178 709.679 428.441 710.306 427.255C712.566 422.987 715.72 413.301 717.399 407.908L718.505 404.354L720.056 407.738C720.526 408.766 722.295 413.098 724.742 419.096C729.766 431.406 740.149 456.846 741.86 459.327C742.194 459.535 742.603 459.743 743.035 459.962C744.695 460.807 746.97 461.963 746.97 464.485C746.97 465.844 746.261 467.054 745.693 468.026C745.512 468.333 745.262 468.762 745.143 469.043C745.528 469.31 746.167 469.724 746.964 470.243C751.911 473.461 757.313 477.093 758.789 479.453V479.455C760.642 482.419 788.463 535.076 789.646 537.316L790.259 538.475L778.871 545.762Z" fill="#1B1A19"/>
<path fill-rule="evenodd" clip-rule="evenodd" d="M688.24 391.487C686.326 392.436 685.374 393.634 685.41 395.053C685.472 397.56 688.277 400.114 688.968 400.356C688.977 400.356 688.985 400.356 688.993 400.356C689.698 400.358 692.055 398.82 694.327 396.889L688.24 391.487ZM688.839 403.176C688.548 403.176 688.277 403.134 688.025 403.046C686.201 402.406 682.653 398.823 682.559 395.126C682.509 393.125 683.406 390.35 687.958 388.49L688.78 388.155L698.594 396.865L697.446 397.934C695.238 399.983 691.391 403.176 688.839 403.176Z" fill="#1B1A19"/>
<path fill-rule="evenodd" clip-rule="evenodd" d="M688.497 389.81C688.497 389.81 710.187 365.43 709.945 361.083C709.831 359.031 706.956 352.336 703.915 345.465C690.287 349.459 680.312 362.281 680.312 377.494C680.312 383.265 681.747 388.693 684.271 393.426C684.787 392.083 686.053 390.808 688.497 389.81Z" fill="#1B1A19"/>
<path fill-rule="evenodd" clip-rule="evenodd" d="M721.357 345.304C725.192 353.6 728.181 361.894 727.404 365.537C726.469 369.929 696.475 396.889 696.475 396.889C696.475 396.889 692.787 400.31 690.227 401.416C696.095 407.232 704.092 410.819 712.911 410.819C730.916 410.819 745.512 395.9 745.512 377.494C745.512 362.076 735.267 349.109 721.357 345.304Z" fill="#1B1A19"/>
</svg>
