<svg width="800" height="600" viewBox="0 0 800 600" fill="none" xmlns="http://www.w3.org/2000/svg">
<path d="M34.6518 348.158H0V313.544H34.6131L34.6518 348.158ZM2.5821 345.575H32.031V316.127H2.5821V345.575Z" fill="#231F20"/>
<path d="M33.3608 346.866H1.32983V378.897H33.3608V346.866Z" fill="#231F20"/>
<path d="M33.3608 380.189H1.29105L0 378.897V346.866L1.29105 345.575H33.322L34.6131 346.866V378.897L33.3608 380.189ZM2.62083 377.606H32.0697V348.158H2.5821L2.62083 377.606Z" fill="#231F20"/>
<path d="M34.6518 412.194H0V377.606H34.6131L34.6518 412.194ZM2.5821 409.612H32.031V380.189H2.5821V409.612Z" fill="#231F20"/>
<path d="M66.6827 348.158H32.0696V313.544H66.6827V348.158ZM34.6517 345.575H64.1006V316.127H34.6517V345.575Z" fill="#231F20"/>
<path d="M66.6827 380.189H32.0696V345.575H66.6827V380.189ZM34.6517 377.606H64.1006V348.158H34.6517V377.606Z" fill="#231F20"/>
<path d="M65.3917 378.897H33.3607V410.928H65.3917V378.897Z" fill="#231F20"/>
<path d="M65.3916 412.194H33.3606L32.0696 410.903V378.897L33.3606 377.606H65.3916L66.6827 378.897V410.903L65.3916 412.194ZM34.6517 409.612H64.1006V380.189H34.6517V409.612Z" fill="#231F20"/>
<path d="M98.7138 348.158H64.1007V313.544H98.7138V348.158ZM66.6828 345.575H96.1317V316.127H66.6828V345.575Z" fill="#231F20"/>
<path d="M98.7138 380.189H64.1007V345.575H98.7138V380.189ZM66.6828 377.606H96.1317V348.158H66.6828V377.606Z" fill="#231F20"/>
<path d="M98.7138 412.194H64.1007V377.606H98.7138V412.194ZM66.6828 409.612H96.1317V380.189H66.6828V409.612Z" fill="#231F20"/>
<path d="M130.732 348.158H96.1316V313.544H130.732V348.158ZM98.7137 345.575H128.15V316.127H98.7137V345.575Z" fill="#231F20"/>
<path d="M130.732 380.189H96.1316V345.575H130.732V380.189ZM98.7137 377.606H128.15V348.158H98.7137V377.606Z" fill="#231F20"/>
<path d="M130.732 412.194H96.1316V377.606H130.732V412.194ZM98.7137 409.612H128.15V380.189H98.7137V409.612Z" fill="#231F20"/>
<path d="M161.472 348.158H128.15V314.849H130.732V345.576H161.472V348.158Z" fill="#231F20"/>
<path d="M162.763 380.189H128.15V345.575H162.763V380.189ZM130.732 377.606H160.181V348.158H130.732V377.606Z" fill="#231F20"/>
<path d="M162.763 412.194H128.15V377.606H162.763V412.194ZM130.732 409.612H160.181V380.189H130.732V409.612Z" fill="#231F20"/>
<path d="M180.515 348.158H160.181V322.078H162.763V345.575H180.515V348.158Z" fill="#231F20"/>
<path d="M188.597 313.544H176.952V316.127H188.597V313.544Z" fill="#231F20"/>
<path d="M162.763 410.928H160.181V377.606H171.994V380.189H162.763V410.928Z" fill="#231F20"/>
<path d="M263.465 443.489L260.715 376.289L209.15 384.333C203.711 385.162 198.148 384.328 193.193 381.938C188.237 379.548 184.118 375.716 181.38 370.945L175.131 359.971L211.965 341.186L212.378 341.263L272.657 351.308C276.215 351.908 279.451 353.732 281.808 356.463C284.166 359.195 285.495 362.664 285.568 366.271L286.781 441.41L263.465 443.489ZM263.168 373.294L265.957 440.674L284.147 439.06L282.973 366.323C282.913 363.321 281.811 360.433 279.852 358.157C277.894 355.881 275.203 354.358 272.244 353.851L212.391 343.884L178.746 361.042L183.665 369.666C186.14 373.986 189.865 377.455 194.35 379.619C198.834 381.783 203.867 382.539 208.789 381.789L263.168 373.294Z" fill="#231F20"/>
<path d="M188.222 554.21H125.155V521.417H188.222V554.21ZM127.737 551.628H185.64V523.999H127.737V551.628Z" fill="#231F20"/>
<path d="M248.708 554.209H185.64V492.858H248.708V554.209ZM188.222 551.627H246.126V495.441H188.222V551.627Z" fill="#231F20"/>
<path d="M309.194 554.21H246.126V467.438H309.194V554.21ZM248.708 551.627H306.612V470.02H248.708V551.627Z" fill="#231F20"/>
<path d="M218.769 286.2L207.395 285.451L207.679 270.862L218.769 271.701V286.2ZM210.028 283.089L216.187 283.489V274.051L210.209 273.599L210.028 283.089Z" fill="#231F20"/>
<path d="M222.254 274.568C219.545 274.408 216.903 273.664 214.508 272.386L214.25 272.257L206.387 261.67L217.194 246.642L223.778 252.091L223.894 252.362C226.799 258.585 230.233 271.289 225.405 273.858C224.429 274.348 223.347 274.592 222.254 274.568ZM216.006 270.243C217.775 271.121 222.022 272.76 224.23 271.534C226.437 270.307 225.043 260.947 221.712 253.666L217.71 250.361L209.615 261.606L216.006 270.243Z" fill="#231F20"/>
<path d="M212.055 242.653C200.061 242.653 191.773 258.081 187.396 264.6C196.434 274.051 211.926 274.929 216.2 274.864C216.083 270.823 215.619 267.828 215.399 264.833C208.014 263.219 211.319 257.087 215.515 258.223C217.906 255.311 221.024 253.086 224.553 251.767C223.003 243.569 217.168 242.653 212.055 242.653Z" fill="#231F20"/>
<path d="M482.053 46H326.197C318.785 46 311.677 48.9423 306.432 54.1814C301.189 59.4205 298.239 66.5264 298.233 73.9384V421.154C298.233 424.825 298.956 428.462 300.362 431.855C301.767 435.248 303.827 438.331 306.423 440.927C309.02 443.524 312.103 445.584 315.496 446.989C318.888 448.395 322.525 449.118 326.197 449.118H482.053C489.461 449.104 496.56 446.152 501.793 440.909C507.026 435.666 509.965 428.562 509.965 421.154V73.9384C509.959 66.5355 507.017 59.4373 501.784 54.1995C496.551 48.963 489.456 46.0142 482.053 46ZM498.075 74.4031L498.346 420.921C498.346 425.206 496.644 429.316 493.617 432.346C490.588 435.377 486.48 437.081 482.195 437.085H326.636C322.355 437.085 318.248 435.385 315.221 432.359C312.192 429.334 310.489 425.228 310.485 420.947L310.214 74.429C310.214 70.144 311.915 66.0345 314.943 63.0044C317.972 59.9731 322.08 58.2689 326.365 58.265H355.943C355.943 59.711 356.228 61.1415 356.781 62.4777C357.335 63.8126 358.147 65.0262 359.169 66.0474C360.192 67.0687 361.407 67.8794 362.742 68.4307C364.078 68.9833 365.51 69.266 366.956 69.2648H441.294C442.739 69.266 444.171 68.9833 445.506 68.4307C446.841 67.8781 448.054 67.0687 449.075 66.0461C450.098 65.0249 450.907 63.8113 451.46 62.4764C452.013 61.1414 452.295 59.7097 452.294 58.265H481.924C484.046 58.265 486.147 58.6833 488.108 59.4954C490.068 60.3087 491.849 61.4991 493.348 63.0006C494.848 64.5008 496.039 66.2837 496.85 68.2448C497.66 70.2046 498.076 72.3065 498.075 74.429V74.4031Z" fill="#231F20"/>
<path d="M502.413 316.178H387.845V203.856H441.54V255.499H502.374L502.413 316.178ZM390.427 313.596H499.831V258.081H438.958V206.439H390.427V313.596Z" fill="#231F20"/>
<path d="M420.844 205.199H418.262V151.375H501.122V153.958H420.844V205.199Z" fill="#231F20"/>
<path d="M663.768 296.361H506.97V248.785H621.551V208.763H663.768V296.361ZM509.552 293.778H661.186V211.384H624.133V251.406H509.552V293.778Z" fill="#231F20"/>
<path d="M546.825 168.094H505.963V170.677H546.825V168.094Z" fill="#231F20"/>
<path d="M640.207 209.937H637.624V170.677H602.676V168.094H640.207V209.937Z" fill="#231F20"/>
<path d="M693.295 372.675H667.474V371.384C668.92 319.161 694.134 245.377 706.825 224.204L707.199 223.571H728.644V226.153H708.787C696.199 247.727 672.005 318.902 670.211 370.118H692.158C692.727 362.514 696.264 320.968 706.928 297.6C714.534 281.508 723.664 266.182 734.195 251.832L736.261 253.381C725.845 267.584 716.809 282.75 709.278 298.672C697.762 323.899 694.676 370.97 694.637 371.487V372.7L693.295 372.675Z" fill="#231F20"/>
<path d="M767.853 373.294L711.498 289.673L713.642 288.227L768.395 369.486L784.778 355.93L729.818 259.385L732.052 258.107L788.096 356.536L767.853 373.294Z" fill="#231F20"/>
<path d="M722.369 271.973C720.639 279.577 723.015 283.437 728.889 288.304C734.763 293.172 739.127 296.722 740.637 300.763C743.504 308.367 743.503 318.567 747.725 324.092C751.779 329.386 760.868 331.348 765.18 338.436C767.917 342.929 774.437 366.168 774.437 366.168L768.124 371.332L712.609 288.898L722.369 271.973Z" fill="#231F20"/>
<path d="M710.765 159.124L708.213 183.663L710.781 183.931L713.333 159.392L710.765 159.124Z" fill="#231F20"/>
<path d="M706.993 225.585L703.416 220.563L704.888 209.215L707.445 209.537L706.102 219.892L709.084 224.087L706.993 225.585Z" fill="#231F20"/>
<path d="M695.567 253.872H688.544L695.825 209.873L698.368 210.299L691.59 251.29H695.567V253.872Z" fill="#231F20"/>
<path d="M772.178 253.872H734.143L733.911 252.878C733.834 252.568 726.849 222.951 721.878 199.841L713.125 206.916C709.896 209.549 705.996 211.225 701.863 211.757C697.732 212.288 693.535 211.653 689.744 209.925L665.137 198.822L668.765 185.795L694.082 193.012C695.256 193.347 696.499 193.358 697.678 193.044C698.858 192.73 699.931 192.104 700.783 191.23L716.805 174.008V171.051C716.688 166.158 718.199 162.091 721.091 159.677C722.447 158.605 724.031 157.856 725.719 157.49C727.409 157.123 729.16 157.146 730.838 157.56C737.616 158.851 741.025 166.816 750.14 187.964L751.082 190.159C760.481 211.964 771.571 251.832 771.739 252.232L772.178 253.872ZM736.183 251.29H768.782C766.588 243.544 756.995 210.312 748.745 191.178L747.803 188.984C739.088 168.753 735.822 161.174 730.361 160.09C729.064 159.75 727.708 159.714 726.395 159.985C725.083 160.257 723.851 160.827 722.795 161.652C720.523 163.563 719.322 166.894 719.425 171.038V175.027L702.642 193.012C701.464 194.224 699.981 195.096 698.349 195.532C696.717 195.968 694.997 195.954 693.372 195.491L670.559 189.035L668.209 197.427L690.79 207.614C694.14 209.134 697.848 209.691 701.497 209.221C705.145 208.751 708.591 207.273 711.447 204.954L737.268 184.026L738.895 186.027L724.009 198.06C728.592 218.923 734.905 245.816 736.183 251.29Z" fill="#231F20"/>
<path d="M709.885 147.179H709.691C708.894 147.174 708.115 146.953 707.433 146.543C706.753 146.131 706.194 145.544 705.818 144.843C703.236 140.698 704.269 131.751 708.077 124.018L708.632 122.869L709.794 123.424C710.143 123.592 718.573 127.685 723.053 132.164L723.763 132.875L723.247 133.74C722.808 134.475 722.369 135.276 721.956 136.102C719.206 141.073 715.772 147.179 709.885 147.179ZM709.885 126.329C706.67 133.546 706.399 140.75 708.077 143.5C708.221 143.82 708.453 144.094 708.745 144.287C709.038 144.481 709.379 144.59 709.73 144.597H709.859C714.248 144.597 717.14 139.433 719.697 134.837L720.562 133.314C717.277 130.597 713.701 128.254 709.898 126.329H709.885Z" fill="#231F20"/>
<path d="M718.535 136.232C724.388 136.232 729.134 131.255 729.134 125.116C729.134 118.977 724.388 114 718.535 114C712.681 114 707.935 118.977 707.935 125.116C707.935 131.255 712.681 136.232 718.535 136.232Z" fill="#231F20"/>
<path d="M727.366 126.097C731.871 126.097 735.525 122.443 735.525 117.937C735.525 113.432 731.871 109.778 727.366 109.778C722.86 109.778 719.206 113.432 719.206 117.937C719.206 122.443 722.86 126.097 727.366 126.097Z" fill="#231F20"/>
<path d="M736.777 116.762C740.342 116.762 743.232 113.872 743.232 110.307C743.232 106.742 740.342 103.852 736.777 103.852C733.213 103.852 730.322 106.742 730.322 110.307C730.322 113.872 733.213 116.762 736.777 116.762Z" fill="#231F20"/>
<path d="M744.704 110.294C747.35 110.294 749.494 108.15 749.494 105.504C749.494 102.859 747.35 100.715 744.704 100.715C742.059 100.715 739.914 102.859 739.914 105.504C739.914 108.15 742.059 110.294 744.704 110.294Z" fill="#231F20"/>
<path d="M710.827 160.594L710.737 159.303C710.349 154.422 709.704 146.185 709.704 145.837H710.995H712.286C712.286 146.263 712.815 152.873 713.216 157.895L725.248 157.418L718.251 138.297L720.678 137.419L728.889 159.858L710.827 160.594Z" fill="#231F20"/>
<path d="M668.364 189.384L656.306 175.26L664.982 165.952L685.923 180.076C689.215 175.389 702.59 157.314 712.647 157.986L712.48 160.568C704.243 160.026 691.552 176.293 687.33 182.593L686.62 183.678L665.369 169.334L659.727 175.337L670.288 187.719L668.364 189.384Z" fill="#231F20"/>
<path d="M701.405 174.995L697.538 193.813L700.067 194.333L703.934 175.515L701.405 174.995Z" fill="#231F20"/>
<path d="M688.13 371.384V394.778H652.162C652.943 393.418 653.986 392.229 655.232 391.277C656.478 390.326 657.9 389.634 659.417 389.239C664.943 387.522 673.245 383.365 674.277 380.202C675.082 377.294 675.66 374.329 676.007 371.332L688.13 371.384Z" fill="#231F20"/>
<path d="M689.421 396.069H650.173L651.013 394.235C651.869 392.712 653.022 391.377 654.403 390.308C655.784 389.239 657.367 388.458 659.056 388.013C665.421 386.024 672.367 381.983 673.077 379.853C673.851 377.024 674.413 374.141 674.755 371.229L674.884 370.093H689.421V396.069ZM654.731 393.487H686.839V372.675H677.169C676.829 375.377 676.281 378.048 675.53 380.666C674.148 384.798 664.362 389.058 659.831 390.478C657.898 391.036 656.136 392.072 654.705 393.487H654.731Z" fill="#231F20"/>
<path d="M783.087 359.015L797.986 378.123L784.378 390.014C780.332 393.102 775.384 394.775 770.293 394.778H762.417C764.025 392.039 766.136 389.629 768.64 387.677C772.436 384.914 780.26 378.472 780.26 378.472L772.875 367.42L783.087 359.015Z" fill="#231F20"/>
<path d="M770.293 396.068H760.223L761.294 394.145C762.983 391.241 765.219 388.694 767.879 386.644C770.848 384.475 776.4 379.982 778.569 378.213L771.197 367.162L783.281 357.169L799.755 378.303L785.23 390.982C780.942 394.265 775.695 396.05 770.293 396.068ZM764.806 393.486H770.293C775.099 393.481 779.77 391.898 783.591 388.98L796.217 377.955L782.881 360.848L774.631 367.665L782.003 378.729L781.099 379.478C780.776 379.737 773.172 385.934 769.376 388.722C767.622 390.07 766.08 391.677 764.806 393.486Z" fill="#231F20"/>
<path d="M574.092 170.573L546.115 154.461V152.215L573.859 136.089H575.15L603.089 152.215V154.448L575.344 170.573H574.092ZM549.394 153.338L574.737 167.965L599.913 153.338L574.518 138.697L549.394 153.338Z" fill="#231F20"/>
<path d="M574.092 170.573L546.115 154.461V152.215L573.859 136.089H575.15L603.089 152.215V154.448L575.344 170.573H574.092ZM549.394 153.338L574.737 167.965L599.913 153.338L574.518 138.697L549.394 153.338Z" fill="#231F20"/>
<path d="M574.737 201.559L574.647 169.463L602.585 153.338L602.676 185.433L574.737 201.559Z" fill="#231F20"/>
<path d="M575.383 202.682L573.446 201.558L573.356 169.476L574.001 168.352L601.94 152.214L603.876 153.338L603.967 185.42L603.321 186.543L575.383 202.682ZM575.951 170.212L576.028 199.325L601.385 184.684L601.307 155.571L575.951 170.212Z" fill="#231F20"/>
<path d="M602.585 153.338L574.647 169.463L574.737 201.559L602.676 185.433L602.585 153.338Z" fill="#231F20"/>
<path d="M575.383 202.682L573.446 201.558L573.356 169.476L574.001 168.352L601.94 152.214L603.876 153.338L603.967 185.42L603.321 186.543L575.383 202.682ZM575.951 170.212L576.028 199.325L601.385 184.684L601.307 155.571L575.951 170.212Z" fill="#231F20"/>
<path d="M574.105 202.682L546.115 186.543L545.469 185.42L545.56 153.338L547.496 152.214L575.435 168.352L576.08 169.476L575.99 201.558L574.105 202.682ZM548.103 184.684L573.472 199.325L573.55 170.212L548.193 155.571L548.103 184.684Z" fill="#231F20"/>
<path d="M574.105 202.682L546.115 186.543L545.469 185.42L545.56 153.338L547.496 152.214L575.435 168.352L576.08 169.476L575.99 201.558L574.105 202.682ZM548.103 184.684L573.472 199.325L573.55 170.212L548.193 155.571L548.103 184.684Z" fill="#231F20"/>
<path d="M800 396.184H504.659V354.432H669.927V357.014H507.241V393.602H797.418V357.014H784.533V354.432H800V396.184Z" fill="#231F20"/>
<path d="M756.427 354.432H694.779V357.014H756.427V354.432Z" fill="#231F20"/>
<path d="M362.863 97.8357H336.59V100.418H362.863V97.8357Z" fill="#231F20"/>
<path d="M349.72 127.143H336.59V129.725H349.72V127.143Z" fill="#231F20"/>
<path d="M362.863 156.449H336.59V159.031H362.863V156.449Z" fill="#231F20"/>
<path d="M349.72 185.756H336.59V188.338H349.72V185.756Z" fill="#231F20"/>
<path d="M362.863 215.063H336.59V217.645H362.863V215.063Z" fill="#231F20"/>
<path d="M349.72 244.37H336.59V246.952H349.72V244.37Z" fill="#231F20"/>
<path d="M362.863 273.677H336.59V276.259H362.863V273.677Z" fill="#231F20"/>
<path d="M349.72 302.983H336.59V305.566H349.72V302.983Z" fill="#231F20"/>
<path d="M362.863 332.29H336.59V334.872H362.863V332.29Z" fill="#231F20"/>
<path d="M349.72 361.597H336.59V364.18H349.72V361.597Z" fill="#231F20"/>
<path d="M362.863 390.904H336.59V393.486H362.863V390.904Z" fill="#231F20"/>
<path d="M538.252 382.655H535.67V394.881H538.252V382.655Z" fill="#231F20"/>
<path d="M567.559 382.655H564.977V394.881H567.559V382.655Z" fill="#231F20"/>
<path d="M596.866 382.655H594.284V394.881H596.866V382.655Z" fill="#231F20"/>
<path d="M626.173 382.655H623.591V394.881H626.173V382.655Z" fill="#231F20"/>
<path d="M655.48 382.655H652.898V392.183H655.48V382.655Z" fill="#231F20"/>
<path d="M714.093 382.655H711.511V394.881H714.093V382.655Z" fill="#231F20"/>
<path d="M743.4 382.655H740.818V394.881H743.4V382.655Z" fill="#231F20"/>
<path d="M87.3913 240.548V264.42H63.5197L52.0035 275.936H97.242V230.698L87.3913 240.548Z" fill="#231F20"/>
<path d="M157.508 325.448L134.269 316.01H116.918L116.53 315.61C116.121 315.183 115.815 314.668 115.636 314.103C115.458 313.539 115.41 312.941 115.498 312.357C115.59 311.768 115.819 311.209 116.164 310.723C116.508 310.238 116.962 309.838 117.486 309.555C120.068 308.109 123.941 306.069 126.82 304.572C130.37 302.777 133.792 302.338 140.712 305.411L157.792 309.194L165.19 304.417L166.546 306.586L158.257 311.943L139.731 307.825C133.017 304.817 130.512 305.579 127.943 306.883C125.038 308.354 121.307 310.381 118.686 311.827C118.517 311.922 118.37 312.053 118.259 312.212C118.147 312.371 118.073 312.553 118.041 312.744C118.007 312.975 118.034 313.21 118.118 313.428H134.76L157.483 322.633L182.103 311.233L183.187 313.57L157.508 325.448Z" fill="#231F20"/>
<path d="M174.95 362.979L175.699 360.177C179.676 345.33 186.028 319.587 188.132 311.375L172.071 318.734L160.09 298.194L188.7 284.638C192.352 282.918 196.38 282.15 200.41 282.404L222.797 283.876C228.568 284.235 234.073 286.428 238.509 290.138L255.731 304.443L245.829 322.169L226.876 311.737L222.771 331.477C222.319 333.628 221.44 335.665 220.185 337.469C218.929 339.271 217.324 340.804 215.464 341.973L212.881 343.626L174.95 362.979ZM191.928 306.792L191.282 309.374C191.205 309.684 183.755 339.766 178.94 358.021L211.577 341.367L214.16 339.766C215.724 338.782 217.076 337.493 218.132 335.976C219.188 334.459 219.927 332.745 220.305 330.935L225.121 307.761L244.887 318.644L252.452 305.036L236.882 292.126C232.873 288.772 227.898 286.786 222.681 286.458L200.281 284.986C196.671 284.737 193.057 285.418 189.785 286.962L163.705 299.304L173.117 315.365L191.928 306.792Z" fill="#231F20"/>
<path d="M303.049 470.02H286.407C283.631 470.02 278.17 465.979 275.226 463.565L274.064 470.02H260.986L264.924 447.31H282.999L283.218 448.343C283.889 451.635 287.969 461.047 297.497 461.047C298.452 460.985 299.41 461.132 300.302 461.481C301.195 461.828 302 462.368 302.661 463.061C303.965 464.699 304.602 466.77 304.443 468.858L304.327 470.02H303.049ZM273.483 458.801L275.188 460.247C278.712 463.242 284.509 467.438 286.407 467.438H301.719C301.64 466.46 301.262 465.532 300.634 464.778C300.219 464.37 299.719 464.057 299.172 463.859C298.623 463.66 298.039 463.581 297.458 463.629C288.008 463.629 282.495 455.599 280.894 449.892H267.093L264.059 467.438H271.908L273.483 458.801Z" fill="#231F20"/>
<path d="M173.504 523.999H155.623C152.473 523.999 146.199 516.691 143.203 512.973L137.148 520.642L126.071 511.605L143.462 492.407L158.489 503.458L158.593 503.936C158.793 504.992 158.909 506.063 158.941 507.138C159.07 509.965 159.161 511.669 164.222 513.593C172.071 516.524 173.182 522.282 173.259 522.514L173.504 523.999ZM143.203 508.803L144.223 510.094C149 516.227 154.216 521.404 155.623 521.404H170.096C168.601 518.801 166.182 516.857 163.318 515.956C156.656 513.464 156.514 510.443 156.359 507.241C156.333 506.464 156.264 505.688 156.153 504.917L143.81 495.88L129.802 511.372L136.748 517.04L143.203 508.803Z" fill="#231F20"/>
<path d="M144.236 488.233L142.413 493.735L144.865 494.547L146.688 489.045L144.236 488.233Z" fill="#231F20"/>
<path d="M155.425 492.551L153.705 502.237L156.247 502.689L157.967 493.003L155.425 492.551Z" fill="#231F20"/>
<path d="M270.488 442.082H267.906V448.601H270.488V442.082Z" fill="#231F20"/>
<path d="M283.205 442.082H280.623V448.601H283.205V442.082Z" fill="#231F20"/>
<path d="M666.273 199.338C664.026 198.602 661.276 197.789 660.773 197.737C659.676 197.737 647.282 193.735 644.26 190.598C643.965 190.334 643.729 190.013 643.566 189.653C643.404 189.292 643.319 188.901 643.318 188.506C643.328 188.172 643.416 187.845 643.572 187.549C643.729 187.254 643.951 186.998 644.222 186.802C646.21 185.291 652.213 186.156 655.957 186.892C655.784 186.083 655.898 185.238 656.28 184.504C656.503 184.11 656.838 183.79 657.242 183.586C657.647 183.382 658.103 183.301 658.552 183.355C660.308 183.471 663.884 186.492 666.04 188.454L669.1 189.01L670.107 190.623L667.925 198.46L666.273 199.338ZM660.941 195.155C662.589 195.464 664.211 195.895 665.795 196.446L667.241 191.282L665.214 190.92L664.569 190.598C662.738 188.798 660.692 187.232 658.475 185.937C658.474 186.65 658.694 187.344 659.108 187.925L657.739 189.9C652.575 188.687 647.282 188.183 645.965 188.738C647.23 190.688 659.043 194.832 660.941 195.155Z" fill="#231F20"/>
<path d="M650.083 172.665L648.353 172.174L636.101 150.949L636.617 149.155L649.902 142.119L651.619 142.622L663.884 163.847L663.368 165.629L650.083 172.665ZM639.07 150.807L650.031 169.799L661.031 163.976L650.006 144.946L639.07 150.807Z" fill="#231F20"/>
<path d="M657.765 175.57C657.403 175.26 654.189 172.988 651.31 171.09L652.768 168.96C659.818 173.775 659.818 173.775 659.895 174.485L658.604 174.627L657.313 174.705L658.604 174.627L657.765 175.57Z" fill="#231F20"/>
<path d="M655.351 153.984C653.892 156.643 652.872 158.993 653.582 160.064C654.292 161.136 656.68 160.064 658.023 158.515C659.366 156.966 660.812 154.345 659.74 153.351C659.419 153.085 659.044 152.889 658.641 152.776C658.24 152.664 657.819 152.636 657.406 152.695C656.992 152.756 656.595 152.9 656.241 153.122C655.888 153.344 655.584 153.638 655.351 153.984Z" fill="#C70707"/>
<path d="M654.563 161.82H654.357C653.999 161.807 653.648 161.712 653.334 161.539C653.02 161.366 652.752 161.122 652.549 160.826C651.477 159.212 652.459 156.695 654.266 153.415C654.579 152.877 655.011 152.417 655.531 152.074C656.05 151.732 656.643 151.515 657.261 151.44C657.872 151.335 658.498 151.37 659.093 151.542C659.687 151.715 660.236 152.02 660.696 152.434C662.581 154.306 660.541 157.702 659.03 159.419C657.908 160.767 656.307 161.628 654.563 161.82ZM657.946 153.958H657.636C657.412 153.98 657.197 154.051 657.004 154.167C656.812 154.283 656.648 154.44 656.526 154.629C654.834 157.676 654.653 158.812 654.679 159.199C655.623 158.954 656.466 158.422 657.094 157.676C658.057 156.746 658.675 155.517 658.849 154.19C658.569 154.013 658.236 153.941 657.907 153.983L657.946 153.958Z" fill="#231F20"/>
<path d="M663.329 161.296L661.186 162.742L665.301 168.84L667.444 167.394L663.329 161.296Z" fill="#231F20"/>
<path d="M262.987 326.184L246.591 318.27L246.023 316.475L252.013 305.734L253.717 305.217L260.599 308.652L273.432 292.397L282.25 281.113V276.504C282.25 273.238 284.148 265.388 288.782 265.388L290.073 266.576C290.241 268.629 291.61 286.82 288.912 291.842C286.045 297.161 265.414 324.622 264.536 325.797L262.987 326.184ZM248.992 316.54L263.194 323.395C266.77 318.618 284.225 295.263 286.717 290.616C288.524 287.272 288.124 274.8 287.711 268.5C286.149 269.933 284.935 273.909 284.922 276.517V281.565L284.651 282.353L275.549 293.972L262.084 311.066L260.496 311.427L253.782 308.071L248.992 316.54Z" fill="#231F20"/>
<path d="M88.6823 265.711H39.0284L88.6823 216.057V265.711ZM45.2642 263.129H86.1002V222.293L45.2642 263.129Z" fill="#231F20"/>
<path d="M185.15 374.056C185.769 387.044 185.356 409.315 176.951 423.645C161.937 449.221 152.021 466.508 153.571 490.251L164.235 494.124L205.548 383.326C201.67 383.412 197.823 382.623 194.292 381.019C190.759 379.414 187.635 377.034 185.15 374.056Z" fill="#231F20"/>
<path d="M164.996 495.802L141.499 487.217L176.513 357.143L183.652 369.666C185.847 373.525 189.047 376.715 192.913 378.899C196.777 381.08 201.163 382.174 205.6 382.06H207.511L164.996 495.802ZM144.598 485.603L163.46 492.497L203.715 384.617C199.142 384.408 194.698 383.044 190.794 380.653C186.891 378.262 183.657 374.922 181.393 370.944L177.365 363.869L144.598 485.603Z" fill="#231F20"/>
</svg>
