<svg width="800" height="600" viewBox="0 0 800 600" fill="none" xmlns="http://www.w3.org/2000/svg">
<g clip-path="url(#clip0_104_686)">
<path d="M280.262 65H453.071C461.274 65 469.14 68.2457 474.94 74.0227C480.742 79.7985 484 87.6314 484 95.8V452.867C484 461.035 480.742 468.87 474.94 474.646C469.14 480.422 461.274 483.667 453.071 483.667H280.262C272.059 483.667 264.192 480.422 258.393 474.646C252.592 468.87 249.334 461.035 249.334 452.867V95.8C249.334 87.6314 252.592 79.7985 258.393 74.0227C264.192 68.2457 272.059 65 280.262 65Z" fill="black" stroke="white" stroke-width="2" stroke-linecap="round" stroke-linejoin="round"/>
<path d="M446.914 78.3328H418.485V78.5131C418.437 81.809 417.09 84.9543 414.733 87.2695C412.376 89.5846 409.2 90.8807 405.891 90.8807H325.821C324.18 90.895 322.55 90.5868 321.027 89.9716C319.504 89.3576 318.118 88.4497 316.948 87.3005C315.778 86.1513 314.848 84.7847 314.208 83.276C313.569 81.7672 313.237 80.1497 313.227 78.5131V78.3328H286.598C270.944 78.3328 262.667 87.8333 262.667 103.069V445.599C262.667 461.014 272.382 470.333 288.037 470.333H442.235C449.695 470.377 456.87 467.481 462.195 462.276C467.519 457.073 470.564 449.982 470.665 442.551V103.069C470.844 87.6541 462.747 78.3328 446.914 78.3328Z" fill="white" stroke="black" stroke-width="2" stroke-linecap="round" stroke-linejoin="round"/>
<path d="M113.334 70.334H81.3334V103.667H113.334V70.334Z" fill="black"/>
<path d="M316 125.001H132.001V241H316V125.001Z" fill="white" stroke="black" stroke-width="2" stroke-linecap="round" stroke-linejoin="round"/>
<path d="M800 173H636V270.334H800V173Z" fill="white" stroke="black" stroke-width="2" stroke-linecap="round" stroke-linejoin="round"/>
<path d="M608 126.334H588V146.334H608V126.334Z" stroke="black" stroke-width="2" stroke-linecap="round" stroke-linejoin="round"/>
<path d="M744 402.238H725.918V383.667H712.751V402.238H694.667V415.761H712.751V434.334H725.918V415.761H744V402.238Z" fill="white" stroke="black" stroke-width="2" stroke-linecap="round" stroke-linejoin="round"/>
<path d="M316 125.001H132.001V150.333H316V125.001Z" fill="white" stroke="black" stroke-width="2" stroke-linecap="round" stroke-linejoin="round"/>
<path d="M330.667 78.3328H374.666" stroke="white" stroke-width="2" stroke-miterlimit="10"/>
<path d="M373.333 119.667H448" stroke="black" stroke-width="2" stroke-linecap="round" stroke-linejoin="round"/>
<path d="M373.333 145H448" stroke="black" stroke-width="2" stroke-linecap="round" stroke-linejoin="round"/>
<path d="M466 535.667C556.208 535.667 629.334 462.539 629.334 372.332C629.334 282.127 556.208 209 466 209C375.793 209 302.666 282.127 302.666 372.332C302.666 462.539 375.793 535.667 466 535.667Z" fill="white" stroke="black" stroke-width="2" stroke-linecap="round" stroke-linejoin="round"/>
<path d="M0 453H249.334" stroke="black" stroke-width="2" stroke-linecap="round" stroke-linejoin="round"/>
<path d="M145.333 141C147.543 141 149.333 139.209 149.333 137C149.333 134.791 147.543 133 145.333 133C143.123 133 141.334 134.791 141.334 137C141.334 139.209 143.123 141 145.333 141Z" fill="white" stroke="black" stroke-width="2" stroke-linecap="round" stroke-linejoin="round"/>
<path d="M176 183.666H153.333V229H176V183.666Z" fill="white" stroke="black" stroke-width="2" stroke-linecap="round" stroke-linejoin="round"/>
<path d="M200 161H176V229H200V161Z" fill="white" stroke="black" stroke-width="2" stroke-linecap="round" stroke-linejoin="round"/>
<path d="M222.667 169.001H198.667V229H222.667V169.001Z" fill="white" stroke="black" stroke-width="2" stroke-linecap="round" stroke-linejoin="round"/>
<path d="M245.333 199.667H222.667V229H245.333V199.667Z" fill="white" stroke="black" stroke-width="2" stroke-linecap="round" stroke-linejoin="round"/>
<path d="M268.001 177H245.333V229H268.001V177Z" fill="black" stroke="black" stroke-width="2" stroke-linecap="round" stroke-linejoin="round"/>
<path d="M290.667 161H268.001V229H290.667V161Z" fill="white" stroke="black" stroke-width="2" stroke-linecap="round" stroke-linejoin="round"/>
<path d="M110.933 302.454L116.999 318.333L137.333 309.769C132.895 298.809 127.647 288.194 121.636 278.011C114.542 266.519 106.8 255.44 98.447 244.827C101.093 242.429 103.217 239.513 104.69 236.26C106.164 233.008 106.952 229.487 107.01 225.915C106.831 214.318 94.702 215.389 87.7447 221.455C80.7874 227.521 77.9335 238.94 78.8247 248.93C79.7183 258.922 88.6358 251.785 88.1019 252.321L89.8854 316.727" fill="white"/>
<path d="M110.933 302.454L116.999 318.333L137.333 309.769C132.895 298.809 127.647 288.194 121.636 278.011C114.542 266.519 106.8 255.44 98.447 244.827C101.093 242.429 103.217 239.513 104.69 236.26C106.164 233.008 106.952 229.487 107.01 225.915C106.831 214.318 94.702 215.389 87.7447 221.455C80.7874 227.521 77.9335 238.94 78.8247 248.93C79.7183 258.922 88.6358 251.785 88.1019 252.321L89.8854 316.727" stroke="black" stroke-width="2" stroke-linecap="round" stroke-linejoin="round"/>
<path d="M89.3335 270.334L109.333 259.667" stroke="black" stroke-width="2" stroke-linecap="round" stroke-linejoin="round"/>
<path d="M136.052 310.333C136.052 310.333 139.662 322.091 138.399 328.249C137.134 334.408 131.719 338.887 122.873 339.633C114.027 340.38 72.8663 328.435 72.8663 328.435C72.8663 328.435 58.7848 324.891 56.2567 319.666C55.9691 319.042 55.9218 318.329 56.1223 317.672C56.3239 317.014 56.759 316.459 57.3395 316.119C57.7856 315.884 58.2968 315.818 58.7847 315.933C62.9369 316.679 70.8797 317.798 70.8797 317.798C70.8797 317.798 64.7419 316.306 65.2843 314.44C65.8242 312.573 76.8371 316.865 76.8371 316.865L116.915 318.918" stroke="black" stroke-width="2" stroke-linecap="round" stroke-linejoin="round"/>
<path d="M65.1277 350.334C65.1277 350.334 48.8534 351.938 46.6841 358.889C43.79 367.979 51.7476 435.889 51.7476 435.889C51.7476 435.889 29.8665 445.156 28.7818 446.049C27.6961 446.94 28.058 453 28.058 453H69.1069L67.8418 435.711C67.8418 435.711 72.1806 405.766 70.7351 393.646C70.2298 387.439 68.8907 381.326 66.7559 375.464L72.0002 374.039" fill="white"/>
<path d="M65.1277 350.334C65.1277 350.334 48.8534 351.938 46.6841 358.889C43.79 367.979 51.7476 435.889 51.7476 435.889C51.7476 435.889 29.8665 445.156 28.7818 446.049C27.6961 446.94 28.058 453 28.058 453H69.1069L67.8418 435.711C67.8418 435.711 72.1806 405.766 70.7351 393.646C70.2298 387.439 68.8907 381.326 66.7559 375.464L72.0002 374.039" stroke="black" stroke-width="2" stroke-linecap="round" stroke-linejoin="round"/>
<path d="M49.3335 423.667C50.5907 423.667 68.0007 423.667 68.0007 423.667" stroke="black" stroke-width="2" stroke-linecap="round" stroke-linejoin="round"/>
<path d="M44 438.333C48.8572 444.115 66.6662 438.694 66.6662 438.694L44 438.333Z" fill="white"/>
<path d="M44 438.333C48.8572 444.115 66.6662 438.694 66.6662 438.694" stroke="black" stroke-width="2" stroke-linecap="round" stroke-linejoin="round"/>
<path d="M90.6666 345C90.6666 344.117 90.6666 333 90.6666 333" stroke="black" stroke-width="2" stroke-linecap="round" stroke-linejoin="round"/>
<path d="M131.823 343.667C132.711 344.203 145.333 395.97 145.333 395.97L112.623 409L102.666 373.656" fill="white"/>
<path d="M131.823 343.667C132.711 344.203 145.333 395.97 145.333 395.97L112.623 409L102.666 373.656" stroke="black" stroke-width="2" stroke-linecap="round" stroke-linejoin="round"/>
<path d="M129.844 395.196C130.391 387.847 123.642 384.979 125.285 378.703C126.926 372.429 132.398 372.966 134.04 365.437C135.864 356.474 133.127 345 133.127 345L102.666 373.505L112.881 409C112.698 409 129.114 403.264 129.844 395.196Z" fill="black"/>
<path d="M116 407.667C117.441 411.772 121.406 424.087 128.613 428.371C133.657 431.405 161.586 432.832 177.441 433.547C184.107 433.725 188.792 433.903 188.792 433.903L186.811 443.541C186.811 443.541 177.622 449.966 177.081 453.001H197.982L209.333 424.979C206.849 423.437 204.26 422.064 201.585 420.875C199.035 420.372 196.439 420.133 193.837 420.16C193.837 420.16 175.279 413.021 168.072 411.237C160.864 409.453 141.765 409.453 141.765 409.453" stroke="black" stroke-width="2" stroke-linecap="round" stroke-linejoin="round"/>
<path d="M64 347.836L72.2319 378.334C72.2319 378.334 107.662 375.807 120.903 366.062C132.713 357.582 132.713 353.43 131.461 343.324C131.102 339.535 64 347.836 64 347.836Z" fill="white" stroke="black" stroke-width="2" stroke-linecap="round" stroke-linejoin="round"/>
<path d="M141.334 397C142.926 400.909 144.263 404.918 145.333 409L141.334 397Z" fill="white"/>
<path d="M141.334 397C142.926 400.909 144.263 404.918 145.333 409" stroke="black" stroke-width="2" stroke-linecap="round" stroke-linejoin="round"/>
<path d="M304.001 367.666H324" stroke="black" stroke-width="2" stroke-linecap="round" stroke-linejoin="round"/>
<path d="M466.667 515.667V535.667" stroke="black" stroke-width="2" stroke-linecap="round" stroke-linejoin="round"/>
<path d="M460.013 275.936L459.293 287.952L440.767 285.082C440.767 285.082 394.722 236.664 392.925 237.92C391.126 239.175 395.082 245.81 395.442 246.528C395.802 247.245 381.773 231.643 380.154 236.664C378.536 241.685 390.226 255.493 390.226 255.493L436.631 316.283L437.17 370.618L410.731 501.883C406.487 503.139 402.339 504.697 398.319 506.545C394.888 508.488 391.585 510.644 388.427 513H420.083L466.668 381.378" fill="white"/>
<path d="M460.013 275.936L459.293 287.952L440.767 285.082C440.767 285.082 394.722 236.664 392.925 237.92C391.126 239.175 395.082 245.81 395.442 246.528C395.802 247.245 381.773 231.643 380.154 236.664C378.536 241.685 390.226 255.493 390.226 255.493L436.631 316.283L437.17 370.618L410.731 501.883C406.487 503.139 402.339 504.697 398.319 506.545C394.888 508.488 391.585 510.644 388.427 513H420.083L466.668 381.378" stroke="black" stroke-width="2" stroke-linecap="round" stroke-linejoin="round"/>
<path d="M398.667 253L466.667 325.001" stroke="black" stroke-width="2" stroke-linecap="round" stroke-linejoin="round"/>
<path d="M416 506.334C416.35 505.439 457.334 366.333 457.334 366.333L416 506.334Z" fill="white"/>
<path d="M416 506.334C416.35 505.439 457.334 366.333 457.334 366.333" stroke="black" stroke-width="2" stroke-linecap="round" stroke-linejoin="round"/>
<path d="M398.668 255.667C400.14 255.667 401.333 254.473 401.333 253.001C401.333 251.528 400.14 250.333 398.668 250.333C397.194 250.333 396 251.528 396 253.001C396 254.473 397.194 255.667 398.668 255.667Z" fill="black"/>
<path d="M416 509C417.473 509 418.667 507.807 418.667 506.334C418.667 504.861 417.473 503.666 416 503.666C414.527 503.666 413.334 504.861 413.334 506.334C413.334 507.807 414.527 509 416 509Z" fill="black"/>
<path d="M434.668 450.334C440.559 450.334 445.333 445.857 445.333 440.333C445.333 434.81 440.559 430.333 434.668 430.333C428.776 430.333 424 434.81 424 440.333C424 445.857 428.776 450.334 434.668 450.334Z" fill="white" stroke="black" stroke-width="2" stroke-linecap="round" stroke-linejoin="round"/>
<path d="M654.667 397.001H530.667V383.046V322.334H654.667V397.001Z" fill="white" stroke="black" stroke-width="2" stroke-linecap="round" stroke-linejoin="round"/>
<path d="M681.333 295.666H654.667V322.333H681.333V295.666Z" fill="black"/>
<path d="M473.321 275.91L474.04 287.917L492.567 285.05C492.567 285.05 538.611 236.663 540.409 237.919C542.208 239.173 538.252 245.803 537.892 246.521C537.533 247.238 551.561 231.646 553.179 236.663C554.798 241.682 543.108 255.482 543.108 255.482L496.703 316.232L496.164 370.531L522.604 501.89C526.846 503.147 530.995 504.703 535.014 506.549C538.445 508.49 541.748 510.644 544.907 513H513.25L466.667 381.642" fill="white"/>
<path d="M473.321 275.91L474.04 287.917L492.567 285.05C492.567 285.05 538.611 236.663 540.409 237.919C542.208 239.173 538.252 245.803 537.892 246.521C537.533 247.238 551.561 231.646 553.179 236.663C554.798 241.682 543.108 255.482 543.108 255.482L496.703 316.232L496.164 370.531L522.604 501.89C526.846 503.147 530.995 504.703 535.014 506.549C538.445 508.49 541.748 510.644 544.907 513H513.25L466.667 381.642" stroke="black" stroke-width="2" stroke-linecap="round" stroke-linejoin="round"/>
<path d="M536 253L466.667 325.001" stroke="black" stroke-width="2" stroke-linecap="round" stroke-linejoin="round"/>
<path d="M518.667 506.334C518.305 505.439 476.001 366.333 476.001 366.333L518.667 506.334Z" fill="white"/>
<path d="M518.667 506.334C518.305 505.439 476.001 366.333 476.001 366.333" stroke="black" stroke-width="2" stroke-linecap="round" stroke-linejoin="round"/>
<path d="M536 255.667C537.473 255.667 538.668 254.473 538.668 253.001C538.668 251.528 537.473 250.333 536 250.333C534.528 250.333 533.334 251.528 533.334 253.001C533.334 254.473 534.528 255.667 536 255.667Z" fill="black"/>
<path d="M518.667 509C520.141 509 521.334 507.807 521.334 506.334C521.334 504.861 520.141 503.666 518.667 503.666C517.194 503.666 516 504.861 516 506.334C516 507.807 517.194 509 518.667 509Z" fill="black"/>
<path d="M499.333 450.334C504.856 450.334 509.333 445.857 509.333 440.333C509.333 434.81 504.856 430.333 499.333 430.333C493.81 430.333 489.333 434.81 489.333 440.333C489.333 445.857 493.81 450.334 499.333 450.334Z" fill="black"/>
<path d="M466 279.667C472.996 279.667 478.667 271.607 478.667 261.667C478.667 251.726 472.996 243.667 466 243.667C459.004 243.667 453.333 251.726 453.333 261.667C453.333 271.607 459.004 279.667 466 279.667Z" fill="white" stroke="black" stroke-width="2" stroke-linecap="round" stroke-linejoin="round"/>
<path d="M454.486 259.668C453.508 259.662 452.565 259.998 451.857 260.605C451.149 261.211 450.73 262.041 450.686 262.919V263.082C450.64 263.466 450.677 263.856 450.796 264.226C450.916 264.599 451.116 264.945 451.384 265.246C451.654 265.55 451.986 265.801 452.362 265.987C452.74 266.173 453.154 266.292 453.582 266.333H454.667" stroke="black" stroke-width="2" stroke-linecap="round" stroke-linejoin="round"/>
<path d="M530.667 373H654.667" stroke="black" stroke-width="2" stroke-linecap="round" stroke-linejoin="round"/>
<path d="M604 322.334V373" stroke="black" stroke-width="2" stroke-linecap="round" stroke-linejoin="round"/>
<path d="M638.668 339.667H620V358.333H638.668V339.667Z" fill="white" stroke="black" stroke-width="2" stroke-linecap="round" stroke-linejoin="round"/>
<path d="M478.847 259.668C479.826 259.662 480.768 259.998 481.477 260.605C482.185 261.211 482.604 262.041 482.646 262.919V263.082C482.695 263.466 482.657 263.856 482.537 264.226C482.418 264.599 482.217 264.945 481.95 265.246C481.68 265.55 481.348 265.801 480.971 265.987C480.594 266.173 480.181 266.292 479.752 266.333H478.667" stroke="black" stroke-width="2" stroke-linecap="round" stroke-linejoin="round"/>
<path d="M636 246.333C647.786 245.933 659.226 242.343 669.052 235.962C685.936 225.065 701.565 204.148 728.149 205.027C754.735 205.905 762.279 224.538 773.416 231.041C784.911 237.72 800 237.193 800 237.193" fill="white"/>
<path d="M636 246.333C647.786 245.933 659.226 242.343 669.052 235.962C685.936 225.065 701.565 204.148 728.149 205.027C754.735 205.905 762.279 224.538 773.416 231.041C784.911 237.72 800 237.193 800 237.193" stroke="black" stroke-width="2" stroke-linecap="round" stroke-linejoin="round"/>
<path d="M664 238.334V270.334" stroke="black" stroke-width="2" stroke-linecap="round" stroke-linejoin="round"/>
<path d="M722.667 270.334V205" stroke="black" stroke-width="2" stroke-linecap="round" stroke-linejoin="round"/>
<path d="M768 226.333V270.334" stroke="black" stroke-width="2" stroke-linecap="round" stroke-linejoin="round"/>
<path d="M132.001 343.667L130.666 337" stroke="black" stroke-width="2" stroke-linecap="round" stroke-linejoin="round"/>
<path d="M184 415.667C183.43 416.56 178.667 433 178.667 433L184 415.667Z" fill="white"/>
<path d="M184 415.667C183.43 416.56 178.667 433 178.667 433" stroke="black" stroke-width="2" stroke-linecap="round" stroke-linejoin="round"/>
<path d="M188 439.666C188 439.666 197.467 438.067 199.79 429.356C201.933 421.178 201.22 421 201.22 421" fill="white"/>
<path d="M188 439.666C188 439.666 197.467 438.067 199.79 429.356C201.933 421.178 201.22 421 201.22 421" stroke="black" stroke-width="2" stroke-linecap="round" stroke-linejoin="round"/>
<path d="M664 242.334C666.209 242.334 668.001 240.84 668.001 239C668.001 237.159 666.209 235.667 664 235.667C661.791 235.667 660 237.159 660 239C660 240.84 661.791 242.334 664 242.334Z" fill="black"/>
<path d="M767.334 230.333C769.175 230.333 770.667 228.542 770.667 226.334C770.667 224.125 769.175 222.333 767.334 222.333C765.493 222.333 764 224.125 764 226.334C764 228.542 765.493 230.333 767.334 230.333Z" fill="black"/>
<path d="M723.332 207.667C725.174 207.667 726.667 206.174 726.667 204.333C726.667 202.492 725.174 201 723.332 201C721.492 201 720.001 202.492 720.001 204.333C720.001 206.174 721.492 207.667 723.332 207.667Z" fill="black"/>
<path d="M83.9998 226.064C87.2012 228.765 89.938 231.996 92.1002 235.622C92.1002 235.622 96.8547 231.653 99.3203 235.982C101.609 239.951 96.5035 242.476 96.5035 242.476C97.0482 243.347 97.636 244.19 98.2631 245C98.2631 244.82 112.174 226.423 111.998 225.521C111.822 224.619 109.182 207.667 109.182 207.667L89.1066 209.289L83.9998 226.064Z" fill="black"/>
<path d="M452 256.925C452 256.925 467.111 257.617 471.556 251.563C471.963 253.426 472.958 255.118 474.401 256.406C476.415 257.803 478.865 258.475 481.333 258.308C481.333 258.308 480.623 247.239 474.401 244.126C468.177 241.014 462.845 240.148 460.177 241.879C457.511 243.607 452 256.925 452 256.925Z" fill="black"/>
<path d="M457.334 366.333H476.001" stroke="black" stroke-width="2" stroke-linecap="round" stroke-linejoin="round"/>
<path d="M466.667 366.333V325" stroke="black" stroke-width="2" stroke-linecap="round" stroke-linejoin="round"/>
<path d="M432 167.666H448" stroke="black" stroke-width="2" stroke-linecap="round" stroke-linejoin="round"/>
<path d="M373.333 167.666H417.333" stroke="black" stroke-width="2" stroke-linecap="round" stroke-linejoin="round"/>
<path d="M654.667 385H530.667" stroke="black" stroke-width="2" stroke-linecap="round" stroke-linejoin="round"/>
<path d="M466.667 210.333V226.333" stroke="black" stroke-width="2" stroke-linecap="round" stroke-linejoin="round"/>
<path d="M348 259.667L362.667 273" stroke="black" stroke-width="2" stroke-linecap="round" stroke-linejoin="round"/>
<path d="M362.667 470.334L348 483.667" stroke="black" stroke-width="2" stroke-linecap="round" stroke-linejoin="round"/>
<path d="M584.001 485L570.667 470.334" stroke="black" stroke-width="2" stroke-linecap="round" stroke-linejoin="round"/>
<path d="M749.334 295.666H764" stroke="black" stroke-width="2" stroke-linecap="round" stroke-linejoin="round"/>
<path d="M24 119.667H56.0001" stroke="black" stroke-width="2" stroke-linecap="round" stroke-linejoin="round"/>
<path d="M628 135.667H597.334V166.333H628V135.667Z" stroke="black" stroke-width="2" stroke-linecap="round" stroke-linejoin="round"/>
</g>
<defs>
<clipPath id="clip0_104_686">
<rect width="800" height="600" fill="white"/>
</clipPath>
</defs>
</svg>
