<svg width="800" height="600" viewBox="0 0 800 600" fill="none" xmlns="http://www.w3.org/2000/svg">
<path fill-rule="evenodd" clip-rule="evenodd" d="M446.227 599.73H711.923V596.644H446.227V599.73Z" fill="#1B1A19"/>
<path fill-rule="evenodd" clip-rule="evenodd" d="M265.171 542.029H586.153V8.08637H265.171V542.029ZM262.085 545.115H589.239V5H262.085V545.115Z" fill="#1B1A19"/>
<path fill-rule="evenodd" clip-rule="evenodd" d="M37.4224 331.642H83.718V163.948H37.4224V331.642Z" fill="#1B1A19"/>
<path fill-rule="evenodd" clip-rule="evenodd" d="M152.647 371.249H82.1749V124.339H152.647V127.425H85.261V368.162H152.647V371.249Z" fill="#1B1A19"/>
<path fill-rule="evenodd" clip-rule="evenodd" d="M154.19 163.948H151.104V90.3884H263.628V93.4759H154.19V163.948Z" fill="#1B1A19"/>
<path fill-rule="evenodd" clip-rule="evenodd" d="M263.628 405.199H151.104V275.488H154.19V402.113H263.628V405.199Z" fill="#1B1A19"/>
<path fill-rule="evenodd" clip-rule="evenodd" d="M263.629 29.1771H587.696V6.54321H263.629V29.1771Z" fill="#1B1A19"/>
<path fill-rule="evenodd" clip-rule="evenodd" d="M443.152 510.652C443.152 520.31 435.322 528.141 425.661 528.141C416.003 528.141 408.172 520.31 408.172 510.652C408.172 500.992 416.003 493.16 425.661 493.16C435.322 493.16 443.152 500.992 443.152 510.652Z" fill="#1B1A19"/>
<path fill-rule="evenodd" clip-rule="evenodd" d="M263.628 342.958C231.525 342.958 205.501 368.984 205.501 401.085C205.501 433.188 231.525 459.21 263.628 459.21V342.958Z" fill="#1B1A19"/>
<path fill-rule="evenodd" clip-rule="evenodd" d="M0 401.47H30.8637V370.607H0V401.47Z" fill="#1B1A19"/>
<path fill-rule="evenodd" clip-rule="evenodd" d="M100.951 68.7843C92.2997 68.7843 85.261 75.823 85.261 84.4738C85.261 93.126 92.2997 100.163 100.951 100.163C109.601 100.163 116.64 93.126 116.64 84.4738C116.64 75.823 109.601 68.7843 100.951 68.7843ZM100.951 103.249C90.598 103.249 82.1749 94.8277 82.1749 84.4738C82.1749 74.1213 90.598 65.6982 100.951 65.6982C111.304 65.6982 119.726 74.1213 119.726 84.4738C119.726 94.8277 111.304 103.249 100.951 103.249Z" fill="#1B1A19"/>
<path fill-rule="evenodd" clip-rule="evenodd" d="M136.324 189.657C136.324 192.109 134.336 194.097 131.883 194.097C129.431 194.097 127.443 192.109 127.443 189.657C127.443 187.206 129.431 185.217 131.883 185.217C134.336 185.217 136.324 187.206 136.324 189.657Z" fill="#1B1A19"/>
<path fill-rule="evenodd" clip-rule="evenodd" d="M156.725 189.657C156.725 192.109 154.736 194.097 152.285 194.097C149.83 194.097 147.843 192.109 147.843 189.657C147.843 187.206 149.83 185.217 152.285 185.217C154.736 185.217 156.725 187.206 156.725 189.657Z" fill="#1B1A19"/>
<path fill-rule="evenodd" clip-rule="evenodd" d="M177.127 189.657C177.127 192.109 175.138 194.097 172.686 194.097C170.233 194.097 168.244 192.109 168.244 189.657C168.244 187.206 170.233 185.217 172.686 185.217C175.138 185.217 177.127 187.206 177.127 189.657Z" fill="#1B1A19"/>
<path fill-rule="evenodd" clip-rule="evenodd" d="M193.086 186.76C191.489 186.76 190.189 188.059 190.189 189.658C190.189 191.255 191.489 192.554 193.086 192.554C194.685 192.554 195.985 191.255 195.985 189.658C195.985 188.059 194.685 186.76 193.086 186.76ZM193.086 195.64C189.787 195.64 187.102 192.957 187.102 189.658C187.102 186.357 189.787 183.673 193.086 183.673C196.386 183.673 199.071 186.357 199.071 189.658C199.071 192.957 196.386 195.64 193.086 195.64Z" fill="#1B1A19"/>
<path fill-rule="evenodd" clip-rule="evenodd" d="M131.883 207.658C130.285 207.658 128.986 208.957 128.986 210.555C128.986 212.154 130.285 213.453 131.883 213.453C133.481 213.453 134.78 212.154 134.78 210.555C134.78 208.957 133.481 207.658 131.883 207.658ZM131.883 216.541C128.583 216.541 125.9 213.857 125.9 210.555C125.9 207.257 128.583 204.572 131.883 204.572C135.184 204.572 137.867 207.257 137.867 210.555C137.867 213.857 135.184 216.541 131.883 216.541Z" fill="#1B1A19"/>
<path fill-rule="evenodd" clip-rule="evenodd" d="M152.285 207.658C150.686 207.658 149.387 208.957 149.387 210.555C149.387 212.154 150.686 213.453 152.285 213.453C153.882 213.453 155.182 212.154 155.182 210.555C155.182 208.957 153.882 207.658 152.285 207.658ZM152.285 216.541C148.986 216.541 146.3 213.857 146.3 210.555C146.3 207.257 148.986 204.572 152.285 204.572C155.584 204.572 158.268 207.257 158.268 210.555C158.268 213.857 155.584 216.541 152.285 216.541Z" fill="#1B1A19"/>
<path fill-rule="evenodd" clip-rule="evenodd" d="M177.127 210.555C177.127 213.008 175.138 214.997 172.686 214.997C170.233 214.997 168.244 213.008 168.244 210.555C168.244 208.104 170.233 206.115 172.686 206.115C175.138 206.115 177.127 208.104 177.127 210.555Z" fill="#1B1A19"/>
<path fill-rule="evenodd" clip-rule="evenodd" d="M197.528 210.555C197.528 213.008 195.54 214.997 193.086 214.997C190.635 214.997 188.645 213.008 188.645 210.555C188.645 208.104 190.635 206.115 193.086 206.115C195.54 206.115 197.528 208.104 197.528 210.555Z" fill="#1B1A19"/>
<path fill-rule="evenodd" clip-rule="evenodd" d="M136.324 231.453C136.324 233.907 134.336 235.895 131.883 235.895C129.431 235.895 127.443 233.907 127.443 231.453C127.443 229.001 129.431 227.014 131.883 227.014C134.336 227.014 136.324 229.001 136.324 231.453Z" fill="#1B1A19"/>
<path fill-rule="evenodd" clip-rule="evenodd" d="M152.285 228.557C150.686 228.557 149.387 229.856 149.387 231.453C149.387 233.051 150.686 234.352 152.285 234.352C153.882 234.352 155.182 233.051 155.182 231.453C155.182 229.856 153.882 228.557 152.285 228.557ZM152.285 237.438C148.986 237.438 146.3 234.755 146.3 231.453C146.3 228.154 148.986 225.47 152.285 225.47C155.584 225.47 158.268 228.154 158.268 231.453C158.268 234.755 155.584 237.438 152.285 237.438Z" fill="#1B1A19"/>
<path fill-rule="evenodd" clip-rule="evenodd" d="M177.127 231.453C177.127 233.907 175.138 235.895 172.686 235.895C170.233 235.895 168.244 233.907 168.244 231.453C168.244 229.001 170.233 227.014 172.686 227.014C175.138 227.014 177.127 229.001 177.127 231.453Z" fill="#1B1A19"/>
<path fill-rule="evenodd" clip-rule="evenodd" d="M193.086 228.557C191.489 228.557 190.189 229.856 190.189 231.453C190.189 233.051 191.489 234.352 193.086 234.352C194.685 234.352 195.985 233.051 195.985 231.453C195.985 229.856 194.685 228.557 193.086 228.557ZM193.086 237.438C189.787 237.438 187.102 234.755 187.102 231.453C187.102 228.154 189.787 225.47 193.086 225.47C196.386 225.47 199.071 228.154 199.071 231.453C199.071 234.755 196.386 237.438 193.086 237.438Z" fill="#1B1A19"/>
<path fill-rule="evenodd" clip-rule="evenodd" d="M131.883 249.454C130.285 249.454 128.986 250.753 128.986 252.353C128.986 253.952 130.285 255.251 131.883 255.251C133.481 255.251 134.78 253.952 134.78 252.353C134.78 250.753 133.481 249.454 131.883 249.454ZM131.883 258.337C128.583 258.337 125.9 255.654 125.9 252.353C125.9 249.053 128.583 246.368 131.883 246.368C135.184 246.368 137.867 249.053 137.867 252.353C137.867 255.654 135.184 258.337 131.883 258.337Z" fill="#1B1A19"/>
<path fill-rule="evenodd" clip-rule="evenodd" d="M152.285 249.454C150.686 249.454 149.387 250.753 149.387 252.353C149.387 253.952 150.686 255.251 152.285 255.251C153.882 255.251 155.182 253.952 155.182 252.353C155.182 250.753 153.882 249.454 152.285 249.454ZM152.285 258.337C148.986 258.337 146.3 255.654 146.3 252.353C146.3 249.053 148.986 246.368 152.285 246.368C155.584 246.368 158.268 249.053 158.268 252.353C158.268 255.654 155.584 258.337 152.285 258.337Z" fill="#1B1A19"/>
<path fill-rule="evenodd" clip-rule="evenodd" d="M172.686 249.454C171.087 249.454 169.787 250.753 169.787 252.353C169.787 253.952 171.087 255.251 172.686 255.251C174.285 255.251 175.584 253.952 175.584 252.353C175.584 250.753 174.285 249.454 172.686 249.454ZM172.686 258.337C169.386 258.337 166.701 255.654 166.701 252.353C166.701 249.053 169.386 246.368 172.686 246.368C175.985 246.368 178.67 249.053 178.67 252.353C178.67 255.654 175.985 258.337 172.686 258.337Z" fill="#1B1A19"/>
<path fill-rule="evenodd" clip-rule="evenodd" d="M197.528 252.353C197.528 254.805 195.54 256.794 193.086 256.794C190.635 256.794 188.645 254.805 188.645 252.353C188.645 249.9 190.635 247.911 193.086 247.911C195.54 247.911 197.528 249.9 197.528 252.353Z" fill="#1B1A19"/>
<path fill-rule="evenodd" clip-rule="evenodd" d="M348.937 235.128H489.367V135.304H348.937V235.128ZM352.024 232.042H486.281V138.39H352.024V232.042Z" fill="#1B1A19"/>
<path fill-rule="evenodd" clip-rule="evenodd" d="M318.073 384.495H519.459V235.16H318.073V384.495ZM314.987 387.582H522.546V232.074H314.987V387.582Z" fill="#1B1A19"/>
<path fill-rule="evenodd" clip-rule="evenodd" d="M263.629 479.53H587.696V476.443H263.629V479.53Z" fill="#1B1A19"/>
<path fill-rule="evenodd" clip-rule="evenodd" d="M373.672 341.621H464.635V277.031H373.672V341.621ZM370.586 344.707H467.721V273.945H370.586V344.707Z" fill="#1B1A19"/>
<path fill-rule="evenodd" clip-rule="evenodd" d="M419.923 212.867L191.839 212.665L191.841 209.579L419.925 209.781L419.923 212.867Z" fill="#1B1A19"/>
<path fill-rule="evenodd" clip-rule="evenodd" d="M514.251 216.193H546.658V370.284L521.775 387.711V233.617H487.824V135.304H348.937L373.821 117.879H514.251V216.193Z" fill="#1B1A19"/>
<path fill-rule="evenodd" clip-rule="evenodd" d="M425.086 211.225C425.086 214.501 422.428 217.158 419.153 217.158C415.877 217.158 413.22 214.501 413.22 211.225C413.22 207.949 415.877 205.292 419.153 205.292C422.428 205.292 425.086 207.949 425.086 211.225Z" fill="#1B1A19"/>
<path fill-rule="evenodd" clip-rule="evenodd" d="M647.447 183.672H674.871V156.247H647.447V183.672ZM644.361 186.76H677.957V153.161H644.361V186.76Z" fill="#1B1A19"/>
<path fill-rule="evenodd" clip-rule="evenodd" d="M677.957 183.672H705.383V156.247H677.957V183.672ZM674.87 186.76H708.469V153.161H674.87V186.76Z" fill="#1B1A19"/>
<path fill-rule="evenodd" clip-rule="evenodd" d="M706.926 185.216H737.436V154.704H706.926V185.216Z" fill="#1B1A19"/>
<path fill-rule="evenodd" clip-rule="evenodd" d="M708.469 183.672H735.893V156.247H708.469V183.672ZM705.383 186.76H738.979V153.161H705.383V186.76Z" fill="#1B1A19"/>
<path fill-rule="evenodd" clip-rule="evenodd" d="M738.979 183.672H766.403V156.247H738.979V183.672ZM735.893 186.76H769.49V153.161H735.893V186.76Z" fill="#1B1A19"/>
<path fill-rule="evenodd" clip-rule="evenodd" d="M647.447 214.184H674.871V186.76H647.447V214.184ZM644.361 217.27H677.957V183.673H644.361V217.27Z" fill="#1B1A19"/>
<path fill-rule="evenodd" clip-rule="evenodd" d="M677.957 214.184H705.383V186.76H677.957V214.184ZM674.87 217.27H708.469V183.673H674.87V217.27Z" fill="#1B1A19"/>
<path fill-rule="evenodd" clip-rule="evenodd" d="M708.469 214.184H735.893V186.76H708.469V214.184ZM705.383 217.27H738.979V183.673H705.383V217.27Z" fill="#1B1A19"/>
<path fill-rule="evenodd" clip-rule="evenodd" d="M738.979 214.184H766.403V186.76H738.979V214.184ZM735.893 217.27H769.49V183.673H735.893V217.27Z" fill="#1B1A19"/>
<path fill-rule="evenodd" clip-rule="evenodd" d="M769.49 183.672H796.914V156.247H769.49V183.672ZM766.403 186.76H800V153.161H766.403V186.76Z" fill="#1B1A19"/>
<path fill-rule="evenodd" clip-rule="evenodd" d="M767.947 215.727H798.457V185.217H767.947V215.727Z" fill="#1B1A19"/>
<path fill-rule="evenodd" clip-rule="evenodd" d="M769.49 214.184H796.914V186.76H769.49V214.184ZM766.403 217.27H800V183.673H766.403V217.27Z" fill="#1B1A19"/>
<path fill-rule="evenodd" clip-rule="evenodd" d="M688.426 584.318H700.723C702.415 574.841 712.997 515.515 714.593 504.421C715.779 496.166 722.909 473.881 728.115 457.609C730.457 450.295 732.476 443.978 732.754 442.593C733.303 439.849 733.308 437.582 733.25 436.379L701.016 425.48C700.06 432.654 697.478 454.138 694.974 474.985C691.844 501.015 688.891 525.604 688.426 528.158C687.744 531.9 688.175 568.592 688.426 584.318ZM703.306 587.404H685.391L685.364 585.886C685.329 583.712 684.487 532.565 685.391 527.606C685.839 525.141 688.925 499.457 691.909 474.618C694.822 450.387 697.572 427.499 698.216 423.193L698.491 421.369L736.106 434.088L736.236 435.033C736.256 435.175 736.706 438.57 735.78 443.198C735.47 444.755 733.618 450.54 731.055 458.551C726.174 473.806 718.797 496.862 717.648 504.862C715.913 516.916 703.657 585.442 703.534 586.131L703.306 587.404Z" fill="#1B1A19"/>
<path fill-rule="evenodd" clip-rule="evenodd" d="M721.498 437.819C712.14 437.819 694.244 431.353 693.462 431.068L692.209 430.612L692.479 429.305C692.544 428.993 698.991 397.78 704.872 368.684L707.898 369.297C702.702 395.001 697.062 422.359 695.773 428.61C700.182 430.139 715.022 435.113 722.24 434.714C731.032 434.276 744.643 432.676 747.813 431.873C749.353 426.041 749.059 377.693 747.349 367.01C745.933 358.158 734.639 333.563 729.209 321.745C728.358 319.888 727.646 318.338 727.133 317.199L717.524 319.9C717.165 322.183 716.376 326.471 715.176 332.691L712.146 332.107C713.543 324.86 714.374 320.276 714.615 318.481L714.751 317.477L728.883 313.5L729.418 314.74C729.885 315.82 730.807 317.829 732.015 320.456C737.5 332.401 748.914 357.254 750.397 366.523C751.367 372.573 751.86 390.074 751.909 403.774C752.019 433.562 750.594 434.132 749.447 434.591C746.767 435.665 730.384 437.399 722.393 437.797C722.106 437.811 721.805 437.819 721.498 437.819Z" fill="#1B1A19"/>
<path fill-rule="evenodd" clip-rule="evenodd" d="M751.895 595.525H767.23L778.043 591.977L772.861 581.389L767.201 583.138C768.579 586.144 768.876 587.769 768.352 589.03C768.049 589.767 767.468 590.296 766.679 590.561C766.119 590.745 765.161 590.909 763.373 591.205C760.423 591.691 755.486 592.508 753.74 593.614C753.066 594.041 752.424 594.777 751.895 595.525ZM767.725 598.611H746.828L747.811 596.433C747.985 596.045 749.596 592.585 752.087 591.008C754.19 589.674 758.386 588.899 762.87 588.159C763.921 587.986 765.006 587.805 765.512 587.683C765.501 587.224 765.219 586.014 763.654 582.883L762.841 581.255L774.474 577.66L782.374 593.803L767.725 598.611Z" fill="#1B1A19"/>
<path fill-rule="evenodd" clip-rule="evenodd" d="M674.858 596.554H702.08L698.648 588.172L693.395 588.098C693.611 588.917 693.599 589.617 693.26 590.237C692.69 591.281 691.577 591.4 690.911 591.471C690.644 591.5 690.39 591.527 690.209 591.59C689.637 591.78 688.487 591.979 686.331 592.344C683.417 592.84 677.353 593.869 676.241 594.702C675.631 595.16 675.178 595.871 674.858 596.554ZM706.681 599.64H670.923L671.223 597.845C671.285 597.467 671.909 594.094 674.39 592.235C675.974 591.046 680.31 590.238 685.813 589.301C687.241 589.058 688.86 588.784 689.231 588.66C689.599 588.538 689.952 588.478 690.263 588.44C690.155 588.154 689.98 587.757 689.71 587.214L688.575 584.946L700.729 585.111L706.681 599.64Z" fill="#1B1A19"/>
<path fill-rule="evenodd" clip-rule="evenodd" d="M715.752 307.64C715.996 307.64 716.229 307.66 716.451 307.705C717.359 307.889 719.38 308.298 718.095 316.534L726.593 314.143L728.83 295.603L722.418 283.491L714.74 281.268L711.159 293.175C710.583 295.14 709.977 296.976 709.421 298.665C708.004 302.959 706.667 307.015 707.814 308.093C708.818 309.038 711.146 308.508 713.017 308.083C714.038 307.849 714.955 307.64 715.752 307.64ZM714.145 320.852L714.63 318.386C715.241 315.302 715.536 312.033 715.353 310.756C714.887 310.821 714.228 310.971 713.702 311.091C711.256 311.648 707.908 312.41 705.702 310.344C703.119 307.918 704.533 303.633 706.491 297.7C707.037 296.039 707.633 294.232 708.198 292.303L708.201 292.291L712.664 277.456L724.533 280.89L732.011 295.012L729.41 316.558L714.145 320.852Z" fill="#1B1A19"/>
<path fill-rule="evenodd" clip-rule="evenodd" d="M710.712 285.426C704.313 279.362 708.077 269.713 713.314 271.727C718.552 273.743 718.392 278.537 720.968 276.562C724.704 273.702 731.866 275.19 732.348 279.362C732.997 284.946 743.409 291.321 741.919 298.72C740.407 306.231 732.888 309.619 729.262 309.217C725.637 308.813 721.089 304.284 722.06 301.865C723.033 299.449 727.46 299.804 727.46 296.851C727.46 292.956 724.054 294.459 721.803 291.191C719.553 287.926 719.212 284.434 716.659 283.089C713.68 281.522 710.712 285.426 710.712 285.426Z" fill="#1B1A19"/>
<path fill-rule="evenodd" clip-rule="evenodd" d="M618.536 350.919C617.965 354.532 620.762 360.005 624.022 362.115C625.917 363.342 630.953 364.233 633.573 364.592L635.542 362.066C632.938 361.246 630.438 360.061 629.946 358.456C629.71 357.689 629.749 356.717 629.801 355.486C629.873 353.736 629.982 351.094 628.877 350.549C628.502 350.913 628.011 352.26 627.792 352.856C627.407 353.922 627.1 354.763 626.491 355.27C624.209 357.164 621.471 354.153 619.056 351.49C618.895 351.311 618.716 351.114 618.536 350.919ZM634.933 367.867L634.072 367.766C633.2 367.666 625.464 366.725 622.346 364.707C617.204 361.378 613.451 352.503 616.511 347.636L616.919 346.988L617.801 346.846C618.911 346.768 619.679 347.583 621.342 349.416C622.148 350.305 623.706 352.021 624.602 352.577C624.698 352.334 624.804 352.044 624.894 351.803C625.463 350.234 626.171 348.283 627.78 347.635C628.323 347.418 629.189 347.265 630.236 347.777C633.151 349.206 632.991 353.061 632.884 355.613C632.856 356.314 632.816 357.274 632.896 357.549C633.258 357.986 635.98 359.072 638.541 359.693L640.862 360.257L634.933 367.867Z" fill="#1B1A19"/>
<path fill-rule="evenodd" clip-rule="evenodd" d="M636.629 365.69C648.333 371.457 674.593 383.925 679.818 384.238C684.513 383.99 725.279 354.181 729.208 349.203C730.704 347.31 733.692 337.866 729.329 333.503C724.62 328.794 717.029 331.245 711.963 336.098C711.355 336.681 709.496 338.569 707.081 341.015C692.561 355.731 689.78 358.3 688.733 358.848C688.683 358.996 688.628 359.207 688.588 359.362C688.358 360.249 687.974 361.736 686.475 362.283C685.429 362.664 684.207 362.515 683.128 362.384C682.877 362.356 682.546 362.314 682.279 362.295C682.226 362.483 682.172 362.696 682.123 362.879C681.698 364.504 680.984 367.228 678.591 367.388C678.571 367.389 678.546 367.389 678.522 367.389C676.172 367.39 652.758 361.866 641.673 359.218L636.629 365.69ZM679.761 387.323C679.729 387.323 679.696 387.323 679.665 387.32C672.587 386.928 637.536 369.591 633.562 367.616L631.871 366.775L640.46 355.755L641.425 355.987C654.504 359.115 675.786 364.064 678.325 364.299C678.652 363.957 678.988 362.664 679.138 362.096C679.398 361.099 679.586 360.38 680.098 359.869C680.952 359.013 682.188 359.161 683.498 359.321C684.122 359.396 685.068 359.512 685.418 359.382C685.407 359.333 685.529 358.866 685.6 358.586C685.807 357.788 686.146 356.481 687.41 356.053C689.108 354.839 699.731 344.068 704.884 338.845C707.329 336.369 709.211 334.459 709.829 333.872C716.997 327 726.117 325.926 731.51 331.32C737.287 337.095 733.862 348.289 731.632 351.115C728.548 355.022 686.175 387.32 679.761 387.323Z" fill="#1B1A19"/>
<path fill-rule="evenodd" clip-rule="evenodd" d="M350.48 190.375H489.367V187.289H350.48V190.375Z" fill="#1B1A19"/>
<path fill-rule="evenodd" clip-rule="evenodd" d="M395.233 233.617H398.32V188.832H395.233V233.617Z" fill="#1B1A19"/>
<path fill-rule="evenodd" clip-rule="evenodd" d="M441.528 233.617H444.616V188.832H441.528V233.617Z" fill="#1B1A19"/>
<path fill-rule="evenodd" clip-rule="evenodd" d="M386.941 328.351L384.206 326.921C387.63 320.366 390.914 314.592 396.465 310.353C401.817 306.268 410.82 303.644 417.947 307.54C419.077 308.158 420.081 308.896 421.054 309.609C422.22 310.469 423.321 311.279 424.552 311.826C430.126 314.298 437.247 310.736 441.409 305.947C443.129 303.961 444.64 301.716 446.102 299.544C448.378 296.157 450.732 292.654 454.037 289.841L456.038 292.193C453.056 294.729 450.922 297.903 448.662 301.266C447.148 303.515 445.584 305.842 443.738 307.968C438.986 313.444 430.56 317.865 423.302 314.646C421.764 313.963 420.473 313.014 419.223 312.096C418.294 311.412 417.414 310.766 416.468 310.249C410.55 307.01 402.921 309.309 398.336 312.808C393.292 316.66 390.191 322.124 386.941 328.351Z" fill="#1B1A19"/>
<path fill-rule="evenodd" clip-rule="evenodd" d="M733.013 599.73H767.478V596.644H733.013V599.73Z" fill="#1B1A19"/>
<path fill-rule="evenodd" clip-rule="evenodd" d="M685.851 68.7179C676.784 68.7179 672.212 65.7918 667.787 62.962C663.553 60.2501 659.553 57.6901 651.39 57.6901C643.224 57.6901 639.224 60.2501 634.99 62.9606C630.565 65.7918 625.993 68.7179 616.927 68.7179C607.859 68.7179 603.285 65.7918 598.861 62.962C594.625 60.2501 590.626 57.6901 582.46 57.6901C574.294 57.6901 570.294 60.2501 566.057 62.962C561.634 65.7918 557.06 68.7179 547.993 68.7179V65.6318C556.159 65.6318 560.156 63.0718 564.395 60.3613C568.816 57.5301 573.391 54.604 582.46 54.604C591.528 54.604 596.102 57.5301 600.526 60.3613C604.762 63.0718 608.761 65.6318 616.927 65.6318C625.09 65.6318 629.09 63.0718 633.325 60.3613C637.749 57.5301 642.321 54.604 651.39 54.604C660.457 54.604 665.028 57.5301 669.452 60.3613C673.687 63.0718 677.687 65.6318 685.851 65.6318V68.7179Z" fill="#1B1A19"/>
<path fill-rule="evenodd" clip-rule="evenodd" d="M685.851 93.476C676.784 93.476 672.212 90.5499 667.787 87.72C663.553 85.0082 659.553 82.4482 651.39 82.4482C643.224 82.4482 639.224 85.0082 634.99 87.7173C630.565 90.5499 625.993 93.476 616.927 93.476C607.859 93.476 603.285 90.5499 598.861 87.72C594.625 85.0082 590.626 82.4482 582.46 82.4482C574.294 82.4482 570.294 85.0082 566.057 87.72C561.634 90.5499 557.06 93.476 547.993 93.476V90.3885C556.159 90.3885 560.156 87.8285 564.395 85.1194C568.816 82.2868 573.391 79.3621 582.46 79.3621C591.528 79.3621 596.102 82.2868 600.526 85.1194C604.762 87.8285 608.761 90.3885 616.927 90.3885C625.09 90.3885 629.09 87.8285 633.325 85.1194C637.749 82.2868 642.321 79.3621 651.39 79.3621C660.457 79.3621 665.028 82.2868 669.452 85.1194C673.687 87.8285 677.687 90.3885 685.851 90.3885V93.476Z" fill="#1B1A19"/>
<path fill-rule="evenodd" clip-rule="evenodd" d="M749.216 516.089C746.686 513.194 745.622 504.166 745.733 501.477C745.925 496.847 741.894 493.343 741.102 491.639C738.527 486.093 749.302 456.254 748.819 433.159L734.598 435.039C734.71 437.584 734.71 440.681 734.268 442.896C733.486 446.806 721.288 482.497 717.251 499.152C718.647 508.987 719.783 516.127 720.27 517.102C722.041 520.643 762.152 584.09 762.152 584.09L776.317 580.106C776.317 580.106 753.641 521.152 749.216 516.089Z" fill="#1B1A19"/>
<path fill-rule="evenodd" clip-rule="evenodd" d="M748.873 366.766C749.581 371.195 750.077 382.574 750.275 394.687C756.231 388.488 766.705 376.954 766.705 372.535C766.705 370.485 762.235 361.507 757.992 356.608C755.121 353.298 743.185 340.402 735.752 332.399C741.283 344.733 747.797 360.043 748.873 366.766Z" fill="#1B1A19"/>
<path fill-rule="evenodd" clip-rule="evenodd" d="M729.669 406.742C726.968 397.483 713.346 404.813 708.153 400.184C704.812 397.207 713.871 374.369 720.763 358.447C716.663 361.658 711.704 365.385 706.649 369.043C700.797 399.023 693.989 429.618 693.989 429.618C693.989 429.618 713.464 436.699 722.316 436.256C725.216 436.112 731.083 435.597 734.708 435.243C735.132 430.854 732.087 415.034 729.669 406.742Z" fill="#1B1A19"/>
<path fill-rule="evenodd" clip-rule="evenodd" d="M617.817 348.458C618.405 347.519 623.604 355.662 625.504 354.081C626.419 353.321 626.999 347.909 629.555 349.163C632.461 350.588 630.906 356.332 631.421 358.002C631.832 359.339 635.882 360.57 637.504 361.016L644.029 356.581L628.72 341.542L617.275 348.23L617.713 348.661C617.752 348.595 617.776 348.521 617.817 348.458Z" fill="#1B1A19"/>
</svg>
