<svg width="800" height="600" viewBox="0 0 800 600" fill="none" xmlns="http://www.w3.org/2000/svg">
<path fill-rule="evenodd" clip-rule="evenodd" d="M743.841 423.971L717.436 397.563L731.515 383.485C735.845 387.341 743.53 387.763 748.159 388.005C748.696 388.032 749.188 388.059 749.623 388.087C749.789 388.099 749.953 388.104 750.12 388.104C753.306 388.104 756.596 386.113 757.193 383.74C757.577 382.218 756.84 380.831 755.275 380.119C750.364 377.887 744.481 374.715 743.166 373.022C743.035 372.855 742.881 372.594 742.712 372.286L767.481 347.519L793.886 373.925L743.841 423.971ZM734.508 360.232C735.788 363.97 738.932 372.87 740.602 375.015C742.834 377.887 751.367 381.911 753.929 383.074C753.949 383.083 753.967 383.091 753.983 383.099C753.63 383.728 751.926 384.988 749.839 384.848C749.392 384.818 748.883 384.789 748.328 384.761C744.072 384.538 736.947 384.164 733.521 380.953C729.622 377.294 726.031 370.815 723.93 363.751L734.508 360.232ZM708.56 288.927L660.904 217.282C660.866 217.225 657.21 211.551 658.485 205.979C659.153 203.061 661.09 200.621 664.243 198.725C666.489 197.375 668.572 196.848 670.46 196.848C676.984 196.848 681.138 203.149 681.388 203.536L732.557 276.695C734.243 279.107 735.185 281.934 735.277 284.874L736.947 338.868C732.574 339.921 720.692 342.783 716.317 343.844L709.989 292.781C709.818 291.408 709.324 290.076 708.56 288.927ZM606.103 275.274C603.519 277.206 600.319 278.27 597.092 278.27H531.002V255.672L588.068 253.878C590.245 253.809 592.312 252.942 593.89 251.44L619.815 226.734V226.737L640.028 207.472L640.902 206.64C640.919 206.699 640.929 206.755 640.946 206.814C641.509 208.932 642.98 213.422 645.01 219.354C644.302 221.617 643.668 223.941 643.06 226.197C642.256 229.179 641.425 232.261 640.436 235.078C638.319 241.103 634.766 243.059 629.849 245.77C627.307 247.168 624.428 248.755 621.464 251.145C613.417 257.636 609.472 265.068 610.234 272.184L606.103 275.274ZM572.303 568.908C572.303 584.13 559.921 596.511 544.7 596.511H362.038C346.817 596.511 334.435 584.13 334.435 568.908V500.308H344.989V564.511C344.989 576.934 355.096 587.04 367.517 587.04H539.221C551.644 587.04 561.75 576.934 561.75 564.511V281.517H572.303V568.908ZM278.058 521.55L310.235 505.401L307.754 499.457L319.415 493.605V500.308H331.188V521.55H278.058ZM233.779 540.145C228.641 542.886 222.58 543.245 217.16 541.142C211.733 539.034 207.507 534.678 205.538 529.113C205.307 528.55 182.337 472.537 176.771 452.562C174.391 444.018 172.47 428.874 186.359 423.435C189.177 422.333 191.826 421.78 194.286 421.78C196.375 421.78 198.329 422.179 200.13 422.977C206.06 425.6 209.258 432.052 210.638 435.665C217.353 453.264 233.423 500.117 233.592 500.605C234.1 502.047 235.196 503.231 236.593 503.852C237.994 504.473 239.604 504.493 241.017 503.902L296.444 480.78L306.07 503.857L270.819 521.55H270.299V521.811L233.779 540.145ZM105.028 511.919C113.099 491.772 124.147 464.18 152.289 433.621C179.057 404.551 185.892 398.857 187.456 397.757L217.524 408.968L214.227 435.971C214.038 435.468 213.851 434.971 213.673 434.507C211.766 429.516 208.102 422.95 201.444 420.006C196.7 417.907 191.223 418.043 185.175 420.411C171.726 425.679 171.026 438.617 172.384 447.566C170.557 457.302 174.587 467.991 173.827 471.218C172.745 475.818 165.167 480.149 161.379 485.289C157.591 490.431 158.672 495.302 157.048 500.985C155.425 506.668 149.557 504.111 141.508 508.832C138.151 510.802 135.153 515.524 133.262 521.553L101.083 521.55C102.357 518.593 103.661 515.332 105.028 511.919ZM194.534 384.163L197.516 386.137L220.421 401.291L218.422 405.836L191.083 395.644L189.559 395.074L194.534 384.163ZM202.824 383.957C207.387 383.345 215.587 375.198 216.298 374.204C217.438 372.609 216.129 370.77 213.751 367.428C211.106 363.707 207.104 358.083 209.283 355.377C210.298 354.119 211.53 354.422 215.018 356.793C217.164 358.249 219.596 359.895 221.409 357.966C223.018 356.257 222.439 353.611 221.877 351.055C221.235 348.14 220.878 345.998 222.098 344.963C223.572 343.704 226.258 343.906 229.366 344.138C232.788 344.391 236.891 344.665 240.836 343.035C240.97 349.976 241.002 359.015 240.528 365.929C240.157 371.37 239.019 387.928 233.337 388.443C228.499 388.895 224.184 383.763 224.138 383.71L222.589 381.848L215.916 394.417L202.005 385.211L202.824 383.957ZM311.354 479.609L312.109 479.132V459.58C312.109 453.036 315.35 447.797 316.347 447.341C316.53 447.282 316.814 447.415 316.958 447.502C317.772 447.972 318.591 449.146 318.857 450.208C319.214 452.053 319.387 475.147 319.414 489.972L306.502 496.452L301.911 485.448C303.492 484.562 306.253 482.842 311.354 479.609ZM322.664 458.498H533.741V497.061H322.664V491.975V491.974V490.97V458.498ZM334.435 455.251H344.989V295.294H334.435V455.251ZM307.903 247.175H480.418V252.941C477.636 252.842 473.455 252.434 473.405 252.431L471.652 252.259L471.624 254.021C471.587 256.503 472.912 261.478 478.206 262.54C478.977 262.694 479.699 262.904 480.418 263.129V292.047H307.903V247.175ZM524 252.642V157.847H539.221C549.853 157.847 558.502 166.498 558.502 177.128V251.558L524 252.642ZM481.5 256.213C481.936 256.213 482.445 256.18 483.032 256.141C485.989 255.946 490.938 255.618 497.393 259.815L497.758 260.051L510.075 260.725V275.54C507.43 276.015 505.679 276.523 504.353 276.91C502.756 277.371 501.793 277.645 500.376 277.592C497.794 277.485 487.558 276.809 483.665 276.549V264.133C486.117 264.815 489.245 265.393 494.362 265.413L494.349 262.164C494.274 262.164 494.204 262.167 494.13 262.167C487.975 262.167 485.052 261.214 482.47 260.371C481.289 259.985 480.172 259.622 478.844 259.357C476.482 258.882 475.524 257.197 475.134 255.847C477.023 256.006 479.783 256.213 481.5 256.213ZM510.745 253.06V257.509L498.794 256.857C492.215 252.704 486.89 252.67 483.665 252.849V243.928H348.236V177.128C348.236 166.498 356.886 157.847 367.517 157.847H403.941C404.749 164.771 410.651 170.16 417.784 170.16H488.955C496.091 170.16 501.991 164.771 502.798 157.847H520.751V252.745L510.745 253.06ZM483.665 295.294V279.802C487.723 280.074 497.634 280.727 500.24 280.835C500.415 280.842 500.583 280.847 500.747 280.847C502.435 280.847 503.695 280.479 505.257 280.028C506.597 279.639 508.224 279.168 510.745 278.719V281.517H520.751V321.298C520.751 351.57 511.55 387.652 467.712 387.652C425.015 387.652 404.874 409.157 404.411 455.251H348.236V295.294H483.665ZM348.236 500.308H536.988V455.251H407.66C408.12 411.371 427.228 390.9 467.712 390.9C504.01 390.9 524 366.181 524 321.298V281.517H558.502V564.511C558.502 575.144 549.853 583.792 539.221 583.792H367.517C356.886 583.792 348.236 575.144 348.236 564.511V500.308ZM334.435 172.732C334.435 157.511 346.817 145.129 362.038 145.129H544.7C559.921 145.129 572.303 157.511 572.303 172.732V251.124L561.75 251.455V177.128C561.75 164.707 551.644 154.6 539.221 154.6H499.644V156.223C499.644 162.119 494.849 166.913 488.955 166.913H417.784C411.889 166.913 407.094 162.119 407.094 156.223V154.6H367.517C355.096 154.6 344.989 164.707 344.989 177.128V243.928H334.435V172.732ZM622.805 180.742C618.27 180.6 611.13 167.227 607.513 154.296L607.47 154.093C607.006 151.789 606.376 144.761 609.466 142.753C611.567 141.384 617.272 146.645 619.712 148.887C622.103 151.087 622.992 151.917 624.173 151.695L625.077 151.469L625.384 150.852C625.73 150.564 627.117 149.946 628.741 150.021C630.002 150.076 630.985 150.524 631.662 151.353C632.516 152.398 633.121 153.823 633.708 155.204C634.051 156.009 634.387 156.793 634.772 157.491L634.831 157.678L634.98 157.844C635.389 158.516 635.861 159.086 636.452 159.481L648.743 173.158L640.383 180.996L630.796 172.587L629.873 174.525C629.034 176.289 626.155 180.775 622.805 180.742ZM661.219 177.91C661.066 177.944 660.919 177.974 660.763 178.01C660.428 178.087 660.081 178.179 659.725 178.276C659.601 178.31 659.483 178.338 659.355 178.374C658.872 178.512 658.371 178.668 657.857 178.844C657.75 178.882 657.638 178.925 657.529 178.964C657.12 179.111 656.706 179.265 656.279 179.439C656.09 179.516 655.896 179.602 655.702 179.687C655.346 179.84 654.989 180.001 654.626 180.172C654.408 180.278 654.189 180.388 653.966 180.5C653.613 180.681 653.259 180.87 652.899 181.07C652.672 181.196 652.448 181.323 652.221 181.457C651.839 181.681 651.457 181.927 651.074 182.175C650.868 182.308 650.665 182.434 650.461 182.574C649.904 182.955 649.347 183.362 648.792 183.798C648.76 183.822 648.73 183.842 648.7 183.865C648.678 183.882 648.658 183.902 648.636 183.92C648.197 184.269 647.78 184.625 647.374 184.981C647.236 185.106 647.103 185.227 646.968 185.349C646.676 185.618 646.393 185.886 646.117 186.155C645.992 186.279 645.865 186.401 645.743 186.527C645.411 186.86 645.092 187.197 644.789 187.529C644.743 187.581 644.695 187.63 644.651 187.681C644.326 188.043 644.021 188.4 643.729 188.754C643.618 188.887 643.516 189.017 643.41 189.149C643.218 189.391 643.032 189.627 642.852 189.862C642.751 189.997 642.649 190.13 642.554 190.262C642.36 190.525 642.176 190.781 642.004 191.035C641.92 191.154 641.838 191.27 641.759 191.385C641.575 191.661 641.398 191.929 641.235 192.189C641.149 192.328 641.069 192.456 640.988 192.589C640.885 192.754 640.788 192.917 640.696 193.073C640.653 193.144 640.604 193.223 640.563 193.294L637.457 188.189L653.285 173.353L655.149 171.608L662.253 177.702C662.191 177.711 662.119 177.729 662.053 177.742C661.784 177.791 661.507 177.847 661.219 177.91ZM627.677 259.143L613.4 269.817C613.725 262.687 619.673 256.763 623.503 253.673C626.245 251.461 628.874 250.013 631.415 248.614C636.33 245.906 640.972 243.349 643.5 236.155C644.53 233.223 645.377 230.081 646.196 227.042C646.406 226.259 646.626 225.465 646.843 224.672C648.511 229.469 650.423 234.903 652.453 240.619L627.677 259.143ZM768.724 286.061C768.231 286.515 767.732 286.967 767.226 287.413C766.835 287.759 766.436 288.098 766.038 288.438C765.495 288.899 764.946 289.357 764.39 289.805C756.847 295.896 748.312 300.724 739.117 304.014L738.522 284.774C738.41 281.2 737.268 277.762 735.218 274.835L684.087 201.732C681.099 197.051 672.763 189.814 662.568 195.942C658.622 198.316 656.181 201.457 655.313 205.279C653.741 212.215 658.009 218.792 658.196 219.073L705.856 290.725C706.342 291.457 706.657 292.307 706.768 293.181L708.734 309.044C707.831 309.028 706.929 309.018 706.032 308.979V308.984C704.96 308.937 703.892 308.857 702.826 308.771C702.562 308.75 702.295 308.73 702.03 308.706H702.028L702.027 308.716C695.621 308.138 689.325 306.839 683.197 304.855C681.624 304.346 680.064 303.804 678.555 303.221C678.537 303.213 678.517 303.209 678.498 303.2C674.592 292.508 646.96 216.757 644.081 205.978C643.873 205.198 643.69 204.442 643.517 203.698L643.402 203.175C643.073 201.679 642.783 199.856 642.584 198.477C642.513 197.898 642.447 197.324 642.406 196.775C642.409 196.768 642.413 196.762 642.415 196.755C642.911 195.694 644.432 192.744 647.269 189.636C647.313 189.587 647.359 189.536 647.406 189.486C647.847 189.009 648.321 188.529 648.827 188.053C648.9 187.984 648.979 187.916 649.053 187.845C649.577 187.362 650.126 186.879 650.717 186.41C650.81 186.338 650.903 186.276 650.994 186.205C651.366 185.919 651.736 185.638 652.106 185.381C652.232 185.293 652.359 185.215 652.486 185.132C652.828 184.9 653.174 184.67 653.515 184.462C653.602 184.409 653.689 184.363 653.777 184.31C654.163 184.081 654.546 183.86 654.925 183.659C654.963 183.638 655.002 183.621 655.039 183.6C660.061 180.963 664.486 180.621 665.775 180.58C665.777 180.58 665.783 180.58 665.788 180.58C665.937 180.575 666.027 180.575 666.083 180.575C666.486 180.632 666.864 180.69 667.253 180.749C667.66 180.81 668.079 180.869 668.472 180.933C668.881 180.997 669.26 181.068 669.652 181.136C670.01 181.197 670.381 181.257 670.724 181.32C671.104 181.391 671.449 181.465 671.81 181.538C672.136 181.604 672.475 181.666 672.787 181.734C673.13 181.808 673.438 181.886 673.76 181.962C674.056 182.031 674.368 182.098 674.642 182.168C674.949 182.244 675.217 182.325 675.503 182.404C675.763 182.477 676.043 182.546 676.287 182.621C676.545 182.699 676.766 182.777 677.006 182.856C677.239 182.934 677.49 183.01 677.706 183.089C677.932 183.171 678.117 183.255 678.321 183.338C678.509 183.415 678.717 183.491 678.89 183.57C679.24 183.73 679.555 183.894 679.824 184.06C682.841 185.903 699.662 200.321 714.502 213.043C726.855 223.63 738.521 233.631 744.049 238.014C744.574 238.428 745.138 238.882 745.741 239.362C746.055 239.612 746.401 239.893 746.732 240.159C747.039 240.408 747.33 240.642 747.652 240.902C748.108 241.27 748.594 241.666 749.078 242.059C749.299 242.239 749.507 242.406 749.732 242.589C750.188 242.962 750.669 243.355 751.145 243.742C751.445 243.989 751.736 244.227 752.044 244.478C752.487 244.842 752.949 245.222 753.404 245.596C753.755 245.885 754.102 246.167 754.46 246.462C754.913 246.836 755.381 247.222 755.845 247.605C756.234 247.926 756.618 248.244 757.014 248.57C757.421 248.906 757.836 249.252 758.251 249.593C758.738 250 759.227 250.405 759.724 250.817C760.043 251.082 760.364 251.35 760.686 251.615C761.278 252.11 761.87 252.604 762.47 253.103C762.739 253.329 763.013 253.557 763.283 253.781C763.942 254.334 764.605 254.886 765.268 255.442C765.477 255.617 765.686 255.792 765.896 255.968C766.631 256.584 767.366 257.201 768.098 257.817C768.234 257.932 768.368 258.045 768.506 258.16C769.313 258.842 770.119 259.523 770.919 260.198C770.984 260.253 771.051 260.311 771.117 260.367C771.972 261.087 772.814 261.802 773.649 262.512C773.689 262.545 773.729 262.579 773.767 262.613C776.875 265.255 779.802 267.77 782.389 270.025C778.479 275.94 773.874 281.311 768.724 286.061ZM219.376 79.1317L244.895 104.649L219.376 130.168L193.857 104.649L219.376 79.1317ZM252.06 97.4847L226.54 71.967L252.06 46.4481L277.579 71.967L252.06 97.4847ZM741.273 369.134C740.072 366.228 738.659 362.333 737.591 359.205L740.794 358.138L739.225 307.409C748.899 304.074 757.895 299.108 765.845 292.792L765.856 292.805C766.147 292.575 766.427 292.328 766.715 292.093C767.268 291.642 767.822 291.189 768.364 290.725C768.823 290.333 769.272 289.934 769.72 289.533C770.218 289.093 770.715 288.651 771.204 288.195C771.342 288.068 771.486 287.946 771.623 287.818L771.611 287.806C776.57 283.137 781.013 277.895 784.839 272.166L784.868 272.189L785.807 270.719C785.834 270.678 785.861 270.639 785.887 270.598L786.636 269.423L786.615 269.405C795.37 255.223 800 238.938 800 222.206C800 172.517 759.575 132.093 709.886 132.093C684.355 132.093 660.095 142.949 642.997 161.904L640.615 159.255C645.855 155.779 643.942 142.476 642.831 136.768C642.154 133.287 640.491 130.634 637.89 128.886C634.3 126.472 629.882 126.476 627.668 126.674C626.588 123.998 623.472 118.066 616.26 115.235C613.876 114.298 611.596 114.374 609.49 115.461C606.065 117.228 603.972 121.358 602.903 124.125C602.334 123.727 601.645 123.368 600.822 123.132C598.554 122.477 596.013 122.972 593.276 124.591C590.677 126.125 589.919 128.13 589.738 129.541C589.32 132.862 591.557 136.132 592.923 137.781C591.883 139.315 590.321 142.227 590.321 145.894C590.321 148.876 592.702 152.387 596.241 154.627C599.086 156.426 602.077 157.053 604.72 156.485C608.593 169.852 615.973 183.777 622.703 183.988C626.128 184.125 628.827 181.679 630.572 179.448C623.499 192.545 619.772 207.252 619.772 222.206C619.772 222.232 619.774 222.26 619.774 222.287L591.649 249.09C590.652 250.042 589.343 250.588 587.967 250.632L575.551 251.022V172.732C575.551 155.721 561.712 141.881 544.7 141.881H462.299V70.1683H280.371L252.06 41.8564L221.949 71.967L252.06 102.077L280.72 73.4154H459.052V141.881H362.038C345.027 141.881 331.188 155.721 331.188 172.732V243.928H304.655V295.294H331.188V455.251H322.336C322.251 452.146 322.147 449.974 322.014 449.444C321.53 447.506 320.15 445.594 318.581 444.689C317.549 444.091 316.465 443.929 315.455 444.219C312.487 445.068 308.862 452.321 308.862 459.58V477.345C305.721 479.328 302.451 481.353 300.647 482.417L298.191 476.53L251.316 496.086C239.719 470.634 223.5 434.947 218.907 424.43L220.873 408.33L224.495 400.095L218.636 396.217L223.285 387.465C225.358 389.351 229.188 392.072 233.632 391.679C241.048 391.005 242.886 379.011 243.768 366.151C244.291 358.534 244.208 348.392 244.047 341.211C251.869 335.404 256.594 321.949 255.421 316.228C254.971 314.031 253.699 313.043 252.712 312.6C249.9 311.334 245.537 312.566 238.577 316.596C235.353 318.461 229.133 319.193 223.119 319.902C222.385 319.987 221.649 320.077 220.913 320.164V133.222L249.487 104.649L219.376 74.5383L189.265 104.649L217.666 133.052V320.581C212.218 321.34 207.134 322.41 203.963 324.686C195.452 330.796 194.818 340.317 194.513 344.893C194.482 345.347 194.455 345.768 194.423 346.112C189.372 349.919 188.312 353.36 190.194 359.431C190.256 359.632 195.909 377.362 199.883 382.523L199.296 383.421L193.154 379.357L186.027 394.992C182.819 396.958 174.502 404.704 149.903 431.421C121.357 462.418 110.177 490.33 102.015 510.712C100.298 514.998 98.6755 519.047 97.1147 522.507L96.082 524.798L200.277 524.8C201.638 528.155 202.469 530.18 202.506 530.273C204.762 536.653 209.673 541.719 215.983 544.168C218.7 545.223 221.551 545.745 224.394 545.745C228.153 545.745 231.891 544.832 235.27 543.028L271.589 524.798H331.188V568.908C331.188 585.92 345.027 599.758 362.038 599.758H544.7C561.712 599.758 575.551 585.92 575.551 568.908V281.517H597.092C601.015 281.517 604.906 280.225 608.047 277.874L629.119 262.117C638.907 281.878 655.649 297.419 675.947 305.685L676.624 305.954C676.838 306.039 677.055 306.11 677.269 306.193C678.214 306.559 679.166 306.915 680.125 307.251C680.538 307.396 680.951 307.534 681.366 307.672C681.779 307.81 682.184 307.959 682.598 308.091L682.6 308.085C682.6 308.085 682.6 308.086 682.601 308.086L682.608 308.066C688.989 310.1 695.543 311.414 702.215 311.979C702.568 312.009 702.917 312.039 703.27 312.065C703.784 312.103 704.296 312.136 704.811 312.164V312.163C706.248 312.244 707.69 312.291 709.137 312.303L715.844 366.444L720.86 364.775C722.776 371.187 725.774 377.021 729.264 381.141L712.844 397.563L743.841 428.563L798.478 373.925L767.481 342.927L741.273 369.134Z" fill="#1B1A19"/>
<path fill-rule="evenodd" clip-rule="evenodd" d="M219.202 13.5918L244.721 39.1111L219.202 64.6301L193.685 39.1111L219.202 13.5918ZM249.314 39.1111L219.202 9L189.091 39.1111L219.202 69.2222L249.314 39.1111Z" fill="#1B1A19"/>
<path fill-rule="evenodd" clip-rule="evenodd" d="M216.631 71.792L186.52 41.6829L156.41 71.792L186.52 101.903L216.631 71.792Z" fill="#1B1A19"/>
<path fill-rule="evenodd" clip-rule="evenodd" d="M301.522 584.066L272.968 555.514H301.522V584.066ZM304.769 591.908V552.265H265.128L304.769 591.908Z" fill="#1B1A19"/>
<path fill-rule="evenodd" clip-rule="evenodd" d="M617.439 481.29C615.765 480.324 614.8 479.085 614.793 477.902V388.035C615.112 388.266 615.451 388.489 615.814 388.698C618.371 390.172 621.644 390.911 624.912 390.911C625.128 390.911 625.342 390.881 625.561 390.874V483.013C622.627 483.114 619.63 482.553 617.439 481.29ZM617.383 379.107C619.399 377.937 622.111 377.351 624.831 377.351C627.55 377.351 630.278 377.938 632.31 379.112C633.988 380.081 634.952 381.321 634.953 382.519C634.954 383.7 634.01 384.928 632.358 385.887C628.331 388.231 621.497 388.227 617.439 385.885C615.759 384.915 614.795 383.673 614.793 382.476C614.792 381.293 615.736 380.065 617.383 379.107ZM633.933 376.299C628.82 373.346 620.835 373.346 615.752 376.299C613.037 377.878 611.541 380.073 611.546 382.48C611.546 382.486 611.548 382.491 611.548 382.495H611.546V477.91C611.559 480.323 613.075 482.52 615.814 484.102C618.371 485.576 621.642 486.315 624.912 486.315C628.183 486.314 631.451 485.576 633.992 484.099C636.722 482.512 638.217 480.307 638.201 477.902V382.495H638.199C638.19 380.083 636.676 377.883 633.933 376.299Z" fill="#1B1A19"/>
<path fill-rule="evenodd" clip-rule="evenodd" d="M79.6797 436.655C76.4458 441.683 70.9869 444.707 65.0288 444.83C57.1843 444.585 50.8745 438.142 50.8745 430.24V426.761H40.2667L70.9046 379.134C74.1268 374.124 79.5582 371.106 85.4928 370.963C93.302 371.248 99.5726 377.673 99.5726 385.55V389.03H110.318L79.6797 436.655ZM150.447 389.03V385.55C150.447 375.7 142.434 367.69 132.586 367.69H83.566V367.838C77.285 368.536 71.6445 371.979 68.1752 377.377L36.4078 426.761H0V430.24C0 440.087 8.01177 448.1 17.8601 448.1H66.8797V447.961C73.2144 447.298 78.9124 443.849 82.4092 438.411L114.176 389.03H150.447Z" fill="#1B1A19"/>
<path fill-rule="evenodd" clip-rule="evenodd" d="M522.375 106.187C525.958 106.187 528.87 109.099 528.87 112.681C528.87 116.262 525.958 119.177 522.375 119.177C518.793 119.177 515.881 116.262 515.881 112.681C515.881 109.099 518.793 106.187 522.375 106.187ZM522.375 122.424C527.749 122.424 532.117 118.052 532.117 112.681C532.117 107.309 527.749 102.94 522.375 102.94C517.005 102.94 512.634 107.309 512.634 112.681C512.634 118.052 517.005 122.424 522.375 122.424Z" fill="#1B1A19"/>
<path fill-rule="evenodd" clip-rule="evenodd" d="M406.013 565.932H503.434V562.685H406.013V565.932Z" fill="#1B1A19"/>
<path fill-rule="evenodd" clip-rule="evenodd" d="M75.2927 402.212C72.1541 402.212 69.6104 404.754 69.6104 407.896C69.6104 411.034 72.1541 413.578 75.2927 413.578C78.4313 413.578 80.9764 411.034 80.9764 407.896C80.9764 404.754 78.4313 402.212 75.2927 402.212Z" fill="#1B1A19"/>
<path fill-rule="evenodd" clip-rule="evenodd" d="M330.554 260.455L321.401 269.612L330.554 278.767L332.852 276.472L325.993 269.612L332.852 262.752L330.554 260.455Z" fill="#1B1A19"/>
<path fill-rule="evenodd" clip-rule="evenodd" d="M446.186 264.469H469.188V261.222H446.186V264.469Z" fill="#1B1A19"/>
<path fill-rule="evenodd" clip-rule="evenodd" d="M446.186 271.235H469.188V267.988H446.186V271.235Z" fill="#1B1A19"/>
<path fill-rule="evenodd" clip-rule="evenodd" d="M446.186 277.999H469.188V274.751H446.186V277.999Z" fill="#1B1A19"/>
<path fill-rule="evenodd" clip-rule="evenodd" d="M367.591 477.926L358.791 469.126L349.992 477.926L358.791 486.724L367.591 477.926Z" fill="#1B1A19"/>
<path fill-rule="evenodd" clip-rule="evenodd" d="M401.485 477.926L392.685 469.126L383.886 477.926L392.685 486.724L401.485 477.926Z" fill="#1B1A19"/>
<path fill-rule="evenodd" clip-rule="evenodd" d="M440.642 477.926L428.203 465.486L415.765 477.926L428.203 490.363L440.642 477.926Z" fill="#1B1A19"/>
<path fill-rule="evenodd" clip-rule="evenodd" d="M472.521 477.926L463.721 469.126L454.922 477.926L463.721 486.724L472.521 477.926Z" fill="#1B1A19"/>
<path fill-rule="evenodd" clip-rule="evenodd" d="M506.415 477.926L497.615 469.126L488.816 477.926L497.615 486.724L506.415 477.926Z" fill="#1B1A19"/>
</svg>
