<svg width="800" height="600" viewBox="0 0 800 600" fill="none" xmlns="http://www.w3.org/2000/svg">
<g clip-path="url(#clip0_104_1253)">
<path fill-rule="evenodd" clip-rule="evenodd" d="M800 348.184L771.341 303.438V326.195L800 348.184Z" fill="#1B1A19"/>
<path fill-rule="evenodd" clip-rule="evenodd" d="M756.806 359.308H753.738V309.898L799.376 347.02L797.44 349.398L756.806 316.35V359.308Z" fill="#1B1A19"/>
<path fill-rule="evenodd" clip-rule="evenodd" d="M183.148 279.931H126.528V115.195H363.116V151.456H360.047V118.262H129.597V276.862H183.148V279.931Z" fill="#1B1A19"/>
<path fill-rule="evenodd" clip-rule="evenodd" d="M418.202 314.659H280.204V311.59H415.134V152.991H184.681V311.59H207.698V314.659H181.614V149.923H418.202V314.659Z" fill="#1B1A19"/>
<path fill-rule="evenodd" clip-rule="evenodd" d="M374.491 296.696H280.204V293.628H371.422V170.952H209.233V295.162H206.164V167.885H374.491V296.696Z" fill="#1B1A19"/>
<path fill-rule="evenodd" clip-rule="evenodd" d="M403.794 232.291C403.794 237.829 399.303 242.32 393.765 242.32C388.226 242.32 383.736 237.829 383.736 232.291C383.736 226.752 388.226 222.261 393.765 222.261C399.303 222.261 403.794 226.752 403.794 232.291Z" fill="#1B1A19"/>
<path fill-rule="evenodd" clip-rule="evenodd" d="M436.718 159.668H509.558V109.982H436.718V159.668ZM433.65 162.736H512.627V106.915H433.65V162.736Z" fill="#1B1A19"/>
<path fill-rule="evenodd" clip-rule="evenodd" d="M484.825 134.826L461.45 121.33V148.321L484.825 134.826Z" fill="#1B1A19"/>
<path fill-rule="evenodd" clip-rule="evenodd" d="M39.4211 345.292H91.6066V266.27H39.4211V345.292ZM36.3525 348.361H94.6739V263.202H36.3525V348.361Z" fill="#1B1A19"/>
<path fill-rule="evenodd" clip-rule="evenodd" d="M0 381.557H37.8863V346.827H0V381.557Z" fill="#1B1A19"/>
<path fill-rule="evenodd" clip-rule="evenodd" d="M435.184 463.845H467.018V432.01H435.184V463.845Z" fill="#1B1A19"/>
<path fill-rule="evenodd" clip-rule="evenodd" d="M799.548 424.288H796.48V351.406C774.845 359.677 720.728 366.947 668.22 368.514C601.785 370.507 551.558 363.435 530.413 349.133C521.866 343.352 517.638 336.322 517.846 328.24C518.39 307.121 551.81 301.807 587.189 296.182C622.082 290.635 658.163 284.899 657.007 263.25C655.89 242.321 586.581 242.5 525.407 242.62C479.214 242.724 435.579 242.828 417.209 234.86L418.427 232.046C436.212 239.757 479.546 239.655 525.4 239.552C593.997 239.398 658.798 239.247 660.072 263.086C661.372 287.494 623.906 293.452 587.673 299.213C555.086 304.392 521.393 309.749 520.915 328.316C520.735 335.286 524.508 341.436 532.131 346.592C579.773 378.818 759.265 364.17 797.405 347.72L799.548 346.796V424.288Z" fill="#1B1A19"/>
<path fill-rule="evenodd" clip-rule="evenodd" d="M646.114 444.092C595.042 444.092 546.447 438.215 526.865 421.614C520.703 416.389 517.67 410.261 517.846 403.398C517.981 398.192 517.849 328.979 517.846 328.281L520.915 328.275C520.921 331.128 521.05 398.227 520.915 403.475C520.761 409.365 523.431 414.68 528.848 419.273C564.601 449.583 706.287 442.603 769.062 430.522L769.643 433.537C739.007 439.433 691.579 444.092 646.114 444.092Z" fill="#1B1A19"/>
<path fill-rule="evenodd" clip-rule="evenodd" d="M770.888 394.327V489.475L796.479 449.516V354.368L770.888 394.327ZM767.819 499.952V393.427L768.061 393.05L799.548 343.89V450.415L799.303 450.793L767.819 499.952Z" fill="#1B1A19"/>
<path fill-rule="evenodd" clip-rule="evenodd" d="M394.833 401.307C390.468 401.307 386.93 397.77 386.93 393.406C386.93 389.041 390.468 385.505 394.833 385.505C399.195 385.505 402.733 389.041 402.733 393.406C402.733 397.77 399.195 401.307 394.833 401.307ZM372.296 415.941H417.368V370.871H372.296V415.941Z" fill="#1B1A19"/>
<path fill-rule="evenodd" clip-rule="evenodd" d="M97.8237 112.688L95.6547 114.857L87.9067 107.108L80.1586 114.857L77.9896 112.688L85.7377 104.939L77.9896 97.1926L80.1586 95.0237L87.9067 102.77L95.6547 95.0237L97.8237 97.1926L90.0756 104.939L97.8237 112.688ZM63.9927 82V243.668H128.063V116.728H297.513V82H63.9927Z" fill="#1B1A19"/>
<path fill-rule="evenodd" clip-rule="evenodd" d="M96.5138 513.849L320.847 514.949C316.13 502.887 292.263 442.329 280.289 420.775C266.157 395.337 231.544 367.327 188.946 365.937C188.776 365.934 188.601 365.93 188.43 365.93C155.273 365.93 109.201 468.994 96.5138 513.849ZM325.341 518.038L92.4966 516.897L93.0201 514.972C103.033 478.078 150.602 362.863 188.443 362.863C188.645 362.863 188.844 362.865 189.046 362.873C232.838 364.299 268.431 393.114 282.97 419.286C296.331 443.336 324.247 515.215 324.527 515.941L325.341 518.038Z" fill="#1B1A19"/>
<path fill-rule="evenodd" clip-rule="evenodd" d="M245.798 380.58L242.733 380.462C242.904 376.009 240.979 371.523 237.17 367.487C229.933 359.82 217.205 355.084 203.125 354.814C193.778 354.622 187.039 356.34 183.669 359.75C181.827 361.611 180.977 363.934 181.065 366.854L177.999 366.95C177.885 363.198 179.057 360.049 181.488 357.592C185.52 353.511 192.793 351.557 203.184 351.746C218.071 352.032 231.609 357.13 239.401 365.381C243.789 370.031 246.002 375.284 245.798 380.58Z" fill="#1B1A19"/>
<path fill-rule="evenodd" clip-rule="evenodd" d="M203.255 351.803C207.301 351.803 211.896 352.099 215.566 353.142C224.492 355.674 232.051 359.997 235.311 362.026C236.863 357.449 240.839 346.586 244.626 343.338C248.132 340.336 252.917 341.689 257.141 342.886C259.07 343.433 260.892 343.949 262.271 343.949C270.779 343.949 273.918 339.407 276.226 332.078C278.702 324.222 278.698 288.584 278.661 280.101L275.15 280.722C272.521 281.186 266.658 287.062 262.779 290.949C257.743 295.993 256.314 297.274 254.924 297.274C254.006 297.274 253.039 296.843 251.915 296.341C248.874 294.984 246.349 294.153 243.88 296.789C241.936 298.864 241.725 303.927 241.54 308.394C241.306 313.983 241.106 318.808 238.051 320.544C226.363 327.177 215.855 322.515 210.981 319.466C210.85 321.344 210.428 324.055 209.497 327.993C206.387 341.17 202.829 346.647 197.746 351.971C199.317 351.878 201.216 351.803 203.255 351.803ZM236.982 366.833L235.275 365.657C235.183 365.594 225.929 359.272 214.729 356.093C206.961 353.886 194.014 355.352 193.885 355.368L189.41 355.887L192.639 352.744C198.565 346.978 202.846 342.813 206.512 327.289C208.492 318.91 207.865 317.12 207.839 317.05C207.839 317.051 207.904 317.212 208.108 317.396L210.089 315.057C210.143 315.098 210.205 315.148 210.272 315.211C211.618 316.363 223.048 325.532 236.537 317.874C238.111 316.982 238.304 312.351 238.475 308.266C238.693 303.02 238.919 297.597 241.641 294.69C245.799 290.257 250.592 292.391 253.165 293.539C253.707 293.781 254.422 294.101 254.786 294.184C255.733 293.663 258.423 290.968 260.607 288.781C266.514 282.862 271.298 278.287 274.616 277.701L281.701 276.449L281.718 278.26C281.735 280.111 282.099 323.653 279.152 333.001C276.859 340.279 273.227 347.016 262.271 347.016C260.466 347.016 258.446 346.445 256.304 345.836C252.654 344.804 248.875 343.735 246.624 345.669C243.313 348.504 238.994 360.481 237.609 364.858L236.982 366.833Z" fill="#1B1A19"/>
<path fill-rule="evenodd" clip-rule="evenodd" d="M50.5171 290.344H79.3281V287.276H50.5171V290.344Z" fill="#1B1A19"/>
<path fill-rule="evenodd" clip-rule="evenodd" d="M50.5171 307.315H79.3281V304.248H50.5171V307.315Z" fill="#1B1A19"/>
<path fill-rule="evenodd" clip-rule="evenodd" d="M50.5171 324.286H79.3281V321.217H50.5171V324.286Z" fill="#1B1A19"/>
<path fill-rule="evenodd" clip-rule="evenodd" d="M635.663 423.448C633.081 423.448 631.04 422.762 629.56 421.392C627.721 419.685 625.49 415.68 631.238 408.041L641.404 394.525C643.179 392.164 644.851 389.477 643.788 387.453C642.003 384.046 634.853 385.146 632.703 385.566C623.57 387.344 612.362 392.203 600.497 397.349C573.118 409.223 542.084 422.686 531.133 397.967L533.936 396.722C543.654 418.658 571.932 406.397 599.276 394.533C611.299 389.322 622.655 384.395 632.115 382.555C636.376 381.725 643.911 381.072 646.507 386.028C648.613 390.043 645.399 394.316 643.855 396.369L633.689 409.885C631.434 412.883 629.249 416.92 631.646 419.14C633.27 420.647 636.452 420.782 640.851 419.539C646.575 417.915 652.206 415.734 657.651 413.625C662.48 411.752 667.473 409.818 672.564 408.256C685.918 404.154 697.521 403.708 707.044 406.923C710.858 408.212 714.343 410.098 717.713 411.922C719.565 412.925 721.479 413.96 723.404 414.869C729.822 417.903 735.457 418.83 740.161 417.631L740.919 420.603C735.509 421.988 729.174 420.989 722.091 417.644C720.094 416.699 718.142 415.642 716.253 414.621C712.846 412.776 709.628 411.034 706.059 409.83C697.163 406.823 686.192 407.279 673.463 411.188C668.479 412.718 663.538 414.633 658.76 416.484C653.248 418.619 647.551 420.828 641.687 422.489C639.433 423.129 637.423 423.448 635.663 423.448Z" fill="#1B1A19"/>
<path fill-rule="evenodd" clip-rule="evenodd" d="M27.752 518.027H354.539V514.96H27.752V518.027Z" fill="#1B1A19"/>
<path fill-rule="evenodd" clip-rule="evenodd" d="M654.761 276.856C631.002 304.793 520.311 292.457 519.38 328.278C518.719 353.637 565.616 364.378 621.783 366.772C645.103 361.661 659.817 352.633 659.78 338.328V265.311C659.818 264.613 657.122 274.08 654.761 276.856Z" fill="#1B1A19"/>
<path fill-rule="evenodd" clip-rule="evenodd" d="M243.271 459.909C243.462 479.532 237.295 515.374 237.295 515.374L264.004 515.156C256.483 503.329 248.887 474.549 245.256 459.514C244.912 458.086 243.257 458.418 243.271 459.909Z" fill="#1B1A19"/>
<path fill-rule="evenodd" clip-rule="evenodd" d="M263.855 245.485C253.631 241.682 235.276 240.854 224.361 245.532C213.445 250.209 203.507 266.145 201.907 282.331C200.461 296.956 204.168 310.718 209.376 320.115C209.712 316.737 222.057 327.858 237.295 319.209C241.915 316.588 238.084 300.731 242.761 295.74C247.44 290.751 252.741 295.74 254.923 295.74C257.107 295.74 269.582 280.148 274.883 279.212C280.184 278.275 280.184 278.275 280.184 278.275C280.184 278.275 281.186 278.778 281.585 276.907C281.983 275.035 280.006 251.495 263.855 245.485Z" fill="#1B1A19"/>
<path fill-rule="evenodd" clip-rule="evenodd" d="M769.353 393.876L798.014 349.129L753.284 384.189V485.026L769.353 472.43V393.876Z" fill="#1B1A19"/>
</g>
<defs>
<clipPath id="clip0_104_1253">
<rect width="800" height="600" fill="white"/>
</clipPath>
</defs>
</svg>
