<svg width="800" height="600" viewBox="0 0 800 600" fill="none" xmlns="http://www.w3.org/2000/svg">
<g clip-path="url(#clip0_104_1351)">
<path fill-rule="evenodd" clip-rule="evenodd" d="M493.804 501.744H441.079V498.655H490.715V469.637H493.804V501.744Z" fill="#1B1A19"/>
<path fill-rule="evenodd" clip-rule="evenodd" d="M490.715 372.706H493.804V356.308H490.715V372.706Z" fill="#1B1A19"/>
<path fill-rule="evenodd" clip-rule="evenodd" d="M493.804 339.74H490.715V66.4055H270.966V104.329H267.877V63.3179H493.804V339.74Z" fill="#1B1A19"/>
<path fill-rule="evenodd" clip-rule="evenodd" d="M442.932 541.214H217.005V442.347H220.094V538.125H439.843V105.874H220.094V400.136H217.005V102.785H442.932V541.214Z" fill="#1B1A19"/>
<path fill-rule="evenodd" clip-rule="evenodd" d="M496.805 393.445C481.826 393.445 469.641 405.63 469.641 420.609C469.641 435.587 481.826 447.772 496.805 447.772C511.783 447.772 523.967 435.587 523.967 420.609C523.967 405.63 511.783 393.445 496.805 393.445ZM496.805 450.861C480.123 450.861 466.552 437.29 466.552 420.609C466.552 403.927 480.123 390.356 496.805 390.356C513.485 390.356 527.056 403.927 527.056 420.609C527.056 437.29 513.485 450.861 496.805 450.861Z" fill="#1B1A19"/>
<path fill-rule="evenodd" clip-rule="evenodd" d="M506.038 433.809L504.23 431.301L508.141 428.484L504.23 425.666L506.038 423.159L513.427 428.484L506.038 433.809Z" fill="#1B1A19"/>
<path fill-rule="evenodd" clip-rule="evenodd" d="M483.009 430.028H508.689V426.939H483.009V430.028Z" fill="#1B1A19"/>
<path fill-rule="evenodd" clip-rule="evenodd" d="M487.757 418.06L480.368 412.734L487.757 407.411L489.563 409.917L485.652 412.734L489.563 415.554L487.757 418.06Z" fill="#1B1A19"/>
<path fill-rule="evenodd" clip-rule="evenodd" d="M485.105 414.278H510.785V411.189H485.105V414.278Z" fill="#1B1A19"/>
<path fill-rule="evenodd" clip-rule="evenodd" d="M378.935 600.021H422.689V596.934H378.935V600.021Z" fill="#1B1A19"/>
<path fill-rule="evenodd" clip-rule="evenodd" d="M218.549 472.201H441.387V469.114H218.549V472.201Z" fill="#1B1A19"/>
<path fill-rule="evenodd" clip-rule="evenodd" d="M192.081 546.325H195.17V479.922H192.081V546.325Z" fill="#1B1A19"/>
<path fill-rule="evenodd" clip-rule="evenodd" d="M246.578 369.893H413.358V138.13H246.578V369.893ZM243.491 372.982H416.445V135.041H243.491V372.982Z" fill="#1B1A19"/>
<path fill-rule="evenodd" clip-rule="evenodd" d="M574.733 378.375C572.332 377.002 528.849 357.633 488.955 339.964C488.106 339.588 487.439 339.979 487.196 340.164C486.949 340.349 486.388 340.882 486.514 341.802C487.171 346.569 489.011 352.833 494.055 355.606C503.25 360.66 528.332 371.577 528.583 371.687L527.352 374.519C526.317 374.068 501.888 363.435 492.568 358.313C486.399 354.921 484.207 347.691 483.455 342.222C483.213 340.459 483.918 338.766 485.338 337.697C486.757 336.627 488.576 336.418 490.205 337.14C509.599 345.73 573.116 373.894 576.267 375.693L574.733 378.375Z" fill="#1B1A19"/>
<path fill-rule="evenodd" clip-rule="evenodd" d="M607.866 397.563C607.459 396.722 597.826 376.899 596.284 373.304C594.963 370.217 589.584 364.337 584.018 364.103C575.918 363.76 542.597 363.516 542.262 363.512L542.283 360.424C542.619 360.427 575.994 360.673 584.148 361.017C590.857 361.3 597.261 367.742 599.123 372.086C600.636 375.615 610.545 396.006 610.644 396.214L607.866 397.563Z" fill="#1B1A19"/>
<path fill-rule="evenodd" clip-rule="evenodd" d="M700.287 104.659L649.201 16.1769L615.373 74.7688L612.697 73.2246L649.201 10L702.962 103.115L700.287 104.659Z" fill="#1B1A19"/>
<path fill-rule="evenodd" clip-rule="evenodd" d="M744.437 174.951H664.106V171.862H739.087L718.169 135.633L720.845 134.09L744.437 174.951Z" fill="#1B1A19"/>
<path fill-rule="evenodd" clip-rule="evenodd" d="M633.736 174.951H553.966L596.578 101.145L599.253 102.689L559.316 171.862H633.736V174.951Z" fill="#1B1A19"/>
<path fill-rule="evenodd" clip-rule="evenodd" d="M645.831 173.406L622.598 159.991V186.821L645.831 173.406Z" fill="#1B1A19"/>
<path fill-rule="evenodd" clip-rule="evenodd" d="M604.684 91.59L627.919 78.1756L604.684 64.7607V91.59Z" fill="#1B1A19"/>
<path fill-rule="evenodd" clip-rule="evenodd" d="M712.532 122.894L712.53 149.724L735.767 136.309L712.532 122.894Z" fill="#1B1A19"/>
<path fill-rule="evenodd" clip-rule="evenodd" d="M468.096 151.512H586.278V148.425H468.096V151.512Z" fill="#1B1A19"/>
<path fill-rule="evenodd" clip-rule="evenodd" d="M617.521 151.512H628.074V148.425H617.521V151.512Z" fill="#1B1A19"/>
<path fill-rule="evenodd" clip-rule="evenodd" d="M187.089 574.781L193.625 586.105L200.165 574.781H187.089ZM193.625 592.282L181.739 571.692H205.514L193.625 592.282Z" fill="#1B1A19"/>
<path fill-rule="evenodd" clip-rule="evenodd" d="M172.264 167.471C172.264 174.293 166.732 179.824 159.911 179.824C153.087 179.824 147.556 174.293 147.556 167.471C147.556 160.647 153.087 155.117 159.911 155.117C166.732 155.117 172.264 160.647 172.264 167.471Z" fill="#1B1A19"/>
<path fill-rule="evenodd" clip-rule="evenodd" d="M350.428 506.047C350.428 517.347 341.268 526.508 329.969 526.508C318.667 526.508 309.507 517.347 309.507 506.047C309.507 494.746 318.667 485.585 329.969 485.585C341.268 485.585 350.428 494.746 350.428 506.047Z" fill="#1B1A19"/>
<path fill-rule="evenodd" clip-rule="evenodd" d="M737.592 358.432C733.842 358.432 730.029 357.645 726.539 356.025C718.43 352.265 713.846 345.092 713.965 336.348C713.998 333.935 715.058 328.581 716.402 321.804C718.61 310.651 722.31 291.987 719.998 288.834C714.221 280.951 684.066 292.425 657.465 302.544C627.669 313.88 599.525 324.587 588.772 317.796C569.093 305.37 586.897 258.157 596.461 232.792C597.233 230.747 597.946 228.857 598.572 227.16C601.018 220.534 602.504 211.109 599.343 204.533C597.777 201.279 595.171 199.012 591.593 197.792C577.487 195.548 560.654 198.498 542.896 206.331C494.309 227.759 425.728 264.85 374.923 319.853L372.654 317.759C423.819 262.364 492.794 225.053 541.65 203.506C560.005 195.409 577.487 192.385 592.21 194.764L592.452 194.823C596.912 196.307 600.168 199.123 602.126 203.193C605.705 210.642 604.133 221.009 601.47 228.23C600.841 229.932 600.127 231.828 599.35 233.883C590.755 256.676 572.87 304.102 590.422 315.184C599.865 321.15 629.885 309.732 656.366 299.658C688 287.622 715.316 277.23 722.49 287.007C725.372 290.942 722.927 304.755 719.431 322.405C718.17 328.764 717.081 334.259 717.054 336.39C716.952 343.863 720.883 349.998 727.838 353.223C735.629 356.838 745.187 355.786 751.078 350.665L753.104 352.993C748.995 356.567 743.365 358.432 737.592 358.432Z" fill="#1B1A19"/>
<path fill-rule="evenodd" clip-rule="evenodd" d="M329.79 192.009C324.249 196.561 296.094 221.135 296.094 250.192C296.094 284.481 325.139 300.233 329.79 302.534C334.44 300.233 363.483 284.481 363.483 250.192C363.483 221.112 335.334 196.558 329.79 192.009ZM329.79 305.929L329.169 305.657C328.806 305.498 293.005 289.329 293.005 250.192C293.005 216.587 327.388 189.921 328.851 188.801L329.79 188.085L330.727 188.801C332.191 189.921 366.572 216.587 366.572 250.192C366.572 289.329 330.772 305.498 330.411 305.657L329.79 305.929Z" fill="#1B1A19"/>
<path fill-rule="evenodd" clip-rule="evenodd" d="M328.244 317.994H331.333V190.029H328.244V317.994Z" fill="#1B1A19"/>
<path fill-rule="evenodd" clip-rule="evenodd" d="M328.697 253.919L300.163 225.385L302.347 223.201L330.881 251.736L328.697 253.919Z" fill="#1B1A19"/>
<path fill-rule="evenodd" clip-rule="evenodd" d="M328.697 283.14L293.457 247.902L295.642 245.719L330.881 280.957L328.697 283.14Z" fill="#1B1A19"/>
<path fill-rule="evenodd" clip-rule="evenodd" d="M331.24 259.041L329.056 256.857L358.985 226.928L361.169 229.111L331.24 259.041Z" fill="#1B1A19"/>
<path fill-rule="evenodd" clip-rule="evenodd" d="M331.24 288.263L329.056 286.08L364.294 250.841L366.478 253.025L331.24 288.263Z" fill="#1B1A19"/>
<path fill-rule="evenodd" clip-rule="evenodd" d="M331.216 228.029L329.031 225.846L347.205 207.673L349.388 209.856L331.216 228.029Z" fill="#1B1A19"/>
<path fill-rule="evenodd" clip-rule="evenodd" d="M328.426 222.19L312.848 206.609L315.031 204.426L330.609 220.005L328.426 222.19Z" fill="#1B1A19"/>
<path fill-rule="evenodd" clip-rule="evenodd" d="M29.8851 465.162L38.2143 468.374L86.9231 429.058L80.4358 398.28L29.8851 465.162ZM38.7657 471.897L24.9502 466.569L82.0596 391.01L90.336 430.272L38.7657 471.897Z" fill="#1B1A19"/>
<path fill-rule="evenodd" clip-rule="evenodd" d="M110.701 493.994H118.462C117.66 485.133 113.991 443.87 113.991 428.484C113.991 415.872 107.339 400.919 107.271 400.769L106.297 398.598L108.676 398.592C108.676 398.592 143.422 398.506 161.924 398.506C172.099 398.506 204.943 395.483 205.956 357.134L95.5412 375.59C91.2794 376.304 87.5901 378.662 85.1544 382.231C82.7187 385.801 81.8684 390.097 82.7597 394.325L110.701 493.994ZM121.849 497.082H108.358L79.762 395.061C78.6698 389.903 79.6893 384.763 82.6036 380.49C85.5167 376.218 89.9306 373.398 95.0308 372.545L209.068 353.485V355.308C209.068 398.254 172.984 401.593 161.924 401.593C146.294 401.593 119.069 401.655 111.002 401.675C112.902 406.41 117.08 418.011 117.08 428.484C117.08 445.536 121.646 494.898 121.691 495.396L121.849 497.082Z" fill="#1B1A19"/>
<path fill-rule="evenodd" clip-rule="evenodd" d="M111.515 497.082C112.353 500.862 113.549 509.029 109.472 513.168C104.504 518.212 103.499 521.789 103.44 523.751L120.439 512.362L118.769 497.082H111.515ZM101.912 528.491L101.073 527.125C100.692 526.505 97.6281 520.792 107.272 511C110.604 507.617 108.964 499.014 108.052 495.984L107.452 493.994H121.538L123.713 513.887L101.912 528.491Z" fill="#1B1A19"/>
<path fill-rule="evenodd" clip-rule="evenodd" d="M5.06314 473.043L22.3405 484.169L35.7263 470.725L28.0436 467.762C26.1858 470.536 21.202 476.947 16.0727 474.747C10.2122 472.229 6.8324 472.458 5.06314 473.043ZM22.7689 488.117L0 473.456L0.951271 472.135C1.36053 471.57 5.28661 466.753 17.2906 471.908C20.3795 473.238 24.7881 467.273 26.0906 465.078L26.7557 463.957L41.2562 469.547L22.7689 488.117Z" fill="#1B1A19"/>
<path fill-rule="evenodd" clip-rule="evenodd" d="M92.2409 375.408L66.6528 326.215H100.029L122.317 369.066L119.576 370.491L98.1543 329.302H71.7411L94.9807 373.982L92.2409 375.408Z" fill="#1B1A19"/>
<path fill-rule="evenodd" clip-rule="evenodd" d="M117.965 361.116L120.571 366.129L162.553 354.384C175.327 350.811 184.25 339.052 184.25 325.786V283.972C184.25 280.357 183.417 277.403 181.839 275.429C180.551 273.815 178.79 272.927 176.879 272.927C172.652 272.927 168.157 277.249 168.157 285.261C168.157 285.625 168.046 321.862 158.557 331.351C151.602 338.307 124.048 357.014 117.965 361.116ZM118.988 369.777L113.952 360.091L115.099 359.322C115.435 359.095 148.919 336.621 156.373 329.167C163.471 322.069 165.07 294.395 165.07 285.261C165.07 275.244 171.155 269.838 176.879 269.838C179.749 269.838 182.366 271.139 184.254 273.502C186.272 276.028 187.339 279.648 187.339 283.972V325.786C187.339 340.431 177.488 353.413 163.386 357.359L118.988 369.777Z" fill="#1B1A19"/>
<path fill-rule="evenodd" clip-rule="evenodd" d="M703.576 598.739C703.373 597.56 683.234 480.774 671.693 460.066C659.81 438.748 594.194 379.154 566.777 376.446C544.657 374.263 495.692 374.185 475.67 374.255C474.358 374.259 473.225 374.961 472.639 376.132C472.052 377.304 472.168 378.634 472.948 379.689C476.282 384.181 480.315 386.913 484.932 387.811C491.35 389.059 505.6 389.943 519.381 390.797C532.228 391.593 544.361 392.345 549.772 393.359C561.12 395.488 573.334 404.418 573.334 418.999C573.334 426.014 571.471 448.943 547.516 449.356C544.788 449.402 541.366 449.391 537.407 449.375C522.966 449.329 501.144 449.246 492.803 452.382C487.647 454.321 483.474 457.727 480.398 462.509C479.639 463.688 479.598 465.125 480.287 466.356C480.987 467.606 482.265 468.336 483.683 468.304C485.785 468.258 487.986 468.2 490.252 468.143C508.116 467.684 530.355 467.113 540.698 470.651C548.356 473.272 556.354 481.472 564.089 489.402C570.084 495.545 575.745 501.35 580.464 503.711C585.285 506.122 592.528 507.536 599.529 508.902C608.743 510.699 616.701 512.251 619.535 515.958C624.171 522.021 632.451 590.506 633.381 598.294L630.314 598.659C626.844 569.563 620.181 521.887 617.083 517.834C614.959 515.059 606.815 513.471 598.938 511.934C591.732 510.527 584.282 509.074 579.084 506.474C573.896 503.88 568.058 497.895 561.878 491.557C554.395 483.886 546.661 475.955 539.7 473.574C529.879 470.215 507.954 470.78 490.331 471.231C488.06 471.289 485.857 471.344 483.753 471.392C481.242 471.453 478.843 470.097 477.592 467.865C476.336 465.62 476.413 462.993 477.801 460.837C481.243 455.484 485.925 451.668 491.717 449.492C500.587 446.157 521.88 446.236 537.416 446.288C541.366 446.302 544.77 446.314 547.462 446.268C568.027 445.913 570.245 427.078 570.245 418.999C570.245 406.179 559.339 398.296 549.202 396.395C543.979 395.417 531.938 394.67 519.191 393.879C505.311 393.018 490.958 392.13 484.344 390.843C479.02 389.808 474.222 386.587 470.47 381.527C469.001 379.549 468.774 376.951 469.878 374.749C470.982 372.546 473.195 371.174 475.659 371.166C495.734 371.097 544.819 371.174 567.081 373.373C595.212 376.151 662.292 436.857 674.391 458.564C686.187 479.728 705.792 593.387 706.62 598.216L703.576 598.739Z" fill="#1B1A19"/>
<path fill-rule="evenodd" clip-rule="evenodd" d="M443.279 600.021H800V596.934H443.279V600.021Z" fill="#1B1A19"/>
<path fill-rule="evenodd" clip-rule="evenodd" d="M268.295 77.2154H492.259V64.8623H268.295V77.2154Z" fill="#1B1A19"/>
<path fill-rule="evenodd" clip-rule="evenodd" d="M172.979 352.907C172.513 355.77 170.653 358.301 168.739 360.225L205.816 354.028C205.038 347.554 201.805 321.257 199.228 308.949C196.335 295.12 190.649 286.175 187.186 281.756L187.334 283.864L187.339 325.786C187.339 336.709 181.984 346.792 172.979 352.907ZM155.377 365.589L162.338 361.403C164.367 360.184 169.695 356.099 169.989 351.907L170.042 351.139L170.69 350.718C179.18 345.223 184.25 335.902 184.25 325.786V283.972L183.519 273.617L186.363 276.189C186.825 276.605 197.718 286.651 202.252 308.316C205.215 322.475 209.02 354.803 209.059 355.128L209.229 356.588L155.377 365.589Z" fill="#1B1A19"/>
<path fill-rule="evenodd" clip-rule="evenodd" d="M154.126 246.162C156.106 256.233 159.2 262.272 161.585 263.883C162.048 264.195 162.453 264.316 162.782 264.238C166.187 263.449 166.619 256.14 166.499 253.07C166.065 252.46 165.292 251.351 164.923 250.687C164.147 250.076 160.59 248.79 159.671 248.667C158.18 248.47 155.958 247.285 154.126 246.162ZM162.581 267.35C161.827 267.35 160.888 267.139 159.857 266.441C155.883 263.76 152.283 254.827 150.457 243.133L149.892 239.5L152.882 241.637C155.033 243.174 158.685 245.422 160.075 245.606C160.479 245.659 166.622 247.215 167.593 249.134C167.808 249.557 168.702 250.85 169.269 251.633L169.53 251.994L169.56 252.438C169.647 253.789 170.22 265.684 163.48 267.247C163.224 267.306 162.921 267.35 162.581 267.35Z" fill="#1B1A19"/>
<path fill-rule="evenodd" clip-rule="evenodd" d="M171.529 352.016C174.672 350.44 177.125 348.43 179.034 346.14C185.794 338.038 175.55 360.653 175.55 360.653L163.131 362.728C163.131 362.728 171.115 357.948 171.529 352.016Z" fill="#1B1A19"/>
<path fill-rule="evenodd" clip-rule="evenodd" d="M74.6763 441.056L81.2468 394.645L88.6306 429.665L74.6763 441.056Z" fill="#1B1A19"/>
<path fill-rule="evenodd" clip-rule="evenodd" d="M115.958 361.674C108.742 363.742 107.835 371.438 107.835 371.438L119.781 369.024L115.958 361.674Z" fill="#1B1A19"/>
<path fill-rule="evenodd" clip-rule="evenodd" d="M108.681 400.136C108.681 400.136 115.536 415.394 115.536 428.484C115.536 431.997 115.727 436.854 116.03 442.347H312.533V400.136H108.681Z" fill="#1B1A19"/>
<path fill-rule="evenodd" clip-rule="evenodd" d="M207.547 282.629C206.552 278.351 215.271 271.462 212.031 259.529C208.793 247.597 184.63 251.533 180.892 249.406C177.155 247.279 168.189 231.356 157.974 232.352C147.763 233.349 146.81 246.879 152.961 250.602C152.961 250.602 153.37 251.332 154.06 252.514C153.251 249.682 152.541 246.463 151.984 242.893C151.984 242.893 157.473 246.816 159.873 247.136C161.019 247.289 165.761 248.931 166.215 249.83C166.583 250.556 168.018 252.538 168.018 252.538C168.018 252.538 168.789 264.431 163.131 265.741C163.001 265.773 162.868 265.764 162.737 265.773C166.314 270.494 169.995 274.183 172.086 272.918C188.35 263.084 200.333 306.795 200.333 306.795C200.333 306.795 215.271 298.864 215.021 293.384C214.773 287.903 208.544 286.905 207.547 282.629Z" fill="#1B1A19"/>
<path fill-rule="evenodd" clip-rule="evenodd" d="M603.881 537.059C579.981 549.503 571.966 572.762 552.921 578.819C537.27 583.796 504.569 575.942 490.379 582.101C476.738 588.02 475.194 598.478 475.194 598.478H631.847C631.847 598.478 626.558 554.131 622.054 530.686C615.724 532.063 609.603 534.081 603.881 537.059Z" fill="#1B1A19"/>
<path fill-rule="evenodd" clip-rule="evenodd" d="M750.069 481.208C734.741 498.402 719.932 515.809 701.94 523.161C698.707 524.484 695.115 525.395 691.261 526.041C698.844 562.048 705.096 598.478 705.096 598.478H800V452.383C800 452.383 769.115 459.848 750.069 481.208Z" fill="#1B1A19"/>
</g>
<defs>
<clipPath id="clip0_104_1351">
<rect width="800" height="600" fill="white"/>
</clipPath>
</defs>
</svg>
