<svg width="800" height="600" viewBox="0 0 800 600" fill="none" xmlns="http://www.w3.org/2000/svg">
<g clip-path="url(#clip0_104_1406)">
<path d="M590.201 250.372C580.09 250.372 571.865 258.599 571.865 268.709V514.566C571.865 524.676 580.09 532.901 590.201 532.901H702.03C712.14 532.901 720.367 524.676 720.367 514.566V268.709C720.367 258.599 712.14 250.372 702.03 250.372H590.201ZM702.03 535.753H590.201C578.518 535.753 569.014 526.248 569.014 514.566V268.709C569.014 257.027 578.518 247.521 590.201 247.521H702.03C713.714 247.521 723.218 257.027 723.218 268.709V514.566C723.218 526.248 713.714 535.753 702.03 535.753Z" fill="#211D1D"/>
<path d="M677.542 514.52H616.389V511.668H677.542V514.52Z" fill="#211D1D"/>
<path d="M592.225 258.357C585.774 258.357 580.527 263.603 580.527 270.053V513.221C580.527 519.672 585.774 524.918 592.225 524.918H700.006C706.456 524.918 711.704 519.672 711.704 513.221V270.053C711.704 263.603 706.456 258.357 700.006 258.357H677.496C676.81 262.73 673.016 266.086 668.454 266.086H623.778C619.215 266.086 615.42 262.73 614.735 258.357H592.225ZM700.006 527.769H592.225C584.202 527.769 577.676 521.243 577.676 513.221V270.053C577.676 262.032 584.202 255.506 592.225 255.506H617.475V256.932C617.475 260.406 620.302 263.235 623.778 263.235H668.454C671.928 263.235 674.756 260.406 674.756 256.932V255.506H700.006C708.027 255.506 714.555 262.032 714.555 270.053V513.221C714.555 521.243 708.027 527.769 700.006 527.769Z" fill="#211D1D"/>
<path d="M302.722 341.561H260.348V338.71H299.869V122.741H90.2738V338.71H242.468V341.561H87.4224V119.888H302.722V341.561Z" fill="#211D1D"/>
<path d="M90.2738 144.723H299.869V122.741H90.2738V144.723ZM302.722 147.574H87.4224V119.888H302.722V147.574Z" fill="#211D1D"/>
<path d="M17.4117 175.346H69.4541V123.304H17.4117V175.346ZM72.3055 178.198H14.5601V120.451H72.3055V178.198Z" fill="#211D1D"/>
<path d="M138.857 308.097H205.633V230.628H138.857V308.097ZM208.484 310.949H136.004V227.777H208.484V310.949Z" fill="#211D1D"/>
<path d="M15.9863 192.368H0V176.383H15.9863V192.368Z" fill="#211D1D"/>
<path d="M136.201 229.922L87.6187 146.868L90.0786 145.428L138.66 228.482L136.201 229.922Z" fill="#211D1D"/>
<path d="M208.002 230.271L206.116 228.132L300.353 145.079L302.238 147.217L208.002 230.271Z" fill="#211D1D"/>
<path d="M300.855 341.491L206.619 310.879L207.5 308.167L301.735 338.779L300.855 341.491Z" fill="#211D1D"/>
<path d="M595.488 249.164H592.637V90.8976H411.084V196.408H408.232V88.0461H595.488V249.164Z" fill="#211D1D"/>
<path d="M364.153 65.8124C364.153 69.0753 366.235 70.4762 370.629 70.4762H377.565L378.027 73.7391C375.484 74.2052 371.552 74.4389 369.933 74.4389C363.458 74.4389 359.991 71.6421 359.991 66.511V45.059H352.59V42.0264L359.991 41.7939H364.153H378.49V45.059H364.153V65.8124Z" fill="#100F0D"/>
<path d="M359.991 39.9276V32H364.153V35.2638L359.991 39.9276Z" fill="#100F0D"/>
<path d="M341.693 368.22H512.079V197.834H341.693V368.22ZM514.93 371.071H338.841V194.982H514.93V371.071Z" fill="#211D1D"/>
<path d="M106.137 133.256C106.137 135.487 104.327 137.297 102.096 137.297C99.8647 137.297 98.0562 135.487 98.0562 133.256C98.0562 131.026 99.8647 129.217 102.096 129.217C104.327 129.217 106.137 131.026 106.137 133.256Z" fill="#100F0D"/>
<path d="M121.465 133.256C121.465 135.487 119.655 137.297 117.424 137.297C115.192 137.297 113.384 135.487 113.384 133.256C113.384 131.026 115.192 129.217 117.424 129.217C119.655 129.217 121.465 131.026 121.465 133.256Z" fill="#100F0D"/>
<path d="M136.792 133.256C136.792 135.487 134.982 137.297 132.751 137.297C130.52 137.297 128.711 135.487 128.711 133.256C128.711 131.026 130.52 129.217 132.751 129.217C134.982 129.217 136.792 131.026 136.792 133.256Z" fill="#100F0D"/>
<path d="M44.7909 162.368C44.7909 163.908 43.5429 165.156 42.0053 165.156C40.4652 165.156 39.2173 163.908 39.2173 162.368C39.2173 160.829 40.4652 159.583 42.0053 159.583C43.5429 159.583 44.7909 160.829 44.7909 162.368ZM40.377 155.396V154.3C40.377 152.715 40.6206 151.412 41.1066 150.389C41.5939 149.367 42.5025 148.289 43.8301 147.15C45.671 145.594 46.832 144.423 47.3118 143.637C47.7928 142.852 48.0339 141.904 48.0339 140.794C48.0339 139.412 47.5902 138.347 46.7027 137.595C45.8152 136.844 44.5398 136.469 42.8742 136.469C41.8052 136.469 40.7611 136.593 39.7468 136.844C38.7312 137.094 37.5665 137.551 36.2552 138.215L35.0557 135.473C37.6138 134.133 40.2887 133.462 43.0768 133.462C45.6648 133.462 47.6735 134.1 49.1104 135.371C50.5461 136.645 51.2608 138.439 51.2608 140.755C51.2608 141.742 51.1303 142.612 50.8668 143.364C50.6032 144.115 50.213 144.824 49.6983 145.496C49.1825 146.165 48.0737 147.246 46.3683 148.735C45.001 149.899 44.0961 150.868 43.6561 151.638C43.2173 152.41 42.9973 153.44 42.9973 154.726V155.396H40.377Z" fill="#100F0D"/>
<path d="M172.244 181.408C154.313 181.408 141.815 186.495 141.815 191.062C141.815 195.629 154.313 200.715 172.244 200.715C190.177 200.715 202.674 195.629 202.674 191.062C202.674 186.495 190.177 181.408 172.244 181.408ZM172.244 203.568C156.111 203.568 138.964 199.184 138.964 191.062C138.964 182.939 156.111 178.556 172.244 178.556C188.377 178.556 205.526 182.939 205.526 191.062C205.526 199.184 188.377 203.568 172.244 203.568Z" fill="#211D1D"/>
<path d="M621.154 147.574H492.831V144.723H621.154V147.574Z" fill="#211D1D"/>
<path d="M565.072 169.793H492.831V166.941H565.072V169.793Z" fill="#211D1D"/>
<path d="M647.542 300.018H644.689V201.636H677.542V204.489H647.542V300.018Z" fill="#211D1D"/>
<path d="M647.542 455.433H460.511V452.58H644.69V345.407H647.542V455.433Z" fill="#211D1D"/>
<path d="M767.539 383.191H646.115V380.339H767.539V383.191Z" fill="#211D1D"/>
<path d="M655.612 398.875H636.747V367.506H655.612V398.875Z" fill="#211D1D"/>
<path d="M759.532 392.34H775.542V371.189H759.532V392.34ZM778.395 395.192H756.681V368.338H778.395V395.192Z" fill="#211D1D"/>
<path d="M677.694 213.636H693.706V192.488H677.694V213.636ZM696.557 216.488H674.841V189.636H696.557V216.488Z" fill="#211D1D"/>
<path d="M461.773 466.006H442.908V442.006H461.773V466.006Z" fill="#211D1D"/>
<path d="M229.878 552.448H209.628L209.568 551.085C209.528 550.207 205.738 463.055 205.669 443.479C205.604 425.215 218.969 394.997 219.537 393.719L219.914 392.874H245.424V395.725H221.773C219.59 400.8 208.463 427.468 208.52 443.468C208.585 461.641 211.874 538.381 212.359 549.596H227.169L231.926 457.114L234.775 457.26L229.878 552.448Z" fill="#211D1D"/>
<path d="M278.514 552.448H256.897L245.721 486.955C243.847 483.408 223.529 444.595 224.944 430.518L227.782 430.804C226.416 444.392 248.129 485.407 248.347 485.82L248.456 486.024L248.494 486.25L259.303 549.596H275.331L267.962 482.794L244.048 394.671L246.799 393.925L270.784 482.372L278.514 552.448Z" fill="#211D1D"/>
<path d="M221.916 392.874H244.372L251.616 369.49C253.485 364.943 254.146 360.089 253.573 355.336L252.132 338.735C251.869 335.706 249.38 333.424 246.34 333.424C246.338 333.424 246.338 333.424 246.337 333.424L215.37 333.444C212.839 333.262 210.556 334.248 209.016 336.14C207.476 338.032 206.977 340.463 207.646 342.809L221.916 392.874ZM246.475 395.725H219.763L204.903 343.589C203.975 340.336 204.669 336.965 206.803 334.34C208.937 331.716 212.1 330.355 215.471 330.595L246.335 330.573C246.337 330.573 246.338 330.573 246.34 330.573C250.87 330.573 254.581 333.975 254.974 338.488L256.409 355.043C257.036 360.232 256.306 365.578 254.297 370.455L246.475 395.725Z" fill="#211D1D"/>
<path d="M205.084 344.225L191.251 371.87C189.441 375.486 189.799 379.761 192.186 383.028L212.699 411.089L216.796 400.441L205.9 380.918C204.406 378.708 204.126 375.797 205.22 373.234L210.092 361.795L205.084 344.225ZM213.482 416.993L189.884 384.711C186.863 380.579 186.412 375.171 188.7 370.594L205.816 336.39L213.112 361.985L207.843 374.35C207.132 376.023 207.311 377.919 208.326 379.427L219.937 400.219L213.482 416.993Z" fill="#211D1D"/>
<path d="M771.534 381.765C771.534 383.972 769.746 385.761 767.539 385.761C765.33 385.761 763.543 383.972 763.543 381.765C763.543 379.557 765.33 377.769 767.539 377.769C769.746 377.769 771.534 379.557 771.534 381.765Z" fill="#211D1D"/>
<path d="M453.431 158.239L438.197 146.148L453.431 134.058L455.205 136.29L442.783 146.148L455.205 156.007L453.431 158.239Z" fill="#211D1D"/>
<path d="M467.437 156.193L464.887 154.92L475.053 134.536L477.604 135.81L467.437 156.193Z" fill="#211D1D"/>
<path d="M517.15 566.432C514.582 566.432 512.012 565.852 510.004 564.693C507.823 563.433 506.617 561.676 506.607 559.743L506.604 508.919H509.457V559.736C509.462 560.592 510.181 561.503 511.43 562.224C514.536 564.018 519.767 564.019 522.854 562.225C524.086 561.509 524.79 560.604 524.786 559.743V508.919H527.637V559.736C527.647 561.666 526.458 563.43 524.286 564.69C522.289 565.851 519.721 566.432 517.15 566.432Z" fill="#211D1D"/>
<path d="M517.088 505.087C515.006 505.087 512.929 505.534 511.386 506.43C510.159 507.144 509.454 508.044 509.457 508.903C509.458 509.771 510.178 510.686 511.43 511.409C514.536 513.202 519.767 513.203 522.854 511.41C524.082 510.697 524.787 509.795 524.786 508.936C524.785 508.069 524.066 507.156 522.813 506.434C521.258 505.535 519.171 505.087 517.088 505.087ZM517.15 515.616C514.582 515.616 512.011 515.038 510.004 513.878C507.815 512.614 506.608 510.85 506.605 508.906C506.602 506.976 507.793 505.221 509.955 503.964C513.945 501.645 520.221 501.643 524.239 503.963C526.427 505.227 527.635 506.992 527.637 508.932C527.64 510.863 526.449 512.619 524.286 513.877C522.289 515.036 519.72 515.616 517.15 515.616Z" fill="#211D1D"/>
<path d="M523.569 512.644C521.928 513.596 519.809 514.102 517.653 514.171V564.985C519.809 564.917 521.928 564.412 523.569 563.459C525.34 562.429 526.219 561.083 526.211 559.736V508.921C526.219 510.266 525.34 511.614 523.569 512.644Z" fill="#211D1D"/>
<path d="M139.874 392.643C130.268 392.643 125.404 389.965 120.704 387.376C116.117 384.849 111.784 382.463 102.91 382.463C96.1857 382.463 92.1795 383.895 89.4387 385.142L88.2578 382.547C91.2597 381.181 95.6388 379.612 102.91 379.612C112.518 379.612 117.379 382.288 122.079 384.877C126.666 387.404 130.999 389.791 139.874 389.791C148.035 389.791 152.425 387.75 156.924 385.286L158.294 387.787C153.444 390.444 148.709 392.643 139.874 392.643Z" fill="#211D1D"/>
<path d="M139.874 408.986C130.268 408.986 125.404 406.307 120.704 403.718C116.117 401.192 111.784 398.807 102.91 398.807C96.1857 398.807 92.1795 400.237 89.4387 401.485L88.2578 398.889C91.2597 397.523 95.6388 395.955 102.91 395.955C112.518 395.955 117.379 398.631 122.079 401.22C126.666 403.746 130.999 406.133 139.874 406.133C148.035 406.133 152.425 404.093 156.924 401.629L158.294 404.13C153.444 406.787 148.709 408.986 139.874 408.986Z" fill="#211D1D"/>
<path d="M172.244 197.057C157.168 197.057 144.545 193.413 141.242 188.519C140.69 189.337 140.39 190.186 140.39 191.062C140.39 197.182 154.652 202.141 172.244 202.141C189.838 202.141 204.1 197.182 204.1 191.062C204.1 190.186 203.799 189.337 203.248 188.519C199.944 193.413 187.322 197.057 172.244 197.057Z" fill="#211D1D"/>
<path d="M387.722 83.2344H343.879V42.1033H349.582V44.9549H346.73V80.3817H384.871V44.9549H381.663V42.1033H387.722V83.2344Z" fill="#211D1D"/>
<path d="M218.319 146.148H215.467V121.314H218.319V146.148Z" fill="#100F0D"/>
<path d="M259.552 146.148H256.7V121.314H259.552V146.148Z" fill="#100F0D"/>
<path d="M206.309 372.184L193.54 363.729L195.112 361.35L207.881 369.805L206.309 372.184Z" fill="#211D1D"/>
<path d="M248.841 314.733C248.21 315.442 246.41 316.22 244.355 316.902C240.292 311.79 235.577 307.986 239.919 303.643C243.012 300.552 246.016 297.811 248.207 295.274C248.364 295.616 248.461 295.983 248.483 296.38C248.62 298.863 248.839 301.309 249.031 303.465C249.471 308.404 249.926 313.51 248.841 314.733ZM251.872 303.213C251.672 300.973 251.467 298.658 251.33 296.22C251.255 294.895 250.762 293.794 250.046 292.866C251.1 291.259 251.699 289.719 251.611 288.205C251.345 283.669 242.48 274.193 233.26 279.572C224.041 284.95 218.919 300.955 212.774 303.643C206.627 306.333 198.666 302.637 191.066 311.607C185.372 318.329 190.126 325.452 185.486 327.568C169.751 334.743 170.228 346.927 174.872 352.301C187.934 367.409 199.924 345.187 210.213 346.545C220.502 347.907 231.379 350.59 236.589 348.401C243.76 345.386 252.979 340.308 248.386 324.083C247.9 322.363 247.085 320.785 246.124 319.321C248.13 318.594 250.032 317.684 250.972 316.626C252.877 314.483 252.456 309.755 251.872 303.213Z" fill="#211D1D"/>
<path d="M383.612 368.22H437.787L412.648 331.505H358.474L383.612 368.22ZM443.195 371.071H382.108L353.065 328.653H414.152L443.195 371.071Z" fill="#211D1D"/>
<path d="M257.409 360.793C265.049 364.15 278.636 371.633 283.859 374.509C284.676 374.958 285.262 375.28 285.554 375.438C288.349 376.943 290.166 376.636 293.182 375.378C296.154 374.138 334.892 355.179 337.177 354.059C338.279 353.261 338.936 351.98 338.936 350.612V337.48C338.202 338.322 337.639 339.317 337.294 339.93L337.183 340.123C336.61 341.127 335.89 343.441 335.72 348.757L335.691 349.714L334.793 350.047C328.748 352.29 298.35 363.471 293.486 363.471C288.867 363.471 264.239 345.1 254.777 337.911L257.409 360.793ZM289.083 379.294C287.612 379.294 286.017 378.926 284.203 377.949C283.906 377.79 283.312 377.461 282.483 377.007C277.117 374.051 262.858 366.199 255.53 363.086L254.765 362.762L251.178 331.563L253.846 333.612C271.091 346.851 290.633 360.573 293.486 360.62C296.591 360.62 315.916 353.988 332.911 347.705C333.108 343.424 333.699 340.476 334.706 338.711L334.811 338.527C335.588 337.152 337.203 334.293 339.911 333.389L341.787 332.764V350.612C341.787 352.951 340.64 355.137 338.714 356.465L338.532 356.571C336.854 357.393 297.405 376.707 294.279 378.01C292.622 378.701 290.954 379.294 289.083 379.294Z" fill="#211D1D"/>
<path d="M267.687 367.428L265.16 366.105L273.518 350.156L276.045 351.48L267.687 367.428Z" fill="#211D1D"/>
<path d="M264.436 552.455L265.811 562.347C266.021 563.85 267.322 564.982 268.839 564.982H291.184C291.699 564.982 291.98 564.652 292.074 564.509C292.17 564.368 292.374 563.985 292.181 563.508C292.043 563.157 291.725 562.904 291.353 562.845C277.367 560.645 276.543 560.154 276.192 559.945C275.841 559.734 274.8 559.114 272.264 552.449L264.436 552.455ZM291.184 567.834H268.839C265.905 567.834 263.391 565.643 262.988 562.74L261.161 549.606L274.246 549.596L274.59 550.528C275.647 553.379 277.118 556.778 277.716 557.518C278.452 557.758 282.585 558.579 291.797 560.028C293.157 560.243 294.319 561.17 294.831 562.449C295.315 563.66 295.167 565.028 294.436 566.108C293.705 567.189 292.488 567.834 291.184 567.834Z" fill="#211D1D"/>
<path d="M214.496 562.44C214.744 563.896 216.023 564.982 217.509 564.982H239.854C240.369 564.982 240.65 564.653 240.745 564.511C240.841 564.368 241.045 563.988 240.852 563.509C240.714 563.159 240.395 562.904 240.024 562.845C226.038 560.645 225.214 560.154 224.863 559.946C224.384 559.661 223.302 559.015 222.789 552.449L214.55 552.455L214.496 562.44ZM239.854 567.834H217.509C214.576 567.834 212.06 565.646 211.659 562.741L211.644 562.537L211.712 549.606L225.464 549.595L225.543 550.939C225.695 553.499 226.099 556.614 226.488 557.55C227.455 557.824 231.616 558.637 240.467 560.029C241.828 560.243 242.989 561.171 243.501 562.45C243.985 563.661 243.838 565.028 243.107 566.108C242.375 567.19 241.159 567.834 239.854 567.834Z" fill="#211D1D"/>
<path d="M513.504 229.203H340.361V196.408H513.504V229.203Z" fill="#211D1D"/>
<path d="M594.062 97.6708H409.658V89.4719H594.062V97.6708Z" fill="#211D1D"/>
<path d="M779.053 321.618C774.996 321.618 771.71 318.33 771.71 314.274C771.71 310.217 774.996 306.929 779.053 306.929C783.111 306.929 786.398 310.217 786.398 314.274C786.398 318.33 783.111 321.618 779.053 321.618ZM758.107 293.327V335.22H800.001V293.327H758.107Z" fill="#211D1D"/>
<path d="M454.455 309.434C451.13 308.303 451.243 300.417 452.81 284.373C454.831 286.133 457.431 286.978 460.511 286.057C468.51 283.668 471.624 296.497 470.254 298.711C466.943 304.064 471.123 308.866 474.266 309.459C474.503 312.963 474.711 316.558 474.878 320.086C474.859 320.128 474.833 320.185 474.801 320.245L474.696 320.415C474.316 321.025 473.224 322.241 470.373 322.814C470.361 322.818 470.348 322.82 470.334 322.823C470.126 322.865 469.903 322.901 469.674 322.936C469.598 322.947 469.519 322.956 469.441 322.967C469.253 322.992 469.059 323.015 468.856 323.035C468.706 323.05 468.549 323.06 468.393 323.071C468.237 323.082 468.084 323.095 467.92 323.102C467.589 323.119 467.245 323.128 466.882 323.128C466.877 323.128 466.873 323.128 466.869 323.128C466.867 323.128 466.863 323.128 466.861 323.128C466.53 323.127 466.203 323.09 465.879 323.033C465.775 323.014 465.675 322.985 465.572 322.962C465.347 322.911 465.124 322.855 464.905 322.783C464.797 322.748 464.69 322.711 464.583 322.671C464.372 322.591 464.163 322.507 463.962 322.415C463.866 322.373 463.774 322.329 463.681 322.286C463.465 322.179 463.256 322.067 463.053 321.954C462.99 321.916 462.921 321.882 462.858 321.844C462.602 321.694 462.36 321.539 462.136 321.388C462.084 321.353 462.043 321.321 461.994 321.286C461.833 321.174 461.676 321.064 461.539 320.959C461.439 320.884 461.35 320.813 461.261 320.743C461.22 320.71 461.179 320.677 461.139 320.646L464.675 304.937L461.288 308.113C461.173 308.221 458.386 310.772 454.455 309.434ZM505.707 331.296C503.302 326.256 498.565 322.785 493.035 322.012L477.722 319.869C477.578 316.816 477.36 312.721 477.062 308.308C478.925 305.941 477.493 302.087 478.631 296.928C481.304 284.809 481.57 280.453 478.631 277.146C476.848 275.139 468.408 272.538 462.946 271.264C453.373 269.031 453.144 263.42 449.579 267.501C447.069 270.376 447.655 277.101 450.565 281.711C450.317 282.075 450.133 282.46 450.09 282.886C448.209 301.766 447.967 310.237 453.537 312.134C456.191 313.036 458.469 312.682 460.156 312.042L458.329 320.155L442.161 323.422C435.415 324.785 429.757 329.646 427.392 336.105L423.605 346.45L426.285 347.432L430.071 337.087C432.097 331.549 436.945 327.385 442.726 326.216L454.985 323.74L457.752 364.062H473.105V369.646H479.165L483.333 323.534L492.639 324.836C497.219 325.476 501.143 328.35 503.133 332.524L512.079 351.263V369.646H514.93V350.616L505.707 331.296Z" fill="#211D1D"/>
<path d="M441.243 368.22H471.681V365.488H439.373L441.243 368.22ZM474.533 371.071H439.738L433.964 362.636H474.533V371.071Z" fill="#211D1D"/>
<path d="M255.298 534.598L249.009 497.745C243.269 498.985 237.234 500.354 231.056 501.796L229.37 534.598H255.298Z" fill="#211D1D"/>
<path d="M348.23 516.653C338.276 512.039 324.426 520.207 316.861 516.653C309.286 513.094 312.989 491.589 288.155 491.589C283.889 491.589 277.836 492.307 270.58 493.522L275.112 534.598H348.23C348.23 534.598 356.775 520.613 348.23 516.653Z" fill="#211D1D"/>
<path d="M209.166 507.031C175.43 515.24 142.602 523.655 133.644 523.655C121.525 523.655 121.526 513.494 110.117 513.494C89.4797 513.494 43.8164 534.598 43.8164 534.598H210.293C209.971 526.938 209.571 517.264 209.166 507.031Z" fill="#211D1D"/>
</g>
<defs>
<clipPath id="clip0_104_1406">
<rect width="800" height="600" fill="white"/>
</clipPath>
</defs>
</svg>
