<svg width="800" height="600" viewBox="0 0 800 600" fill="none" xmlns="http://www.w3.org/2000/svg">
<g clip-path="url(#clip0_104_1468)">
<path fill-rule="evenodd" clip-rule="evenodd" d="M238.633 319.715C236.08 312.582 232.395 300.474 230.317 292.514C227.61 294.06 223.727 295.048 218.131 294.559C209.373 293.793 192.839 303.479 189.911 315.592C188.802 320.178 187.383 328.173 187.383 328.173L187.297 328.103C203.108 340.766 221.531 355.675 235.556 367.487C242.546 354.857 246.7 340.452 247.14 325.129L246.386 325.118C242.913 325.147 239.804 322.986 238.633 319.715Z" fill="#1B1A19"/>
<path fill-rule="evenodd" clip-rule="evenodd" d="M239.431 252.241L246.197 262.058L254.46 246.891L255.759 247.46C257.31 248.141 258.68 249.064 259.888 249.88C262.423 251.591 263.571 252.22 264.742 251.535C265.841 250.895 268.209 245.127 269.233 238.471C269.969 233.684 269.421 231.823 269.17 231.547C267.006 229.166 261.055 228.56 259.361 230.066C257.545 231.679 245.042 245.843 239.431 252.241ZM246.507 267.956L235.519 252.014L236.311 251.11C237.068 250.245 254.865 229.923 257.307 227.754C260.365 225.032 268.299 225.993 271.459 229.465C272.758 230.895 273.035 234.083 272.291 238.94C271.52 243.941 269.216 252.508 266.301 254.207C263.332 255.938 260.701 254.16 258.157 252.443C257.389 251.923 256.604 251.393 255.783 250.929L246.507 267.956Z" fill="#1B1A19"/>
<path fill-rule="evenodd" clip-rule="evenodd" d="M267.464 232.627C264.046 232.346 259.618 230.59 258.621 233.624C257.625 236.659 257.061 240.386 259.098 242.206C261.135 244.027 267.247 244.98 270.281 245.023C273.314 245.065 276.652 243.117 277.128 241.381C277.605 239.648 277.345 234.837 276.132 234.144C274.918 233.451 268.212 232.689 267.464 232.627Z" fill="#1B1A19"/>
<path fill-rule="evenodd" clip-rule="evenodd" d="M8.4248 324.803V321.71H86.5964C87.8321 321.702 89.1165 320.706 90.1146 318.978C92.504 314.841 92.5053 307.875 90.1159 303.765C89.1139 302.038 87.873 301.089 86.6202 301.089C86.6162 301.089 86.6109 301.089 86.607 301.089H8.4248V297.996H86.5977C86.6083 297.996 86.6202 297.996 86.6321 297.996C89.0202 297.996 91.2103 299.492 92.7905 302.21C95.7661 307.331 95.7674 315.376 92.7931 320.525C91.209 323.27 89.0109 324.787 86.6057 324.803H8.4248Z" fill="#1B1A19"/>
<path fill-rule="evenodd" clip-rule="evenodd" d="M8.44888 301.088C8.44624 301.088 8.44492 301.088 8.44492 301.088C7.1974 301.09 5.90895 302.083 4.90961 303.815C2.51924 307.955 2.51766 314.925 4.90565 319.032C5.90763 320.76 7.14723 321.708 8.40003 321.708C8.40135 321.708 8.40135 321.708 8.40399 321.708C9.65152 321.707 10.9413 320.713 11.9419 318.978C14.3314 314.841 14.3327 307.875 11.9433 303.765C10.9413 302.038 9.69905 301.088 8.44888 301.088ZM8.40003 324.801C6.00003 324.801 3.81059 323.306 2.23158 320.587C-0.743861 315.469 -0.743861 307.423 2.23158 302.269C3.81984 299.517 6.02511 297.999 8.44096 297.995C8.4436 297.995 8.44492 297.995 8.44888 297.995C10.8476 297.995 13.039 299.492 14.6192 302.208C17.5948 307.331 17.5961 315.375 14.6218 320.525C13.0324 323.279 10.8251 324.797 8.40796 324.801C8.40532 324.801 8.40135 324.801 8.40003 324.801Z" fill="#1B1A19"/>
<path fill-rule="evenodd" clip-rule="evenodd" d="M129.964 188.44H164.585V164.783L129.964 188.44ZM167.678 191.533H119.955L167.678 158.924V191.533Z" fill="#1B1A19"/>
<path fill-rule="evenodd" clip-rule="evenodd" d="M213.897 487.125V549.543L305.245 487.125H213.897ZM210.804 555.403V484.032H315.254L210.804 555.403Z" fill="#1B1A19"/>
<path fill-rule="evenodd" clip-rule="evenodd" d="M201.091 509.894H186.5V431.406H189.593V506.802H201.091V509.894Z" fill="#1B1A19"/>
<path fill-rule="evenodd" clip-rule="evenodd" d="M299.093 509.894H611.807V506.802H299.093V509.894Z" fill="#1B1A19"/>
<path fill-rule="evenodd" clip-rule="evenodd" d="M753.489 509.894H635.728V506.802H750.397V226.866H753.489V509.894Z" fill="#1B1A19"/>
<path fill-rule="evenodd" clip-rule="evenodd" d="M753.488 207.465H750.396V93.7624H586.607V90.6707H753.488V207.465Z" fill="#1B1A19"/>
<path fill-rule="evenodd" clip-rule="evenodd" d="M189.593 216.403H186.5V90.6707H454.118V93.7624H189.593V216.403Z" fill="#1B1A19"/>
<path fill-rule="evenodd" clip-rule="evenodd" d="M302.842 383.089H527.72V217.95H302.842V383.089ZM299.749 386.182H530.813V214.857H299.749V386.182Z" fill="#1B1A19"/>
<path fill-rule="evenodd" clip-rule="evenodd" d="M459.559 112.235H585.061V13.0929H459.559V112.235ZM456.466 115.328H588.153V10H456.466V115.328Z" fill="#1B1A19"/>
<path fill-rule="evenodd" clip-rule="evenodd" d="M538.084 62.6652C538.084 71.3768 531.02 78.4395 522.31 78.4395C513.598 78.4395 506.534 71.3768 506.534 62.6652C506.534 53.9524 513.598 46.8896 522.31 46.8896C531.02 46.8896 538.084 53.9524 538.084 62.6652Z" fill="#1B1A19"/>
<path fill-rule="evenodd" clip-rule="evenodd" d="M212.351 485.579V552.474L262.88 517.945L212.351 485.579Z" fill="#1B1A19"/>
<path fill-rule="evenodd" clip-rule="evenodd" d="M300.153 217.445L186.903 93.2592L189.19 91.176L302.439 215.361L300.153 217.445Z" fill="#1B1A19"/>
<path fill-rule="evenodd" clip-rule="evenodd" d="M530.023 217.753L528.514 215.052L751.187 90.8662L752.695 93.5672L530.023 217.753Z" fill="#1B1A19"/>
<path fill-rule="evenodd" clip-rule="evenodd" d="M799.136 163.028L601.515 267.357L601.258 243.426L799.136 138.969V163.028Z" fill="#1B1A19"/>
<path fill-rule="evenodd" clip-rule="evenodd" d="M398.508 159.098C360.125 159.098 336.557 166.341 336.557 171.53C336.557 176.722 360.125 183.963 398.508 183.963C436.892 183.963 460.461 176.722 460.461 171.53C460.461 166.341 436.892 159.098 398.508 159.098ZM398.508 187.055C366.975 187.055 333.464 181.613 333.464 171.53C333.464 161.447 366.975 156.005 398.508 156.005C430.039 156.005 463.552 161.447 463.552 171.53C463.552 181.613 430.039 187.055 398.508 187.055Z" fill="#1B1A19"/>
<path fill-rule="evenodd" clip-rule="evenodd" d="M680.52 425.267L728.968 428.212C724.031 422.756 713.961 410.791 713.318 403.323C713.077 400.516 713.189 395.155 713.318 388.945C713.594 375.856 714.055 353.944 710.477 349.676C706.557 344.993 689.65 339.147 680.708 338.565C677.805 338.372 677.062 338.85 676.978 338.913C665.97 354.892 661.485 367.649 661.493 382.939C661.498 391.036 661.502 398.684 664.447 401.064C665.577 401.98 667.281 402.178 669.635 401.679C673.776 400.795 675.916 399.422 677.635 398.315C679.848 396.895 681.757 395.666 685.683 397.284C686.348 397.559 687.244 398.169 687.749 399.518C689.749 404.865 683.225 419.568 680.52 425.267ZM736.642 431.778L675.688 428.071L676.735 425.979C680.629 418.189 686.277 404.409 684.852 400.602C684.714 400.23 684.564 400.17 684.501 400.145C682.072 399.138 681.317 399.625 679.306 400.919C677.477 402.094 674.974 403.702 670.281 404.704C666.955 405.415 664.405 405.01 662.501 403.468C658.409 400.161 658.405 392.181 658.399 382.943C658.39 366.96 663.04 353.69 674.448 337.134C675.163 336.098 676.55 335.546 678.69 335.445C686.677 335.056 707.602 341.423 712.848 347.69C716.844 352.461 716.827 369.225 716.411 389.01C716.283 395.13 716.171 400.416 716.399 403.057C717.016 410.21 729.205 424.146 733.848 428.911L736.642 431.778Z" fill="#1B1A19"/>
<path fill-rule="evenodd" clip-rule="evenodd" d="M541.842 367.742L533.005 378.436L537.314 381.995L546.148 371.302L541.842 367.742Z" fill="#1B1A19"/>
<path fill-rule="evenodd" clip-rule="evenodd" d="M457.451 166.333C448.078 171.476 425.229 175.112 398.508 175.112C371.787 175.112 348.937 171.476 339.564 166.333C336.638 167.939 335.01 169.694 335.01 171.53C335.01 179.25 363.439 185.509 398.508 185.509C433.576 185.509 462.006 179.25 462.006 171.53C462.006 169.694 460.38 167.939 457.451 166.333Z" fill="#1B1A19"/>
<path fill-rule="evenodd" clip-rule="evenodd" d="M124.96 495.222C107.976 495.222 94.1585 509.042 94.1585 526.025C94.1585 543.009 107.976 556.826 124.96 556.826C141.943 556.826 155.761 543.009 155.761 526.025C155.761 509.042 141.943 495.222 124.96 495.222ZM124.96 559.918C106.271 559.918 91.0654 544.714 91.0654 526.025C91.0654 507.335 106.271 492.129 124.96 492.129C143.649 492.129 158.853 507.335 158.853 526.025C158.853 544.714 143.649 559.918 124.96 559.918Z" fill="#1B1A19"/>
<path fill-rule="evenodd" clip-rule="evenodd" d="M124.216 511.321C118.39 511.698 113.827 516.77 113.827 522.863V532.366C113.827 533.026 114.365 533.564 115.027 533.564C116.32 533.564 117.237 534.669 118.802 538.112C119.53 539.718 121.129 540.751 122.874 540.751H127.047C128.792 540.751 130.39 539.718 131.12 538.111C132.684 534.669 133.602 533.564 134.894 533.564C135.557 533.564 136.093 533.026 136.093 532.366V522.43C136.093 519.319 134.844 516.436 132.573 514.308C130.304 512.181 127.34 511.114 124.216 511.321ZM127.047 543.844H122.874C119.92 543.844 117.215 542.098 115.986 539.393C115.2 537.663 114.728 536.921 114.509 536.626C112.386 536.37 110.734 534.557 110.734 532.366V522.863C110.734 515.143 116.569 508.718 124.016 508.234C128 507.972 131.789 509.332 134.688 512.05C137.546 514.729 139.186 518.514 139.186 522.43V532.366C139.186 534.557 137.536 536.37 135.413 536.626C135.192 536.921 134.721 537.663 133.934 539.393C132.704 542.098 130.002 543.844 127.047 543.844Z" fill="#1B1A19"/>
<path fill-rule="evenodd" clip-rule="evenodd" d="M116.615 521.407C118.424 521.131 121.587 520.577 122.807 521.015C124.026 521.456 124.195 523.933 123.16 524.738C122.127 525.543 118.242 527.485 117.414 527.424C116.587 527.364 114.046 521.797 116.615 521.407Z" fill="#1B1A19"/>
<path fill-rule="evenodd" clip-rule="evenodd" d="M133.303 521.407C131.494 521.131 128.334 520.577 127.111 521.015C125.892 521.456 125.724 523.933 126.758 524.738C127.793 525.543 131.678 527.485 132.504 527.424C133.332 527.364 135.873 521.797 133.303 521.407Z" fill="#1B1A19"/>
<path fill-rule="evenodd" clip-rule="evenodd" d="M123.593 529.5L122.406 531.917C121.907 532.928 122.644 534.112 123.772 534.112H126.15C127.277 534.112 128.014 532.928 127.515 531.917L126.327 529.5C125.768 528.364 124.151 528.364 123.593 529.5Z" fill="#1B1A19"/>
<path fill-rule="evenodd" clip-rule="evenodd" d="M89.2587 385.558C96.0772 392.527 103.895 398.302 112.529 402.745L152.925 361.073C137.311 350.716 131.899 337.923 136.783 322.997C122.723 334.755 99.7722 369.199 89.2587 385.558ZM113.166 406.529L112.155 406.021C102.439 401.176 93.6996 394.716 86.1762 386.817L85.3379 385.939L85.994 384.919C100.094 362.908 125.781 324.869 139.377 317.394L143.499 315.127L141.528 319.397C134.296 335.059 138.585 347.848 154.64 358.5C154.923 358.688 155.215 358.873 155.506 359.06L157.764 360.527L113.166 406.529Z" fill="#1B1A19"/>
<path fill-rule="evenodd" clip-rule="evenodd" d="M173.404 237.065C175.402 238.168 185.674 238.232 190.148 237.356C192.739 236.849 195.208 235.605 196.385 234.718C196.343 234.713 196.298 234.709 196.252 234.705C195.262 234.626 193.849 234.585 192.226 234.535C188.842 234.43 184.629 234.301 181.196 233.791C178.523 233.394 175.32 233.045 174.272 233.913C173.763 234.333 173.501 235.283 173.404 237.065ZM181.3 241.049C177.012 241.049 172.635 240.622 171.101 239.195C170.516 238.651 170.233 237.947 170.299 237.205C170.408 234.701 170.793 232.776 172.299 231.529C174.169 229.983 177.263 230.079 181.653 230.733C184.905 231.216 189.016 231.341 192.321 231.444C194.006 231.494 195.47 231.539 196.496 231.621C199.385 231.851 200.061 233.117 200.119 234.137C200.293 237.189 193.993 239.756 190.742 240.392C189.334 240.668 185.358 241.049 181.3 241.049Z" fill="#1B1A19"/>
<path fill-rule="evenodd" clip-rule="evenodd" d="M369.905 383.089H515.203C514.259 369.106 511.941 347.46 509.295 344.144C508.008 342.529 505.979 340.704 503.83 338.768C499.338 334.726 494.243 330.143 493.562 325.253C493.458 324.507 493.353 323.683 493.244 322.801C492.411 316.19 491.153 306.203 486.395 302.21C481.096 297.768 481.038 293.859 480.956 288.449C480.938 287.201 480.917 285.846 480.831 284.343C480.635 280.957 479.1 278.3 476.915 277.574C475.02 276.937 472.844 277.88 470.939 280.14C468.325 283.24 468.503 287.901 468.662 292.012C468.807 295.822 468.944 299.42 466.861 301.589C463.402 305.196 462.189 306.924 462.189 312.139L462.196 313.72C462.259 324.902 461.788 331.783 459.187 333.869C458.461 334.453 457.57 334.66 456.674 334.454C453.357 333.699 453.033 330.898 452.771 328.646C452.565 326.884 452.354 325.061 451.145 323.287C450.085 321.735 448.332 321.35 446.304 320.907C443.508 320.296 440.029 319.537 439.376 314.874C439.152 313.275 439.142 311.459 439.132 309.538C439.097 302.38 438.683 298.034 433.253 298.034C430.354 298.034 429.426 304.363 428.608 309.946C427.585 316.912 426.47 324.117 421.186 324.044C414.274 323.948 409.689 314.536 409.689 308.351V308.007C409.69 305.34 409.693 301.692 408.734 298.853C407.717 295.842 405.864 294.441 402.902 294.441C398.027 294.441 397.486 306.552 397.162 313.786C397.121 314.677 397.083 315.531 397.041 316.327C396.763 321.537 393.618 323.127 390.284 324.813C387.277 326.334 383.867 328.058 381.12 332.978C379.17 336.471 378.119 344.829 377.005 353.678C375.522 365.459 374.002 377.545 369.905 383.089ZM518.499 386.182H364.963L364.783 383.1C370.267 382.463 372.387 365.603 373.937 353.291C375.138 343.739 376.177 335.489 378.42 331.471C381.628 325.725 385.653 323.69 388.89 322.053C392.037 320.461 393.771 319.583 393.953 316.162C393.995 315.374 394.033 314.529 394.072 313.648C394.493 304.236 395.068 291.348 402.902 291.348C407.194 291.348 410.223 293.601 411.664 297.863C412.786 301.183 412.783 305.127 412.781 308.007V308.351C412.781 313.263 416.408 320.886 421.228 320.95C421.236 320.95 421.244 320.95 421.251 320.95C423.866 320.95 424.758 314.866 425.548 309.497C426.597 302.342 427.684 294.941 433.253 294.941C442.152 294.941 442.194 303.366 442.225 309.521C442.234 311.336 442.243 313.049 442.44 314.445C442.779 316.866 444.148 317.271 446.964 317.886C449.183 318.372 451.948 318.976 453.699 321.545C455.339 323.946 455.616 326.355 455.843 328.29C456.134 330.792 456.333 331.204 457.361 331.44C458.131 330.911 459.181 327.385 459.103 313.739L459.096 312.139C459.096 305.898 460.869 303.369 464.63 299.448C465.802 298.224 465.69 295.263 465.57 292.129C465.401 287.688 465.19 282.164 468.573 278.147C471.34 274.866 474.734 273.587 477.893 274.638C481.338 275.787 483.647 279.436 483.917 284.166C484.007 285.716 484.028 287.117 484.047 288.401C484.127 293.665 484.168 296.308 488.382 299.839C494.072 304.613 495.42 315.325 496.312 322.414C496.42 323.282 496.524 324.094 496.625 324.826C497.15 328.598 501.8 332.78 505.899 336.471C508.146 338.492 510.267 340.401 511.715 342.218C515.975 347.56 518.161 380.77 518.396 384.54L518.499 386.182Z" fill="#1B1A19"/>
<path fill-rule="evenodd" clip-rule="evenodd" d="M244.734 436.814L243.194 434.133L263.089 422.723L264.627 425.407L244.734 436.814Z" fill="#1B1A19"/>
<path fill-rule="evenodd" clip-rule="evenodd" d="M664.822 330.99C665.905 341.455 675.84 352.789 687.821 354.586C699.802 356.383 706.472 364.169 706.871 369.962C707.272 375.75 699.483 378.924 701.081 385.225C702.678 391.525 714.66 401.111 722.049 394.121C729.436 387.133 726.241 372.957 727.238 366.566C728.239 360.177 737.423 342.005 729.635 333.819C721.849 325.632 698.086 329.225 693.693 329.225C689.3 329.225 676.141 315.249 670.349 319.642C665.513 323.312 664.223 325.2 664.822 330.99Z" fill="#1B1A19"/>
<path fill-rule="evenodd" clip-rule="evenodd" d="M655.899 351.765C652.679 360.536 650.963 367.964 656.353 373.954C663.83 382.261 670.73 382.54 675.723 379.944C680.714 377.349 688.902 370.96 687.703 367.166C686.505 363.37 663.542 341.806 661.546 342.804C659.549 343.802 657.118 348.443 655.899 351.765Z" fill="#1B1A19"/>
<path fill-rule="evenodd" clip-rule="evenodd" d="M400.701 581.033C400.701 585.664 396.946 589.419 392.315 589.419C387.684 589.419 383.928 585.664 383.928 581.033C383.928 576.402 387.684 572.646 392.315 572.646C396.946 572.646 400.701 576.402 400.701 581.033Z" fill="#1B1A19"/>
<path fill-rule="evenodd" clip-rule="evenodd" d="M515.023 407.065C514.671 407.765 514.847 410.235 514.946 411.612C515.173 414.797 515.432 418.412 513.576 420.664C513.004 421.358 512.818 422.148 512.992 423.15C514.194 430.098 530.975 441.502 537.339 445.311L537.609 445.514C557.524 464.352 611.593 512.519 625.861 512.519C626.067 512.519 626.264 512.508 626.45 512.488C629.093 512.206 642.208 502.191 648.6 492.41C651.069 488.632 652.038 485.58 651.405 483.579C650.925 482.066 646.665 476.991 643.555 473.286C640.769 469.967 638.722 467.505 637.531 465.791L622.143 479.126L621.204 478.612C620.854 478.424 586.232 459.577 569.743 449.766C557.531 442.5 545.013 431.121 544.888 431.006L544.867 430.987C528.464 415.496 517.589 407.342 515.023 407.065ZM626.007 515.603C607.838 515.61 543.597 455.431 535.604 447.878C532.538 446.03 511.577 433.105 509.944 423.676C509.619 421.802 510.05 420.08 511.189 418.698C512.258 417.399 512.048 414.442 511.861 411.832C511.633 408.63 511.435 405.864 513.238 404.476C514.455 403.548 517.679 401.059 546.983 428.73C547.387 429.098 559.531 440.092 571.328 447.11C586.236 455.98 616.066 472.289 621.738 475.383L638.563 460.803L639.358 462.851C639.807 464.009 643.198 468.05 645.923 471.295C650.755 477.052 653.734 480.69 654.353 482.644C655.291 485.601 654.225 489.457 651.189 494.103C645.048 503.501 631.186 515.094 626.78 515.563C626.533 515.591 626.274 515.603 626.007 515.603Z" fill="#1B1A19"/>
<path fill-rule="evenodd" clip-rule="evenodd" d="M664.687 494.528C667.795 497.865 665.813 529.269 664.47 546.475C676.511 538.411 692.997 524.617 706.141 523.959C726.188 522.957 719.407 538.197 726.638 546.585C732.742 553.665 742.874 555.778 752.803 556.805C756.347 557.172 760.048 557.436 763.747 557.626H799.922C799.922 557.626 798.726 532.866 780.355 490.535C770.701 468.285 760.586 448.403 745.81 433.024C732.928 419.621 712.058 415.306 701.178 414.824C678.242 413.81 667.159 419.436 659.947 426.689C655.685 430.974 650.696 435.74 632.799 459.809C630.019 463.545 644.878 503.189 644.878 503.189C644.878 503.189 659.947 489.44 664.687 494.528Z" fill="#1B1A19"/>
<path fill-rule="evenodd" clip-rule="evenodd" d="M393.862 581.032H390.769V476.927C390.769 473.584 389.462 470.447 387.088 468.091C384.74 465.76 381.631 464.482 378.324 464.482C378.233 464.483 378.144 464.482 378.052 464.482C372.582 464.482 367.429 462.372 363.528 458.529C359.586 454.644 357.393 449.457 357.353 443.922L357.158 415.951C356.906 379.971 327.425 350.697 291.442 350.697H222.097V347.604H291.442C329.12 347.604 359.986 378.255 360.251 415.931L360.447 443.902C360.48 448.608 362.345 453.02 365.697 456.325C369.016 459.595 373.398 461.389 378.053 461.389C378.143 461.387 378.237 461.387 378.324 461.389C382.452 461.389 386.333 462.986 389.268 465.897C392.23 468.835 393.862 472.754 393.862 476.927V581.032Z" fill="#1B1A19"/>
<path fill-rule="evenodd" clip-rule="evenodd" d="M289.126 312.941L288.833 317.044C293.11 317.015 297.65 316.685 299.003 316.151C299.099 315.06 298.738 314.63 298.608 314.475C297.328 312.953 293.035 312.932 289.126 312.941ZM288.742 320.141C288.232 320.141 287.704 320.139 287.154 320.132L285.513 320.114L286.245 309.855L288.759 309.85C293.884 309.811 298.722 309.81 300.974 312.485C301.984 313.682 302.325 315.249 301.988 317.139C301.812 318.127 301.452 320.141 288.742 320.141Z" fill="#1B1A19"/>
<path fill-rule="evenodd" clip-rule="evenodd" d="M301.741 324.229H307.205C307.491 324.229 308.366 323.901 309.093 323.143C309.39 322.834 309.881 322.213 309.854 321.514C309.744 318.906 310.481 315.731 311.564 314.126C311.591 314.085 311.617 314.048 311.64 314.009C311.365 313.963 311.051 313.918 310.786 313.881C309.93 313.761 308.931 313.62 307.901 313.312L301.741 324.229ZM307.205 327.322H296.446L306.562 309.389L307.863 310C308.923 310.498 310.14 310.668 311.215 310.82C312.77 311.036 314.238 311.244 314.83 312.578C315.432 313.926 314.485 315.328 314.127 315.856C313.497 316.79 312.856 319.29 312.944 321.385C313.001 322.754 312.425 324.137 311.324 325.283C310.139 326.523 308.522 327.322 307.205 327.322Z" fill="#1B1A19"/>
<path fill-rule="evenodd" clip-rule="evenodd" d="M262.403 484.032H291.555C289.961 482.277 287.391 480.141 284.195 479.939C277.487 479.522 269.811 474.717 269.487 474.514L268.867 474.122L268.78 473.394C266.121 451.686 258.663 394.094 256.121 388.371C253.908 383.394 194.096 335.166 153.797 303.46C148.436 307.912 145.532 312.091 144.248 314.252C133.533 332.28 136.934 346.754 154.638 358.5C179.413 374.935 209.448 387.314 227.638 392.92C227.914 393.005 228.302 393.105 228.764 393.225C232.286 394.14 238.18 395.673 238.18 399.59C238.18 401.11 237.545 402.623 236.932 404.087C235.949 406.427 235.713 407.337 236.336 407.784C237.008 408.264 237.716 408.606 238.397 408.937C240.29 409.854 242.644 410.995 242.302 415.031C242.175 416.524 241.687 417.669 241.256 418.675C240.631 420.143 240.253 421.029 240.975 422.658C242.483 426.049 259.605 475.884 262.403 484.032ZM297.379 487.125H260.195L259.836 486.079C252.879 465.801 239.391 426.708 238.15 423.914C236.879 421.055 237.693 419.147 238.413 417.463C238.784 416.59 239.135 415.768 239.219 414.768C239.382 412.852 238.84 412.588 237.049 411.72C236.287 411.352 235.424 410.933 234.537 410.3C231.792 408.339 233.115 405.19 234.08 402.89C234.574 401.708 235.087 400.486 235.087 399.59C235.087 398.894 233.856 397.745 227.986 396.221C227.469 396.086 227.033 395.97 226.727 395.876C208.339 390.209 177.978 377.694 152.929 361.077C133.844 348.415 130.027 332.128 141.588 312.672C143.38 309.658 146.782 305.058 152.822 300.269L153.779 299.509L154.739 300.265C165.062 308.383 255.692 379.788 258.946 387.114C262.064 394.129 270.706 463.736 271.757 472.268C273.642 473.366 279.479 476.547 284.388 476.853C291.514 477.3 295.827 484.489 296.006 484.792L297.379 487.125Z" fill="#1B1A19"/>
<path fill-rule="evenodd" clip-rule="evenodd" d="M458.012 113.782V27.3218H442.237V129.558H570.831V113.782H458.012Z" fill="#1B1A19"/>
<path fill-rule="evenodd" clip-rule="evenodd" d="M731.592 220.389V236.263L765.387 217.728V201.855L731.592 220.389ZM728.499 241.485V218.56L768.479 196.632V219.558L728.499 241.485Z" fill="#1B1A19"/>
<path fill-rule="evenodd" clip-rule="evenodd" d="M568.043 562.042V558.949C580.207 558.949 596.324 549.987 610.542 542.082C625.684 533.663 637.647 527.016 643.923 530.825C650.897 535.056 649.961 540.12 649.277 543.82C648.665 547.143 648.484 548.811 651.107 550.384C653.997 552.123 662.634 545.979 670.983 540.044C682.241 532.041 695.003 522.966 706.067 522.413C720.637 521.692 722.443 529.439 724.039 536.281C724.814 539.599 725.615 543.03 727.809 545.575C733.724 552.437 743.844 554.325 752.963 555.266C773.493 557.387 799.585 556.128 799.846 556.115L800.001 559.204C799.734 559.215 773.411 560.486 752.646 558.343C742.922 557.339 732.089 555.277 725.467 547.595C722.776 544.474 721.887 540.667 721.026 536.985C719.452 530.236 718.234 524.892 706.22 525.504C696.061 526.011 683.689 534.805 672.774 542.564C661.954 550.257 654.141 555.807 649.514 553.036C644.937 550.289 645.656 546.391 646.237 543.258C646.897 539.682 647.467 536.591 642.319 533.468C637.574 530.598 625.178 537.484 612.047 544.785C597.498 552.873 581.008 562.042 568.043 562.042Z" fill="#1B1A19"/>
<path fill-rule="evenodd" clip-rule="evenodd" d="M246.37 323.573L293.796 324.217L300.488 312.833L258.271 311.013C254.104 310.844 252.644 304.613 252.394 303.365L252.352 303.161C250.662 294.732 247.516 279.039 247.206 274.931C247.05 272.868 246.63 270.911 246.195 269.331C242.956 276.35 236.815 287.773 236.5 288.355C235.461 290.287 233.953 291.951 232.102 293.219C234.237 301.227 237.73 312.607 240.089 319.194C241.036 321.837 243.581 323.576 246.37 323.573ZM295.552 327.335L246.362 326.664C242.302 326.658 238.564 324.116 237.177 320.237C234.641 313.153 230.971 301.147 228.822 292.903L228.523 291.76L229.552 291.171C231.392 290.12 232.813 288.679 233.776 286.89C236.985 280.93 243.44 268.574 244.896 264.489L246.197 260.827L247.767 264.384C247.853 264.577 249.875 269.215 250.29 274.697C250.587 278.618 253.828 294.784 255.385 302.552L255.426 302.758C255.989 305.562 257.319 307.879 258.395 307.924H258.399L305.762 309.963L295.552 327.335Z" fill="#1B1A19"/>
<path fill-rule="evenodd" clip-rule="evenodd" d="M156.439 301.613L186.326 325.356C186.838 322.61 187.683 318.234 188.407 315.226C191.593 302.045 209.009 292.207 218.266 293.018C227.908 293.859 232.021 290.152 233.778 286.891C236.929 281.038 243.21 269.02 244.811 264.718C244.242 262.737 237.644 254.937 231.33 248.231L226.574 252.28C229.009 254.226 230.327 256.795 230.327 259.68C230.327 267.786 215.342 274.965 205.025 276.347C202.229 276.721 197.857 277.253 193.267 277.774C185.918 282.539 164.396 296.491 156.439 301.613ZM188.454 330.997L151.127 301.344L152.951 300.177C158.741 296.473 184.219 279.955 191.889 274.981L192.195 274.784L192.557 274.743C197.258 274.21 201.766 273.662 204.615 273.28C214.492 271.958 227.235 265.126 227.235 259.68C227.235 257.247 225.898 255.259 223.259 253.768L221.332 252.679L231.553 243.978L232.563 245.036C248.976 262.249 248.129 264.63 247.809 265.525C245.912 270.853 236.884 287.646 236.501 288.355C234.704 291.696 229.919 297.145 217.998 296.099C209.993 295.435 194.121 304.754 191.413 315.955C190.33 320.444 188.921 328.363 188.906 328.441L188.454 330.997Z" fill="#1B1A19"/>
<path fill-rule="evenodd" clip-rule="evenodd" d="M186.044 234.285L184.826 234.188C183.427 234.078 182.237 233.947 181.194 233.792H181.193C180.468 233.683 179.815 233.603 179.198 233.534L179.439 230.453L187.16 230.817L186.044 234.285Z" fill="#1B1A19"/>
<path fill-rule="evenodd" clip-rule="evenodd" d="M170.596 238.561C164.914 252.078 157.919 269.043 157.604 270.757C157.281 272.565 157.797 274.373 159.022 275.723C160.229 277.048 161.946 277.736 163.731 277.578C179.971 276.259 197.426 274.243 204.614 273.281C214.492 271.958 227.235 265.126 227.235 259.681C227.235 257.957 226.55 256.439 225.198 255.166C222.717 252.831 218.47 251.761 215.729 251.906C212.22 252.119 186.476 258.155 176.852 260.464L174.176 261.105L180.625 241.043C172.676 240.961 171.375 239.514 170.925 239.014C170.797 238.872 170.686 238.72 170.596 238.561ZM163.251 280.689C160.765 280.689 158.423 279.66 156.733 277.801C154.86 275.736 154.067 272.972 154.559 270.213C155.084 267.274 168.845 234.738 170.414 231.038L170.835 230.042L176.313 230.303L176.308 233.393C174.177 233.487 173.57 233.868 173.405 237.054C174.148 237.418 176.708 238.049 182.723 237.941L184.884 237.9L178.803 256.819C187.096 254.846 211.731 249.048 215.542 248.82C219.013 248.618 224.171 249.949 227.318 252.914C229.286 254.766 230.328 257.106 230.328 259.681C230.328 267.786 215.342 274.965 205.025 276.347C197.805 277.314 180.279 279.338 163.982 280.662C163.738 280.681 163.492 280.689 163.251 280.689Z" fill="#1B1A19"/>
<path fill-rule="evenodd" clip-rule="evenodd" d="M354.845 305.209H345.14L345.128 303.478H325.227V296.488H312.847V289.3H309.952V296.488H294.677V303.478H277.012L272.22 312.065H297.432L297.422 312.079C299.635 312.768 300.951 314.132 300.465 316.869C300.302 317.793 297.076 318.22 293.842 318.42L287.174 330.234H299.867L310.125 312.065H334.012V325.776H340.203V312.065H345.194L345.174 309.468H354.845V305.209Z" fill="#1B1A19"/>
<path fill-rule="evenodd" clip-rule="evenodd" d="M271.15 212.557C263.964 208.564 256.337 215.235 249.547 219.214C242.76 223.192 234.638 215.353 225.054 214.953C215.469 214.554 211.609 223.836 205.219 229.199C198.856 234.535 188.047 229.018 153.784 229.018C110.175 229.018 73.4594 259.065 63.2297 299.542H86.5987C88.3558 299.531 90.1128 300.677 91.4541 302.986C94.1353 307.601 94.1353 315.109 91.4541 319.752C90.1128 322.076 88.3557 323.245 86.5973 323.257H60.4072C60.8614 374.368 102.566 415.815 153.784 415.815C178.191 415.815 200.432 406.395 217.088 391.01C198.224 384.247 174.897 373.522 155.348 360.797L112.846 404.639C103.249 399.851 94.6171 393.436 87.2957 385.752C100.281 365.484 126.624 326.171 140.123 318.748C140.972 316.908 141.921 315.14 142.919 313.463C144.952 310.041 148.459 305.704 153.784 301.48C158.832 298.249 178.886 285.257 192.729 276.278C184.654 277.196 174.185 278.281 163.857 279.119C159.05 279.51 155.234 275.23 156.081 270.484C156.592 267.632 171.837 231.639 171.837 231.639L176.241 231.847C177.103 231.81 178.137 231.863 179.367 231.997L185.07 232.268L184.95 232.645C189.292 232.986 194.013 232.977 196.373 233.163C201.964 233.606 195.77 237.832 190.444 238.872C188.894 239.177 185.895 239.431 182.75 239.486L176.49 258.96C176.49 258.96 211.222 250.63 215.636 250.363C217.886 250.227 221.255 250.858 224.02 252.421L231.444 246.103C231.444 246.103 235.403 250.255 239.244 254.694L237.475 252.129C237.475 252.129 255.937 231.04 258.333 228.909C260.729 226.78 267.653 227.579 270.315 230.507C270.897 231.148 271.148 232.491 271.15 234.219L274.042 231.195C274.042 231.195 278.341 216.552 271.15 212.557Z" fill="#1B1A19"/>
<path fill-rule="evenodd" clip-rule="evenodd" d="M517.581 406.469C522.134 408.877 530.195 415.537 538.134 422.677L538.306 421.803L570.536 448.438C571.745 449.158 573.06 449.929 574.438 450.733L577.716 432.879L551.441 411.167L560.034 400.771L514.591 363.219L506.002 373.612L513.072 379.458L476.4 349.15L474.252 351.708L459.816 339.778L454.582 346.115L468.965 358.004L465.744 361.839L473.171 367.978L456.317 388.371L465.525 395.979L482.377 375.586L517.885 404.927L517.581 406.469Z" fill="#1B1A19"/>
<path fill-rule="evenodd" clip-rule="evenodd" d="M513.412 427.658L511.063 439.611L531.485 456.487L533.766 444.894C528.656 441.597 517.894 434.19 513.412 427.658Z" fill="#1B1A19"/>
</g>
<defs>
<clipPath id="clip0_104_1468">
<rect width="800" height="600" fill="white"/>
</clipPath>
</defs>
</svg>
