<svg width="800" height="600" viewBox="0 0 800 600" fill="none" xmlns="http://www.w3.org/2000/svg">
<path d="M623.168 478.208H398.564V450.066H401.487V475.286H620.247V421.905H623.168V478.208Z" fill="#211D1D"/>
<path d="M623.167 373.514H620.247V308.262H531.135V305.34H623.167V373.514Z" fill="#211D1D"/>
<path d="M621.706 332.124H531.135V306.801H621.706V332.124Z" fill="#211D1D"/>
<path d="M567.295 70.1328C564.197 70.1328 561.103 69.4343 558.694 68.036C556.125 66.5422 554.717 64.4699 554.731 62.2012V18.9238H557.653V62.2094C557.645 63.3962 558.538 64.5654 560.162 65.5081C564.021 67.7522 570.564 67.7495 574.449 65.5067C576.07 64.5722 577.003 63.3649 577.01 62.1998V18.9238H579.931V62.208C579.918 64.4808 578.49 66.549 575.91 68.0387C573.49 69.4357 570.391 70.1328 567.295 70.1328Z" fill="#211D1D"/>
<path d="M560.211 15.6282C558.587 16.566 557.654 17.7741 557.653 18.9427C557.651 20.1158 558.544 21.2816 560.163 22.2237C564.018 24.4661 570.562 24.4661 574.449 22.2208C576.077 21.2829 577.008 20.0734 577.01 18.9033C577.013 17.7302 576.122 16.5646 574.502 15.6238C570.642 13.3814 564.099 13.3828 560.211 15.6282ZM567.294 26.8474C564.196 26.8474 561.103 26.149 558.694 24.7496C556.134 23.2624 554.728 21.1984 554.73 18.9384C554.733 16.6668 556.162 14.5923 558.749 13.0964C563.594 10.3019 571.156 10.3004 575.967 13.0964C578.528 14.5836 579.936 16.6478 579.932 18.9077C579.928 21.1808 578.501 23.2566 575.91 24.7525C573.49 26.149 570.389 26.8474 567.294 26.8474Z" fill="#211D1D"/>
<path d="M559.43 23.4875C561.441 24.6547 564.037 25.2741 566.678 25.3588V68.6444C564.037 68.5599 561.441 67.9405 559.43 66.7714C557.261 65.5108 556.183 63.8601 556.192 62.2094V18.9238C556.183 20.5746 557.261 22.2253 559.43 23.4875Z" fill="#211D1D"/>
<path d="M340.497 42.0267C326.803 42.0267 315.662 53.167 315.662 66.8612V423.304C315.662 436.998 326.803 448.139 340.497 448.139H504.841C518.534 448.139 529.674 436.998 529.674 423.304V66.8612C529.674 53.167 518.534 42.0267 504.841 42.0267H340.497ZM504.841 451.061H340.497C325.192 451.061 312.74 438.61 312.74 423.304V66.8612C312.74 51.5559 325.192 39.1045 340.497 39.1045H504.841C520.146 39.1045 532.596 51.5559 532.596 66.8612V423.304C532.596 438.61 520.146 451.061 504.841 451.061Z" fill="#211D1D"/>
<path d="M467.709 420.627H380.059V417.704H467.709V420.627Z" fill="#211D1D"/>
<path d="M345.426 53.4703C335.86 53.4703 328.078 61.2532 328.078 70.8179V419.349C328.078 428.913 335.86 436.695 345.426 436.695H499.909C509.474 436.695 517.257 428.913 517.257 419.349V70.8179C517.257 61.2532 509.474 53.4703 499.909 53.4703H467.138C466.412 59.6994 461.105 64.5479 454.685 64.5479H390.65C384.23 64.5479 378.922 59.6994 378.196 53.4703H345.426ZM499.909 439.617H345.426C334.25 439.617 325.156 430.524 325.156 419.349V70.8179C325.156 59.6421 334.25 50.5481 345.426 50.5481H381.034V52.0092C381.034 57.312 385.348 61.6257 390.65 61.6257H454.685C459.988 61.6257 464.301 57.312 464.301 52.0092V50.5481H499.909C511.084 50.5481 520.178 59.6421 520.178 70.8179V419.349C520.178 430.524 511.084 439.617 499.909 439.617Z" fill="#211D1D"/>
<path d="M179.336 266.69H289.732V95.0421H179.336V266.69ZM292.654 269.612H176.414V92.1199H292.654V269.612Z" fill="#211D1D"/>
<path d="M136.344 193.101H114.432V171.188H136.344V193.101Z" fill="#211D1D"/>
<path d="M400.027 498.365H378.114V476.453H400.027V498.365Z" fill="#211D1D"/>
<path d="M270.095 326.313L257.86 312.159L245.626 326.313V268.152H270.095V326.313Z" fill="#211D1D"/>
<path d="M599.308 419.774H644.105V374.975H599.308V419.774ZM647.027 422.696H596.386V372.053H647.027V422.696Z" fill="#211D1D"/>
<path d="M630.716 397.373C630.716 402.35 626.682 406.382 621.706 406.382C616.732 406.382 612.698 402.35 612.698 397.373C612.698 392.399 616.732 388.366 621.706 388.366C626.682 388.366 630.716 392.399 630.716 397.373Z" fill="#211D1D"/>
<path d="M645.568 497.685H591.517V494.763H645.568V497.685Z" fill="#211D1D"/>
<path d="M270.095 177.284H205.154V174.363H270.095V177.284Z" fill="#211D1D"/>
<path d="M270.095 199.927H205.154V197.005H270.095V199.927Z" fill="#211D1D"/>
<path d="M270.094 222.569H237.624V219.648H270.094V222.569Z" fill="#211D1D"/>
<path d="M264.922 588.257H262.001V457.147H264.922V588.257Z" fill="#211D1D"/>
<path d="M232.169 159.561H223.475V132.082H220.904V158.1H217.981V129.162H226.397V156.64H229.247V129.162H243.535V126.863H203.692V118.309H244.858V121.23H206.615V123.942H246.456V132.082H232.169V159.561Z" fill="#211D1D"/>
<path d="M453.539 239.981L439.422 254.1L425.304 239.981L439.422 225.864L453.539 239.981Z" fill="#211D1D"/>
<path d="M427.37 239.981L439.421 252.034L451.473 239.981L439.421 227.929L427.37 239.981ZM439.421 256.165L423.237 239.981L439.421 223.798L455.604 239.981L439.421 256.165Z" fill="#211D1D"/>
<path d="M365.242 167.266L373.851 175.875L382.46 167.266L373.851 158.657L365.242 167.266ZM373.851 180.006L361.111 167.266L373.851 154.526L386.591 167.266L373.851 180.006Z" fill="#211D1D"/>
<path d="M468.985 197.479L477.593 206.085L486.2 197.479L477.593 188.87L468.985 197.479ZM477.593 210.218L464.853 197.479L477.593 184.737L490.331 197.479L477.593 210.218Z" fill="#211D1D"/>
<path d="M360.622 312.159L369.23 320.767L377.84 312.159L369.23 303.551L360.622 312.159ZM369.23 324.898L356.491 312.159L369.23 299.418L381.971 312.159L369.23 324.898Z" fill="#211D1D"/>
<path d="M477.39 288.174L485.998 296.784L494.606 288.174L485.998 279.566L477.39 288.174ZM485.998 300.915L473.259 288.174L485.998 275.435L498.737 288.174L485.998 300.915Z" fill="#211D1D"/>
<path d="M434.945 230.426L378.645 174.122L380.71 172.056L437.011 228.361L434.945 230.426Z" fill="#211D1D"/>
<path d="M446.702 233.147L444.635 231.081L472.578 203.137L474.644 205.204L446.702 233.147Z" fill="#211D1D"/>
<path d="M479.667 283.909L444.557 248.798L446.622 246.732L481.733 281.842L479.667 283.909Z" fill="#211D1D"/>
<path d="M375.599 307.854L373.533 305.789L432.322 247.001L434.388 249.067L375.599 307.854Z" fill="#211D1D"/>
<path d="M472.197 192.197L441.516 161.516L443.581 159.45L474.264 190.132L472.197 192.197Z" fill="#211D1D"/>
<path d="M483.997 191.22L481.932 189.154L491.184 179.902L493.249 181.968L483.997 191.22Z" fill="#211D1D"/>
<path d="M438.39 383.381L374.631 319.624L376.696 317.558L440.455 381.316L438.39 383.381Z" fill="#211D1D"/>
<path d="M465.248 312.713L463.182 310.647L480.488 293.341L482.554 295.406L465.248 312.713Z" fill="#211D1D"/>
<path d="M496.904 301.391L490.18 294.667L492.245 292.601L498.969 299.325L496.904 301.391Z" fill="#211D1D"/>
<path d="M354.189 329.266L352.123 327.201L363.66 315.663L365.727 317.729L354.189 329.266Z" fill="#211D1D"/>
<path d="M359.338 185.478L357.272 183.412L368.298 172.386L370.364 174.452L359.338 185.478Z" fill="#211D1D"/>
<path d="M368.458 161.986L351.673 145.202L353.74 143.137L370.524 159.921L368.458 161.986Z" fill="#211D1D"/>
<path d="M383.544 166.284L381.479 164.218L439.568 106.129L441.633 108.195L383.544 166.284Z" fill="#211D1D"/>
<path d="M361.037 186.588L356.163 191.461L351.289 186.588L356.163 181.715L361.037 186.588Z" fill="#211D1D"/>
<path d="M445.405 107.094L440.53 111.967L435.657 107.094L440.53 102.221L445.405 107.094Z" fill="#211D1D"/>
<path d="M445.04 158.1L440.167 162.974L435.293 158.1L440.167 153.225L445.04 158.1Z" fill="#211D1D"/>
<path d="M499.406 178.377L494.531 183.25L489.658 178.377L494.531 173.502L499.406 178.377Z" fill="#211D1D"/>
<path d="M507.005 272.041L502.131 276.917L497.258 272.041L502.131 267.168L507.005 272.041Z" fill="#211D1D"/>
<path d="M467.206 313.563L462.333 318.437L457.459 313.563L462.333 308.689L467.206 313.563Z" fill="#211D1D"/>
<path d="M444.296 382.349L439.421 387.222L434.547 382.349L439.421 377.474L444.296 382.349Z" fill="#211D1D"/>
<path d="M356.218 330.045L351.342 334.919L346.469 330.045L351.342 325.172L356.218 330.045Z" fill="#211D1D"/>
<path d="M505.131 302.914L500.256 307.788L495.382 302.914L500.256 298.041L505.131 302.914Z" fill="#211D1D"/>
<path d="M355.137 141.728L350.265 146.602L345.391 141.728L350.265 136.853L355.137 141.728Z" fill="#211D1D"/>
<path d="M492.441 283.941L490.374 281.875L501.569 270.679L503.634 272.747L492.441 283.941Z" fill="#211D1D"/>
<path d="M255.65 445.183C256.546 445.345 257.508 445.409 258.474 445.409C258.588 445.409 258.706 445.406 258.823 445.404C256.828 447.537 255.643 449.947 255.586 450.067L254.13 453.079L257.328 452.097C257.468 452.054 260.565 451.072 263.16 449.061C262.573 451.848 262 454.817 262 457.147H264.921C264.921 454.787 265.637 451.427 266.269 448.461C266.31 448.275 266.343 448.106 266.384 447.925C266.606 448.271 266.842 448.607 267.1 448.904C269.407 451.578 272.731 453.191 272.872 453.257L275.888 454.705L274.899 451.51C274.86 451.382 274.045 448.822 272.39 446.416C273.329 446.573 274.281 446.674 275.192 446.674C275.315 446.674 275.439 446.672 275.561 446.668C281.64 446.484 287.416 443.782 287.657 443.666L290.682 442.234L287.576 440.99C287.36 440.902 282.816 439.106 277.645 438.771C282.622 434.314 285.664 428.259 285.795 427.993L287.281 424.993L284.074 425.943C283.776 426.031 276.763 428.139 271.42 432.629C271.392 432.653 271.366 432.681 271.336 432.705C271.561 431.708 271.73 430.711 271.804 429.746C272.437 421.266 269.52 412.824 269.394 412.47L268.289 409.31L266.726 412.27C266.549 412.603 262.412 420.516 261.778 428.996C261.71 429.903 261.723 430.851 261.786 431.809C261.77 431.791 261.756 431.769 261.74 431.752V431.753C257.127 426.517 250.501 423.392 250.223 423.261L247.19 421.846L248.215 425.031C248.306 425.317 250.459 431.894 254.813 437.068C249.618 436.621 244.84 437.728 244.609 437.782L241.353 438.551L244.131 440.416C244.354 440.566 249.666 444.095 255.65 445.183Z" fill="#211D1D"/>
<path d="M235.421 474.371C236.1 474.444 236.804 474.478 237.519 474.478C237.753 474.478 237.992 474.469 238.228 474.462C238.21 474.477 238.191 474.489 238.174 474.504C232.779 478.933 229.422 485.441 229.282 485.717L227.76 488.697L230.98 487.787C231.268 487.703 237.917 485.785 243.242 481.615C242.61 486.792 243.55 491.606 243.596 491.837L244.25 495.118L246.212 492.407C246.369 492.189 250.083 487.005 251.379 481.065C251.599 480.066 251.692 478.982 251.714 477.901C253.775 479.97 256.143 481.24 256.259 481.301L259.22 482.86L258.352 479.63C258.311 479.482 257.381 476.122 255.308 473.402C258.606 474.178 261.72 475.195 262.282 475.983L263.472 475.135L264.663 474.288C263.323 472.41 258.546 471.08 254.744 470.289C255.008 470.12 255.267 469.942 255.503 469.753C258.257 467.541 259.986 464.274 260.059 464.138L261.61 461.172L258.381 462.049C258.252 462.083 255.666 462.807 253.202 464.378C253.418 463.319 253.562 462.24 253.566 461.218C253.596 455.138 251.098 449.269 250.991 449.022L249.667 445.948L248.314 449.01C248.22 449.224 246.269 453.69 245.749 458.859C241.467 453.726 235.524 450.473 235.264 450.332L232.318 448.741L233.153 451.982C233.23 452.281 235.09 459.364 239.391 464.861H239.392C239.415 464.889 239.441 464.919 239.464 464.948C238.475 464.689 237.483 464.483 236.523 464.378C228.07 463.445 219.53 466.064 219.171 466.176L215.978 467.172L218.879 468.836C219.205 469.026 226.968 473.438 235.421 474.371Z" fill="#211D1D"/>
<path d="M284.859 478.374C284.91 478.261 284.969 478.149 285.015 478.035C287.874 471.259 287.812 463.54 287.808 463.214L287.765 459.867L285.338 462.173C285.11 462.391 279.864 467.433 276.943 473.924C274.997 468.722 271.701 464.62 271.545 464.426L269.437 461.828L268.963 465.14C268.924 465.421 268.004 472.078 269.71 478.252C270.011 479.343 270.485 480.456 271.029 481.522C268.033 480.55 265.096 480.534 264.953 480.534L261.607 480.533L263.882 482.988C263.992 483.108 266.646 485.949 270.049 487.437C270.27 487.533 270.504 487.614 270.737 487.692C266.614 489.397 263.137 491.033 261.849 492.306L262.876 493.344L263.903 494.384C264.873 493.425 268.448 491.811 271.632 490.486C271.561 490.628 271.476 490.767 271.415 490.909C269.935 494.315 269.928 498.204 269.928 498.367L269.935 501.712L272.385 499.434C272.489 499.337 274.629 497.321 276.161 494.568C276.488 495.721 276.901 496.861 277.423 497.867C280.379 503.549 285.587 507.795 285.806 507.973L288.411 510.075L288.183 506.738C288.166 506.487 287.779 501.21 285.643 496.059C292.256 498.909 299.687 499.029 300.007 499.032L303.353 499.068L301.103 496.59C300.886 496.348 295.674 490.654 288.967 487.639C288.866 487.594 288.761 487.556 288.662 487.513C289.728 487.268 290.772 486.968 291.738 486.588C300.083 483.306 306.766 476.672 307.047 476.391L309.412 474.022L306.068 473.898C305.668 473.885 296.256 473.576 287.913 476.857C286.889 477.261 285.865 477.786 284.859 478.374Z" fill="#211D1D"/>
<path d="M252.258 533.311L252.026 533.428C252.108 532.515 252.17 531.597 252.189 530.671C252.195 530.345 252.184 530.013 252.174 529.682C252.937 530.601 253.739 531.477 254.558 532.299C253.206 532.835 252.346 533.264 252.258 533.311ZM292.83 538.608C304.62 537.791 315.654 532.095 316.119 531.854L319.086 530.305L315.935 529.183C315.441 529.007 303.74 524.884 291.935 525.707C291.34 525.747 290.736 525.818 290.126 525.907C297.276 519.05 301.456 509.85 301.638 509.449L303.006 506.396L299.837 507.468C299.406 507.614 289.204 511.119 281.606 518.027C279.703 519.758 277.982 522.03 276.533 524.274C276.53 524.222 276.532 524.17 276.529 524.119C276.199 518.255 273.444 512.745 273.328 512.512L271.818 509.525L270.653 512.663C270.564 512.907 268.446 518.692 268.776 524.555C268.795 524.899 268.836 525.251 268.885 525.603C267.271 523.915 265.529 522.551 263.519 521.958L262.691 524.76C265.077 525.464 267.263 527.974 269.368 530.694C267.721 530.308 265.847 530.012 264.14 530.072C262.976 527.528 261.466 524.761 259.554 522.241C258.314 520.608 256.671 519.071 254.997 517.726C255.05 517.726 255.101 517.728 255.153 517.728C260.045 517.728 264.65 515.915 264.852 515.838L267.961 514.599L264.938 513.161C264.735 513.063 259.88 510.778 254.764 510.613C253.983 510.584 253.155 510.654 252.33 510.778C255.921 507.483 260.657 503.528 263.072 503.528C263.079 503.528 263.086 503.528 263.094 503.528L263.105 502.067L263.118 500.606C263.105 500.606 263.092 500.606 263.077 500.606C259.705 500.606 255.019 504.317 250.214 508.755C250.412 507.884 250.551 506.997 250.576 506.154C250.728 501.037 248.749 496.051 248.666 495.839L247.419 492.736L245.99 495.762C245.895 495.958 243.763 500.539 243.495 505.483C242.255 503.729 240.821 501.989 239.267 500.651C232.513 494.824 223.579 492.018 223.202 491.901L220.006 490.913L221.453 493.929C221.614 494.264 225.246 501.74 231.299 507.475C231.086 507.46 230.875 507.435 230.666 507.426C220.376 506.986 210.347 510.828 209.924 510.99L206.803 512.196L209.811 513.664C210.219 513.865 219.921 518.552 230.171 518.993C230.46 519.005 230.752 519.012 231.048 519.012C231.62 519.012 232.199 518.982 232.786 518.941C230.805 520.157 228.898 521.521 227.306 523.018C218.171 531.601 212.927 543.686 212.707 544.195L211.388 547.27L214.541 546.147C215.066 545.96 227.452 541.48 236.587 532.897C238.109 531.468 239.525 529.742 240.816 527.934C240.704 528.783 240.629 529.626 240.613 530.444C240.413 540.701 244.488 550.676 244.662 551.098L245.94 554.19L247.338 551.149C247.498 550.806 250.606 543.946 251.761 535.743L252.415 535.983C252.614 536.057 256.483 537.461 261.076 537.796C261.779 538.298 262.416 538.731 262.975 539.096C261.438 540.478 259.981 541.991 258.843 543.575C252.854 551.915 250.547 562.451 250.45 562.896L249.749 566.167L252.625 564.456C253 564.234 261.574 559.074 267.559 551.252C267.553 551.721 267.553 552.189 267.575 552.646C268.117 564.452 273.553 575.616 273.784 576.086L275.263 579.088L276.459 575.964C276.646 575.474 281.036 563.857 280.495 552.053C280.436 550.765 280.25 549.432 279.997 548.094C281.743 550.529 283.698 552.881 285.807 554.759C296.595 564.373 311.01 569.159 311.62 569.358L314.8 570.399L313.4 567.359C313.134 566.778 306.722 553.008 295.931 543.395C293.917 541.6 291.489 539.989 288.992 538.581C289.71 538.63 290.428 538.665 291.13 538.665C291.706 538.665 292.273 538.646 292.83 538.608Z" fill="#211D1D"/>
<path d="M54.4293 458.15L53.4088 456.903C53.2001 456.648 32.6002 431.047 37.7556 398.278C40.8361 378.691 44.6914 364.824 49.5399 355.879C53.0569 349.392 58.3255 344.259 64.777 341.038L79.3716 333.749V326.415L101.461 324.762L103.228 332.965C106.761 333.49 118.379 335.481 125.431 339.876C133.046 344.624 145.776 376.519 148.855 384.465L168.303 376.371L175.175 393.222L154.954 409.612C149.22 414.26 140.989 413.432 136.217 407.726L123.731 392.811L125.971 390.935L138.455 405.85C142.195 410.32 148.636 410.975 153.114 407.342L171.651 392.317L166.709 380.199L147.203 388.316L146.665 386.909C142.448 375.839 130.133 346.248 123.885 342.356C116.22 337.577 101.976 335.738 101.832 335.721L100.805 335.591L99.1407 327.864L82.2938 329.126V335.557L66.0798 343.651C60.1686 346.604 55.3379 351.314 52.1087 357.271C47.4867 365.798 43.6286 379.747 40.6423 398.732C36.3382 426.086 50.7418 448.284 54.694 453.758L68.3922 440.087C66.0348 436.187 57.8576 422.053 58.1918 414.055C58.5588 405.205 61.4687 394.114 61.5929 393.647L64.4182 394.394C64.3882 394.506 61.4633 405.65 61.11 414.176C60.7675 422.419 71.369 439.356 71.4781 439.527L72.1002 440.516L54.4293 458.15Z" fill="#211D1D"/>
<path d="M183.73 398.747C179.5 394.45 177.116 388.742 177.023 382.678L179.944 382.633C180.026 387.941 182.111 392.937 185.813 396.698L183.73 398.747Z" fill="#211D1D"/>
<path d="M219.283 396.238L216.932 394.503C223.641 385.41 221.701 372.551 212.607 365.843C208.201 362.593 202.799 361.25 197.38 362.071C191.967 362.888 187.197 365.763 183.946 370.169L181.596 368.434C185.309 363.401 190.761 360.115 196.943 359.18C203.14 358.252 209.309 359.779 214.343 363.492C224.731 371.158 226.948 385.847 219.283 396.238Z" fill="#211D1D"/>
<path d="M177.654 409.831C178.288 411.043 181.502 414.557 187.737 419.157C193.97 423.756 198.277 425.79 199.622 426.038L219.548 399.027C218.914 397.815 215.699 394.299 209.466 389.702C203.233 385.103 198.926 383.069 197.581 382.821L177.654 409.831ZM199.925 428.914C196.786 428.914 190.887 425.112 186.001 421.508C182.693 419.067 179.729 416.55 177.656 414.423C175.583 412.292 173.826 410.099 175.011 408.493L195.522 380.69C196.702 379.084 199.316 380.114 201.968 381.467C204.612 382.819 207.892 384.908 211.2 387.35C214.511 389.792 217.476 392.308 219.547 394.436C221.62 396.567 223.377 398.761 222.192 400.365L201.682 428.168C201.299 428.685 200.696 428.914 199.925 428.914Z" fill="#211D1D"/>
<path d="M199.14 383.358C200.606 385.073 203.58 387.909 208.249 391.354C212.917 394.797 216.505 396.803 218.577 397.698C217.111 395.982 214.137 393.144 209.467 389.702C204.799 386.259 201.212 384.252 199.14 383.358ZM220.411 401.182C219.112 401.182 217.437 400.451 215.747 399.587C213.103 398.235 209.824 396.147 206.513 393.705C203.205 391.263 200.241 388.746 198.17 386.619C196.095 384.488 194.338 382.296 195.525 380.69C196.709 379.084 199.321 380.114 201.969 381.467C204.613 382.819 207.893 384.908 211.201 387.35C214.512 389.792 217.476 392.308 219.547 394.436C221.622 396.565 223.378 398.761 222.193 400.365C221.764 400.947 221.149 401.182 220.411 401.182Z" fill="#211D1D"/>
<path d="M183.721 418.008L204.238 390.201L199.747 386.133L179.235 413.935L183.721 418.008Z" fill="#211D1D"/>
<path d="M218.373 422.141C217.025 422.141 215.695 421.839 214.459 421.247L207.594 418.234L208.77 415.558L215.678 418.592C216.895 419.174 218.192 419.351 219.475 419.12L242.005 415.064L242.522 417.94L219.993 421.996C219.453 422.093 218.911 422.141 218.373 422.141Z" fill="#211D1D"/>
<path d="M62.6939 429.202L61.3311 387.508L61.889 387.053C61.9068 387.036 63.9408 385.335 66.4442 381.656C67.8876 379.39 65.4783 360.484 62.316 343.517L65.1891 342.982C66.7566 351.4 71.6583 379.182 68.8616 383.298C66.8726 386.22 65.1468 388.009 64.2983 388.814L65.612 429.107L62.6939 429.202Z" fill="#211D1D"/>
<path d="M115.899 551.266C112.051 551.266 108.701 548.446 107.955 544.458L93.2841 473.354L93.029 542.108C93.0127 546.371 89.9186 549.884 85.83 550.282L76.3854 551.202C72.4768 551.588 68.8548 548.734 68.1604 544.712L55.7295 459.065L57.0869 458.79C57.1196 458.784 61.387 457.798 67.2464 451.78C73.0416 445.829 73.0389 439.07 73.0375 439.001L75.9597 438.956C75.9652 439.281 76.017 446.96 69.3405 453.817C64.713 458.571 60.9122 460.496 58.9982 461.233L71.0458 544.254C71.4823 546.777 73.6269 548.54 76.103 548.294L85.5489 547.375C88.1355 547.123 90.0959 544.854 90.1082 542.095L90.3661 473.369C90.3729 471.729 91.6825 470.392 93.2869 470.392C94.6593 470.392 95.8625 471.39 96.1449 472.764L110.823 543.893C111.34 546.659 113.686 548.547 116.334 548.324L129.824 547.147C131.56 546.996 133.08 545.832 133.768 544.148L129.082 494.014L120.007 445.307L123.627 381.731C121.69 380.844 117.521 378.607 116.119 375.233C114.58 371.528 115.608 346.423 115.955 338.924L113.018 338.063L111.711 370.146L110.737 370.457C110.502 370.53 104.91 372.294 95.7793 373.571C86.5557 374.859 78.2789 373.62 77.9338 373.569L76.9884 373.424L68.4646 341.493L71.2859 340.738L79.313 370.799C81.7059 371.076 88.3347 371.66 95.3741 370.676C102.096 369.738 106.913 368.505 108.875 367.958L110.251 334.208L118.982 336.767L118.928 337.914C118.318 350.55 117.75 371.548 118.817 374.112C119.917 376.757 124.129 378.843 125.66 379.423L126.662 379.803L122.943 445.12L131.974 493.609L136.738 544.522L136.634 544.821C135.631 547.742 133.058 549.799 130.078 550.058L116.588 551.234C116.356 551.255 116.126 551.266 115.899 551.266Z" fill="#211D1D"/>
<path d="M96.3193 287.173C91.3889 287.182 86.842 289.646 83.8475 293.928C80.2472 299.082 79.5651 305.848 81.9785 312.487C83.3427 316.239 87.3235 319.732 91.6604 320.981C94.2075 321.714 96.4489 321.525 97.8145 320.463C101.352 317.71 103.336 300.53 100.237 291.531C99.5498 289.544 98.3179 287.173 96.3234 287.173C96.322 287.173 96.3207 287.173 96.3193 287.173ZM94.5649 324.348C93.4012 324.348 92.1543 324.163 90.8514 323.787C86.475 322.528 81.1831 318.853 79.2336 313.486C76.4888 305.938 77.2991 298.2 81.4532 292.254C85.0016 287.18 90.4176 284.264 96.3125 284.25C96.3179 284.25 96.3207 284.25 96.3234 284.25C98.3779 284.25 101.198 285.35 103 290.581C106.095 299.571 104.791 318.734 99.6098 322.768C98.2633 323.816 96.5348 324.348 94.5649 324.348Z" fill="#211D1D"/>
<path d="M117.927 551.079C118.179 554.208 119.545 564.077 122.781 584.088C123.036 585.658 124.374 586.796 125.965 586.796H151.077C152.894 586.796 154.457 585.53 154.795 583.783C155.51 580.081 154.731 577.302 152.482 575.526C149.124 572.876 142.497 573.655 139.666 573.991C138.942 574.078 138.397 574.134 138.105 574.134C136.775 574.134 135.4 574.134 131.258 549.499L117.927 551.079ZM151.077 589.718H125.965C122.931 589.718 120.38 587.547 119.897 584.556C114.456 550.915 114.875 549.834 115.099 549.253L115.418 548.435L133.683 546.27L133.91 547.644C135.557 557.548 137.738 568.486 138.804 571.153C138.959 571.134 139.133 571.114 139.324 571.091C142.785 570.68 149.984 569.831 154.292 573.231C157.424 575.705 158.589 579.545 157.663 584.337C157.061 587.455 154.291 589.718 151.077 589.718Z" fill="#211D1D"/>
<path d="M90.5849 573.602L87.3216 549.551L76.0544 551.258L77.6615 573.299L74.7488 573.511L72.9453 548.773L89.8182 546.218L93.4798 573.208L90.5849 573.602Z" fill="#211D1D"/>
<path d="M75.5926 586.796H95.415C95.7792 584.611 96.2253 579.598 93.5391 576.114C91.531 573.508 88.074 572.188 83.2665 572.188C80.0319 572.188 77.7086 573.136 76.3607 575.006C74.0197 578.255 74.8369 583.919 75.5926 586.796ZM97.7314 589.718H73.4467L73.1152 588.718C72.9828 588.323 69.9229 578.941 73.9897 573.297C75.9187 570.622 79.0387 569.266 83.2665 569.266C89.0372 569.266 93.2758 570.975 95.8652 574.347C100.243 580.046 98.1134 588.286 98.0207 588.634L97.7314 589.718Z" fill="#211D1D"/>
<path d="M281.322 589.718H0V586.795H281.322V589.718Z" fill="#211D1D"/>
<path d="M8.03418 588.257C12.4175 579.492 21.9125 578.518 27.2685 578.518C35.3025 578.518 40.1728 583.631 44.3119 580.953C48.4496 578.275 53.129 575.76 62.8464 574.379C69.6935 573.404 74.4997 575.279 74.4997 575.279C74.4997 575.279 73.1546 577.639 73.3455 580.709C73.5365 583.779 74.4997 588.257 74.4997 588.257H8.03418Z" fill="#211D1D"/>
<path d="M97.2422 580.56C100.992 579.721 103.036 579.879 105.233 581.913C106.429 583.021 108.107 583.509 109.715 583.254C116.631 582.16 122.223 588.257 122.223 588.257H97.5423L97.2422 580.56Z" fill="#211D1D"/>
<path d="M59.1614 453.425L62.0372 455.899C64.0781 454.472 67.6047 451.806 68.8011 449.996C69.7629 448.543 70.4191 447.453 70.8243 446.751L68.3059 444.3L59.1614 453.425ZM61.8148 459.563L54.8682 453.584L68.2799 440.196L74.4299 446.184L73.9456 447.142C73.9156 447.204 73.1393 448.73 71.2376 451.607C69.2526 454.611 63.3974 458.519 62.7371 458.955L61.8148 459.563Z" fill="#211D1D"/>
<path d="M84.4241 388.61C84.4241 390.819 82.7147 392.608 80.607 392.608C78.4965 392.608 76.7871 390.819 76.7871 388.61C76.7871 386.403 78.4965 384.613 80.607 384.613C82.7147 384.613 84.4241 386.403 84.4241 388.61Z" fill="#211D1D"/>
<path d="M113.533 385.68C113.533 387.888 111.822 389.676 109.714 389.676C107.605 389.676 105.895 387.888 105.895 385.68C105.895 383.472 107.605 381.682 109.714 381.682C111.822 381.682 113.533 383.472 113.533 385.68Z" fill="#211D1D"/>
<path d="M91.5699 542.102L91.821 475.282C87.3927 482.608 78.6411 487.374 82.049 499.827C84.9275 510.337 87.1608 514.261 83.2659 519.789C79.371 525.318 83.5087 533.153 83.2659 538.665C83.023 544.181 76.2441 549.747 76.2441 549.747L85.6901 548.829C89.012 548.504 91.5549 545.594 91.5699 542.102Z" fill="#211D1D"/>
<path d="M56.0034 298.878L55.5068 296L116.131 285.548L116.627 288.427L56.0034 298.878Z" fill="#211D1D"/>
<path d="M73.4382 294.184C72.7425 294.333 72.325 275.598 75.1367 273.523C79.4191 270.363 81.2908 275.745 84.7587 273.375C88.2252 271.004 89.1324 264.673 92.3997 265.375C97.9181 266.561 101.383 289.222 101.383 289.222L73.4382 294.184Z" fill="#211D1D"/>
<path d="M77.8612 273.958C77.3074 273.958 76.7289 274.162 76.0032 274.699C74.4739 276.104 74.1069 288.398 74.5325 292.506L99.7149 288.035C98.0369 278.003 94.7655 267.377 92.0929 266.802C91.3222 266.644 90.5855 267.798 89.4654 269.729C88.4709 271.438 87.3468 273.375 85.5828 274.58C83.2786 276.157 81.3387 275.261 79.9172 274.606C79.1314 274.243 78.5133 273.958 77.8612 273.958ZM73.1942 292.743C73.1901 292.745 73.1819 292.746 73.1751 292.747L73.1942 292.743ZM72.5898 295.859L72.0155 294.691C71.3798 293.282 70.6445 275.02 74.2692 272.348C77.2433 270.153 79.5884 271.236 81.1422 271.954C82.5419 272.6 83.0672 272.761 83.9335 272.168C85.1531 271.336 86.0589 269.772 86.9389 268.261C88.2826 265.947 89.8065 263.324 92.7069 263.947C98.7422 265.243 101.98 283.451 102.828 289L103.044 290.412L72.5898 295.859Z" fill="#211D1D"/>
<path d="M103.147 310.476C101.481 310.007 97.8304 310.048 94.4662 311.968C91.7472 313.519 83.8415 318.954 82.4145 300.879C82.0134 295.786 85.3504 292.336 85.3504 292.336L65.5553 295.855C63.3016 305.794 66.7122 305.977 69.146 305.977C71.5811 305.977 70.9413 311.12 72.9249 311.968C75.9249 313.249 75.6943 309.812 77.0544 309.423C77.0544 317.454 84.4227 333.761 99.8235 328.153C109.586 324.599 104.815 310.947 103.147 310.476Z" fill="#211D1D"/>
<path d="M234.54 586.796C240.038 580.223 247.738 579.214 252.106 580.083C256.473 580.953 258.354 577.667 262.526 577.667C266.698 577.667 269.705 583.735 274.047 584.17C278.385 584.605 281.568 588.257 281.568 588.257L234.54 586.796Z" fill="#211D1D"/>
<path d="M169.358 380.802L171.761 385.882L177.254 380.523L178.272 381.498C179.194 382.38 180.614 382.406 181.57 381.56L185.494 378.088C185.962 377.675 186.248 377.105 186.304 376.483L186.628 372.885C186.712 371.941 186.078 371.067 185.151 370.856L180.505 369.803C179.127 369.492 177.688 370.012 176.825 371.127L169.358 380.802ZM170.871 390.836L165.951 380.433L174.513 369.342C176.067 367.331 178.667 366.393 181.153 366.955L185.797 368.008C188.143 368.54 189.753 370.749 189.537 373.147L189.214 376.745C189.091 378.11 188.458 379.365 187.431 380.275L183.508 383.748C181.802 385.257 179.344 385.481 177.413 384.45L170.871 390.836Z" fill="#211D1D"/>
<path d="M311.159 589.718H293.629V586.795H311.159V589.718Z" fill="#211D1D"/>
<path d="M676.881 235.438C673.867 238.492 669.679 240.247 665.388 240.256L622.17 240.328L621.367 219.948L658.033 218.922C660.843 218.842 663.457 217.531 665.202 215.324L699.041 172.531C701.25 169.74 704.418 167.993 707.958 167.615C711.496 167.235 714.962 168.278 717.711 170.543C720.987 173.243 722.989 177.222 723.206 181.462C723.426 185.702 721.84 189.868 718.86 192.891L710.043 201.826L699.976 211.982L683.533 228.668L681.54 230.69L681.552 230.705L676.881 235.438ZM611.604 220.222L618.447 220.029L619.246 240.333L611.636 240.346L611.604 220.222ZM688.467 113.101C692.46 113.558 694.86 118.084 699.556 121.292C704.249 124.499 707.726 120.668 709.919 125.916C711.583 129.897 705.764 131.766 705.893 135.538C706.004 138.786 712.189 141.971 716.988 141.912L719.163 149.4C717.347 149.43 715.476 149.613 713.584 149.945C710.633 150.462 707.786 151.451 705.095 152.893C704.799 151.868 704.468 150.651 704.153 149.333L703.65 147.224L701.884 148.483C701.314 148.89 700.767 149.325 700.228 149.755C697.704 151.76 696.147 152.846 693.47 151.747C689.63 150.176 687.847 140.182 686.497 129.624L684.686 114.61C685.623 113.619 686.856 112.916 688.467 113.101ZM702.324 163.367L701.778 160.605C703.557 158.901 707.894 155.389 714.339 154.261C716.197 153.936 718.018 153.773 719.751 153.773C723.014 153.773 725.318 154.359 726.533 154.771L727.248 157.141C725.943 156.983 724.431 156.871 722.768 156.871C717.302 156.871 709.672 158.088 702.324 163.367ZM741.832 171.591C749.136 181.817 765.963 220.556 765.963 220.556L741.801 244.718C742.607 237.954 744.142 221.703 741.211 215.193C738.735 209.691 734.408 208.208 730.592 206.901C728.246 206.096 725.819 205.266 723.542 203.495C721.733 202.088 720.394 200.313 719.449 198.069L718.973 196.936L720.939 194.941C724.495 191.337 726.385 186.37 726.126 181.314C725.865 176.255 723.475 171.509 719.568 168.288C716.208 165.52 711.97 164.255 707.648 164.71C706.608 164.822 705.594 165.033 704.614 165.333C711.059 160.914 717.703 159.792 722.768 159.792C727.93 159.792 731.453 160.951 731.453 160.951C732.93 161.678 736.445 164.049 741.832 171.591ZM685.628 230.732L712.053 203.948L716.757 199.202C717.868 201.84 719.491 204.045 721.746 205.799C728.319 210.912 735.259 209.087 738.546 216.391C741.832 223.695 738.546 247.119 738.546 247.119L719.973 266.546L685.628 230.732ZM608.679 236.763H602.616L592.263 238.415C591.521 238.534 590.77 238.556 590.027 238.471L572.724 236.556C572.15 236.404 571.636 235.984 571.265 235.367L569.555 232.512C568.896 231.413 568.843 229.887 569.423 228.717L571.187 225.164C571.614 224.298 572.33 223.743 573.098 223.68L593.212 222.027L588.18 216.3C587.86 215.937 587.594 215.504 587.395 215.027L592.601 217.488L598.636 221.238C599.028 221.549 599.377 221.934 599.679 222.381L601.908 224.761L608.679 224.436V236.763ZM555.333 232.886V231.608H566.188C566.323 232.459 566.61 233.283 567.049 234.014L568.76 236.867C568.806 236.947 568.869 237.01 568.919 237.086H559.533C557.218 237.086 555.333 235.202 555.333 232.886ZM559.533 216.147H584.709C585.031 216.913 585.451 217.62 585.985 218.229L587.181 219.591L572.859 220.767C571.059 220.916 569.456 222.074 568.569 223.867L566.806 227.419C566.606 227.823 566.462 228.252 566.346 228.687H555.333V220.347C555.333 218.031 557.218 216.147 559.533 216.147ZM800 189.779L724.383 114.163C723.891 117.274 724.097 121.768 724.469 123.53C726.28 132.084 726.483 141.422 720.298 143.79L719.864 141.342C723.991 139.32 723.982 130.823 721.789 120.462C719.509 109.701 728.162 105.661 716.216 97.0886C711.236 93.5184 693.121 93.1419 689.995 98.9726C687.836 103.003 684.257 96.356 676.482 96.416C668.705 96.4802 670.709 114.62 682.238 119.402C682.238 119.402 682.259 119.312 682.294 119.181L683.596 129.984C684.294 135.437 685.031 140.04 685.958 143.763L639.943 189.779L663.249 213.085L662.911 213.512C661.704 215.039 659.896 215.945 657.951 216.001L608.676 217.381L608.683 221.511L603.104 221.778L602.033 220.65C601.559 219.963 600.998 219.366 600.366 218.881L594.072 214.963L587.189 211.697C586.478 211.364 585.682 211.447 585.053 211.916C584.622 212.24 584.345 212.706 584.216 213.225H559.533C555.606 213.225 552.412 216.42 552.412 220.347V232.886C552.412 236.814 555.606 240.009 559.533 240.009H575.69V239.816L589.705 241.376C590.115 241.421 590.526 241.442 590.938 241.442C591.537 241.442 592.136 241.396 592.728 241.299L602.733 239.685H608.715L608.721 243.272L665.394 243.176C670.458 243.168 675.402 241.095 678.96 237.492L683.278 233.114L697.526 247.36L717.861 268.569L719.976 270.771L722.083 268.566L740.659 249.138L741.061 248.716L800 189.779Z" fill="#211D1D"/>
</svg>
