<svg width="800" height="600" viewBox="0 0 800 600" fill="none" xmlns="http://www.w3.org/2000/svg">
<g clip-path="url(#clip0_104_1607)">
<path d="M569.03 552.12H359.92V555.29H569.03V552.12Z" fill="#231F20"/>
<path d="M651.883 555.29H598.971V552.121H648.713V84.9546H651.883V555.29Z" fill="#231F20"/>
<path d="M94.2557 129.786H91.0889V13.9836H588.514V17.1519H94.2557V129.786Z" fill="#231F20"/>
<path d="M293.385 555.29L91.0889 554.182V263.013H94.2557V551.012L293.385 552.122V555.29Z" fill="#231F20"/>
<path d="M522.931 425.547H420.277V428.715H522.931V425.547Z" fill="#231F20"/>
<path d="M533.86 417.151H530.692V143.566H197.545V252.715H194.375V140.4H533.86V417.151Z" fill="#231F20"/>
<path d="M380.673 425.547H215.289V428.715H380.673V425.547Z" fill="#231F20"/>
<path d="M751.206 293.112H748.038V227.052H622.415V223.885H751.206V293.112Z" fill="#231F20"/>
<path d="M751.207 644.319H441.663C435.325 644.319 429.464 641.309 425.503 636.239C421.702 631.17 420.594 624.675 422.336 618.655C424.87 609.943 426.772 598.696 420.594 593.785C413.149 588.081 402.375 593.467 390.971 599.17C380.039 604.714 368.632 610.417 359.445 605.982C350.574 601.704 353.108 587.607 355.644 572.715C358.811 554.814 362.296 534.537 347.247 528.833C328.238 521.547 309.861 539.447 288.633 560.042C263.603 584.438 235.089 612.003 195.801 610.417L195.961 607.251C233.979 608.833 261.862 581.746 286.573 557.823C308.594 536.437 327.603 517.903 348.514 525.823C365.94 532.477 362.139 554.021 358.81 573.191C356.435 586.972 354.217 599.961 360.87 603.131C368.633 606.773 379.246 601.547 389.543 596.32C401.267 590.456 413.464 584.278 422.493 591.25C428.514 596.003 429.623 605.508 425.346 619.448C423.762 624.518 424.712 629.904 428.039 634.18C431.207 638.458 436.276 640.992 441.663 640.992H748.197V440.755H751.364V644.319H751.207Z" fill="#231F20"/>
<path d="M141.149 625.943H15.3662V591.25H141.149V625.943ZM18.5359 622.775H137.98V594.417H18.5359V622.775Z" fill="#231F20"/>
<path d="M16.9495 624.358H10.1387C5.22624 624.358 1.2666 620.4 1.2666 615.487V601.706C1.2666 596.795 5.22624 592.835 10.1387 592.835H16.9495V624.358Z" fill="#231F20"/>
<path d="M603.12 63.8606L531.081 140.943L533.395 143.107L605.433 66.0242L603.12 63.8606Z" fill="#231F20"/>
<path d="M160.756 477.037L91.501 552.597L93.8361 554.738L163.092 479.177L160.756 477.037Z" fill="#231F20"/>
<path d="M688.951 442.973V334.141L800.001 333.984V442.814L688.951 442.973ZM692.119 337.309V439.804L796.832 439.647V337.151L692.119 337.309Z" fill="#231F20"/>
<path d="M114.694 268.083H0V128.36H114.694V268.083ZM3.16829 264.913H111.524V131.528H3.16829V264.913Z" fill="#231F20"/>
<path d="M1.58398 308.319H36.4351V334.301L1.58398 308.319Z" fill="#231F20"/>
<path d="M64.3153 129.786H61.1484V121.864C61.1484 102.854 76.6728 87.3301 95.6839 87.3301H144.791C158.574 87.3301 169.822 76.0825 169.822 62.2995C169.822 53.9031 176.634 47.0923 185.03 47.0923H199.605C215.92 47.0923 229.385 33.7849 229.385 17.3106V-28.7888H232.555V17.3106C232.555 35.3705 217.822 50.2605 199.605 50.2605H185.03C178.375 50.2605 172.99 55.6458 172.99 62.2995C172.99 77.8252 160.317 90.4984 144.791 90.4984H95.6839C78.4155 90.4984 64.3153 104.599 64.3153 121.864V129.786Z" fill="#231F20"/>
<path d="M272.476 192.042C275.099 192.042 277.228 189.916 277.228 187.29C277.228 184.666 275.099 182.537 272.476 182.537C269.851 182.537 267.724 184.666 267.724 187.29C267.724 189.916 269.851 192.042 272.476 192.042Z" fill="#231F20"/>
<path d="M312.871 192.042C315.495 192.042 317.623 189.916 317.623 187.29C317.623 184.666 315.495 182.537 312.871 182.537C310.246 182.537 308.118 184.666 308.118 187.29C308.118 189.916 310.246 192.042 312.871 192.042Z" fill="#231F20"/>
<path d="M353.424 192.042C356.049 192.042 358.177 189.916 358.177 187.29C358.177 184.666 356.049 182.537 353.424 182.537C350.799 182.537 348.672 184.666 348.672 187.29C348.672 189.916 350.799 192.042 353.424 192.042Z" fill="#231F20"/>
<path d="M272.476 229.112C275.099 229.112 277.228 226.983 277.228 224.359C277.228 221.736 275.099 219.607 272.476 219.607C269.851 219.607 267.724 221.736 267.724 224.359C267.724 226.983 269.851 229.112 272.476 229.112Z" fill="#231F20"/>
<path d="M312.871 229.112C315.495 229.112 317.623 226.983 317.623 224.359C317.623 221.736 315.495 219.607 312.871 219.607C310.246 219.607 308.118 221.736 308.118 224.359C308.118 226.983 310.246 229.112 312.871 229.112Z" fill="#231F20"/>
<path d="M353.424 229.112C356.049 229.112 358.177 226.983 358.177 224.359C358.177 221.736 356.049 219.607 353.424 219.607C350.799 219.607 348.672 221.736 348.672 224.359C348.672 226.983 350.799 229.112 353.424 229.112Z" fill="#231F20"/>
<path d="M493.624 192.042C496.249 192.042 498.377 189.916 498.377 187.29C498.377 184.666 496.249 182.537 493.624 182.537C491 182.537 488.872 184.666 488.872 187.29C488.872 189.916 491 192.042 493.624 192.042Z" fill="#231F20"/>
<path d="M272.476 266.34C275.099 266.34 277.228 264.212 277.228 261.587C277.228 258.962 275.099 256.835 272.476 256.835C269.851 256.835 267.724 258.962 267.724 261.587C267.724 264.212 269.851 266.34 272.476 266.34Z" fill="#231F20"/>
<path d="M312.871 266.34C315.495 266.34 317.623 264.212 317.623 261.587C317.623 258.962 315.495 256.835 312.871 256.835C310.246 256.835 308.118 258.962 308.118 261.587C308.118 264.212 310.246 266.34 312.871 266.34Z" fill="#231F20"/>
<path d="M353.424 266.34C356.049 266.34 358.177 264.212 358.177 261.587C358.177 258.962 356.049 256.835 353.424 256.835C350.799 256.835 348.672 258.962 348.672 261.587C348.672 264.212 350.799 266.34 353.424 266.34Z" fill="#231F20"/>
<path d="M371.484 95.8849C337.901 95.8849 302.416 89.864 302.416 78.7764C302.416 67.686 338.06 61.6665 371.484 61.6665C404.911 61.6665 440.555 67.686 440.555 78.7764C440.555 89.864 405.068 95.8849 371.484 95.8849ZM371.484 64.8348C332.673 64.8348 305.583 72.1213 305.583 78.7764C305.583 85.4287 332.673 92.7166 371.484 92.7166C410.298 92.7166 437.385 85.4287 437.385 78.7764C437.385 72.1213 410.298 64.8348 371.484 64.8348Z" fill="#231F20"/>
<path d="M436.12 74.3381C427.723 80.6762 401.901 85.4286 371.484 85.4286C340.91 85.4286 315.088 80.8347 306.851 74.3381C304.951 75.7652 304 77.1908 304 78.7749C304 87.3299 334.257 94.2992 371.484 94.2992C408.712 94.2992 438.969 87.3299 438.969 78.7749C438.969 77.1908 438.019 75.7652 436.12 74.3381Z" fill="#231F20"/>
<path d="M650.296 97.1518C614.177 97.1518 584.87 67.8444 584.87 31.7262C584.87 -4.39271 614.177 -33.6992 650.296 -33.6992C686.414 -33.6992 715.723 -4.39271 715.723 31.7262C715.723 67.8444 686.414 97.1518 650.296 97.1518ZM650.296 -30.5314C615.92 -30.5314 588.038 -2.65029 588.038 31.7262C588.038 66.1017 615.92 93.9821 650.296 93.9821C684.671 93.9821 712.553 66.1017 712.553 31.7262C712.553 -2.65029 684.671 -30.5314 650.296 -30.5314Z" fill="#231F20"/>
<path d="M696.713 441.073C699.563 429.665 711.284 427.448 727.919 422.379C744.553 417.309 759.444 413.191 759.444 413.191H798.255V441.073H696.713Z" fill="#231F20"/>
<path d="M720.474 428.874L727.919 423.487C733.147 419.686 733.94 414.774 735.207 407.804C735.524 405.586 735.998 403.369 736.632 400.833L739.642 401.626C739.009 404.003 738.692 406.22 738.216 408.439C737.266 413.35 736.472 417.943 733.94 421.746L757.859 414.774L756.593 393.547L759.76 393.388L761.186 417.151L720.474 428.874Z" fill="#231F20"/>
<path d="M739.009 403.369C737.9 403.369 736.949 403.369 735.841 403.052C732.514 402.419 729.82 400.993 728.394 398.617C724.909 393.071 729.978 380.241 737.106 364.241C738.849 360.12 740.433 356.636 741.384 353.942L741.859 352.518L743.284 352.992C743.918 353.151 757.702 357.429 762.611 362.497C767.046 366.932 766.729 376.437 766.415 379.607C767.523 380.241 769.266 381.667 770.216 383.884C771.007 386.102 770.85 388.477 769.423 391.011C768.158 393.547 766.255 395.29 764.038 395.764C761.663 396.398 759.601 395.607 758.336 395.13C757.384 395.764 755.8 397.032 753.423 399.091C750.889 400.993 744.87 403.369 739.009 403.369ZM743.761 356.479C742.81 359.011 741.384 362.023 739.959 365.507C735.206 376.28 728.078 392.439 731.088 397.032C732.197 398.617 733.939 399.725 736.472 400.042C742.019 400.993 749.147 398.617 751.681 396.557C755.8 393.388 757.541 391.963 757.541 391.963L758.493 391.329L759.444 391.963C759.444 391.963 761.503 393.388 763.562 392.754C764.829 392.439 765.938 391.329 766.889 389.586C767.841 387.845 767.998 386.259 767.523 384.993C766.729 382.934 764.512 381.984 764.512 381.984L763.404 381.507L763.562 380.241C763.88 377.071 764.197 368.201 760.711 364.557C756.75 361.071 747.405 357.587 743.761 356.479Z" fill="#231F20"/>
<path d="M752.792 332.398C748.039 327.013 739.169 329.705 738.376 336.835C737.585 344.437 738.376 351.883 742.811 354.576C750.891 359.328 760.87 359.328 763.09 365.984C764.989 371.527 764.831 378.181 764.831 380.081C764.831 380.398 764.989 380.715 765.148 380.874L766.891 382.141C767.365 382.458 767.999 382.458 768.316 381.982C770.535 378.972 778.455 367.725 778.455 359.806C778.455 350.616 759.446 339.21 756.277 336.2C755.486 335.409 754.218 333.984 752.792 332.398Z" fill="#231F20"/>
<path d="M726.653 365.032C724.75 369.309 726.493 374.062 730.611 376.437L742.176 382.934C746.928 385.628 752.949 384.359 755.959 380.081L756.593 379.131C759.76 374.537 758.019 368.201 752.475 365.824L740.276 360.28C735.206 357.903 728.87 360.12 726.653 365.032Z" fill="#231F20"/>
<path d="M699.246 73.3902C699.246 73.3902 652.356 63.0926 631.286 55.489C627.008 53.9034 619.88 50.8937 612.751 50.5765C605.623 50.2609 598.493 53.112 590.89 57.5473C601.186 80.0425 623.841 95.5682 650.137 95.5682C669.781 95.5682 687.365 87.0133 699.246 73.3902Z" fill="#231F20"/>
<path d="M662.969 67.6864L633.663 60.8756V59.6071C633.663 58.6557 633.663 44.0813 633.663 44.0813H636.83C636.83 44.0813 636.83 54.5375 636.83 58.3386L659.801 63.7253V30.4583H662.969V67.6864Z" fill="#231F20"/>
<path d="M638.731 46.1424C637.464 46.1424 636.195 45.9838 634.771 45.6667C620.038 42.1813 624.473 13.3496 627.642 -7.56009C628.117 -10.2533 628.434 -12.7889 628.752 -15.0059L628.909 -16.5906L687.048 -7.87706L678.334 21.9046L665.187 27.924C663.286 30.6181 652.038 46.1424 638.731 46.1424ZM631.76 -12.9465C631.446 -11.0465 631.128 -9.14481 630.811 -7.08557C628.117 10.499 623.682 39.8058 635.564 42.6556C649.345 45.9838 662.651 26.0228 662.811 25.8642L663.127 25.5485L675.8 19.8447L683.087 -5.18387L631.76 -12.9465Z" fill="#231F20"/>
<path d="M629.384 -8.19409C619.721 -10.2533 611.485 -23.4025 621.306 -31.165C629.701 -37.8192 636.512 -31.799 636.512 -31.799C636.512 -31.799 640.156 -52.2343 663.444 -42.2541C680.87 -34.809 675.166 -19.2838 675.166 -19.2838C675.166 -19.2838 686.096 -22.1346 690.058 -13.1059C695.444 -0.590771 683.562 8.59726 683.562 8.59726C683.562 8.59726 683.088 18.102 678.968 28.2411C673.583 41.2314 661.386 37.2703 661.386 37.2703C661.386 37.2703 662.651 27.4497 662.017 23.9629C672.632 25.2314 675.009 7.32952 661.386 7.01255C658.533 -2.33318 653.146 -7.87712 646.494 -10.0958C638.098 -12.9465 629.384 -8.19409 629.384 -8.19409Z" fill="#231F20"/>
<path d="M143.366 625.943H139.564V622.774H143.366C145.268 622.774 147.168 621.982 148.594 620.714L153.188 616.122C156.516 612.795 160.791 611.052 165.386 611.052H170.93C171.247 611.052 171.564 610.735 171.564 610.418V606.934C171.564 606.617 171.247 606.299 170.93 606.299H165.386C160.791 606.299 156.516 604.557 153.188 601.23L148.594 596.635C147.168 595.209 145.425 594.576 143.366 594.576H139.564V591.408H143.366C146.217 591.408 148.752 592.516 150.812 594.418L155.404 599.012C158.099 601.704 161.584 603.13 165.386 603.13H170.93C172.99 603.13 174.731 604.874 174.731 606.934V610.418C174.731 612.477 172.99 614.22 170.93 614.22H165.386C161.584 614.22 158.099 615.644 155.404 618.338L150.812 622.934C148.752 624.834 146.06 625.943 143.366 625.943Z" fill="#231F20"/>
<path d="M8.39648 266.498C13.306 255.408 20.2783 245.429 31.0487 241.467C41.6635 237.508 113.109 239.885 113.109 239.885V266.498H8.39648Z" fill="#231F20"/>
<path d="M605.939 381.507H589.624L589.94 379.607C590.417 377.071 590.734 374.379 590.417 373.27C589.94 373.27 589.307 373.429 588.674 373.586C586.138 374.22 582.812 374.854 580.595 372.795C577.902 370.259 579.326 365.984 581.386 359.963C581.86 358.22 582.494 356.479 583.129 354.576L587.723 339.528L599.761 343.013L607.367 357.27L605.939 381.507ZM593.585 378.338H603.09L604.198 358.062L597.703 345.866L589.94 343.646L586.298 355.685C585.664 357.746 585.03 359.489 584.554 361.231C583.129 365.507 581.703 369.625 582.97 370.736C583.921 371.686 586.298 371.21 588.198 370.736C589.624 370.419 590.734 370.102 591.682 370.419C592.476 370.259 594.692 370.736 593.585 378.338Z" fill="#231F20"/>
<path d="M585.82 347.607C579.325 341.427 577.583 329.705 588.672 329.547C596.276 329.547 602.297 335.566 605.781 341.427C608.632 346.34 614.969 341.27 615.129 352.518C615.286 361.864 608.315 372.002 604.672 371.527C601.028 371.053 597.86 367.566 598.81 365.189C599.76 362.814 602.771 362.023 602.771 359.011C602.771 355.053 599.286 356.636 597.067 353.309C594.85 349.984 595.959 347.765 593.425 346.34C590.415 344.914 585.82 347.607 585.82 347.607Z" fill="#231F20"/>
<path d="M415.207 269.508C407.92 265.23 409.187 255.41 414.572 256.201C419.959 256.835 419.485 256.36 421.545 253.983C424.394 250.499 432.315 252.557 433.742 256.359C435.642 261.429 441.029 256.518 444.83 266.499C447.524 273.309 441.503 287.251 438.019 287.727C434.534 288.201 430.89 285.667 431.207 283.131C431.524 280.597 434.216 279.33 433.584 276.636C432.632 272.992 429.94 275.212 427.089 272.677C424.237 270.143 424.87 267.766 422.178 267.131C418.692 266.181 415.207 269.508 415.207 269.508Z" fill="#231F20"/>
<path d="M516.435 424.596L515.483 424.439C514.533 424.279 506.77 423.33 503.603 421.27C498.375 417.943 494.574 408.913 497.742 404.003L498.216 403.369L499.166 403.21C500.275 403.052 501.069 404.003 502.812 405.746C503.603 406.696 505.187 408.28 506.139 408.913C506.296 408.596 506.296 408.439 506.453 408.121C507.087 406.537 507.721 404.477 509.464 403.843C509.94 403.686 510.891 403.528 511.999 404.003C515.009 405.429 514.849 409.39 514.692 411.924C514.692 412.557 514.692 413.348 514.692 413.825C515.326 414.459 517.86 415.408 520.396 416.042L522.771 416.676L516.435 424.596ZM499.801 407.646C499.326 411.29 502.017 416.835 505.344 418.895C507.247 420.16 512.317 420.953 515.009 421.429L516.909 418.895C514.216 418.101 511.839 416.835 511.205 415.251C510.891 414.459 511.048 413.508 511.048 412.24C511.048 410.498 511.205 407.804 510.097 407.33C509.781 407.646 509.305 409.073 508.988 409.707C508.673 410.815 508.355 411.607 507.721 412.083C505.344 413.982 502.652 410.973 500.118 408.28C500.118 407.963 499.959 407.804 499.801 407.646Z" fill="#231F20"/>
<path d="M557.623 444.717C550.97 444.24 518.495 426.816 514.849 424.756L513.267 423.963L521.187 412.716L522.296 413.033C534.178 416.201 553.346 420.954 556.197 421.429C556.514 420.954 556.831 419.844 556.831 419.212C557.148 418.261 557.306 417.468 557.781 416.994C558.574 416.043 559.841 416.201 561.107 416.36C561.584 416.36 562.218 416.518 562.692 416.518C562.849 416.36 562.851 415.885 562.851 415.725C563.009 414.934 563.326 413.666 564.593 413.191C566.176 411.924 575.998 400.994 580.751 395.766C582.969 393.23 584.712 391.329 585.346 390.696C589.147 386.737 593.741 384.517 597.86 384.677C600.869 384.677 603.563 385.944 605.781 388.161C611.168 394.022 607.998 405.269 605.938 408.122C602.929 411.924 563.642 444.717 557.623 444.717ZM517.86 422.855C532.118 430.46 553.187 441.23 557.623 441.547C562.218 441.073 599.603 411.133 603.089 406.221C604.356 404.321 607.207 394.656 603.246 390.221C601.82 388.638 599.92 387.686 597.702 387.686C597.702 387.686 597.702 387.686 597.543 387.686C594.217 387.686 590.573 389.586 587.406 392.756C586.771 393.389 585.186 395.29 582.969 397.667C569.503 412.557 566.97 415.091 566.019 415.725C566.019 415.885 565.859 416.043 565.859 416.201C565.702 417.151 565.226 418.578 563.801 419.212C562.851 419.686 561.584 419.527 560.632 419.369C560.475 419.369 560.158 419.369 559.998 419.369C559.998 419.527 559.841 419.686 559.841 419.844C559.365 421.586 558.731 424.279 556.354 424.439C554.454 424.596 532.752 418.895 522.296 416.201L517.86 422.855Z" fill="#231F20"/>
<path d="M499.166 405.112C499.8 404.16 505.027 412.4 506.929 410.815C507.879 410.024 508.513 404.637 511.047 405.903C514.057 407.33 512.473 413.191 512.949 414.777C513.424 416.201 517.385 417.309 519.127 417.785L525.782 413.35L510.256 398.142L498.691 404.955L499.166 405.429C499.009 405.112 499.009 405.112 499.166 405.112Z" fill="#231F20"/>
<path d="M586.615 487.804C586.615 487.804 604.514 556.558 607.051 563.052C609.583 569.547 637.624 625.466 637.624 625.466H656.635L634.614 558.458L619.881 487.17" fill="#231F20"/>
<path d="M578.375 626.893H557.781L578.692 486.221L581.861 486.696L561.424 623.725H575.998C578.534 615.804 593.584 567.171 596.911 555.764C600.555 543.249 611.802 488.754 611.959 488.121L615.129 488.754C614.652 490.974 603.721 544.042 600.077 556.557C596.435 569.071 579.008 625.149 578.851 625.783L578.375 626.893Z" fill="#231F20"/>
<path d="M592.159 487.963C588.991 478.932 588.356 477.667 589.148 472.439C590.099 467.21 599.921 459.765 599.921 448.992C599.921 438.062 593.267 416.518 593.267 416.518L579.96 428.24L580.118 486.696L592.159 487.963Z" fill="#231F20"/>
<path d="M600.869 490.974C591.999 490.974 580.277 488.28 579.801 488.123L578.693 487.806V486.537C578.693 486.38 577.9 463.726 578.534 428.083H581.702C581.228 458.974 581.702 480.044 581.861 485.113C585.346 485.905 595.642 487.963 602.772 487.646C611.168 487.172 619.88 485.587 622.733 484.796C624.157 479.409 623.207 435.212 621.464 424.121C619.722 413.191 608.474 386.578 606.099 380.875L590.416 381.35C590.256 381.982 590.099 382.777 589.939 383.725C589.465 385.628 588.83 388.163 588.197 391.964L585.029 391.33C585.821 387.529 586.455 384.835 586.929 382.934C587.246 381.508 587.563 380.4 587.722 379.607L587.88 378.341L608.316 377.707L608.791 378.658C609.426 379.924 622.89 411.291 624.791 423.647C625.743 429.825 626.534 446.301 626.691 458.814C627.168 486.537 625.743 487.172 624.633 487.646C622.099 488.597 611.96 490.498 603.089 490.974C602.138 490.974 601.503 490.974 600.869 490.974Z" fill="#231F20"/>
<path d="M49.1094 242.578L51.962 210.893L55.1288 211.053L52.5948 239.408L75.7242 239.251L76.1984 220.875H79.3681L78.891 242.419L49.1094 242.578Z" fill="#231F20"/>
<path d="M71.4441 223.408C68.1173 223.408 65.109 222.617 62.4149 220.875C54.8099 215.963 49.9003 204.398 47.0477 184.123L46.8906 182.854L81.9003 169.071L82.3746 170.814C83.4845 175.566 92.9894 217.864 78.2564 222.299C75.8794 223.092 73.6625 223.408 71.4441 223.408ZM50.5346 184.914C53.2272 203.29 57.6625 213.903 64.3148 218.181C67.9587 220.558 72.2369 220.875 77.465 219.29C86.1786 216.756 83.6416 190.458 79.8405 173.349L50.5346 184.914Z" fill="#231F20"/>
<path d="M429.782 428.557H420.277C413.149 428.557 405.546 424.756 400.159 418.418L369.585 383.092L364.832 416.201L346.14 414.934L348.039 359.012C348.515 354.259 350.732 350.618 354.219 348.715C357.544 346.973 361.663 346.973 364.515 348.715L429.782 388.795V428.557ZM367.366 375.646L402.376 416.201C407.288 421.905 413.941 425.23 420.119 425.23H426.455V390.38L362.772 351.251C360.871 350.141 357.861 350.141 355.485 351.251C353.585 352.201 351.366 354.259 350.892 358.855L349.149 411.766L361.823 412.717L367.366 375.646Z" fill="#231F20"/>
<path d="M383.682 345.389C382.731 345.389 382.097 345.389 381.939 345.389V342.22C385.901 342.22 393.028 342.062 394.928 341.429C395.722 340.953 398.731 336.994 401.423 333.35C411.088 320.677 420.117 309.113 426.771 308.002L427.245 311.172C421.384 312.28 410.454 326.696 403.8 335.25C398.889 341.588 397.148 343.963 395.88 344.437C393.663 345.232 387.009 345.389 383.682 345.389Z" fill="#231F20"/>
<path d="M406.495 356.32L404.437 353.945C409.03 349.984 414.1 344.914 415.843 343.013L418.218 345.231C416 347.448 410.93 352.518 406.495 356.32Z" fill="#231F20"/>
<path d="M426.772 304.358L426.298 296.913C424.87 297.23 423.128 297.23 421.068 296.28C417.267 294.379 416.158 284.557 415.998 278.853C415.841 274.578 414.573 263.487 414.416 263.33L414.099 260.795L416.476 261.587C416.476 261.587 423.286 263.804 429.464 266.338C436.277 269.191 438.495 282.023 438.812 283.448L443.406 302.3L426.772 304.358ZM429.147 292.003L429.623 300.874L439.445 299.766L435.642 284.24C435.008 280.596 432.633 271.251 428.197 269.348C424.395 267.766 420.277 266.338 417.741 265.547C418.217 269.191 418.851 275.686 419.01 278.853C419.485 287.567 421.068 292.953 422.336 293.587C424.871 294.696 426.772 293.587 426.772 293.587L429.147 292.003Z" fill="#231F20"/>
<path d="M425.504 311.172V300.557L445.939 298.974V310.062L425.504 311.172ZM428.674 303.567V307.845L442.772 307.052V302.3L428.674 303.567Z" fill="#231F20"/>
<path d="M464.475 410.816C463.684 410.816 463.05 410.657 462.417 410.181L415.368 383.408V371.686H418.535V381.667L463.842 407.487C464.318 407.804 464.792 407.647 464.952 407.487C465.109 407.33 465.584 407.013 465.584 406.537L463.05 364.875C460.991 341.112 457.823 320.201 455.922 317.193C452.595 312.44 445.308 310.539 444.198 310.379L427.881 311.172C426.299 312.914 422.97 316.875 422.179 319.252C420.121 325.113 418.694 333.193 418.694 340.162V355.371H415.525V340.003C415.525 332.715 416.951 324.162 419.169 317.984C420.595 314.34 425.821 308.636 425.981 308.479L426.456 308.002L444.514 307.053H444.674C444.991 307.053 454.336 309.113 458.614 315.291C461.783 319.884 465.109 349.51 466.378 364.558L468.91 406.38C468.91 407.964 468.119 409.39 466.694 410.181C465.901 410.657 465.109 410.816 464.475 410.816Z" fill="#231F20"/>
<path d="M394.771 368.993L379.879 332.558H350.573L357.543 348.875L363.879 349.983L394.771 368.993Z" fill="#231F20"/>
<path d="M427.407 376.597C425.664 376.597 424.08 376.28 422.494 375.646L395.724 368.201L397.466 353.785H423.128C425.03 348.874 432.95 327.963 436.277 322.419C438.97 317.984 445.782 316.24 450.693 318.617C453.703 320.044 460.039 325.11 454.178 341.587C452.117 347.131 448.476 354.893 441.347 368.359C438.494 373.27 432.95 376.597 427.407 376.597ZM399.049 365.824L423.445 372.636C428.674 374.854 435.486 372.002 438.337 366.617C445.306 353.309 448.95 345.706 451.009 340.319C454.494 330.497 453.861 323.528 449.109 321.309C445.306 319.567 440.395 321.309 438.811 324.002C435.169 329.863 425.664 355.528 425.504 355.845L425.188 356.795H400.159L399.049 365.824Z" fill="#231F20"/>
<path d="M363.566 414.457L364.357 425.071C364.516 426.021 363.723 426.814 362.615 426.814H332.674C331.883 426.814 329.98 423.646 332.992 422.694C336.953 421.429 341.228 420.635 344.396 419.369C348.357 417.785 351.524 414.457 351.524 414.457H363.566Z" fill="#231F20"/>
<path d="M362.613 428.557H332.673C331.247 428.557 330.139 426.814 329.822 425.387C329.504 423.487 330.454 421.903 332.514 421.269C334.257 420.635 336 420.32 337.742 419.843C339.959 419.21 342.178 418.735 343.762 417.943C347.404 416.359 350.414 413.348 350.414 413.348L350.891 412.874H364.988L365.94 424.913C366.097 425.704 365.78 426.655 365.148 427.29C364.514 428.081 363.563 428.557 362.613 428.557ZM333.147 425.387H362.613C362.771 425.387 362.771 425.387 362.771 425.387L362.139 416.199H352.317C351.208 417.151 348.356 419.526 345.187 420.952C343.286 421.746 341.069 422.379 338.692 422.854C336.949 423.329 335.207 423.804 333.623 424.278C333.464 424.278 333.147 424.438 333.147 424.596C332.83 424.756 332.99 425.073 333.147 425.387Z" fill="#231F20"/>
<path d="M431.366 427.449H441.98C442.929 427.29 443.721 428.083 443.721 429.191V459.132C443.721 459.923 440.554 461.826 439.603 458.814C438.336 454.856 437.543 450.578 436.276 447.41C434.692 443.449 431.366 440.28 431.366 440.28V427.449Z" fill="#231F20"/>
<path d="M441.503 462.141C439.92 462.141 438.652 461.191 438.019 459.448C437.385 457.705 437.068 455.964 436.593 454.221C435.959 452.003 435.485 449.786 434.692 448.201C433.267 444.557 430.098 441.548 430.098 441.548L429.624 441.073V426.023H441.663C442.454 425.864 443.406 426.181 444.038 426.815C444.83 427.448 445.147 428.4 445.147 429.351V459.291C445.147 460.717 443.406 461.825 441.98 462.141C441.98 462.141 441.663 462.141 441.503 462.141ZM432.949 439.647C433.899 440.756 436.276 443.608 437.702 446.775C438.495 448.678 439.127 450.895 439.603 453.27C440.077 455.013 440.394 456.756 441.029 458.34C441.029 458.497 441.189 458.814 441.346 458.814C441.503 458.814 441.82 458.657 442.137 458.657V429.191C442.137 429.034 442.137 429.034 442.137 429.034H441.98H432.949V439.647Z" fill="#231F20"/>
<path d="M424.554 450.261L422.811 450.101C422.494 450.101 416.633 449.626 401.742 442.656C386.85 435.686 366.258 415.408 362.931 409.704L365.623 408.122C368.792 413.508 388.911 433.309 403.01 439.804C412.989 444.4 418.693 446.142 421.228 446.617V426.814H424.395V450.261H424.554Z" fill="#231F20"/>
<path d="M398.731 368.517H392.712V365.35H395.88L396.831 356.479C394.296 356.162 389.385 355.528 386.375 355.371L386.535 352.201C390.81 352.518 398.574 353.468 398.89 353.626L400.475 353.785L398.731 368.517Z" fill="#231F20"/>
<path d="M206.415 380.875H174.099L172.989 370.893L176.158 370.419L176.95 377.707H203.722L204.831 370.578L207.999 371.053L206.415 380.875Z" fill="#231F20"/>
<path d="M183.92 535.489H156.674L156.832 533.746C156.832 532.955 162.06 459.131 162.06 435.528C162.06 415.727 166.022 397.191 173.941 378.658L174.415 377.707H206.417L206.734 378.973C206.892 379.607 220.674 444.717 222.099 451.21C227.01 472.28 243.96 531.686 244.277 532.162L244.912 534.22H213.386L212.912 533.272C212.753 532.795 208.001 523.45 206.417 516.003C205.784 513.311 205.784 511.092 205.941 508.875C205.941 504.756 205.941 500.955 202.455 494.775C200.554 491.45 200.871 486.697 201.188 482.419C201.347 480.361 201.506 478.301 201.188 477.192C199.289 469.113 195.645 462.458 193.426 459.131C192.476 463.567 191.366 468.953 190.101 474.657C186.931 489.388 183.289 506.023 183.289 510.301C183.289 518.22 184.08 533.429 184.08 533.589L183.92 535.489ZM160.158 532.32H180.753C180.596 528.202 180.119 516.955 180.119 510.459C180.119 505.707 183.604 489.706 187.09 474.023C189.624 462.141 192.159 451.053 192.476 447.409C193.109 439.173 193.585 419.212 193.585 419.052H196.753C196.753 419.845 196.436 439.33 195.645 447.566C195.485 448.994 195.01 451.688 194.376 454.856H194.536C194.853 455.172 201.664 464.201 204.358 476.4C204.672 477.824 204.515 480.044 204.358 482.576C204.041 486.222 203.881 490.816 205.149 493.192C209.111 500.162 209.111 504.597 209.111 508.875C209.111 510.934 209.111 512.994 209.585 515.37C210.853 521.231 214.179 528.519 215.289 531.053H240.633C237.624 520.439 223.366 470.854 219.09 451.845C217.664 445.667 205.784 389.905 203.881 380.717H176.635C169.031 398.459 165.387 416.361 165.387 435.369C165.227 457.231 160.952 521.073 160.158 532.32Z" fill="#231F20"/>
<path d="M260.12 554.498H225.902C224.95 554.498 224 554.024 223.368 553.39C222.575 552.598 222.258 551.488 222.258 550.221L219.724 531.846H236.041L239.999 537.23C240.476 537.707 243.169 539.924 246.971 542.142C250.455 544.202 258.693 546.895 261.228 547.686C262.654 548.163 263.445 549.429 263.445 551.013C263.287 552.755 261.861 554.498 260.12 554.498ZM223.208 534.854L225.267 549.904V550.063C225.267 550.539 225.427 550.854 225.585 551.013L225.743 551.171H259.96C259.96 551.171 259.96 551.013 259.96 550.854C259.96 550.539 259.803 550.539 259.803 550.38C256.633 549.429 248.712 546.736 245.068 544.676C240.476 542.142 237.466 539.29 237.466 539.29L237.308 539.132L234.298 535.013H223.208V534.854Z" fill="#231F20"/>
<path d="M198.97 554.498H164.751C163.8 554.498 162.85 554.021 162.217 553.389C161.425 552.439 161.107 551.329 161.107 550.063L162.059 532.478H178.692L179.009 537.547C179.96 538.338 182.336 540.241 185.504 542.141C188.988 544.199 197.227 546.893 199.761 547.686C201.187 548.16 201.979 549.429 201.979 551.012C202.138 552.754 200.712 554.498 198.97 554.498ZM165.069 535.489L164.277 550.22C164.277 550.694 164.434 551.012 164.594 551.172L164.751 551.329H198.97C198.97 551.329 198.97 551.172 198.97 551.012C198.97 550.694 198.81 550.694 198.81 550.537C195.643 549.586 187.722 546.893 184.078 544.834C179.483 542.3 176.473 539.447 176.473 539.447L175.999 538.973L175.842 535.646H165.069V535.489Z" fill="#231F20"/>
<path d="M232.871 358.38C230.654 358.38 228.594 357.746 226.693 356.479L210.853 345.864L212.594 343.172L228.435 353.785C231.288 355.686 235.246 355.528 237.782 353.311L266.138 329.866L261.545 321.626L231.605 342.696L230.654 341.588C222.099 331.766 208.317 316.715 205.149 314.974C203.565 314.023 198.811 313.071 197.227 312.914L197.702 309.745C198.336 309.905 204.197 310.855 206.731 312.122C211.01 314.497 227.644 333.191 232.238 338.419L262.654 317.033L270.099 330.816L239.841 355.845C237.782 357.588 235.406 358.38 232.871 358.38Z" fill="#231F20"/>
<path d="M209.425 372.32H170.774L170.457 371.053C170.457 371.053 168.871 364.398 167.13 355.845L170.297 355.211C171.722 361.547 172.832 366.775 173.306 369.151H206.258L207.049 351.727L207.209 351.409C208.001 349.507 210.219 344.123 210.536 342.379C211.802 335.727 207.366 329.389 207.366 329.231L209.902 327.489C210.059 327.806 215.128 335.092 213.703 343.013C213.227 345.389 210.85 351.092 210.219 352.518L209.425 372.32Z" fill="#231F20"/>
<path d="M188.989 320.835C184.237 320.835 176.792 316.083 176.159 311.647V311.487L177.902 292.953L181.07 293.27L179.485 311.33C180.119 314.023 185.823 317.667 189.149 317.667C190.258 317.667 195.485 317.35 196.279 312.439L193.109 311.647L192.633 300.557L195.802 300.4L196.279 309.11L199.606 309.904V311.172C199.289 317.984 194.059 320.835 188.989 320.835Z" fill="#231F20"/>
<path d="M192 302.141C185.348 302.141 181.07 298.181 178.851 290.103C176.951 282.814 177.426 275.686 177.426 275.369L177.584 273.943L199.762 272.676L200.079 274.1C200.079 274.418 201.348 281.073 201.348 285.667C201.505 295.804 199.288 301.191 194.853 301.984C193.743 302.141 192.791 302.141 192 302.141ZM180.595 277.112C180.595 279.487 180.595 284.4 181.861 289.469C184.396 299.131 189.783 299.608 194.218 298.974C196.752 298.657 198.178 293.744 198.02 285.825C198.02 282.657 197.387 278.221 197.07 276.162L180.595 277.112Z" fill="#231F20"/>
<path d="M156.199 400.518L154.931 400.359C154.774 400.359 152.871 400.042 150.339 399.408C147.486 398.617 142.733 394.338 142.258 393.706L141.625 393.073L141.782 392.121C142.416 389.429 156.674 324.796 162.693 315.607C165.861 310.696 173.624 310.062 177.426 309.587L177.902 312.756C174.732 313.071 167.604 313.706 165.387 317.35C160.952 324.162 150.339 368.676 145.109 391.963C147.01 393.547 149.704 395.924 151.13 396.241C152.238 396.558 153.348 396.715 153.98 396.874L172.041 339.845L175.049 340.796L156.199 400.518Z" fill="#231F20"/>
<path d="M431.364 438.696H422.969V441.864H431.364V438.696Z" fill="#231F20"/>
<path d="M458.138 428.557V425.39C459.565 425.39 463.841 418.735 463.841 409.073H467.008C467.008 419.052 462.733 428.557 458.138 428.557Z" fill="#231F20"/>
<path d="M628.594 -4.23511L652.991 0.834435C656.317 1.46824 658.376 4.95292 657.426 8.1225L655.523 15.4091C654.732 18.4189 651.565 20.3201 648.554 19.6873L625.743 14.6178C622.89 13.9836 620.991 11.4481 621.148 8.43948L621.625 1.15127C621.625 -2.33342 624.95 -4.86891 628.594 -4.23511Z" fill="#231F20"/>
<path d="M62.5742 184.123L78.5742 178.893C84.2766 176.994 90.4546 180.796 91.2459 186.815V187.29C91.8802 192.042 89.029 196.637 84.4351 197.903L68.4351 202.655C63.6827 204.081 58.4546 201.547 56.5533 196.953C54.4935 191.885 57.1875 186.023 62.5742 184.123Z" fill="#231F20"/>
<path d="M364.038 410.656C370.692 416.676 378.295 407.33 384.315 413.35C391.918 420.795 409.028 424.756 409.028 424.756L380.514 392.28C380.514 392.28 371.483 393.39 366.096 395.924L364.038 410.656Z" fill="#231F20"/>
<path d="M194.852 419.21C199.603 433.309 198.494 442.023 204.988 449.943C211.483 457.864 210.535 477.665 212.117 484.636C213.702 491.605 216.553 492.083 218.138 496.518C219.723 500.953 218.613 516.002 220.197 521.388C221.782 526.775 227.326 532.795 227.326 532.795H214.019C214.019 532.795 208.158 519.963 207.682 515.845C207.208 511.727 207.841 505.863 206.574 502.062C205.305 498.259 202.93 494.458 202.456 491.765C202.138 489.071 203.722 482.261 202.295 477.032C200.87 471.804 192.316 454.696 192.316 454.696L194.852 419.21Z" fill="#231F20"/>
<path d="M144.792 415.725C144.318 415.725 143.683 415.568 143.366 415.251C141.308 413.665 140.356 409.23 142.733 393.388L145.9 393.864C144.159 405.903 144.475 410.338 144.952 411.924C145.426 410.973 145.9 409.23 146.217 408.439C147.01 405.903 147.327 404.795 148.277 404.32C148.753 404.003 149.227 404.003 149.704 404.16C150.178 404.32 150.653 404.795 150.97 405.269C151.287 403.528 151.764 400.833 152.08 398.617L155.248 398.934C154.774 403.052 153.979 408.28 152.712 409.547C152.238 410.021 151.604 410.338 150.813 410.181C150.021 410.021 149.544 409.547 149.227 409.073C149.227 409.23 149.227 409.23 149.07 409.39C147.96 413.032 147.169 415.251 145.426 415.725C145.269 415.725 145.109 415.725 144.792 415.725Z" fill="#231F20"/>
<path d="M266.616 330.499L260.595 319.409L260.752 318.775C263.604 309.745 265.821 309.745 266.456 309.745C268.04 309.745 268.515 311.33 269.148 314.34C269.308 315.131 269.624 316.241 269.783 317.033C272.792 317.033 276.438 317.033 279.129 317.033C280.873 317.033 282.299 317.033 283.09 317.033C284.674 317.033 284.991 318.141 284.991 318.458C285.308 319.727 285.625 320.835 267.881 329.866L266.616 330.499ZM263.922 319.092L267.881 326.222C272.001 324.162 276.278 321.785 279.129 320.201C276.12 320.201 272.159 320.044 268.991 320.201C267.247 320.361 266.773 318.301 265.981 314.974C265.981 314.814 265.821 314.497 265.821 314.183C265.347 315.607 264.556 317.35 263.922 319.092Z" fill="#231F20"/>
<path d="M98.3754 194.576C86.1793 173.191 83.0096 154.183 61.3058 156.241C35.961 158.775 29.4658 187.448 24.3963 196.795C20.2781 204.558 13.4658 218.181 13.4658 218.181C21.5437 224.042 34.3754 229.903 51.961 230.22L53.5437 210.893L56.2363 211.528C52.4352 204.558 50.0583 194.736 48.4756 183.806L80.6327 171.131C80.6327 171.131 91.246 216.28 77.6229 220.715V227.211C78.4157 227.052 79.2071 226.895 79.9984 226.578C103.603 220.398 105.346 208.677 105.346 208.677C105.346 208.677 102.811 202.181 98.3754 194.576Z" fill="#231F20"/>
<path d="M189.305 263.17C169.03 261.27 161.107 298.34 161.107 298.34C165.069 300.4 171.405 301.825 178.374 302.3L179.167 293.112L181.543 293.428C181.069 292.319 180.594 291.052 180.277 289.626C178.374 282.499 179.009 275.369 179.009 275.369L198.336 274.261C198.336 274.261 199.444 281.073 199.604 285.667C199.761 292.795 198.494 299.766 194.374 300.4C194.217 300.4 194.057 300.4 193.742 300.557L193.9 302.3C200.078 301.667 206.099 300.557 211.326 298.657C208.316 287.727 202.454 264.439 189.305 263.17Z" fill="#231F20"/>
</g>
<defs>
<clipPath id="clip0_104_1607">
<rect width="800" height="600" fill="white"/>
</clipPath>
</defs>
</svg>
