<svg width="800" height="600" viewBox="0 0 800 600" fill="none" xmlns="http://www.w3.org/2000/svg">
<path d="M727.237 363.236C704.879 337.775 683.166 331.701 662.1 325.885C650.468 322.654 638.578 319.423 626.947 312.832C612.859 304.948 610.275 298.098 607.302 290.215C606.397 287.888 605.493 285.562 604.2 282.977L606.527 281.814C607.819 284.528 608.724 286.984 609.628 289.31C612.601 297.064 614.927 303.139 628.11 310.635C639.483 317.097 650.727 320.198 662.746 323.429C684.2 329.375 706.3 335.449 729.047 361.555L727.237 363.236Z" fill="#231F20"/>
<path d="M23.6522 475.029H21.0674C21.0674 423.85 35.2839 309.601 88.4018 206.079C117.352 149.73 153.798 105.142 196.447 73.6074C247.368 35.9984 307.594 17 375.445 17C418.87 17 458.289 29.5363 489.436 53.3166C517.352 74.6413 538.289 104.108 549.92 138.615L547.465 139.391C527.949 81.4911 472.634 19.5848 375.445 19.5848C219.84 19.5848 134.67 121.685 90.7281 207.372C37.8687 310.376 23.6522 424.108 23.6522 475.029Z" fill="#231F20"/>
<path d="M305.913 202.848H246.462V200.263H305.913C308.368 200.263 310.824 198.583 312.633 195.352C316.769 188.244 316.769 176.742 312.633 169.633C310.824 166.402 308.368 164.593 305.913 164.593H246.462V162.008H305.913C309.402 162.008 312.504 164.205 314.83 168.341C319.354 176.225 319.354 188.89 314.83 196.645C312.504 200.651 309.402 202.848 305.913 202.848Z" fill="#231F20"/>
<path d="M246.463 202.848C242.973 202.848 239.872 200.651 237.416 196.515C232.893 188.632 232.893 175.966 237.416 168.212C239.742 164.205 242.844 162.008 246.334 162.008C249.823 162.008 252.925 164.205 255.38 168.341C259.904 176.225 259.904 188.89 255.38 196.645C253.054 200.651 249.823 202.848 246.463 202.848ZM246.334 164.593C243.878 164.593 241.552 166.402 239.613 169.504C235.477 176.612 235.477 188.115 239.613 195.223C241.422 198.454 243.878 200.263 246.334 200.263C248.789 200.263 251.116 198.454 253.054 195.352C257.19 188.244 257.19 176.742 253.054 169.633C251.245 166.273 248.918 164.593 246.334 164.593Z" fill="#231F20"/>
<path d="M316.898 182.428H257.447C257.447 182.428 256.543 189.666 256.026 191.992C254.863 196.903 249.435 200.91 249.435 200.91L308.239 201.685C308.239 201.685 314.313 194.448 315.477 192.121C316.64 189.795 316.898 182.428 316.898 182.428Z" fill="#231F20"/>
<path d="M469.532 173.123H466.948V79.4232H284.072V163.3H281.487V76.8384H469.532V173.123Z" fill="#231F20"/>
<path d="M469.532 412.089H281.487V202.331H284.072V409.504H466.948V356.903H469.532V412.089Z" fill="#231F20"/>
<path d="M455.056 398.001H295.961V201.426H298.546V395.417H452.471V356.903H455.056V398.001Z" fill="#231F20"/>
<path d="M455.056 173.123H452.471V93.5106H390.048L375.444 108.115L360.969 93.5106H298.546V163.301H295.961V90.9258H362.003L375.444 104.367L389.014 90.9258H455.056V173.123Z" fill="#231F20"/>
<path d="M375.444 95.5786C372.989 95.5786 370.921 93.5107 370.921 91.0552C370.921 88.5996 372.989 86.5317 375.444 86.5317C377.9 86.5317 379.968 88.5996 379.968 91.0552C380.097 93.64 378.029 95.5786 375.444 95.5786ZM375.444 89.1166C374.41 89.1166 373.506 90.0212 373.506 91.0552C373.506 92.0891 374.41 92.9938 375.444 92.9938C376.478 92.9938 377.383 92.0891 377.383 91.0552C377.383 90.0212 376.607 89.1166 375.444 89.1166Z" fill="#231F20"/>
<path d="M514.508 358.196H379.71L441.875 171.831H576.673L576.156 173.511L514.508 358.196ZM383.199 355.611H512.569L572.925 174.415H443.684L383.199 355.611Z" fill="#231F20"/>
<path d="M597.739 308.438H530.146V305.853H595.8L650.986 140.296H532.989L521.875 173.51L519.419 172.735L531.051 137.711H654.605L654.088 139.391L597.739 308.438Z" fill="#231F20"/>
<path d="M685.493 227.016H623.845V224.431H683.554L722.843 106.434H617.254L606.268 139.391L603.812 138.615L615.315 103.85H726.462L685.493 227.016Z" fill="#231F20"/>
<path d="M590.37 453.834H516.315L539.966 382.751H614.021L590.37 453.834ZM519.805 451.249H588.432L610.403 385.336H541.776L519.805 451.249Z" fill="#231F20"/>
<path d="M684.46 225.723L652.796 139.003L623.846 225.723H684.46Z" fill="#231F20"/>
<path d="M547.335 259.326L545.914 258.163C539.452 252.993 535.833 245.368 535.833 237.097C535.833 222.493 547.335 210.602 561.94 210.085H563.749L547.335 259.326ZM538.289 237.226C538.289 244.076 541.132 250.409 546.043 255.061L560.001 213.058C547.723 214.221 538.289 224.56 538.289 237.226Z" fill="#231F20"/>
<path d="M558.32 225.594H557.544L542.294 271.345C553.409 280.263 569.564 278.454 578.352 267.339C587.14 256.224 585.46 240.069 574.346 231.281C569.822 227.533 564.136 225.594 558.32 225.594Z" fill="#231F20"/>
<path d="M475.994 268.115C467.464 268.115 463.07 265.788 458.934 263.462C454.799 261.265 451.051 259.068 443.167 259.068C435.283 259.068 431.406 261.136 427.27 263.462C423.135 265.788 418.74 268.115 410.211 268.115C401.681 268.115 397.287 265.788 393.151 263.462C389.015 261.265 385.267 259.068 377.254 259.068C369.241 259.068 365.493 261.136 361.358 263.462C357.222 265.788 352.828 268.115 344.298 268.115V265.53C352.182 265.53 356.059 263.462 360.194 261.136C364.33 258.809 368.724 256.483 377.254 256.483C385.784 256.483 390.178 258.809 394.314 261.136C398.45 263.333 402.198 265.53 410.211 265.53C418.094 265.53 421.971 263.462 426.107 261.136C430.243 258.809 434.637 256.483 443.167 256.483C451.697 256.483 456.091 258.809 460.227 261.136C464.362 263.333 468.11 265.53 476.123 265.53V268.115H475.994Z" fill="#231F20"/>
<path d="M475.994 288.535C467.464 288.535 463.07 286.079 458.934 283.753C454.799 281.556 451.051 279.359 443.167 279.359C435.283 279.359 431.406 281.556 427.27 283.753C423.135 286.079 418.74 288.535 410.211 288.535C401.681 288.535 397.287 286.079 393.151 283.882C389.015 281.685 385.267 279.488 377.254 279.488C369.241 279.488 365.493 281.685 361.358 283.882C357.222 286.208 352.828 288.535 344.298 288.535V285.95C352.182 285.95 356.059 283.753 360.194 281.556C364.33 279.229 368.724 276.903 377.254 276.903C385.784 276.903 390.178 279.359 394.314 281.556C398.45 283.753 402.198 285.95 410.211 285.95C418.094 285.95 421.971 283.753 426.107 281.556C430.243 279.229 434.637 276.903 443.167 276.903C451.697 276.903 456.091 279.359 460.227 281.556C464.362 283.753 468.11 285.95 476.123 285.95V288.535H475.994Z" fill="#231F20"/>
<path d="M530.146 307.145C522.133 307.016 514.12 309.601 507.658 314.253C498.741 320.716 493.312 332.735 484.395 336.741C468.24 343.979 441.487 317.226 418.611 356.903H513.474L530.146 307.145Z" fill="#231F20"/>
<path d="M585.59 453.446C583.263 450.861 584.168 446.984 584.943 443.494C585.848 439.617 585.977 437.678 584.426 437.161C582.1 436.386 578.74 438.971 576.026 440.909C572.924 443.236 570.21 445.174 568.142 443.623C566.203 442.073 567.625 438.712 569.564 433.93C571.115 430.053 573.182 424.884 572.148 422.686C571.89 422.299 571.632 422.04 571.115 421.782C568.4 420.877 563.231 425.53 559.224 429.278C554.959 433.155 551.211 436.515 548.239 436.386C547.205 436.386 546.43 435.869 545.783 435.094C543.069 431.863 547.593 423.72 555.347 410.409C559.354 403.688 565.299 393.478 564.265 391.798C558.966 387.404 540.743 406.661 531.05 417.129L529.111 415.32C548.239 394.9 559.871 384.819 565.945 389.859C568.788 392.186 565.04 399.035 557.544 411.701C553.15 419.068 545.913 431.346 547.593 433.284C547.851 433.543 547.98 433.672 548.239 433.672C550.178 433.801 554.055 430.312 557.415 427.21C562.455 422.557 567.625 417.905 571.89 419.197C573.053 419.585 573.958 420.36 574.475 421.394C575.896 424.496 573.958 429.665 571.89 434.706C570.985 437.032 569.564 440.522 569.822 441.426C570.468 441.556 573.182 439.617 574.475 438.712C577.835 436.127 581.712 433.284 585.331 434.577C589.208 435.998 588.304 440.134 587.528 443.882C586.882 446.854 586.236 449.956 587.657 451.507L585.59 453.446Z" fill="#231F20"/>
<path d="M122.004 450.861L78.9668 418.68L128.983 338.938L171.503 348.373L122.004 450.861ZM82.4563 418.034L121.099 446.854L167.755 350.182L130.275 341.782L82.4563 418.034Z" fill="#231F20"/>
<path d="M148.111 344.496C136.609 354.576 147.594 362.977 142.425 376.547C137.126 390.764 119.937 391.668 110.89 407.177C105.979 416.095 103.782 426.176 104.686 436.256L121.488 448.793L169.565 349.278L148.111 344.496Z" fill="#231F20"/>
<path d="M188.562 354.706L106.494 335.708L115.283 297.323L117.867 297.969L109.596 333.769L186.753 351.604L199.16 297.969L134.669 283.107L135.186 280.522L202.261 296.031L188.562 354.706Z" fill="#231F20"/>
<path d="M138.158 327.565L137.512 326.661C137.254 326.273 109.079 290.086 106.624 286.725C104.168 283.365 103.134 279.1 103.909 274.835C104.814 270.053 107.528 265.918 111.535 263.333C121.228 257.129 138.158 247.048 153.667 238.131L154.96 240.328C139.451 249.246 122.52 259.326 112.956 265.53C109.596 267.727 107.27 271.346 106.494 275.352C105.848 278.971 106.624 282.59 108.691 285.304C111.018 288.405 134.539 318.777 138.934 324.334L152.375 316.58C150.824 314.9 147.981 311.669 146.171 309.601C143.716 306.628 134.281 286.984 133.247 284.787L133.118 284.528V284.27C133.118 282.202 134.152 278.195 138.158 277.549L138.546 280.134C136.09 280.522 135.703 283.107 135.703 284.011C138.675 290.215 146.3 305.724 148.11 308.05C150.436 310.893 155.218 316.063 155.218 316.192L156.252 317.355L138.158 327.565Z" fill="#231F20"/>
<path d="M193.862 327.953L193.733 325.369L203.296 324.722C202.779 315.805 199.161 263.85 192.569 253.123C187.141 244.076 177.707 238.002 167.238 236.839L167.497 234.254C178.741 235.546 188.951 242.138 194.767 251.831C202.392 264.109 205.752 323.43 206.01 325.886L206.14 327.178L193.862 327.953Z" fill="#231F20"/>
<path d="M156.124 236.45C156.124 236.45 144.492 227.145 135.445 227.404C124.977 227.662 121.746 232.832 107.788 231.022C93.8299 229.213 96.9317 217.581 88.6602 209.956C82.069 203.882 74.4438 206.079 63.7168 215.643V239.035C81.2935 236.58 83.3614 251.313 96.6732 254.027C109.985 256.741 123.297 245.885 133.378 251.184" fill="#231F20"/>
<path d="M171.245 266.693C169.824 266.693 168.143 266.047 166.334 264.625C160.26 260.231 152.635 248.599 151.73 239.94L151.601 239.036L152.376 238.648C153.281 238.26 154.444 237.226 154.573 236.58C153.798 233.22 152.893 229.859 151.73 226.628L154.185 225.853C155.349 229.213 156.253 232.703 157.029 236.192V236.322C157.158 238.26 155.349 239.811 154.315 240.457C155.478 248.341 162.328 258.68 167.756 262.557C169.307 263.721 170.599 264.238 171.504 263.979C172.667 263.721 173.571 263.074 174.218 261.911C176.156 258.551 176.027 251.83 173.701 244.722C172.667 240.974 170.082 238.002 166.722 236.58L166.205 236.322L164.783 230.764L167.239 230.118L168.402 234.383C172.279 236.322 175.122 239.682 176.286 243.947C178.224 250.021 179.258 258.422 176.544 263.074C175.51 264.884 173.959 265.918 172.15 266.305C171.891 266.693 171.633 266.693 171.245 266.693Z" fill="#231F20"/>
<path d="M163.231 231.798C162.714 231.798 162.068 231.798 161.551 231.669C154.572 230.506 145.654 222.234 140.872 214.997L143.069 213.575C147.593 220.425 155.864 228.179 161.938 229.084C163.877 229.343 165.299 229.084 166.591 228.05C167.237 227.533 167.496 226.887 167.625 225.982C168.013 220.296 157.803 208.793 153.925 204.916L155.735 203.107C157.286 204.658 170.727 218.357 170.21 226.241C170.08 227.921 169.434 229.213 168.142 230.118C166.72 231.281 165.169 231.798 163.231 231.798Z" fill="#231F20"/>
<path d="M131.568 219.52C129.888 219.52 128.337 219.003 127.303 217.711C123.943 213.446 126.786 207.372 135.704 199.746L137.384 201.685C132.085 206.208 126.399 212.412 129.371 216.031C130.534 217.452 134.411 218.357 147.594 208.922C152.764 205.174 158.45 198.454 158.709 194.189C158.709 193.155 158.579 192.509 157.933 191.992C155.995 190.183 150.696 191.992 143.588 196.903L142.166 194.835C150.825 188.89 156.77 187.339 159.743 190.183C160.906 191.216 161.423 192.767 161.294 194.448C160.906 200.134 153.927 207.63 149.016 211.12C143.588 214.997 136.609 219.52 131.568 219.52Z" fill="#231F20"/>
<path d="M138.675 204.269C137.383 202.848 133.247 197.678 133.764 193.93C133.893 192.767 134.54 191.733 135.574 191.216C136.349 190.699 137.383 190.57 138.288 190.828C142.165 191.733 146.301 198.324 146.817 198.971L144.62 200.392C143.07 197.937 139.838 193.801 137.641 193.413C137.254 193.284 136.995 193.413 136.866 193.543C136.478 193.801 136.349 194.059 136.22 194.447C135.961 196.386 138.288 200.134 140.485 202.719L138.675 204.269Z" fill="#231F20"/>
<path d="M157.804 335.061C157.028 335.061 156.253 334.932 155.348 334.803C150.566 333.769 145.138 329.116 142.295 323.817L144.621 322.654C147.077 327.307 151.988 331.443 155.994 332.347C158.062 332.864 158.967 332.477 159.225 332.347C159.355 332.218 159.225 331.96 159.225 331.96C159.096 331.572 158.062 330.409 157.287 329.633C155.736 327.953 153.927 326.014 153.28 324.464C152.893 323.3 153.151 322.396 153.41 321.879C153.927 320.974 154.831 320.586 155.865 320.199C154.961 319.811 153.927 319.294 152.893 318.906L153.797 316.451C160.389 319.035 160.389 319.94 160.259 320.716C160.259 320.974 160.001 321.879 158.838 322.008C158.062 322.137 155.994 322.396 155.607 322.913C155.607 322.913 155.607 323.042 155.607 323.3C155.994 324.334 157.804 326.273 158.967 327.695C160.389 329.245 161.164 330.021 161.423 330.796C161.81 331.83 161.681 332.993 161.035 333.898C160.389 334.674 159.225 335.061 157.804 335.061Z" fill="#231F20"/>
<path d="M186.107 446.725L158.449 370.344L160.905 369.439L187.658 443.365L227.205 427.339L191.018 334.156L193.344 333.252L230.436 428.761L186.107 446.725Z" fill="#231F20"/>
<path d="M195.8 341.265L193.861 339.585C193.861 339.455 200.194 331.96 200.194 326.661H202.779C202.65 332.864 196.058 340.877 195.8 341.265Z" fill="#231F20"/>
<path d="M252.277 473.22H215.702L199.03 440.263L201.357 439.1L217.382 470.764H251.89C252.794 470.376 256.155 468.826 255.638 465.724C255.25 463.785 245.298 460.942 234.313 459.649L233.667 459.52L217.899 432.638L220.096 431.346L235.088 457.065C241.033 457.84 257.189 460.296 258.093 465.207C258.869 469.73 254.733 472.444 252.407 473.22H252.277Z" fill="#231F20"/>
<path d="M124.977 473.349H105.074L84.6537 460.812C79.8718 457.84 78.3209 451.507 81.1642 446.725C88.0139 435.352 92.2789 428.244 92.5374 427.597L93.7005 428.114L94.476 426.951C95.5099 427.727 95.5099 427.727 90.9865 435.352C88.6601 439.229 85.8169 444.011 83.3613 448.017C81.1642 451.636 82.3274 456.418 85.9461 458.615L105.72 470.764H122.004C121.487 469.213 120.195 466.499 116.835 464.172C112.44 461.329 104.169 454.609 103.781 454.221L103.006 453.575L110.243 440.392L112.57 441.685L106.366 452.929C108.563 454.738 114.896 459.649 118.385 461.975C124.589 465.982 124.977 471.668 124.977 471.927V473.349Z" fill="#231F20"/>
<path d="M147.334 470.764H89.4346V473.349H147.334V470.764Z" fill="#231F20"/>
<path d="M315.864 470.764H205.363V473.349H315.864V470.764Z" fill="#231F20"/>
<path d="M329.306 470.764H323.878V473.349H329.306V470.764Z" fill="#231F20"/>
<path d="M364.329 473.349H349.079C345.202 472.702 343.392 469.084 341.325 464.948C338.869 459.908 336.026 454.221 328.788 451.249C321.163 448.147 312.375 452.412 303.845 456.677C294.927 461.071 285.751 465.723 277.48 461.975C270.371 458.744 269.725 451.378 269.079 443.623C268.433 435.869 267.657 426.951 260.291 420.748C249.951 412.089 230.307 419.455 211.308 426.564C193.344 433.284 176.413 439.617 166.591 433.155C158.837 427.856 158.449 418.551 158.061 408.599C157.803 399.94 157.415 390.893 152.504 383.139L154.701 381.717C160 390.118 160.388 399.811 160.775 408.47C161.163 418.163 161.422 426.434 168.142 430.958C176.801 436.774 193.215 430.699 210.533 424.108C230.178 416.741 250.598 409.116 262.1 418.68C270.371 425.53 271.147 434.964 271.793 443.365C272.439 450.99 272.956 457.064 278.643 459.649C285.88 462.88 294.022 458.744 302.811 454.48C311.858 449.956 321.163 445.303 329.822 448.922C337.964 452.282 341.066 458.615 343.651 463.785C345.46 467.404 346.882 470.247 349.337 470.764H364.329V473.349Z" fill="#231F20"/>
<path d="M2.1971 472.702L0 471.281C5.94507 462.363 62.294 390.635 108.691 371.636L109.725 374.092C66.8174 391.669 10.9855 459.52 2.1971 472.702Z" fill="#231F20"/>
<path d="M623.716 514.706L594.637 504.108L595.024 502.945C596.446 498.551 630.436 396.58 653.441 394.641C658.869 394.124 662.747 395.675 666.882 400.069L665.073 401.879C661.454 398.002 658.482 396.838 653.7 397.226C636.252 398.777 607.949 472.703 597.868 502.687L622.423 511.604C634.055 489.116 650.986 455.643 651.503 452.412C651.89 448.664 651.89 444.787 651.503 441.039L654.087 440.78C654.604 444.787 654.604 448.922 654.087 452.929C653.312 457.582 627.205 508.115 624.233 513.93L623.716 514.706Z" fill="#231F20"/>
<path d="M726.075 392.703C725.946 392.703 725.816 392.703 725.687 392.703C724.265 392.574 723.231 391.927 722.456 390.764C718.708 385.336 724.265 368.793 730.857 351.863L733.312 352.767C729.694 362.202 721.164 384.173 724.653 389.343C725.041 389.86 725.429 390.118 725.946 390.118C729.306 390.377 736.156 384.819 739.645 381.2L741.454 383.01C740.42 384.044 731.761 392.703 726.075 392.703Z" fill="#231F20"/>
<path d="M738.433 384.987L735.947 385.695L741.934 406.701L744.42 405.992L738.433 384.987Z" fill="#231F20"/>
<path d="M752.768 375.649L750.309 376.444L757.546 398.825L760.006 398.03L752.768 375.649Z" fill="#231F20"/>
<path d="M730.081 355.093C726.074 346.434 726.203 336.095 728.788 335.319C731.373 334.544 734.604 343.591 736.543 348.89C738.481 335.061 740.161 334.415 742.359 335.966C744.556 337.517 743.78 351.087 743.522 351.475C743.263 351.862 746.365 343.462 749.338 344.625C752.31 345.788 749.596 354.059 749.338 354.706C754.766 350.828 756.833 358.583 756.704 361.555C756.575 364.528 753.861 369.051 753.086 370.214C752.31 371.378 752.181 378.486 752.181 378.486L745.46 377.194C745.46 377.194 748.95 373.058 747.528 369.568C745.977 365.691 741.842 367.759 741.842 367.759L730.081 355.093Z" fill="#231F20"/>
<path d="M714.96 489.375C711.859 489.375 708.886 488.082 706.301 485.368C698.805 478.001 678.127 438.066 677.222 436.386L676.705 435.352L691.697 425.659L713.797 452.412C718.967 441.426 736.673 412.864 743.135 405.497C748.951 398.906 755.413 399.682 759.678 402.525C764.46 405.885 767.691 413.123 764.589 418.938C761.358 424.883 734.088 472.703 727.884 481.62C725.687 484.851 721.164 488.858 716.123 489.245C715.607 489.375 715.348 489.375 714.96 489.375ZM679.936 436.257C683.296 442.719 701.39 477.097 707.981 483.559C710.437 485.885 713.022 487.048 715.736 486.79C720.259 486.402 724.007 482.525 725.558 480.198C731.762 471.281 758.902 423.72 762.133 417.775C764.589 413.123 762.004 407.307 757.997 404.722C753.732 401.749 748.821 402.783 744.944 407.307C738.353 414.932 718.579 446.984 715.219 455.513L714.443 457.581L691.051 429.278L679.936 436.257Z" fill="#231F20"/>
<path d="M717.932 531.766C682.133 531.766 659.645 473.737 652.278 454.48L651.632 452.929L654.087 452.024L654.734 453.575C661.971 472.315 683.942 529.181 718.062 529.181C718.191 529.181 718.32 529.181 718.449 529.181C740.808 528.922 754.507 514.189 758.126 486.531L758.255 486.014C758.385 484.851 758.772 482.396 759.289 479.035C761.745 462.363 768.336 418.034 767.044 410.926C766.01 406.273 763.037 402.267 758.902 399.94C757.868 400.328 755.412 401.362 752.31 402.784L751.276 400.457C755.541 398.389 758.514 397.355 758.643 397.355L759.16 397.097L759.677 397.355C764.847 399.94 768.465 404.722 769.758 410.409C771.179 417.905 764.717 460.942 762.003 479.423C761.486 482.783 761.099 485.239 760.969 486.402L760.84 486.919C756.058 523.753 735.251 531.636 718.578 531.895C718.191 531.766 718.062 531.766 717.932 531.766Z" fill="#231F20"/>
<path d="M675.282 464.56L653.312 403.817L709.144 384.948L727.625 431.863L725.299 432.767L707.722 388.179L656.672 405.368L676.833 461.329L689.499 456.418L690.533 458.745L675.282 464.56Z" fill="#231F20"/>
<path d="M717.723 486.723L716.282 488.869L751.042 512.214L752.483 510.067L717.723 486.723Z" fill="#231F20"/>
<path d="M678.514 435.74C678.255 435.352 671.664 425.659 673.344 419.456C673.861 417.517 675.024 416.225 676.834 415.32C678.126 414.674 679.548 414.674 680.969 415.191C686.397 417.129 691.05 427.21 691.309 427.598L688.982 428.632C687.819 426.047 683.813 418.939 680.065 417.517C679.289 417.259 678.514 417.259 677.868 417.517C676.834 418.034 676.058 418.809 675.8 419.973C674.637 424.108 678.901 431.604 680.582 434.06L678.514 435.74Z" fill="#231F20"/>
<path d="M800 525.821H740.161V523.236H797.415V412.089L768.077 411.96V409.375L800 409.504V525.821Z" fill="#231F20"/>
<path d="M761.875 469.472C767.174 492.606 774.928 482.396 779.84 489.116C785.009 496.224 777.126 505.401 779.71 513.155C781.907 519.617 791.084 524.657 791.084 524.657H740.292C747.271 519.1 752.57 511.733 755.542 503.333C760.454 488.729 761.875 469.472 761.875 469.472Z" fill="#231F20"/>
<path d="M620.356 523.236H468.24V525.82H620.356V523.236Z" fill="#231F20"/>
<path d="M77.8046 352.38C73.4104 352.38 69.9209 348.89 69.9209 344.496C69.9209 340.102 73.4104 336.612 77.8046 336.612C82.1988 336.612 85.6883 340.102 85.6883 344.496C85.6883 348.89 82.1988 352.38 77.8046 352.38ZM77.8046 339.197C74.8321 339.197 72.5057 341.523 72.5057 344.496C72.5057 347.469 74.8321 349.795 77.8046 349.795C80.7771 349.795 83.1034 347.469 83.1034 344.496C83.1034 341.523 80.7771 339.197 77.8046 339.197Z" fill="#231F20"/>
<path d="M427.4 477.355H379.193V474.77H424.815V469.342H379.193V466.757H427.4V477.355Z" fill="#231F20"/>
<path d="M375.702 478.001C370.921 478.001 363.295 473.349 363.037 473.22L361.228 472.056L363.037 470.893C363.295 470.635 370.921 466.111 375.702 466.111C381.648 466.111 382.294 469.472 382.294 472.056C382.294 474.641 381.648 478.001 375.702 478.001ZM366.268 472.056C368.982 473.478 373.118 475.417 375.702 475.417C379.45 475.417 379.709 474.124 379.709 472.056C379.709 470.118 379.45 468.696 375.702 468.696C373.118 468.696 368.982 470.635 366.268 472.056Z" fill="#231F20"/>
<path d="M387.594 468.05H385.009V475.933H387.594V468.05Z" fill="#231F20"/>
<path d="M702.033 400.807L684.384 419.692L686.272 421.457L703.921 402.573L702.033 400.807Z" fill="#231F20"/>
<path d="M788.369 389.73C784.879 389.73 782.036 386.887 782.036 383.397C782.036 379.908 784.879 377.064 788.369 377.064C791.858 377.064 794.702 379.908 794.702 383.397C794.702 386.887 791.858 389.73 788.369 389.73ZM788.369 379.649C786.301 379.649 784.621 381.329 784.621 383.397C784.621 385.465 786.301 387.145 788.369 387.145C790.437 387.145 792.117 385.465 792.117 383.397C792.117 381.329 790.437 379.649 788.369 379.649Z" fill="#231F20"/>
<path d="M636.769 488.858L635.218 486.79C639.483 483.559 657.318 478.26 663.522 477.097L663.909 479.681C657.318 480.845 640.387 486.144 636.769 488.858Z" fill="#231F20"/>
<path d="M680.97 547.533L679.807 547.016C677.61 546.112 625.526 525.433 619.322 515.74L621.519 514.318C626.172 521.685 663.91 537.84 679.548 544.173L689.5 517.937L691.956 518.842L680.97 547.533Z" fill="#231F20"/>
<path d="M658.224 506.305L657.578 503.85C664.686 501.911 672.57 499.326 673.475 498.68C673.475 498.68 673.345 498.809 673.345 498.938L675.543 500.36C675.155 500.619 674.509 501.652 658.224 506.305Z" fill="#231F20"/>
<path d="M563.877 524.786C562.843 518.712 567.883 517.549 573.57 516.256C574.604 515.998 576.025 515.869 577.576 515.61C584.814 514.576 596.962 512.638 601.098 504.883L603.424 506.046C598.642 514.964 585.718 516.903 577.964 518.066C576.413 518.324 575.121 518.454 574.087 518.712C567.883 520.134 565.686 520.78 566.332 524.269L563.877 524.786Z" fill="#231F20"/>
<path d="M619.158 511.753L614.808 524.197L617.248 525.05L621.598 512.606L619.158 511.753Z" fill="#231F20"/>
<path d="M700.486 583.979L697.901 582.816C695.445 581.782 694.282 578.939 695.057 576.483C696.867 570.797 697.513 564.981 696.738 559.036C695.445 548.955 693.377 547.016 693.377 547.016L692.473 546.499L692.99 545.595L699.969 526.338L702.424 527.243L695.704 545.724C696.738 547.016 698.288 550.506 699.322 558.777C700.098 565.11 699.452 571.314 697.513 577.259C697.125 578.551 697.772 579.973 698.935 580.49L716.899 530.086L719.355 530.991L700.486 583.979Z" fill="#231F20"/>
<path d="M683.861 536.473L682.792 538.826L694.677 544.223L695.746 541.87L683.861 536.473Z" fill="#231F20"/>
</svg>
