<?xml version="1.0" encoding="UTF-8"?>
<svg width="18px" height="18px" viewBox="0 0 18 18" version="1.1" xmlns="http://www.w3.org/2000/svg" xmlns:xlink="http://www.w3.org/1999/xlink">
    <!-- Generator: Sketch 52.6 (67491) - http://www.bohemiancoding.com/sketch -->
    <title>instagram</title>
    <desc>Created with Sketch.</desc>
    <defs>
        <polygon id="path-1" points="0 0.00567857143 17.9943214 0.00567857143 17.9943214 17.9978571 0 17.9978571"></polygon>
    </defs>
    <g id="Page-1" stroke="none" stroke-width="1" fill="none" fill-rule="evenodd">
        <g id="instagram">
            <g id="Group-3">
                <mask id="mask-2" fill="white">
                    <use xlink:href="#path-1"></use>
                </mask>
                <g id="Clip-2"></g>
                <path d="M8.99717857,0.00567857143 C6.55367857,0.00567857143 6.24728571,0.0160357143 5.28764286,0.0598214286 C4.33,0.1035 3.67596429,0.255607143 3.10367857,0.478035714 C2.51203571,0.707928571 2.01028571,1.01557143 1.51007143,1.51575 C1.00989286,2.01596429 0.70225,2.51771429 0.472357143,3.10935714 C0.249928571,3.68164286 0.0978214286,4.33567857 0.0541428571,5.29332143 C0.0103571429,6.25296429 0,6.55935714 0,9.00285714 C0,11.4463214 0.0103571429,11.7527143 0.0541428571,12.7123571 C0.0978214286,13.67 0.249928571,14.3240357 0.472357143,14.8963214 C0.70225,15.4879643 1.00989286,15.9897143 1.51007143,16.4899286 C2.01028571,16.9901071 2.51203571,17.29775 3.10367857,17.5276786 C3.67596429,17.7500714 4.33,17.9021786 5.28764286,17.9458571 C6.24728571,17.9896429 6.55367857,18 8.99717857,18 C11.4406429,18 11.7470357,17.9896429 12.7066786,17.9458571 C13.6643214,17.9021786 14.3183571,17.7500714 14.8906429,17.5276786 C15.4822857,17.29775 15.9840357,16.9901071 16.48425,16.4899286 C16.9844286,15.9897143 17.2920714,15.4879643 17.522,14.8963214 C17.7443929,14.3240357 17.8965,13.67 17.9401786,12.7123571 C17.9839643,11.7527143 17.9943214,11.4463214 17.9943214,9.00285714 C17.9943214,6.55935714 17.9839643,6.25296429 17.9401786,5.29332143 C17.8965,4.33567857 17.7443929,3.68164286 17.522,3.10935714 C17.2920714,2.51771429 16.9844286,2.01596429 16.48425,1.51575 C15.9840357,1.01557143 15.4822857,0.707928571 14.8906429,0.478035714 C14.3183571,0.255607143 13.6643214,0.1035 12.7066786,0.0598214286 C11.7470357,0.0160357143 11.4406429,0.00567857143 8.99717857,0.00567857143 Z M8.99717857,1.62678571 C11.3995,1.62678571 11.6840714,1.63596429 12.6327857,1.67925 C13.51,1.71925 13.9863929,1.86582143 14.3034286,1.98903571 C14.7233929,2.15225 15.0231071,2.34721429 15.3379286,2.66207143 C15.6527857,2.97689286 15.84775,3.27660714 16.0109643,3.69657143 C16.1341786,4.01360714 16.28075,4.49 16.32075,5.36721429 C16.3640357,6.31592857 16.3732143,6.6005 16.3732143,9.00285714 C16.3732143,11.4051786 16.3640357,11.68975 16.32075,12.6384643 C16.28075,13.5156786 16.1341786,13.9920714 16.0109643,14.3091071 C15.84775,14.7290714 15.6527857,15.0287857 15.3379286,15.3436071 C15.0231071,15.6584643 14.7233929,15.8534286 14.3034286,16.0166429 C13.9863929,16.1398571 13.51,16.2864286 12.6327857,16.3264286 C11.6842143,16.3697143 11.3996786,16.3788929 8.99717857,16.3788929 C6.59464286,16.3788929 6.31014286,16.3697143 5.36153571,16.3264286 C4.48432143,16.2864286 4.00792857,16.1398571 3.69089286,16.0166429 C3.27092857,15.8534286 2.97121429,15.6584643 2.65639286,15.3436071 C2.34157143,15.0287857 2.14657143,14.7290714 1.98335714,14.3091071 C1.86014286,13.9920714 1.71357143,13.5156786 1.67357143,12.6384643 C1.63028571,11.68975 1.62110714,11.4051786 1.62110714,9.00285714 C1.62110714,6.6005 1.63028571,6.31592857 1.67357143,5.36721429 C1.71357143,4.49 1.86014286,4.01360714 1.98335714,3.69657143 C2.14657143,3.27660714 2.34153571,2.97689286 2.65639286,2.66207143 C2.97121429,2.34721429 3.27092857,2.15225 3.69089286,1.98903571 C4.00792857,1.86582143 4.48432143,1.71925 5.36153571,1.67925 C6.31025,1.63596429 6.59482143,1.62678571 8.99717857,1.62678571 Z" id="Fill-1" fill="#FFF" mask="url(#mask-2)"></path>
            </g>
            <path d="M8.88313495,12.1517449 C7.20700118,12.1517449 5.8482551,10.7929988 5.8482551,9.11690119 C5.8482551,7.44076741 7.20700118,6.08202134 8.88313495,6.08202134 C10.5592326,6.08202134 11.9179787,7.44076741 11.9179787,9.11690119 C11.9179787,10.7929988 10.5592326,12.1517449 8.88313495,12.1517449 Z M8.88313495,4.44155844 C6.30098976,4.44155844 4.20779221,6.53475599 4.20779221,9.11690119 C4.20779221,11.6990102 6.30098976,13.7922078 8.88313495,13.7922078 C11.465244,13.7922078 13.5584416,11.6990102 13.5584416,9.11690119 C13.5584416,6.53475599 11.465244,4.44155844 8.88313495,4.44155844 Z" id="Fill-4" fill="#FFF"></path>
            <path d="M14.961039,4.09092649 C14.961039,4.67190678 14.4900538,5.14285714 13.9090735,5.14285714 C13.328128,5.14285714 12.8571429,4.67190678 12.8571429,4.09092649 C12.8571429,3.5099462 13.328128,3.03896104 13.9090735,3.03896104 C14.4900538,3.03896104 14.961039,3.5099462 14.961039,4.09092649" id="Fill-5" fill="#FFF"></path>
        </g>
    </g>
</svg>
