<?xml version="1.0" encoding="UTF-8"?>
<svg width="20px" height="20px" viewBox="0 0 20 20" version="1.1" xmlns="http://www.w3.org/2000/svg" xmlns:xlink="http://www.w3.org/1999/xlink">
    <!-- Generator: Sketch 53.2 (72643) - https://sketchapp.com -->
    <title>twitter</title>
    <desc>Created with Sketch.</desc>
    <g id="Scenarios" stroke="none" stroke-width="1" fill="none" fill-rule="evenodd">
        <g id="-g-Exyte_UI" transform="translate(-286.000000, -657.000000)" fill="#FFF">
            <g id="twitter" transform="translate(286.000000, 659.000000)">
                <path d="M13.3633904,0.00355160932 L13.3633904,0 L14.3011722,0 L14.6438233,0.0674805771 C14.8722633,0.111289678 15.0796573,0.168701443 15.2660054,0.239733629 C15.4523715,0.310765816 15.6327142,0.393642619 15.8070334,0.488346282 C15.9813706,0.583049945 16.139477,0.67954717 16.2813526,0.777802442 C16.4220198,0.874885683 16.5482597,0.977882353 16.6600721,1.08679245 C16.7706583,1.19689234 16.9431921,1.22530522 17.1776375,1.17203108 C17.412083,1.11875694 17.6645627,1.04475916 17.9350766,0.950055494 C18.2055906,0.855351831 18.4731109,0.748803552 18.7376014,0.630410655 C19.00211,0.512017758 19.1632281,0.436847947 19.2209378,0.404883463 C19.2774391,0.371746948 19.3075023,0.353988901 19.3111091,0.351609323 L19.3146979,0.346281909 L19.3327322,0.337402886 L19.3507665,0.328523862 L19.3688007,0.319644839 L19.386835,0.310765816 L19.3904418,0.305438402 L19.3958521,0.301886792 L19.4012804,0.298335183 L19.4048693,0.293007769 L19.4229035,0.287680355 L19.4409378,0.284128746 L19.437349,0.310765816 L19.4319206,0.337402886 L19.4229035,0.364039956 L19.4138864,0.390677026 L19.4048693,0.408435072 L19.3958521,0.426193119 L19.386835,0.452830189 C19.3808296,0.470588235 19.3748242,0.494259711 19.3688007,0.523862375 C19.3627953,0.553465039 19.3056808,0.671840178 19.1974752,0.879023307 C19.0892696,1.08620644 18.9540126,1.2963374 18.7917042,1.50943396 C18.6293959,1.72253052 18.4839315,1.88352497 18.3552931,1.99245283 C18.2254463,2.10255272 18.139477,2.17949834 18.097385,2.22330744 C18.0553111,2.26828857 18.00422,2.30971809 17.9440938,2.34761376 L17.8539225,2.40621532 L17.8358882,2.41509434 L17.8178539,2.42397336 L17.8142651,2.42930078 L17.8088368,2.43285239 L17.8034265,2.436404 L17.7998197,2.44173141 L17.7817854,2.45061043 L17.7637511,2.45948946 L17.7601623,2.46481687 L17.754734,2.46836848 L17.7493237,2.47192009 L17.7457169,2.4772475 L17.742128,2.48257492 L17.7366997,2.48612653 L17.7312894,2.48967814 L17.7276826,2.49500555 L17.8178539,2.49500555 L18.3228133,2.38845727 C18.659459,2.31742508 18.981064,2.23160044 19.2876465,2.13096559 L19.7745717,1.97114317 L19.8286745,1.95338513 L19.8557259,1.9445061 L19.8737601,1.93562708 L19.8917944,1.92674806 L19.9098287,1.91786903 L19.9278629,1.90899001 L19.9639315,1.9036626 L20,1.90011099 L20,1.93562708 L19.9909829,1.93917869 L19.9819657,1.9445061 L19.9783769,1.94983352 L19.9729486,1.95338513 L19.9675383,1.95693674 L19.9639315,1.96226415 L19.9603427,1.96759156 L19.9549143,1.97114317 L19.9495041,1.97469478 L19.9458972,1.9800222 L19.9423084,1.98534961 L19.9368801,1.98890122 L19.9278629,2.00665927 L19.9188458,2.02441731 L19.9134355,2.02796892 C19.911037,2.03152053 19.8346979,2.13213762 19.6844004,2.32985572 C19.5341208,2.52874584 19.4529666,2.62936293 19.4409378,2.63174251 C19.428927,2.63529412 19.412083,2.65305216 19.3904418,2.68501665 C19.370009,2.71815316 19.2425609,2.85016648 19.0081154,3.08102109 C18.77367,3.31187569 18.5440577,3.51726526 18.3192245,3.69722531 C18.0932011,3.87835738 17.978972,4.10091898 17.9765735,4.36492786 C17.9729666,4.62774695 17.9591344,4.9249101 17.9350766,5.2563818 C17.911037,5.58787125 17.8659513,5.94598002 17.7998197,6.33074362 C17.733706,6.71550721 17.6315059,7.15057936 17.4932372,7.63596004 C17.3549865,8.12134073 17.1866546,8.59489456 16.9882777,9.05660377 C16.7899008,9.51831299 16.5825068,9.93266149 16.3660956,10.299667 C16.1496844,10.6666726 15.9513075,10.9774384 15.7709648,11.2319645 C15.5906222,11.4864906 15.4072858,11.7262242 15.2209197,11.9511654 C15.0345717,12.1761065 14.798936,12.4294606 14.5139946,12.7112098 C14.2278449,12.9917869 14.07156,13.1456959 14.0451037,13.172919 C14.0174572,13.19897 13.8996393,13.2960533 13.6916141,13.4641509 C13.4848332,13.6334384 13.2623986,13.8027259 13.0243463,13.9720311 C12.7875023,14.1401465 12.5698828,14.2804351 12.3715059,14.3928968 C12.1731289,14.5053585 11.9338864,14.6338024 11.6537421,14.7782464 C11.3748242,14.9238624 11.0730388,15.0588235 10.748422,15.1831299 C10.4238052,15.3074362 10.0811542,15.4228635 9.72046889,15.5294118 C9.35978359,15.63596 9.01112714,15.7188368 8.67448151,15.7780244 C8.33785392,15.837212 7.95612263,15.8875383 7.52930568,15.9289678 L6.88908927,15.991121 L6.88908927,16 L5.71686204,16 L5.71686204,15.991121 L5.56357078,15.982242 C5.46138864,15.9763285 5.37722272,15.9703973 5.31109107,15.9644839 C5.24497746,15.9585705 4.99549143,15.9260022 4.56266907,15.8668147 C4.12984671,15.8076271 3.79020739,15.7484218 3.54373309,15.6892342 C3.29727683,15.6300466 2.93056808,15.5175671 2.44364292,15.3518313 C1.95671776,15.1860954 1.54012624,15.018566 1.19386835,14.8492786 C0.848818756,14.6811632 0.632407574,14.5746149 0.544634806,14.5296337 C0.458070334,14.4858246 0.360685302,14.4313785 0.252479711,14.3662597 L0.0901713255,14.2685905 L0.0865825068,14.263263 L0.081154193,14.2597114 L0.0757439134,14.2561598 L0.0721370604,14.2508324 L0.0541027953,14.2419534 L0.0360685302,14.2330744 L0.0324797115,14.2277469 L0.0270513977,14.2241953 L0.0216411181,14.2206437 L0.0180342651,14.2153163 L0.0144454463,14.2099889 L0.00901713255,14.2064373 L0,14.2064373 L0,14.1709212 L0.0180342651,14.1744728 L0.0360685302,14.1798002 L0.117222723,14.1886792 C0.171325518,14.1945927 0.318611362,14.2034717 0.559062218,14.2153163 C0.799531109,14.2271609 1.05500451,14.2271609 1.32551849,14.2153163 C1.59603246,14.2034717 1.87256988,14.1768346 2.15509468,14.1354051 C2.43763751,14.0939756 2.77127142,14.0229434 3.15599639,13.9223085 C3.5407394,13.8216737 3.894211,13.7021088 4.21642922,13.563596 C4.53743913,13.4239112 4.76586114,13.3197248 4.90173129,13.2510544 C5.03637511,13.1835738 5.24196573,13.0580777 5.51848512,12.8745838 L5.93327322,12.5993341 L5.93688007,12.5940067 L5.94229035,12.590455 L5.94771867,12.5869034 L5.95130748,12.581576 L5.95491434,12.5762486 L5.96032462,12.572697 L5.96575293,12.5691454 L5.96934175,12.563818 L5.98737601,12.5584906 L6.00541028,12.554939 L6.00901713,12.5371809 L6.01442741,12.5194229 L6.01985573,12.5158713 L6.02344454,12.5105438 L5.87917042,12.5016648 C5.78299369,12.4957514 5.68981064,12.4898202 5.59963931,12.4839068 C5.50946799,12.4779933 5.36820559,12.4513563 5.17583408,12.4039956 C4.98348061,12.3566349 4.77608656,12.2856027 4.55365194,12.190899 C4.33123535,12.0961953 4.11482417,11.9837159 3.90441839,11.8534961 C3.69403066,11.7232764 3.54192967,11.6149345 3.44815149,11.5285239 C3.35558161,11.4432675 3.23534716,11.3225305 3.08746619,11.1662597 C2.94079351,11.0088169 2.81334536,10.8472009 2.70513977,10.681465 C2.59693417,10.5157292 2.49354373,10.3245105 2.39496844,10.1078801 L2.24526601,9.78468368 L2.23624887,9.75804661 L2.22723174,9.73140954 L2.22182146,9.7136515 L2.21821461,9.69589345 L2.24526601,9.69944506 L2.2723174,9.70477248 L2.47069432,9.73140954 C2.60295762,9.74916759 2.81035167,9.75508102 3.09287647,9.74916759 C3.3754193,9.74325416 3.57078449,9.73140954 3.67899008,9.7136515 C3.78719567,9.69589345 3.85332732,9.68404883 3.877367,9.67813541 L3.91343553,9.66925638 L3.95852119,9.66037736 L4.00360685,9.65149834 L4.00721371,9.64617092 L4.01262399,9.64261931 L4.0180523,9.6390677 L4.02164112,9.63374029 L3.98557259,9.62486127 L3.94950406,9.61598224 L3.91343553,9.60710322 L3.877367,9.5982242 L3.84129847,9.58934517 C3.81725879,9.58343174 3.77518485,9.57158713 3.71505861,9.55382908 C3.65495041,9.53607103 3.49264202,9.47095228 3.22813345,9.35849057 C2.96364292,9.24602886 2.75323715,9.13651498 2.59693417,9.0299667 C2.44024374,8.92310958 2.2908398,8.80624757 2.1496844,8.68013319 C2.00901713,8.55227525 1.85453562,8.38771143 1.68620379,8.18645949 C1.51788999,7.98520755 1.36761046,7.75138735 1.23534716,7.48501665 C1.10310189,7.21864595 1.00391344,6.96411987 0.937781785,6.72142064 C0.871916064,6.48014904 0.828461021,6.23348102 0.807953111,5.98446171 L0.775473399,5.61154273 L0.793507665,5.61509434 L0.81154193,5.62042175 L0.829576195,5.62930078 L0.84761046,5.6381798 L0.865644725,5.64705882 L0.88367899,5.65593785 L1.1632101,5.78024417 C1.34957619,5.86312098 1.58100992,5.93415316 1.85752931,5.99334073 C2.13406673,6.0525283 2.2993688,6.08509656 2.3534716,6.09100999 L2.43462579,6.09988901 L2.59693417,6.09988901 L2.59334536,6.0945616 L2.58791704,6.09100999 L2.58250676,6.08745838 L2.57889991,6.08213097 L2.57531109,6.07680355 L2.56988278,6.07325194 L2.5644725,6.06970033 L2.56086564,6.06437292 L2.54283138,6.0554939 L2.52479711,6.04661487 L2.5212083,6.04128746 L2.51577998,6.03773585 L2.5103697,6.03418424 L2.50676285,6.02885683 L2.48872858,6.0199778 L2.47069432,6.01109878 L2.4671055,6.00577137 C2.46349865,6.00339179 2.41179441,5.96551387 2.31199279,5.89211987 C2.21339946,5.81753607 2.11000902,5.7210566 2.00180343,5.60266371 C1.89359784,5.48427081 1.78539225,5.35996448 1.67718665,5.22974473 C1.56878184,5.09922661 1.47222811,4.95958538 1.38863841,4.81243063 C1.30449053,4.66445283 1.21550947,4.47619978 1.12173129,4.24772475 C1.02916141,4.02042175 0.958827773,3.79134295 0.910730388,3.56048835 C0.862651037,3.32963374 0.835599639,3.10174473 0.829576195,2.87680355 C0.823570784,2.65186238 0.829576195,2.45948946 0.84761046,2.29966704 C0.865644725,2.13984462 0.901713255,1.95929856 0.95581605,1.75804661 C1.00991885,1.55679467 1.08807935,1.34369811 1.1902615,1.11875694 L1.34355275,0.781354051 L1.35256988,0.754716981 L1.36158702,0.728079911 L1.36701533,0.724528302 L1.37060415,0.719200888 L1.374211,0.713873474 L1.37962128,0.710321865 L1.38504959,0.713873474 L1.38863841,0.719200888 L1.39224527,0.724528302 L1.39765555,0.728079911 L1.40308386,0.731631521 L1.40667268,0.736958935 L1.41027953,0.742286349 L1.41568981,0.745837958 L1.42470694,0.763596004 L1.43372408,0.781354051 L1.43915239,0.78490566 L1.44274121,0.790233074 L1.68620379,1.05660377 C1.84851217,1.23418424 2.04088368,1.43248835 2.26330027,1.65149834 C2.4857349,1.87050832 2.60896303,1.98415982 2.63300271,1.99245283 C2.65706041,2.00191787 2.6871055,2.02914095 2.72317403,2.07413984 C2.75924256,2.11794895 2.87947701,2.22272142 3.08385933,2.38845727 C3.28825969,2.55419312 3.55576195,2.7465838 3.88638413,2.96559378 C4.21702435,3.18460377 4.58371506,3.40066593 4.9864743,3.61376249 C5.38925158,3.82685905 5.82207394,4.01923196 6.28494139,4.190899 C6.74782687,4.36256604 7.07244364,4.47502775 7.2587917,4.52830189 C7.4451578,4.58157603 7.76375113,4.64964262 8.21460775,4.73251942 C8.66546438,4.81539623 9.00512173,4.86867037 9.23354373,4.89234184 C9.46198377,4.91601332 9.61828674,4.92963374 9.70243463,4.93318535 L9.82867448,4.93673696 L9.82508566,4.91009989 L9.81965735,4.88346282 L9.78358882,4.66148724 C9.75954914,4.51350943 9.74752029,4.3063263 9.74752029,4.0399556 C9.74752029,3.77358491 9.76856628,3.52793785 9.81064022,3.30299667 C9.85273219,3.07805549 9.91585212,2.85016648 10,2.61931188 C10.0841659,2.38845727 10.1665284,2.20316981 10.2470694,2.06348502 C10.3288368,1.92497225 10.4358341,1.76692564 10.5680794,1.58934517 C10.7003427,1.41176471 10.8716682,1.22827081 11.0820559,1.03884573 C11.2924617,0.849420644 11.5329125,0.680719201 11.8034265,0.532741398 C12.0739405,0.384763596 12.3234265,0.272284129 12.5518485,0.195338513 C12.7802885,0.118392897 12.9726601,0.0680665927 13.128945,0.0443951165 C13.285248,0.0207236404 13.3633904,0.00710321865 13.3633904,0.00355160932 Z" id="Path"></path>
            </g>
        </g>
    </g>
</svg>
