<svg width="32" height="32" id="icon" viewBox="0 0 32 32" fill="none" xmlns="http://www.w3.org/2000/svg">
<path d="M14.8605 9.60239C14.6801 9.59033 14.4939 9.63193 14.3261 9.73448C13.8789 10.0084 13.7292 10.6094 13.9915 11.0765L14.8413 12.5907L12.0885 17.4963H9.89863C9.38048 17.4963 8.95996 17.9354 8.95996 18.4765C8.95996 19.0175 9.38048 19.4566 9.89863 19.4566H17.132C17.2057 19.0827 17.1607 18.6772 16.9542 18.3023L16.9524 18.3003C16.7707 17.97 16.5188 17.7002 16.2255 17.4963H14.2647L17.8672 11.0755C18.1291 10.6085 17.979 10.0079 17.5317 9.73448C17.084 9.46101 16.5093 9.61776 16.2475 10.0848L15.9294 10.6515L15.6113 10.0848C15.4473 9.7929 15.1612 9.62247 14.8605 9.60239ZM17.5537 13.547L17.166 14.2199C16.7379 14.9628 16.7241 15.8824 17.1155 16.6415L20.0709 21.908C20.2455 22.2197 20.5588 22.3923 20.8812 22.3923C21.0422 22.3923 21.2059 22.3495 21.3551 22.2583C21.8024 21.9848 21.9521 21.3843 21.6897 20.9173L20.8702 19.4566H22.1013C22.6194 19.4566 23.04 19.0175 23.04 18.4765C23.04 17.9354 22.6194 17.4963 22.1013 17.4963H19.7702L17.5537 13.547ZM11.1306 20.4387C10.8692 20.4309 10.6152 20.4732 10.3735 20.5526L10.1645 20.924C9.9021 21.3905 10.0527 21.9915 10.5 22.265C10.6492 22.3567 10.812 22.4 10.973 22.4C11.2954 22.4 11.6091 22.2259 11.7842 21.9147L12.2893 21.0149C12.0147 20.6802 11.6135 20.4534 11.1334 20.4387H11.1306Z" fill="currentColor"/>
<path d="M23 4H4V23L9 28H28V9L23 4Z" stroke="currentColor" stroke-width="2"/>
</svg>
