<svg width="157" height="16" viewBox="0 0 157 16" fill="none" xmlns="http://www.w3.org/2000/svg">
<g opacity="0.2">
<path d="M0.42 8.62L0.42 7.58L5.68 5.28V6.4L1.74 8.07V8.13L5.68 9.88V11L0.42 8.62ZM7.30445 5.34V4H8.46445V5.34L8.30445 9.11H7.46445L7.30445 5.34ZM7.21445 10.62V10.09L7.59445 9.71H8.17445L8.55445 10.09V10.62L8.17445 11H7.59445L7.21445 10.62ZM10.1512 7.95H13.4712V8.93H10.1512V7.95ZM14.8699 7.95H18.1899V8.93L14.8699 8.93V7.95ZM22.8656 9.87V5.13L23.9956 4L27.2756 4L28.3856 5.11V6.03H27.2256V5.52L26.6956 5L24.5956 5L24.0256 5.56V9.44L24.5956 10H26.6956L27.2256 9.48V8.97L28.3856 8.97V9.89L27.2756 11H23.9956L22.8656 9.87ZM31.8314 4H32.9314L35.4614 11H34.2814L33.6814 9.34H31.0714L30.4714 11H29.2914L31.8314 4ZM33.4114 8.37L32.3814 5.41H32.3614L31.3514 8.37H33.4114ZM36.7586 4L37.9186 4V10.01L41.4386 10.01V11L36.7586 11V4ZM42.7859 4L43.9459 4V10.01H47.4659V11H42.7859V4ZM53.5402 4.99L51.4402 4.99V4L56.8002 4V4.99H54.7002V11H53.5402V4.99ZM57.9555 9.87V5.13L59.0855 4L62.5455 4L63.6755 5.13V9.87L62.5455 11L59.0855 11L57.9555 9.87ZM61.9455 10L62.5155 9.44V5.56L61.9455 5H59.6855L59.1155 5.56V9.44L59.6855 10L61.9455 10ZM70.5462 4H71.6463L74.1763 11H72.9963L72.3963 9.34L69.7863 9.34L69.1863 11H68.0063L70.5462 4ZM72.1263 8.37L71.0963 5.41H71.0763L70.0663 8.37L72.1263 8.37ZM75.227 9.87V5.13L76.357 4L79.637 4L80.747 5.11V6.03L79.587 6.03V5.52L79.057 5H76.957L76.387 5.56V9.44L76.957 10H79.057L79.587 9.48V8.97H80.747V9.89L79.637 11H76.357L75.227 9.87ZM83.8527 4.99H81.7527V4L87.1127 4V4.99L85.0127 4.99V11H83.8527V4.99ZM88.5645 4H89.7245V11H88.5645V4ZM91.5707 9.87V5.13L92.7007 4L96.1607 4L97.2907 5.13V9.87L96.1607 11L92.7007 11L91.5707 9.87ZM95.5607 10L96.1307 9.44V5.56L95.5607 5H93.3007L92.7307 5.56V9.44L93.3007 10L95.5607 10ZM99.0945 4H100.155L103.455 9.09H103.475V4L104.585 4V11H103.525L100.225 5.92H100.205V11H99.0945V4ZM109.366 7.95H112.686V8.93H109.366V7.95ZM114.085 7.95H117.405V8.93L114.085 8.93V7.95ZM118.804 9.88L122.744 8.13V8.07L118.804 6.4V5.28L124.064 7.58V8.62L118.804 11V9.88Z" fill="#CEC0AD"/>
</g>
</svg>
