<svg width="41" height="468" viewBox="0 0 41 468" fill="none" xmlns="http://www.w3.org/2000/svg">
<line opacity="0.2" x1="40.5" y1="2.18558e-08" x2="40.5" y2="468" stroke="#CEC0AD"/>
<path opacity="0.2" d="M23.87 49.1227L19.13 49.1227L18 47.9927L18 44.7127L19.11 43.6027L20.03 43.6027L20.03 44.7627L19.52 44.7627L19 45.2927L19 47.3927L19.56 47.9627L23.44 47.9627L24 47.3927L24 45.2927L23.48 44.7627L22.97 44.7627L22.97 43.6027L23.89 43.6027L25 44.7127L25 47.9927L23.87 49.1227ZM18 42.048L18 40.888L24.01 40.888L24.01 37.368L25 37.368L25 42.048L18 42.048ZM23.83 36.1672L18 36.1672L18 35.0072L23.44 35.0072L24 34.4372L24 32.3772L23.44 31.8072L18 31.8072L18 30.6472L23.83 30.6472L25 31.8172L25 34.9972L23.83 36.1672ZM18.99 27.1434L18.99 29.2434L18 29.2434L18 23.8834L18.99 23.8834L18.99 25.9834L25 25.9834L25 27.1434L18.99 27.1434ZM18 22.4816L18 21.3216L21.01 21.3216L21.01 18.1416L18 18.1416L18 16.9816L25 16.9816L25 18.1416L22.01 18.1416L22.01 21.3216L25 21.3216L25 22.4816L18 22.4816Z" fill="#CEC0AD"/>
<path opacity="0.2" d="M23.87 115.123L19.13 115.123L18 113.993L18 110.713L19.11 109.603L20.03 109.603L20.03 110.763L19.52 110.763L19 111.293L19 113.393L19.56 113.963L23.44 113.963L24 113.393L24 111.293L23.48 110.763L22.97 110.763L22.97 109.603L23.89 109.603L25 110.713L25 113.993L23.87 115.123ZM18 108.048L18 106.888L24.01 106.888L24.01 103.368L25 103.368L25 108.048L18 108.048ZM23.83 102.167L18 102.167L18 101.007L23.44 101.007L24 100.437L24 98.3772L23.44 97.8072L18 97.8072L18 96.6472L23.83 96.6472L25 97.8172L25 100.997L23.83 102.167ZM18.99 93.1434L18.99 95.2434L18 95.2434L18 89.8834L18.99 89.8834L18.99 91.9834L25 91.9834L25 93.1434L18.99 93.1434ZM18 88.4816L18 87.3216L21.01 87.3216L21.01 84.1416L18 84.1416L18 82.9816L25 82.9816L25 84.1416L22.01 84.1416L22.01 87.3216L25 87.3216L25 88.4816L18 88.4816Z" fill="#CEC0AD"/>
<path opacity="0.2" d="M23.87 181.123L19.13 181.123L18 179.993L18 176.713L19.11 175.603L20.03 175.603L20.03 176.763L19.52 176.763L19 177.293L19 179.393L19.56 179.963L23.44 179.963L24 179.393L24 177.293L23.48 176.763L22.97 176.763L22.97 175.603L23.89 175.603L25 176.713L25 179.993L23.87 181.123ZM18 174.048L18 172.888L24.01 172.888L24.01 169.368L25 169.368L25 174.048L18 174.048ZM23.83 168.167L18 168.167L18 167.007L23.44 167.007L24 166.437L24 164.377L23.44 163.807L18 163.807L18 162.647L23.83 162.647L25 163.817L25 166.997L23.83 168.167ZM18.99 159.143L18.99 161.243L18 161.243L18 155.883L18.99 155.883L18.99 157.983L25 157.983L25 159.143L18.99 159.143ZM18 154.482L18 153.322L21.01 153.322L21.01 150.142L18 150.142L18 148.982L25 148.982L25 150.142L22.01 150.142L22.01 153.322L25 153.322L25 154.482L18 154.482Z" fill="#CEC0AD"/>
<path d="M23.87 254.037L19.13 254.037L18 252.907L18 249.627L19.11 248.517L20.03 248.517L20.03 249.677L19.52 249.677L19 250.207L19 252.307L19.56 252.877L23.44 252.877L24 252.307L24 250.207L23.48 249.677L22.97 249.677L22.97 248.517L23.89 248.517L25 249.627L25 252.907L23.87 254.037ZM18 246.962L18 245.802L24.01 245.802L24.01 242.282L25 242.282L25 246.962L18 246.962ZM23.83 241.081L18 241.081L18 239.921L23.44 239.921L24 239.351L24 237.291L23.44 236.721L18 236.721L18 235.561L23.83 235.561L25 236.731L25 239.911L23.83 241.081ZM18.99 232.057L18.99 234.157L18 234.157L18 228.797L18.99 228.797L18.99 230.897L25 230.897L25 232.057L18.99 232.057ZM23.87 227.642L19.13 227.642L18 226.512L18 223.232L19.11 222.122L20.03 222.122L20.03 223.282L19.52 223.282L19 223.812L19 225.912L19.56 226.482L23.44 226.482L24 225.912L24 223.812L23.48 223.282L22.97 223.282L22.97 222.122L23.89 222.122L25 223.232L25 226.512L23.87 227.642ZM18 220.568L18 219.408L21.01 219.408L21.01 216.228L18 216.228L18 215.068L25 215.068L25 216.228L22.01 216.228L22.01 219.408L25 219.408L25 220.568L18 220.568Z" fill="#CEC0AD"/>
<path opacity="0.2" d="M23.87 320.123L19.13 320.123L18 318.993L18 315.713L19.11 314.603L20.03 314.603L20.03 315.763L19.52 315.763L19 316.293L19 318.393L19.56 318.963L23.44 318.963L24 318.393L24 316.293L23.48 315.763L22.97 315.763L22.97 314.603L23.89 314.603L25 315.713L25 318.993L23.87 320.123ZM18 313.048L18 311.888L24.01 311.888L24.01 308.368L25 308.368L25 313.048L18 313.048ZM23.83 307.167L18 307.167L18 306.007L23.44 306.007L24 305.437L24 303.377L23.44 302.807L18 302.807L18 301.647L23.83 301.647L25 302.817L25 305.997L23.83 307.167ZM18.99 298.143L18.99 300.243L18 300.243L18 294.883L18.99 294.883L18.99 296.983L25 296.983L25 298.143L18.99 298.143ZM18 293.482L18 292.322L21.01 292.322L21.01 289.142L18 289.142L18 287.982L25 287.982L25 289.142L22.01 289.142L22.01 292.322L25 292.322L25 293.482L18 293.482Z" fill="#CEC0AD"/>
<path opacity="0.2" d="M23.87 386.123L19.13 386.123L18 384.993L18 381.713L19.11 380.603L20.03 380.603L20.03 381.763L19.52 381.763L19 382.293L19 384.393L19.56 384.963L23.44 384.963L24 384.393L24 382.293L23.48 381.763L22.97 381.763L22.97 380.603L23.89 380.603L25 381.713L25 384.993L23.87 386.123ZM18 379.048L18 377.888L24.01 377.888L24.01 374.368L25 374.368L25 379.048L18 379.048ZM23.83 373.167L18 373.167L18 372.007L23.44 372.007L24 371.437L24 369.377L23.44 368.807L18 368.807L18 367.647L23.83 367.647L25 368.817L25 371.997L23.83 373.167ZM18.99 364.143L18.99 366.243L18 366.243L18 360.883L18.99 360.883L18.99 362.983L25 362.983L25 364.143L18.99 364.143ZM18 359.482L18 358.322L21.01 358.322L21.01 355.142L18 355.142L18 353.982L25 353.982L25 355.142L22.01 355.142L22.01 358.322L25 358.322L25 359.482L18 359.482Z" fill="#CEC0AD"/>
<path opacity="0.2" d="M23.87 452.123L19.13 452.123L18 450.993L18 447.713L19.11 446.603L20.03 446.603L20.03 447.763L19.52 447.763L19 448.293L19 450.393L19.56 450.963L23.44 450.963L24 450.393L24 448.293L23.48 447.763L22.97 447.763L22.97 446.603L23.89 446.603L25 447.713L25 450.993L23.87 452.123ZM18 445.048L18 443.888L24.01 443.888L24.01 440.368L25 440.368L25 445.048L18 445.048ZM23.83 439.167L18 439.167L18 438.007L23.44 438.007L24 437.437L24 435.377L23.44 434.807L18 434.807L18 433.647L23.83 433.647L25 434.817L25 437.997L23.83 439.167ZM18.99 430.143L18.99 432.243L18 432.243L18 426.883L18.99 426.883L18.99 428.983L25 428.983L25 430.143L18.99 430.143ZM18 425.482L18 424.322L21.01 424.322L21.01 421.142L18 421.142L18 419.982L25 419.982L25 421.142L22.01 421.142L22.01 424.322L25 424.322L25 425.482L18 425.482Z" fill="#CEC0AD"/>
</svg>
