<svg width="310" height="309" viewBox="0 0 310 309" fill="none" xmlns="http://www.w3.org/2000/svg">
<g clip-path="url(#clip0_193:237)">
<path fill-rule="evenodd" clip-rule="evenodd" d="M310.893 308.903H152.867V239.489H155.027V306.735H308.733V3.25241H155.027V209.853H152.867V1.08398H310.893V308.903Z" fill="#1B1A19"/>
<path fill-rule="evenodd" clip-rule="evenodd" d="M153.947 260.45H309.813V258.281H153.947V260.45Z" fill="#1B1A19"/>
<path fill-rule="evenodd" clip-rule="evenodd" d="M173.552 188.62H290.207V25.9H173.552V188.62ZM171.392 190.789H292.368V23.7314H171.392V190.789Z" fill="#1B1A19"/>
<path fill-rule="evenodd" clip-rule="evenodd" d="M121.572 46.4999C121.572 51.2899 117.703 55.1735 112.931 55.1735C108.158 55.1735 104.289 51.2899 104.289 46.4999C104.289 41.7087 108.158 37.8262 112.931 37.8262C117.703 37.8262 121.572 41.7087 121.572 46.4999Z" fill="#1B1A19"/>
<path fill-rule="evenodd" clip-rule="evenodd" d="M246.19 284.212C246.19 292.147 239.783 298.578 231.88 298.578C223.975 298.578 217.568 292.147 217.568 284.212C217.568 276.278 223.975 269.847 231.88 269.847C239.783 269.847 246.19 276.278 246.19 284.212Z" fill="#1B1A19"/>
<path fill-rule="evenodd" clip-rule="evenodd" d="M231.755 63.7277C227.879 66.924 208.186 84.177 208.186 104.579C208.186 128.652 228.502 139.711 231.755 141.327C235.007 139.711 255.322 128.652 255.322 104.579C255.322 84.1608 235.633 66.9218 231.755 63.7277ZM231.755 143.711L231.321 143.52C231.067 143.408 206.026 132.056 206.026 104.579C206.026 80.9839 230.075 62.2618 231.098 61.4757L231.755 60.9727L232.411 61.4757C233.434 62.2618 257.483 80.9839 257.483 104.579C257.483 132.056 232.442 143.408 232.189 143.52L231.755 143.711Z" fill="#1B1A19"/>
<path fill-rule="evenodd" clip-rule="evenodd" d="M230.675 152.182H232.835V62.3379H230.675V152.182Z" fill="#1B1A19"/>
<path fill-rule="evenodd" clip-rule="evenodd" d="M230.991 107.195L211.032 87.161L212.56 85.6279L232.518 105.662L230.991 107.195Z" fill="#1B1A19"/>
<path fill-rule="evenodd" clip-rule="evenodd" d="M230.991 127.711L206.342 102.971L207.87 101.438L232.519 126.178L230.991 127.711Z" fill="#1B1A19"/>
<path fill-rule="evenodd" clip-rule="evenodd" d="M232.769 110.791L231.242 109.257L252.176 88.2441L253.703 89.7772L232.769 110.791Z" fill="#1B1A19"/>
<path fill-rule="evenodd" clip-rule="evenodd" d="M232.769 131.308L231.242 129.775L255.889 105.033L257.417 106.567L232.769 131.308Z" fill="#1B1A19"/>
<path fill-rule="evenodd" clip-rule="evenodd" d="M232.753 89.0176L231.225 87.4846L243.937 74.7256L245.464 76.2587L232.753 89.0176Z" fill="#1B1A19"/>
<path fill-rule="evenodd" clip-rule="evenodd" d="M230.801 84.917L219.904 73.9784L221.432 72.4453L232.328 83.3839L230.801 84.917Z" fill="#1B1A19"/>
<path fill-rule="evenodd" clip-rule="evenodd" d="M21.9843 255.508L27.8106 257.763L61.8803 230.159L57.3427 208.55L21.9843 255.508ZM28.1962 260.236L18.5322 256.496L58.4779 203.445L64.2674 231.011L28.1962 260.236Z" fill="#1B1A19"/>
<path fill-rule="evenodd" clip-rule="evenodd" d="M78.5108 275.751H83.9396C83.3779 269.53 80.8125 240.559 80.8125 229.756C80.8125 220.902 76.1593 210.403 76.1118 210.298L75.4302 208.774L77.0947 208.769C77.0947 208.769 101.398 208.709 114.339 208.709C121.456 208.709 144.43 206.587 145.138 179.663L67.907 192.62C64.9259 193.121 62.3454 194.777 60.642 197.282C58.9386 199.789 58.3435 202.805 58.9667 205.774L78.5108 275.751ZM86.3083 277.919H76.8722L56.8702 206.291C56.1065 202.669 56.8194 199.06 58.8576 196.06C60.8959 193.061 63.9829 191.08 67.5506 190.482L147.315 177.1V178.38C147.315 208.533 122.075 210.877 114.339 210.877C103.407 210.877 84.364 210.92 78.7214 210.935C80.05 214.259 82.9728 222.403 82.9728 229.756C82.9728 241.729 86.1668 276.386 86.1981 276.735L86.3083 277.919Z" fill="#1B1A19"/>
<path fill-rule="evenodd" clip-rule="evenodd" d="M79.0803 277.919C79.6668 280.573 80.5028 286.306 77.6512 289.212C74.1764 292.754 73.4733 295.265 73.4322 296.643L85.3224 288.647L84.1547 277.919H79.0803ZM72.3639 299.97L71.7763 299.011C71.5095 298.576 69.3665 294.565 76.112 287.69C78.4429 285.315 77.2958 279.275 76.6575 277.148L76.2384 275.75H86.0914L87.6122 289.717L72.3639 299.97Z" fill="#1B1A19"/>
<path fill-rule="evenodd" clip-rule="evenodd" d="M4.62184 261.041L16.7064 268.852L26.0691 259.413L20.6954 257.333C19.396 259.281 15.9104 263.781 12.3222 262.236C8.22303 260.469 5.8586 260.63 4.62184 261.041ZM17.0057 271.624L1.08014 261.33L1.74551 260.403C2.03174 260.006 4.77746 256.625 13.1745 260.244C15.3347 261.177 18.4185 256.989 19.3291 255.448L19.7946 254.661L29.9372 258.586L17.0057 271.624Z" fill="#1B1A19"/>
<path fill-rule="evenodd" clip-rule="evenodd" d="M65.5991 192.492L47.7012 157.953H71.0463L86.6359 188.039L84.7187 189.04L69.735 160.122H51.2603L67.5153 191.491L65.5991 192.492Z" fill="#1B1A19"/>
<path fill-rule="evenodd" clip-rule="evenodd" d="M83.5919 182.458L85.4152 185.977L114.78 177.732C123.715 175.223 129.956 166.966 129.956 157.653V128.295C129.956 125.757 129.373 123.683 128.27 122.297C127.369 121.164 126.136 120.541 124.8 120.541C121.843 120.541 118.7 123.575 118.7 129.2C118.7 129.456 118.622 154.897 111.984 161.56C107.12 166.444 87.8466 179.578 83.5919 182.458ZM84.3081 188.539L80.7847 181.738L81.5872 181.198C81.8227 181.039 105.243 165.26 110.457 160.026C115.421 155.043 116.539 135.613 116.539 129.2C116.539 122.167 120.796 118.372 124.8 118.372C126.807 118.372 128.638 119.285 129.958 120.944C131.37 122.718 132.116 125.259 132.116 128.295V157.653C132.116 167.935 125.226 177.05 115.362 179.82L84.3081 188.539Z" fill="#1B1A19"/>
<path fill-rule="evenodd" clip-rule="evenodd" d="M122.072 176.694C121.746 178.704 120.445 180.481 119.107 181.832L145.04 177.481C144.496 172.936 142.235 154.473 140.432 145.832C138.408 136.123 134.431 129.842 132.009 126.739L132.113 128.219L132.116 157.653C132.116 165.322 128.37 172.402 122.072 176.694ZM109.761 185.599L114.629 182.66C116.048 181.803 119.776 178.935 119.981 175.993L120.018 175.453L120.471 175.158C126.41 171.299 129.956 164.755 129.956 157.653V128.295L129.444 121.025L131.434 122.831C131.757 123.123 139.376 130.176 142.547 145.388C144.62 155.329 147.282 178.026 147.309 178.254L147.427 179.279L109.761 185.599Z" fill="#1B1A19"/>
<path fill-rule="evenodd" clip-rule="evenodd" d="M108.886 101.749C110.27 108.819 112.434 113.059 114.103 114.19C114.427 114.409 114.71 114.495 114.94 114.439C117.321 113.885 117.624 108.754 117.54 106.598C117.236 106.17 116.695 105.392 116.437 104.925C115.895 104.496 113.406 103.593 112.763 103.507C111.721 103.368 110.167 102.537 108.886 101.749ZM114.799 116.624C114.272 116.624 113.616 116.477 112.894 115.986C110.115 114.103 107.596 107.832 106.319 99.6214L105.924 97.0713L108.015 98.5718C109.52 99.6506 112.074 101.228 113.046 101.357C113.328 101.395 117.626 102.487 118.304 103.835C118.456 104.132 119.081 105.039 119.477 105.589L119.66 105.843L119.68 106.155C119.742 107.103 120.143 115.454 115.428 116.551C115.249 116.594 115.037 116.624 114.799 116.624Z" fill="#1B1A19"/>
<path fill-rule="evenodd" clip-rule="evenodd" d="M121.057 176.068C123.257 174.961 124.972 173.551 126.308 171.943C131.036 166.254 123.87 182.132 123.87 182.132L115.184 183.589C115.184 183.589 120.768 180.233 121.057 176.068Z" fill="#1B1A19"/>
<path fill-rule="evenodd" clip-rule="evenodd" d="M53.3134 238.584L57.9094 205.998L63.0735 230.586L53.3134 238.584Z" fill="#1B1A19"/>
<path fill-rule="evenodd" clip-rule="evenodd" d="M82.1879 182.849C77.1404 184.301 76.5063 189.704 76.5063 189.704L84.8623 188.009L82.1879 182.849Z" fill="#1B1A19"/>
<path fill-rule="evenodd" clip-rule="evenodd" d="M77.0981 209.854C77.0981 209.854 81.8929 220.567 81.8929 229.756C81.8929 232.223 82.0268 235.633 82.2385 239.489H219.684V209.854H77.0981Z" fill="#1B1A19"/>
<path fill-rule="evenodd" clip-rule="evenodd" d="M146.252 127.352C145.555 124.348 151.654 119.512 149.388 111.134C147.123 102.756 130.222 105.52 127.608 104.026C124.994 102.533 118.721 91.3536 111.577 92.0529C104.434 92.7523 103.768 102.252 108.07 104.866C108.07 104.866 108.356 105.379 108.839 106.208C108.273 104.22 107.776 101.96 107.387 99.4538C107.387 99.4538 111.226 102.209 112.905 102.433C113.707 102.539 117.023 103.693 117.341 104.324C117.599 104.834 118.603 106.226 118.603 106.226C118.603 106.226 119.142 114.575 115.184 115.496C115.093 115.517 115 115.511 114.908 115.517C117.41 118.832 119.985 121.422 121.448 120.534C132.824 113.63 141.206 144.319 141.206 144.319C141.206 144.319 151.654 138.751 151.479 134.903C151.305 131.055 146.949 130.355 146.252 127.352Z" fill="#1B1A19"/>
</g>
<defs>
<clipPath id="clip0_193:237">
<rect width="310" height="309" fill="white"/>
</clipPath>
</defs>
</svg>
