<svg width="16" height="16" viewBox="0 0 16 16" fill="none" xmlns="http://www.w3.org/2000/svg">
<path d="M8.01437 0.0600586C3.60484 0.0600586 0.0291748 3.69603 0.0291748 8.18158C0.0291748 11.7699 2.31717 14.8143 5.48994 15.8882C5.88901 15.9634 6.03552 15.712 6.03552 15.4975C6.03552 15.3038 6.02812 14.664 6.02468 13.9854C3.80319 14.4767 3.33443 13.0272 3.33443 13.0272C2.97119 12.0884 2.44782 11.8388 2.44782 11.8388C1.72332 11.3347 2.50243 11.3451 2.50243 11.3451C3.30428 11.4022 3.7265 12.182 3.7265 12.182C4.4387 13.4236 5.59453 13.0647 6.0502 12.8572C6.12187 12.3324 6.32881 11.9738 6.55718 11.7711C4.78356 11.5658 2.91909 10.8694 2.91909 7.75739C2.91909 6.87069 3.23103 6.14619 3.74184 5.57742C3.65893 5.37273 3.3856 4.54682 3.81919 3.42812C3.81919 3.42812 4.48974 3.20984 6.01569 4.26062C6.65265 4.08067 7.33575 3.99043 8.01437 3.98733C8.69298 3.99043 9.37661 4.08067 10.0148 4.26062C11.5389 3.20984 12.2085 3.42812 12.2085 3.42812C12.6431 4.54682 12.3697 5.37273 12.2868 5.57742C12.7988 6.14619 13.1086 6.87069 13.1086 7.75739C13.1086 10.8768 11.2405 11.5636 9.46243 11.7647C9.74885 12.0167 10.0041 12.511 10.0041 13.2687C10.0041 14.3553 9.9948 15.2299 9.9948 15.4975C9.9948 15.7136 10.1385 15.9669 10.5433 15.8871C13.7143 14.812 15.9994 11.7687 15.9994 8.18158C15.9994 3.69603 12.4243 0.0600586 8.01437 0.0600586" fill="#0C0C0C"/>
<path d="M3.05358 11.7207C3.03599 11.7612 2.97358 11.7732 2.91672 11.7454C2.8588 11.719 2.82627 11.6639 2.84505 11.6235C2.86224 11.5819 2.92478 11.5705 2.98257 11.598C3.04062 11.6247 3.07367 11.6802 3.05358 11.7207" fill="#0C0C0C"/>
<path d="M3.37706 12.0875C3.33897 12.1234 3.26453 12.1067 3.21402 12.05C3.16178 11.9934 3.152 11.9176 3.19061 11.8812C3.22988 11.8453 3.30208 11.8621 3.35444 11.9187C3.40668 11.976 3.41686 12.0512 3.37706 12.0875" fill="#0C0C0C"/>
<path d="M3.69187 12.5556C3.64295 12.5902 3.56295 12.5578 3.51349 12.4856C3.46457 12.4133 3.46457 12.3267 3.51455 12.292C3.56414 12.2573 3.64295 12.2885 3.69306 12.3602C3.74186 12.4335 3.74186 12.5203 3.69187 12.5556" fill="#0C0C0C"/>
<path d="M4.12321 13.0073C4.07944 13.0564 3.98622 13.0432 3.91799 12.9762C3.84817 12.9107 3.82873 12.8178 3.87263 12.7687C3.91693 12.7195 4.01068 12.7334 4.07944 12.7998C4.14873 12.8652 4.16989 12.9588 4.12321 13.0073" fill="#0C0C0C"/>
<path d="M4.71817 13.2697C4.69887 13.3333 4.60908 13.3622 4.51864 13.3352C4.42832 13.3073 4.36922 13.2328 4.38746 13.1685C4.40624 13.1045 4.49642 13.0744 4.58753 13.1033C4.67771 13.131 4.73695 13.205 4.71817 13.2697" fill="#0C0C0C"/>
<path d="M5.3717 13.3182C5.37395 13.3852 5.29726 13.4408 5.20232 13.4418C5.10685 13.4441 5.02962 13.3899 5.02856 13.324C5.02856 13.2564 5.10354 13.2014 5.19901 13.1998C5.29395 13.1979 5.3717 13.2517 5.3717 13.3182" fill="#0C0C0C"/>
<path d="M5.97986 13.213C5.99123 13.2783 5.92525 13.3455 5.83097 13.3632C5.73827 13.3806 5.65246 13.3402 5.64069 13.2754C5.62918 13.2084 5.69636 13.1413 5.78892 13.1239C5.88333 13.1073 5.96783 13.1465 5.97986 13.213" fill="#0C0C0C"/>
</svg>
