<svg width="32" height="32" id="icon" viewBox="0 0 32 32" fill="none" xmlns="http://www.w3.org/2000/svg">
<path d="M11.2582 8.32061C11.215 8.316 11.1763 8.33678 11.1309 8.33908C11.0923 8.34139 11.0604 8.33216 11.0218 8.33908C11.015 8.33908 11.0104 8.33908 11.0036 8.33908C10.9854 8.33908 10.9673 8.33908 10.9491 8.33908C10.8854 8.35294 10.8241 8.37833 10.7673 8.41297C10.7059 8.44529 10.6491 8.48916 10.6036 8.54226C10.3764 8.7362 10.24 9.03634 10.24 9.31801V22.7829C10.24 23.0738 10.3673 23.4247 10.6764 23.5956C10.6991 23.6071 10.7264 23.6048 10.7491 23.6141C10.7673 23.621 10.7854 23.6279 10.8036 23.6325C11.0809 23.7272 11.3695 23.6718 11.5854 23.5402C11.5923 23.5402 11.5968 23.5402 11.6036 23.5402C11.8536 23.3855 17.0763 20.1416 17.0763 20.1416L19.8581 18.4424C19.8581 18.4424 22.2172 16.9924 22.5308 16.7985C22.7967 16.6346 23.0445 16.3229 23.0399 15.9489C23.0354 15.5748 22.7808 15.2978 22.5308 15.1546C22.4513 15.1085 21.7513 14.6813 21.1127 14.2865C20.5013 13.9079 19.9649 13.58 19.9127 13.5477C19.8945 13.5339 19.8763 13.5223 19.8581 13.5108L17.0763 11.793C17.0763 11.793 12.015 8.67386 11.7127 8.48685C11.5786 8.40604 11.4195 8.33908 11.2582 8.32061ZM11.4036 10.1492L16.8945 15.9673L11.4036 21.7855V10.1492ZM14.2036 11.4052C15.2309 12.0378 16.4763 12.8089 16.4763 12.8089L18.6218 14.1388L17.6945 15.1177L14.2036 11.4052ZM19.6399 14.7668C19.8627 14.9053 20.0672 15.0277 20.5127 15.3024C20.999 15.6025 21.3377 15.7942 21.6218 15.9673C21.0877 16.2952 20.074 16.9301 19.6581 17.1864L18.5127 15.9673L19.6399 14.7668ZM17.6945 16.8354L18.6218 17.8144L16.4763 19.1442C16.4763 19.1442 15.2013 19.9223 14.1854 20.548L17.6945 16.8354Z" fill="currentColor"/>
<path d="M23 4H4V23L9 28H28V9L23 4Z" stroke="currentColor" stroke-width="2"/>
</svg>
