<svg width="84" height="24" viewBox="0 0 84 24" fill="none" xmlns="http://www.w3.org/2000/svg">
    <path fill-rule="evenodd" clip-rule="evenodd" d="M14.1972 16.5379L14.3944 17.748C13.0141 18.2522 9.95775 18.4539 7.98592 18.4539C2.26761 18.4539 0 16.4371 0 11.0925C0 5.64716 2.16901 3.83203 7.69014 3.83203C12.5211 3.83203 14.7887 5.2438 14.8873 8.16817C14.9859 10.6892 13.8028 12.0001 10.9437 12.0001H1.77465C2.07042 15.7312 3.94366 16.8404 8.1831 16.8404C10.3521 16.8404 12.6197 16.6388 14.1972 16.5379ZM1.67606 10.5883H10.4507C12.4225 10.5883 13.0141 9.57993 12.9155 8.16817C12.8169 6.2522 11.2394 5.34464 7.59155 5.34464C3.35211 5.44548 1.77465 6.65556 1.67606 10.5883Z" fill="#CEC0AD"/>
    <path fill-rule="evenodd" clip-rule="evenodd" d="M25.338 11.5967L19.6197 18.0505H17.4507L23.7605 10.8908L17.9436 4.23535H20.1127L25.2394 10.1849H26.1267L31.2535 4.23535H33.4225L27.6056 10.8908L33.9155 18.0505H31.7465L26.0281 11.5967H25.338Z" fill="#CEC0AD"/>
    <path fill-rule="evenodd" clip-rule="evenodd" d="M45.0563 19.0589C43.8732 21.479 42.1971 23.6975 38.5493 24.0001L38.3521 22.79C41.2112 21.9832 42.4929 20.6723 43.3802 18.8572L43.7746 18.0505H43.2817C42.9859 18.0505 42.6901 17.8488 42.5915 17.5463L35.7887 4.23535H37.7605L43.1831 15.0253C43.4788 15.5295 43.7746 16.1345 43.9718 16.6387H44.4648C44.7605 16.1345 45.0563 15.5295 45.2535 15.0253L50.676 4.23535H52.5493L45.0563 19.0589Z" fill="#CEC0AD"/>
    <path fill-rule="evenodd" clip-rule="evenodd" d="M59.3521 14.6219C59.3521 16.0337 60.2394 16.6387 62.1126 16.6387H65.0704L65.2676 18.0505C64.1831 18.2522 62.507 18.353 61.8169 18.353C59.0563 18.353 57.5774 17.1429 57.5774 14.9244V5.64712H54.4225V4.33619L57.5774 4.23535H59.3521H65.4647V5.64712H59.3521V14.6219Z" fill="#CEC0AD"/>
    <path fill-rule="evenodd" clip-rule="evenodd" d="M83.1127 16.5379L83.3099 17.748C81.9296 18.2522 78.8733 18.4539 76.9014 18.4539C71.1831 18.4539 68.9155 16.4371 68.9155 11.0925C68.9155 5.64716 71.0845 3.83203 76.6057 3.83203C81.4367 3.83203 83.7043 5.2438 83.8029 8.16817C83.9014 10.6892 82.7183 12.0001 79.8592 12.0001H70.7888C71.0845 15.7312 72.9578 16.8404 77.1972 16.8404C79.2676 16.8404 81.6338 16.6388 83.1127 16.5379ZM70.6902 10.5883H79.4648C81.4367 10.5883 82.0282 9.57993 81.9296 8.16817C81.831 6.2522 80.2536 5.34464 76.6057 5.34464C72.3662 5.44548 70.7888 6.65556 70.6902 10.5883Z" fill="#CEC0AD"/>
    <path fill-rule="evenodd" clip-rule="evenodd" d="M57.5775 3.42857V0H59.3522V1.41176L57.5775 3.42857Z" fill="#CEC0AD"/>
</svg>
