<?xml version="1.0" encoding="UTF-8"?>
<svg width="71px" height="20px" viewBox="0 0 71 20" version="1.1" xmlns="http://www.w3.org/2000/svg" xmlns:xlink="http://www.w3.org/1999/xlink">
    <!-- Generator: Sketch 53.2 (72643) - https://sketchapp.com -->
    <title>Logo</title>
    <desc>Created with Sketch.</desc>
    <g id="Part02" stroke="none" stroke-width="1" fill="none" fill-rule="evenodd">
        <g id="Exyte_Blog02" transform="translate(-80.000000, -60.000000)" fill="#000000">
            <g id="Navigation" transform="translate(80.000000, 59.000000)">
                <g id="Logo" transform="translate(0.000000, 1.000000)">
                    <path d="M12.0833333,13.7815126 L12.25,14.789916 C11.0833333,15.210084 8.5,15.3781513 6.83333333,15.3781513 C2,15.3781513 0.0833333333,13.697479 0.0833333333,9.24369748 C0.0833333333,4.70588235 1.91666667,3.19327731 6.58333333,3.19327731 C10.6666667,3.19327731 12.5833333,4.3697479 12.6666667,6.80672269 C12.75,8.90756303 11.75,10 9.33333333,10 L1.58333333,10 C1.83333333,13.1092437 3.41666667,14.0336134 7,14.0336134 C8.83333333,14.0336134 10.75,13.8655462 12.0833333,13.7815126 L12.0833333,13.7815126 Z M1.5,8.82352941 L8.91666667,8.82352941 C10.5833333,8.82352941 11.0833333,7.98319328 11,6.80672269 C10.9166667,5.21008403 9.58333333,4.45378151 6.5,4.45378151 C2.91666667,4.53781513 1.58333333,5.54621849 1.5,8.82352941 L1.5,8.82352941 Z" id="Shape"></path>
                    <polygon id="Shape" points="21.5 9.66386555 16.6666667 15.0420168 14.8333333 15.0420168 20.1666667 9.07563025 15.25 3.52941176 17.0833333 3.52941176 21.4166667 8.48739496 22.1666667 8.48739496 26.5 3.52941176 28.3333333 3.52941176 23.4166667 9.07563025 28.75 15.0420168 26.9166667 15.0420168 22.0833333 9.66386555 21.5 9.66386555"></polygon>
                    <path d="M38.1666667,15.8823529 C37.1666667,17.8991597 35.75,19.7478992 32.6666667,20 L32.5,18.9915966 C34.9166667,18.3193277 36,17.2268908 36.75,15.7142857 L37.0833333,15.0420168 L36.6666667,15.0420168 C36.4166667,15.0420168 36.1666667,14.8739496 36.0833333,14.6218487 L30.3333333,3.52941176 L32,3.52941176 L36.5833333,12.5210084 C36.8333333,12.9411765 37.0833333,13.4453782 37.25,13.8655462 L37.6666667,13.8655462 C37.9166667,13.4453782 38.1666667,12.9411765 38.3333333,12.5210084 L42.9166667,3.52941176 L44.5,3.52941176 L38.1666667,15.8823529 L38.1666667,15.8823529 Z" id="Shape"></path>
                    <path d="M50.25,12.1848739 C50.25,13.3613445 51,13.8655462 52.5833333,13.8655462 L55.0833333,13.8655462 L55.25,15.0420168 C54.3333333,15.210084 52.9166667,15.2941176 52.3333333,15.2941176 C50,15.2941176 48.75,14.2857143 48.75,12.4369748 L48.75,4.70588235 L46.0833333,4.70588235 L46.0833333,3.61344538 L48.75,3.52941176 L50.25,3.52941176 L55.4166667,3.52941176 L55.4166667,4.70588235 L50.25,4.70588235 L50.25,12.1848739 L50.25,12.1848739 Z" id="Shape"></path>
                    <path d="M70.3333333,13.7815126 L70.5,14.789916 C69.3333333,15.210084 66.75,15.3781513 65.0833333,15.3781513 C60.25,15.3781513 58.3333333,13.697479 58.3333333,9.24369748 C58.3333333,4.70588235 60.1666667,3.19327731 64.8333333,3.19327731 C68.9166667,3.19327731 70.8333333,4.3697479 70.9166667,6.80672269 C71,8.90756303 70,10 67.5833333,10 L59.9166667,10 C60.1666667,13.1092437 61.75,14.0336134 65.3333333,14.0336134 C67.0833333,14.0336134 69.0833333,13.8655462 70.3333333,13.7815126 L70.3333333,13.7815126 Z M59.8333333,8.82352941 L67.25,8.82352941 C68.9166667,8.82352941 69.4166667,7.98319328 69.3333333,6.80672269 C69.25,5.21008403 67.9166667,4.45378151 64.8333333,4.45378151 C61.25,4.53781513 59.9166667,5.54621849 59.8333333,8.82352941 L59.8333333,8.82352941 Z" id="Shape"></path>
                    <polygon id="Shape" points="48.75 2.85714286 48.75 0 50.25 0 50.25 1.17647059"></polygon>
                </g>
            </g>
        </g>
    </g>
</svg>