<svg width="369" height="23" viewBox="0 0 369 23" fill="none" xmlns="http://www.w3.org/2000/svg">
<path d="M143.561 14.712V13.816H144.611V14.362L145.283 15.048H148.643L149.343 14.334V12.136L148.643 11.45H144.877L143.589 10.162V7.488L144.877 6.2H148.993L150.281 7.488V8.398H149.245V7.838L148.545 7.152H145.339L144.639 7.838V9.812L145.339 10.498H149.105L150.393 11.786V14.684L149.077 16H144.849L143.561 14.712ZM151.798 14.712V10.316L153.086 9.028H156.6L157.902 10.316V12.822H152.834V14.39L153.534 15.076H156.152L156.852 14.39V13.858H157.888V14.712L156.6 16H153.086L151.798 14.712ZM156.866 11.926V10.638L156.166 9.952H153.534L152.834 10.638V11.926H156.866ZM159.506 9.028H160.514V10.512L161.998 9.028H164.14L165.428 10.316V16H164.392V10.638L163.692 9.952H162.278L160.542 11.688V16H159.506V9.028ZM167.043 14.712V10.316L168.331 9.028H171.019L172.167 10.036V6.004H173.203V16H172.195V14.726L170.921 16H168.331L167.043 14.712ZM170.697 15.076L172.167 13.606V11.128L170.823 9.952H168.779L168.079 10.638V14.39L168.779 15.076H170.697ZM177.952 14.852V13.074L179.1 11.94H182.824V10.61L182.124 9.924H179.744L179.044 10.61V11.184H178.008V10.316L179.296 9.028H182.558L183.846 10.316V16H182.852V14.768L181.564 16H179.1L177.952 14.852ZM181.354 15.104L182.824 13.69V12.836H179.548L178.988 13.382V14.558L179.548 15.104H181.354ZM188.801 6.004H189.837V16H188.801V6.004ZM191.592 14.712V10.316L192.88 9.028H196.394L197.696 10.316V12.822H192.628V14.39L193.328 15.076H195.946L196.646 14.39V13.858H197.682V14.712L196.394 16H192.88L191.592 14.712ZM196.66 11.926V10.638L195.96 9.952H193.328L192.628 10.638V11.926H196.66ZM199.93 14.712V9.938H198.67V9.028H199.958V6.76H200.966V9.028H203.15V9.938H200.966V14.39L201.666 15.09H203.15V16H201.218L199.93 14.712ZM205.105 14.712V9.938H203.845V9.028H205.133V6.76H206.141V9.028H208.325V9.938H206.141V14.39L206.841 15.09H208.325V16H206.393L205.105 14.712ZM209.305 14.712V10.316L210.593 9.028H214.107L215.409 10.316V12.822H210.341V14.39L211.041 15.076H213.659L214.359 14.39V13.858H215.395V14.712L214.107 16H210.593L209.305 14.712ZM214.373 11.926V10.638L213.673 9.952H211.041L210.341 10.638V11.926H214.373ZM217.013 9.028H218.021V10.274L219.267 9.028H221.073V9.952H219.533L218.049 11.436V16H217.013V9.028Z" fill="#0C0C0C"/>
<line x1="39" y1="5.5" x2="136" y2="5.5" stroke="#0C0C0C"/>
<line x1="228" y1="5.5" x2="347" y2="5.5" stroke="#0C0C0C"/>
<line y1="5.5" x2="18" y2="5.5" stroke="#0C0C0C"/>
<line x1="39" y1="9.5" x2="136" y2="9.5" stroke="#0C0C0C"/>
<line x1="228" y1="9.5" x2="347" y2="9.5" stroke="#0C0C0C"/>
<line y1="9.5" x2="18" y2="9.5" stroke="#0C0C0C"/>
<line x1="39" y1="13.5" x2="136" y2="13.5" stroke="#0C0C0C"/>
<line x1="228" y1="13.5" x2="347" y2="13.5" stroke="#0C0C0C"/>
<line y1="13.5" x2="18" y2="13.5" stroke="#0C0C0C"/>
<line x1="39" y1="17.5" x2="136" y2="17.5" stroke="#0C0C0C"/>
<line x1="228" y1="17.5" x2="347" y2="17.5" stroke="#0C0C0C"/>
<line y1="17.5" x2="18" y2="17.5" stroke="#0C0C0C"/>
<rect x="22.5" y="5.5" width="12" height="12" stroke="#0C0C0C"/>
<rect x="351.5" y="5.5" width="12" height="12" stroke="#0C0C0C"/>
<path d="M355 9L357.5 11.5M360 14L357.5 11.5M357.5 11.5L360 9L355 14" stroke="#0C0C0C"/>
</svg>
