<svg width="400" height="14" viewBox="0 0 400 14" fill="none" xmlns="http://www.w3.org/2000/svg">
<path d="M161.561 10.712V9.816H162.611V10.362L163.283 11.048H166.643L167.343 10.334V8.136L166.643 7.45H162.877L161.589 6.162V3.488L162.877 2.2H166.993L168.281 3.488V4.398H167.245V3.838L166.545 3.152H163.339L162.639 3.838V5.812L163.339 6.498H167.105L168.393 7.786V10.684L167.077 12H162.849L161.561 10.712ZM169.798 10.712V6.316L171.086 5.028H174.6L175.902 6.316V8.822H170.834V10.39L171.534 11.076H174.152L174.852 10.39V9.858H175.888V10.712L174.6 12H171.086L169.798 10.712ZM174.866 7.926V6.638L174.166 5.952H171.534L170.834 6.638V7.926H174.866ZM177.506 5.028H178.514V6.512L179.998 5.028H182.14L183.428 6.316V12H182.392V6.638L181.692 5.952H180.278L178.542 7.688V12H177.506V5.028ZM185.043 10.712V6.316L186.331 5.028H189.019L190.167 6.036V2.004H191.203V12H190.195V10.726L188.921 12H186.331L185.043 10.712ZM188.697 11.076L190.167 9.606V7.128L188.823 5.952H186.779L186.079 6.638V10.39L186.779 11.076H188.697ZM195.952 10.852V9.074L197.1 7.94H200.824V6.61L200.124 5.924H197.744L197.044 6.61V7.184H196.008V6.316L197.296 5.028H200.558L201.846 6.316V12H200.852V10.768L199.564 12H197.1L195.952 10.852ZM199.354 11.104L200.824 9.69V8.836H197.548L196.988 9.382V10.558L197.548 11.104H199.354ZM206.801 2.004H207.837V12H206.801V2.004ZM209.592 10.712V6.316L210.88 5.028H214.394L215.696 6.316V8.822H210.628V10.39L211.328 11.076H213.946L214.646 10.39V9.858H215.682V10.712L214.394 12H210.88L209.592 10.712ZM214.66 7.926V6.638L213.96 5.952H211.328L210.628 6.638V7.926H214.66ZM217.93 10.712V5.938H216.67V5.028H217.958V2.76H218.966V5.028H221.15V5.938H218.966V10.39L219.666 11.09H221.15V12H219.218L217.93 10.712ZM223.105 10.712V5.938H221.845V5.028H223.133V2.76H224.141V5.028H226.325V5.938H224.141V10.39L224.841 11.09H226.325V12H224.393L223.105 10.712ZM227.305 10.712V6.316L228.593 5.028H232.107L233.409 6.316V8.822H228.341V10.39L229.041 11.076H231.659L232.359 10.39V9.858H233.395V10.712L232.107 12H228.593L227.305 10.712ZM232.373 7.926V6.638L231.673 5.952H229.041L228.341 6.638V7.926H232.373ZM235.013 5.028H236.021V6.274L237.267 5.028H239.073V5.952H237.533L236.049 7.436V12H235.013V5.028Z" fill="#0C0C0C"/>
<line x1="39" y1="1.5" x2="154" y2="1.5" stroke="#0C0C0C"/>
<line x1="246" y1="1.5" x2="383" y2="1.5" stroke="#0C0C0C"/>
<line y1="1.5" x2="18" y2="1.5" stroke="#0C0C0C"/>
<line x1="39" y1="5.5" x2="154" y2="5.5" stroke="#0C0C0C"/>
<line x1="246" y1="5.5" x2="383" y2="5.5" stroke="#0C0C0C"/>
<line y1="5.5" x2="18" y2="5.5" stroke="#0C0C0C"/>
<line x1="39" y1="9.5" x2="154" y2="9.5" stroke="#0C0C0C"/>
<line x1="246" y1="9.5" x2="383" y2="9.5" stroke="#0C0C0C"/>
<line y1="9.5" x2="18" y2="9.5" stroke="#0C0C0C"/>
<line x1="39" y1="13.5" x2="154" y2="13.5" stroke="#0C0C0C"/>
<line x1="246" y1="13.5" x2="383" y2="13.5" stroke="#0C0C0C"/>
<line y1="13.5" x2="18" y2="13.5" stroke="#0C0C0C"/>
<rect x="22.5" y="1.5" width="12" height="12" stroke="#0C0C0C"/>
<rect x="387.5" y="1.5" width="12" height="12" stroke="#0C0C0C"/>
<path d="M391 5L393.5 7.5M396 10L393.5 7.5M393.5 7.5L396 5L391 10" stroke="#0C0C0C"/>
</svg>
